<?xml version="1.0" encoding="utf-8"?>
<!-- Generator: Adobe Illustrator 15.0.0, SVG Export Plug-In . SVG Version: 6.00 Build 0)  -->
<!DOCTYPE svg PUBLIC "-//W3C//DTD SVG 1.1//EN" "http://www.w3.org/Graphics/SVG/1.1/DTD/svg11.dtd">
<svg version="1.1"
	 id="svg2" xmlns:rdf="http://www.w3.org/1999/02/22-rdf-syntax-ns#" xmlns:svg="http://www.w3.org/2000/svg" xmlns:cc="http://creativecommons.org/ns#" xmlns:dc="http://purl.org/dc/elements/1.1/"
	 xmlns="http://www.w3.org/2000/svg" xmlns:xlink="http://www.w3.org/1999/xlink" x="0px" y="0px" width="314.667px" height="91px"
	 viewBox="0 0 314.667 91" enable-background="new 0 0 314.667 91" xml:space="preserve">
<path id="path14" fill="#506BBD" d="M0-0.006v52.61h15.616V15.61h36.997V-0.006H0"/>
<path id="path16" fill="#506BBD" d="M44.792,90.297c0.988-0.469,1.8-1.117,2.436-1.945c0.633-0.826,1.108-1.805,1.417-2.938
	c0.311-1.128,0.463-2.36,0.463-3.701c0-1.337-0.153-2.58-0.463-3.727c-0.309-1.146-0.784-2.14-1.417-2.974
	c-0.636-0.838-1.448-1.489-2.436-1.958c-0.987-0.469-2.159-0.703-3.516-0.703c-1.353,0-2.524,0.234-3.512,0.703
	c-0.988,0.469-1.799,1.12-2.436,1.958c-0.636,0.834-1.108,1.828-1.417,2.974c-0.311,1.146-0.467,2.39-0.467,3.727
	c0,1.341,0.156,2.573,0.467,3.701c0.308,1.133,0.78,2.111,1.417,2.938c0.637,0.828,1.448,1.477,2.436,1.945
	C38.752,90.768,39.924,91,41.277,91C42.633,91,43.805,90.768,44.792,90.297 M37.362,81.713c0-4.15,1.316-6.227,3.941-6.227
	c1.322,0,2.298,0.521,2.925,1.559c0.628,1.036,0.941,2.594,0.941,4.668c0,4.151-1.298,6.227-3.893,6.227
	C38.669,87.939,37.362,85.864,37.362,81.713 M52.774,90.697c0.518,0.102,1.053,0.153,1.606,0.153c0.553,0,1.097-0.052,1.633-0.153
	V79.227l7.028,11.471c0.553,0.102,1.062,0.153,1.532,0.153c0.435,0,0.918-0.052,1.454-0.153V72.65
	c-0.484-0.1-0.987-0.148-1.505-0.148c-0.553,0-1.129,0.049-1.731,0.148v11.498L55.811,72.65c-0.535-0.1-1.053-0.148-1.555-0.148
	c-0.469,0-0.964,0.049-1.482,0.148V90.697z M70.245,90.697c0.703,0.086,1.414,0.156,2.133,0.217C73.097,90.971,73.884,91,74.736,91
	c3.296,0,5.781-0.742,7.457-2.234c1.672-1.488,2.507-3.814,2.507-6.977c0-3.146-0.823-5.505-2.47-7.08
	c-1.65-1.57-4.054-2.357-7.218-2.357c-0.936,0-1.792,0.029-2.56,0.086c-0.769,0.061-1.506,0.131-2.208,0.213V90.697z M73.933,75.588
	c0.236-0.031,0.507-0.055,0.818-0.061c0.308-0.009,0.581-0.014,0.814-0.014c0.703,0,1.368,0.098,1.996,0.287
	c0.627,0.193,1.183,0.524,1.67,0.994c0.483,0.469,0.869,1.103,1.154,1.906c0.285,0.803,0.426,1.807,0.426,3.012
	c0,1.24-0.141,2.25-0.426,3.037c-0.285,0.789-0.671,1.416-1.154,1.883c-0.487,0.469-1.06,0.791-1.719,0.967
	c-0.662,0.176-1.376,0.262-2.147,0.262c-0.334,0-0.619-0.005-0.853-0.023c-0.233-0.017-0.426-0.033-0.579-0.051V75.588z
	 M88.366,90.697h10.417c0.101-0.5,0.15-1.027,0.15-1.58c0-0.518-0.049-1.028-0.15-1.531h-6.751v-4.768h5.22
	c0.101-0.52,0.153-1.047,0.153-1.582c0-0.504-0.052-1.021-0.153-1.557h-5.22v-3.916h6.576c0.101-0.501,0.149-1.027,0.149-1.581
	c0-0.519-0.048-1.028-0.149-1.532H88.366V90.697z M102.497,90.697c0.336,0.053,0.662,0.086,0.979,0.102
	c0.319,0.017,0.618,0.025,0.904,0.025c0.285,0,0.579-0.012,0.878-0.037c0.302-0.026,0.604-0.055,0.904-0.09V75.464
	c0.302-0.052,0.636-0.074,1.004-0.074c0.953,0,1.73,0.245,2.335,0.74c0.602,0.492,0.901,1.267,0.901,2.32
	c0,0.536-0.106,0.999-0.326,1.394c-0.216,0.394-0.48,0.728-0.789,1.005c-0.311,0.276-0.633,0.506-0.967,0.688
	c-0.334,0.184-0.619,0.336-0.855,0.451l-0.602,0.303l4.719,8.383c0.619,0.102,1.247,0.15,1.883,0.15c0.386,0,0.76-0.018,1.128-0.049
	c0.369-0.034,0.72-0.069,1.057-0.102l-4.394-7.629l0.427-0.276c0.267-0.167,0.552-0.392,0.854-0.665
	c0.299-0.277,0.579-0.607,0.841-0.994c0.259-0.383,0.472-0.831,0.638-1.342c0.167-0.509,0.251-1.099,0.251-1.77
	c0-1.121-0.222-2.045-0.665-2.772c-0.443-0.729-1.025-1.304-1.745-1.733c-0.72-0.427-1.526-0.723-2.422-0.891
	c-0.896-0.166-1.802-0.25-2.724-0.25c-0.785,0-1.503,0.029-2.145,0.086c-0.645,0.061-1.336,0.131-2.073,0.213V90.697z
	 M121.222,90.697c0.602,0.102,1.164,0.153,1.682,0.153c0.369,0,0.705-0.017,1.016-0.052c0.308-0.031,0.665-0.066,1.069-0.102
	l3.112-12.02l2.884,12.02c0.755,0.102,1.449,0.153,2.085,0.153c0.651,0,1.279-0.052,1.883-0.153l4.341-18.047
	c-0.301-0.031-0.609-0.064-0.929-0.1c-0.317-0.032-0.645-0.049-0.98-0.049c-0.552,0-1.086,0.049-1.605,0.148l-2.586,13.934
	l-3.235-13.934c-0.588-0.1-1.132-0.148-1.633-0.148c-0.302,0-0.593,0.012-0.878,0.037s-0.593,0.062-0.93,0.111l-3.113,13.582
	L120.82,72.65c-0.299-0.064-0.605-0.105-0.916-0.123c-0.308-0.018-0.613-0.025-0.917-0.025c-0.768,0-1.456,0.049-2.058,0.148
	L121.222,90.697z M142.031,90.697c0.619,0.102,1.237,0.153,1.856,0.153c0.585,0,1.199-0.052,1.832-0.153V72.65
	c-0.633-0.1-1.252-0.148-1.857-0.148c-0.602,0-1.212,0.049-1.831,0.148V90.697z M153.124,85.377c0,0.605-0.087,1.068-0.263,1.395
	c-0.175,0.324-0.394,0.572-0.653,0.738c-0.259,0.168-0.549,0.269-0.867,0.303c-0.317,0.035-0.619,0.049-0.904,0.049
	c-0.233,0-0.461-0.023-0.676-0.074c-0.219-0.049-0.418-0.092-0.603-0.123c-0.284,0.768-0.429,1.537-0.429,2.308
	c0,0.133,0.006,0.26,0.016,0.374c0.008,0.119,0.019,0.237,0.036,0.352c0.387,0.102,0.792,0.179,1.219,0.228
	c0.425,0.05,0.78,0.075,1.065,0.075c0.82,0,1.577-0.092,2.271-0.275c0.695-0.186,1.3-0.482,1.808-0.891
	c0.511-0.412,0.913-0.938,1.204-1.584c0.294-0.641,0.44-1.424,0.44-2.346V72.65h-6.651c-0.1,0.488-0.152,0.997-0.152,1.532
	c0,0.269,0.015,0.542,0.037,0.815c0.027,0.275,0.063,0.533,0.115,0.766h2.987V85.377z M165.625,82.918
	c0.299,0.119,0.594,0.24,0.878,0.363c0.286,0.127,0.539,0.281,0.767,0.467c0.225,0.184,0.408,0.408,0.55,0.676
	c0.144,0.269,0.216,0.602,0.216,1.006c0,0.803-0.303,1.4-0.904,1.793c-0.604,0.395-1.43,0.59-2.484,0.59
	c-0.703,0-1.365-0.071-1.983-0.213c-0.618-0.141-1.281-0.357-1.983-0.639c-0.185,0.535-0.345,1.064-0.475,1.592
	c-0.137,0.527-0.229,1.033-0.277,1.52c0.416,0.168,0.816,0.309,1.203,0.428c0.386,0.114,0.775,0.213,1.166,0.287
	c0.395,0.074,0.811,0.129,1.245,0.164C163.974,90.982,164.47,91,165.02,91c1.122,0,2.113-0.141,2.975-0.426
	c0.864-0.285,1.587-0.677,2.173-1.182c0.586-0.5,1.031-1.102,1.342-1.807c0.31-0.703,0.464-1.48,0.464-2.333
	c0-0.82-0.1-1.511-0.3-2.073c-0.201-0.558-0.482-1.036-0.842-1.428c-0.358-0.394-0.799-0.726-1.316-0.993
	c-0.52-0.268-1.098-0.526-1.734-0.776l-1.506-0.579c-0.25-0.099-0.5-0.205-0.751-0.314c-0.249-0.106-0.478-0.242-0.681-0.4
	c-0.197-0.157-0.357-0.351-0.475-0.579c-0.117-0.225-0.176-0.503-0.176-0.84c0-0.418,0.076-0.754,0.226-1.017
	c0.149-0.259,0.343-0.455,0.577-0.59c0.234-0.132,0.5-0.226,0.789-0.273c0.295-0.053,0.584-0.077,0.869-0.077
	c0.467,0,0.887,0.022,1.254,0.062c0.368,0.043,0.7,0.098,0.99,0.164c0.294,0.066,0.57,0.149,0.828,0.25
	c0.261,0.102,0.517,0.202,0.769,0.303c0.434-0.938,0.701-1.891,0.802-2.862c-0.82-0.284-1.604-0.503-2.348-0.653
	c-0.743-0.149-1.542-0.225-2.396-0.225c-0.936,0-1.781,0.112-2.533,0.337c-0.755,0.228-1.4,0.562-1.936,1.005
	s-0.95,0.991-1.24,1.644c-0.294,0.654-0.441,1.405-0.441,2.261c0,0.702,0.09,1.304,0.265,1.806c0.177,0.503,0.425,0.933,0.74,1.292
	s0.702,0.672,1.155,0.93c0.451,0.26,0.961,0.499,1.531,0.715L165.625,82.918z M181.385,90.697h10.417
	c0.101-0.5,0.148-1.027,0.148-1.58c0-0.518-0.048-1.028-0.148-1.531h-6.752v-4.768h5.221c0.102-0.52,0.152-1.047,0.152-1.582
	c0-0.504-0.051-1.021-0.152-1.557h-5.221v-3.916h6.576c0.1-0.501,0.149-1.027,0.149-1.581c0-0.519-0.05-1.028-0.149-1.532h-10.241
	V90.697z M195.339,90.697h10.418c0.102-0.5,0.152-1.027,0.152-1.58c0-0.518-0.051-1.028-0.152-1.531h-6.752v-4.768h5.22
	c0.102-0.52,0.153-1.047,0.153-1.582c0-0.504-0.052-1.021-0.153-1.557h-5.22v-3.916h6.576c0.102-0.501,0.152-1.027,0.152-1.581
	c0-0.519-0.051-1.028-0.152-1.532h-10.242V90.697z M209.097,90.697c0.566,0.102,1.12,0.153,1.656,0.153
	c0.5,0,1.019-0.052,1.557-0.153l0.353-12.424l3.411,8.662c0.236,0.049,0.461,0.082,0.68,0.1c0.215,0.018,0.435,0.023,0.649,0.023
	c0.252,0,0.504-0.012,0.756-0.037c0.249-0.023,0.492-0.053,0.727-0.086l3.664-8.485L223,90.697c0.553,0.102,1.115,0.153,1.682,0.153
	c0.57,0,1.172-0.052,1.81-0.153l-0.854-18.047c-0.587-0.1-1.197-0.148-1.833-0.148c-0.638,0-1.213,0.049-1.73,0.148l-4.268,10.342
	l-4.144-10.342c-0.636-0.1-1.277-0.148-1.933-0.148c-0.618,0-1.262,0.049-1.93,0.148L209.097,90.697z M235.25,82.918
	c0.3,0.119,0.593,0.24,0.879,0.363c0.282,0.127,0.537,0.281,0.765,0.467c0.227,0.184,0.41,0.408,0.55,0.676
	c0.146,0.269,0.218,0.602,0.218,1.006c0,0.803-0.303,1.4-0.904,1.793c-0.604,0.395-1.431,0.59-2.484,0.59
	c-0.707,0-1.365-0.071-1.984-0.213c-0.619-0.141-1.281-0.357-1.983-0.639c-0.185,0.535-0.343,1.064-0.476,1.592
	c-0.135,0.527-0.227,1.033-0.276,1.52c0.417,0.168,0.819,0.309,1.204,0.428c0.385,0.114,0.775,0.213,1.166,0.287
	c0.395,0.074,0.809,0.129,1.243,0.164c0.435,0.031,0.931,0.049,1.479,0.049c1.123,0,2.113-0.141,2.975-0.426
	c0.865-0.285,1.588-0.677,2.174-1.182c0.586-0.5,1.031-1.102,1.342-1.807c0.308-0.703,0.464-1.48,0.464-2.333
	c0-0.82-0.102-1.511-0.3-2.073c-0.201-0.558-0.482-1.036-0.84-1.428c-0.36-0.394-0.801-0.726-1.319-0.993s-1.097-0.526-1.733-0.776
	l-1.506-0.579c-0.25-0.099-0.502-0.205-0.751-0.314c-0.251-0.106-0.479-0.242-0.681-0.4c-0.197-0.157-0.359-0.351-0.475-0.579
	c-0.117-0.225-0.174-0.503-0.174-0.84c0-0.418,0.072-0.754,0.224-1.017c0.149-0.259,0.341-0.455,0.577-0.59
	c0.234-0.132,0.498-0.226,0.789-0.273c0.295-0.053,0.583-0.077,0.867-0.077c0.469,0,0.887,0.022,1.256,0.062
	c0.368,0.043,0.699,0.098,0.99,0.164c0.294,0.066,0.57,0.149,0.828,0.25c0.259,0.102,0.516,0.202,0.768,0.303
	c0.433-0.938,0.702-1.891,0.803-2.862c-0.82-0.284-1.604-0.503-2.348-0.653c-0.745-0.149-1.543-0.225-2.398-0.225
	c-0.935,0-1.781,0.112-2.531,0.337c-0.757,0.228-1.4,0.562-1.936,1.005c-0.537,0.443-0.951,0.991-1.241,1.644
	c-0.294,0.654-0.441,1.405-0.441,2.261c0,0.702,0.089,1.304,0.266,1.806c0.176,0.503,0.424,0.933,0.739,1.292
	c0.316,0.359,0.703,0.672,1.155,0.93c0.452,0.26,0.962,0.499,1.53,0.715L235.25,82.918z M244.94,90.697
	c0.702,0.086,1.413,0.156,2.134,0.217c0.715,0.057,1.505,0.086,2.358,0.086c3.294,0,5.781-0.742,7.453-2.234
	c1.672-1.488,2.509-3.814,2.509-6.977c0-3.146-0.822-5.505-2.471-7.08c-1.648-1.57-4.055-2.357-7.215-2.357
	c-0.939,0-1.793,0.029-2.561,0.086c-0.771,0.061-1.506,0.131-2.208,0.213V90.697z M248.628,75.588
	c0.232-0.031,0.506-0.055,0.812-0.061c0.312-0.009,0.583-0.014,0.818-0.014c0.703,0,1.369,0.098,1.996,0.287
	c0.629,0.193,1.185,0.524,1.67,0.994c0.484,0.469,0.869,1.103,1.154,1.906c0.283,0.803,0.426,1.807,0.426,3.012
	c0,1.24-0.143,2.25-0.426,3.037c-0.285,0.789-0.67,1.416-1.154,1.883c-0.485,0.469-1.061,0.791-1.721,0.967
	c-0.659,0.176-1.377,0.262-2.146,0.262c-0.334,0-0.618-0.005-0.852-0.023c-0.236-0.017-0.43-0.033-0.578-0.051V75.588z
	 M263.06,90.697h10.418c0.101-0.5,0.148-1.027,0.148-1.58c0-0.518-0.048-1.028-0.148-1.531h-6.753v-4.768h5.22
	c0.102-0.52,0.151-1.047,0.151-1.582c0-0.504-0.05-1.021-0.151-1.557h-5.22v-3.916h6.576c0.102-0.501,0.149-1.027,0.149-1.581
	c0-0.519-0.048-1.028-0.149-1.532H263.06V90.697z M277.016,90.697h9.864c0.052-0.282,0.084-0.555,0.102-0.814
	c0.016-0.259,0.025-0.521,0.025-0.789c0-0.235-0.01-0.48-0.025-0.742c-0.018-0.26-0.05-0.53-0.102-0.814h-6.251V72.65
	c-0.636-0.1-1.247-0.148-1.831-0.148c-0.57,0-1.164,0.049-1.782,0.148V90.697z M291.146,90.697c0.336,0.053,0.666,0.086,0.994,0.102
	c0.325,0.017,0.632,0.025,0.914,0.025c0.285,0,0.578-0.012,0.881-0.037c0.301-0.026,0.602-0.055,0.902-0.09V75.764h4.492
	c0.102-0.501,0.152-1.027,0.152-1.581c0-0.519-0.051-1.028-0.152-1.532h-12.674c-0.102,0.504-0.153,1.014-0.153,1.532
	c0,0.554,0.052,1.08,0.153,1.581h4.49V90.697z M299.228,90.697c0.605,0.102,1.215,0.153,1.834,0.153c0.553,0,1.131-0.052,1.73-0.153
	l1.031-3.612h5.973l1.004,3.612c0.604,0.102,1.225,0.153,1.857,0.153c0.652,0,1.324-0.052,2.01-0.153l-5.65-18.047
	c-0.383-0.049-0.734-0.086-1.053-0.111c-0.316-0.025-0.645-0.037-0.979-0.037c-0.387,0-0.738,0.012-1.055,0.037
	s-0.654,0.062-1.004,0.111L299.228,90.697z M304.675,84.047l2.186-7.58l2.082,7.58H304.675z"/>
<path id="path18" fill="#506BBD" d="M41.053,52.533c0.302,0.118,0.593,0.24,0.878,0.363c0.285,0.127,0.541,0.283,0.766,0.467
	c0.225,0.184,0.409,0.408,0.553,0.676c0.141,0.268,0.213,0.602,0.213,1.006c0,0.803-0.303,1.402-0.903,1.793
	c-0.603,0.395-1.432,0.591-2.485,0.591c-0.702,0-1.365-0.072-1.983-0.213c-0.62-0.142-1.278-0.357-1.981-0.64
	c-0.185,0.535-0.346,1.064-0.479,1.592c-0.134,0.527-0.227,1.034-0.276,1.521c0.418,0.167,0.82,0.309,1.204,0.426
	c0.386,0.118,0.775,0.214,1.169,0.288c0.392,0.074,0.806,0.129,1.241,0.164c0.435,0.032,0.93,0.049,1.482,0.049
	c1.12,0,2.111-0.141,2.974-0.426c0.861-0.285,1.583-0.676,2.171-1.181c0.584-0.501,1.034-1.103,1.342-1.806
	c0.312-0.705,0.466-1.482,0.466-2.334c0-0.821-0.1-1.512-0.302-2.07c-0.201-0.562-0.48-1.04-0.841-1.432
	c-0.36-0.394-0.8-0.725-1.318-0.992c-0.519-0.268-1.094-0.527-1.73-0.778l-1.506-0.579c-0.254-0.098-0.504-0.203-0.754-0.31
	c-0.251-0.109-0.478-0.245-0.677-0.403c-0.202-0.158-0.36-0.352-0.478-0.576c-0.118-0.227-0.175-0.507-0.175-0.844
	c0-0.417,0.075-0.754,0.227-1.016c0.15-0.259,0.342-0.455,0.576-0.587c0.233-0.135,0.499-0.227,0.792-0.276
	c0.291-0.052,0.582-0.078,0.864-0.078c0.469,0,0.887,0.023,1.255,0.063c0.369,0.043,0.7,0.098,0.993,0.164
	c0.291,0.066,0.568,0.15,0.827,0.25c0.259,0.101,0.515,0.202,0.766,0.303c0.435-0.939,0.703-1.892,0.803-2.862
	c-0.821-0.285-1.601-0.501-2.346-0.653c-0.746-0.15-1.543-0.225-2.396-0.225c-0.938,0-1.782,0.112-2.537,0.336
	c-0.751,0.228-1.396,0.562-1.931,1.005c-0.536,0.443-0.951,0.993-1.244,1.644c-0.294,0.654-0.438,1.405-0.438,2.26
	c0,0.702,0.086,1.305,0.261,1.805c0.176,0.504,0.424,0.936,0.741,1.293c0.319,0.363,0.702,0.672,1.154,0.931
	s0.964,0.498,1.532,0.714L41.053,52.533z M53.552,60.316c0.337,0.049,0.665,0.083,0.993,0.098c0.325,0.018,0.63,0.025,0.916,0.025
	c0.285,0,0.576-0.011,0.878-0.037c0.302-0.026,0.602-0.055,0.904-0.086V45.379h4.492c0.1-0.501,0.152-1.028,0.152-1.582
	c0-0.518-0.052-1.027-0.152-1.531H49.06c-0.101,0.504-0.15,1.013-0.15,1.531c0,0.554,0.05,1.08,0.15,1.582h4.492V60.316z
	 M64.271,60.316c0.619,0.098,1.237,0.15,1.856,0.15c0.584,0,1.195-0.053,1.832-0.15V42.267c-0.637-0.098-1.255-0.15-1.857-0.15
	c-0.602,0-1.211,0.052-1.831,0.15V60.316z M81.816,57.328c-0.469,0.083-1.013,0.126-1.633,0.126c-3.463,0-5.196-2.041-5.196-6.124
	c0-2.059,0.432-3.609,1.292-4.658c0.864-1.045,2.096-1.569,3.703-1.569c0.619,0,1.154,0.043,1.606,0.126
	c0.453,0.084,0.971,0.229,1.558,0.427c0.198-0.484,0.383-0.965,0.549-1.443c0.167-0.478,0.268-0.968,0.303-1.468
	c-0.787-0.317-1.518-0.526-2.196-0.627c-0.677-0.101-1.417-0.149-2.221-0.149c-1.355,0-2.565,0.233-3.627,0.702
	c-1.062,0.47-1.958,1.12-2.686,1.958c-0.729,0.838-1.284,1.828-1.669,2.974c-0.384,1.146-0.577,2.391-0.577,3.729
	c0,1.34,0.184,2.576,0.553,3.715c0.365,1.137,0.916,2.119,1.644,2.947c0.726,0.829,1.627,1.475,2.698,1.933
	c1.071,0.461,2.318,0.69,3.74,0.69c0.804,0,1.552-0.049,2.246-0.148c0.694-0.102,1.478-0.312,2.347-0.629
	c-0.067-0.501-0.17-0.999-0.314-1.494c-0.141-0.492-0.323-0.974-0.539-1.442C82.81,57.104,82.282,57.244,81.816,57.328
	 M86.984,60.316c0.619,0.098,1.237,0.15,1.86,0.15c0.584,0,1.195-0.053,1.831-0.15v-7.809h6.049v7.809
	c0.619,0.098,1.237,0.15,1.856,0.15c0.585,0,1.198-0.053,1.832-0.15V42.267c-0.633-0.098-1.253-0.15-1.857-0.15
	c-0.602,0-1.212,0.052-1.831,0.15v7.08h-6.049v-7.08c-0.636-0.098-1.255-0.15-1.857-0.15s-1.215,0.052-1.834,0.15V60.316z
	 M107.44,60.316c0.336,0.049,0.665,0.083,0.993,0.098c0.326,0.018,0.631,0.025,0.917,0.025s0.576-0.011,0.878-0.037
	s0.602-0.055,0.904-0.086V45.379h4.492c0.101-0.501,0.152-1.028,0.152-1.582c0-0.518-0.051-1.027-0.152-1.531h-12.674
	c-0.1,0.504-0.149,1.013-0.149,1.531c0,0.554,0.049,1.08,0.149,1.582h4.492V60.316z M118.159,60.316
	c0.62,0.098,1.239,0.15,1.857,0.15c0.584,0,1.195-0.053,1.831-0.15V42.267c-0.636-0.098-1.255-0.15-1.856-0.15
	s-1.212,0.052-1.832,0.15V60.316z M125.363,60.316c0.518,0.098,1.054,0.15,1.606,0.15c0.553,0,1.094-0.053,1.63-0.15V48.842
	l7.028,11.475c0.552,0.098,1.063,0.15,1.531,0.15c0.435,0,0.921-0.053,1.458-0.15V42.267c-0.487-0.098-0.988-0.15-1.507-0.15
	c-0.552,0-1.131,0.052-1.732,0.15v11.497l-6.977-11.497c-0.536-0.098-1.057-0.15-1.558-0.15c-0.47,0-0.962,0.052-1.48,0.15V60.316z
	 M152.044,57.302c-0.184,0.034-0.388,0.068-0.616,0.101c-0.224,0.035-0.481,0.052-0.766,0.052c-1.656,0-2.912-0.507-3.764-1.52
	c-0.854-1.011-1.281-2.549-1.281-4.604c0-2.059,0.434-3.609,1.293-4.658c0.861-1.045,2.096-1.569,3.703-1.569
	c0.619,0,1.155,0.043,1.607,0.126c0.452,0.084,0.97,0.229,1.555,0.427c0.201-0.484,0.385-0.965,0.553-1.443
	c0.167-0.478,0.267-0.968,0.301-1.468c-0.753-0.317-1.476-0.526-2.171-0.627c-0.693-0.101-1.445-0.149-2.248-0.149
	c-1.353,0-2.562,0.233-3.625,0.702c-1.063,0.47-1.958,1.12-2.687,1.958c-0.728,0.838-1.284,1.828-1.669,2.974
	s-0.576,2.391-0.576,3.729c0,1.34,0.184,2.576,0.549,3.715c0.37,1.137,0.923,2.119,1.659,2.947c0.737,0.829,1.656,1.475,2.761,1.933
	c1.103,0.461,2.394,0.69,3.864,0.69c0.703,0,1.529-0.055,2.473-0.161c0.944-0.108,1.854-0.321,2.724-0.642v-8.859
	c-0.636-0.102-1.247-0.152-1.832-0.152c-0.587,0-1.189,0.051-1.808,0.152V57.302z M168.685,60.316
	c0.383,0.049,0.734,0.086,1.054,0.112c0.317,0.025,0.646,0.038,0.979,0.038c0.369,0,0.715-0.013,1.043-0.038
	c0.325-0.026,0.664-0.063,1.015-0.112l5.823-18.049c-0.334-0.049-0.658-0.083-0.965-0.098c-0.311-0.018-0.617-0.026-0.918-0.026
	c-0.318,0-0.631,0.008-0.94,0.026c-0.311,0.015-0.632,0.049-0.966,0.098l-3.99,14.231l-3.941-14.231
	c-0.703-0.098-1.375-0.15-2.008-0.15c-0.285,0-0.613,0.017-0.979,0.052c-0.369,0.032-0.697,0.066-0.979,0.098L168.685,60.316z
	 M190.797,59.913c0.987-0.47,1.8-1.116,2.437-1.946c0.635-0.826,1.107-1.805,1.417-2.937c0.31-1.129,0.466-2.36,0.466-3.7
	c0-1.338-0.156-2.582-0.466-3.729s-0.782-2.136-1.417-2.974c-0.637-0.838-1.449-1.488-2.437-1.958
	c-0.987-0.469-2.159-0.702-3.513-0.702c-1.355,0-2.527,0.233-3.514,0.702c-0.99,0.47-1.801,1.12-2.436,1.958
	c-0.635,0.838-1.109,1.828-1.418,2.974c-0.311,1.146-0.465,2.391-0.465,3.729c0,1.34,0.154,2.571,0.465,3.7
	c0.309,1.132,0.783,2.11,1.418,2.937c0.635,0.83,1.445,1.477,2.436,1.946c0.986,0.47,2.158,0.702,3.514,0.702
	C188.638,60.615,189.81,60.383,190.797,59.913 M183.369,51.33c0-4.151,1.312-6.227,3.939-6.227c1.321,0,2.299,0.521,2.926,1.557
	c0.627,1.037,0.941,2.595,0.941,4.67c0,4.148-1.295,6.225-3.891,6.225C184.673,57.555,183.369,55.479,183.369,51.33 M209.02,59.913
	c0.987-0.47,1.8-1.116,2.435-1.946c0.637-0.826,1.109-1.805,1.42-2.937c0.309-1.129,0.463-2.36,0.463-3.7
	c0-1.338-0.154-2.582-0.463-3.729c-0.311-1.146-0.783-2.136-1.42-2.974c-0.635-0.838-1.447-1.488-2.435-1.958
	c-0.987-0.469-2.157-0.702-3.513-0.702c-1.356,0-2.527,0.233-3.516,0.702c-0.988,0.47-1.797,1.12-2.434,1.958
	c-0.635,0.838-1.109,1.828-1.418,2.974c-0.31,1.146-0.465,2.391-0.465,3.729c0,1.34,0.155,2.571,0.465,3.7
	c0.309,1.132,0.783,2.11,1.418,2.937c0.637,0.83,1.445,1.477,2.434,1.946s2.159,0.702,3.516,0.702
	C206.863,60.615,208.033,60.383,209.02,59.913 M201.591,51.33c0-4.151,1.312-6.227,3.941-6.227c1.322,0,2.295,0.521,2.922,1.557
	c0.628,1.037,0.941,2.595,0.941,4.67c0,4.148-1.295,6.225-3.889,6.225C202.894,57.555,201.591,55.479,201.591,51.33 M216.552,60.316
	c0.333,0.049,0.658,0.083,0.979,0.098c0.316,0.018,0.619,0.025,0.904,0.025c0.282,0,0.574-0.011,0.879-0.037
	c0.298-0.026,0.601-0.055,0.903-0.086V45.08c0.299-0.051,0.632-0.075,1.001-0.075c0.957,0,1.734,0.245,2.335,0.74
	c0.603,0.492,0.904,1.267,0.904,2.32c0,0.537-0.109,1.003-0.325,1.395c-0.219,0.395-0.482,0.729-0.793,1.005
	s-0.629,0.507-0.966,0.69c-0.333,0.185-0.618,0.335-0.853,0.449l-0.602,0.303l4.719,8.385c0.619,0.1,1.247,0.148,1.883,0.148
	c0.383,0,0.76-0.018,1.129-0.049c0.369-0.034,0.719-0.069,1.055-0.1l-4.395-7.63l0.429-0.276c0.265-0.168,0.55-0.39,0.853-0.666
	c0.303-0.275,0.58-0.607,0.841-0.992c0.259-0.385,0.472-0.833,0.639-1.342c0.167-0.51,0.251-1.101,0.251-1.771
	c0-1.12-0.222-2.044-0.664-2.772c-0.444-0.729-1.027-1.305-1.743-1.733c-0.72-0.426-1.529-0.723-2.424-0.889
	c-0.896-0.167-1.803-0.25-2.724-0.25c-0.785,0-1.5,0.029-2.146,0.086c-0.644,0.06-1.337,0.13-2.069,0.213V60.316z M234.724,60.316
	c0.334,0.049,0.665,0.083,0.992,0.098c0.325,0.018,0.629,0.025,0.914,0.025s0.579-0.011,0.877-0.037
	c0.303-0.026,0.605-0.055,0.906-0.086V45.379h4.493c0.097-0.501,0.149-1.028,0.149-1.582c0-0.518-0.053-1.027-0.149-1.531H230.23
	c-0.101,0.504-0.15,1.013-0.15,1.531c0,0.554,0.05,1.08,0.15,1.582h4.494V60.316z M254.4,57.302
	c-0.183,0.034-0.389,0.068-0.613,0.101c-0.227,0.035-0.48,0.052-0.766,0.052c-1.658,0-2.91-0.507-3.766-1.52
	c-0.853-1.011-1.277-2.549-1.277-4.604c0-2.059,0.429-3.609,1.293-4.658c0.859-1.045,2.092-1.569,3.698-1.569
	c0.62,0,1.155,0.043,1.606,0.126c0.452,0.084,0.971,0.229,1.558,0.427c0.201-0.484,0.387-0.965,0.554-1.443
	c0.166-0.478,0.268-0.968,0.3-1.468c-0.752-0.317-1.478-0.526-2.171-0.627c-0.695-0.101-1.442-0.149-2.246-0.149
	c-1.355,0-2.566,0.233-3.629,0.702c-1.061,0.47-1.957,1.12-2.686,1.958c-0.725,0.838-1.283,1.828-1.666,2.974
	c-0.387,1.146-0.58,2.391-0.58,3.729c0,1.34,0.186,2.576,0.553,3.715c0.37,1.137,0.922,2.119,1.656,2.947
	c0.736,0.829,1.659,1.475,2.762,1.933c1.105,0.461,2.393,0.69,3.865,0.69c0.704,0,1.527-0.055,2.475-0.161
	c0.944-0.108,1.85-0.321,2.721-0.642v-8.859c-0.634-0.102-1.247-0.152-1.831-0.152c-0.585,0-1.189,0.051-1.81,0.152V57.302z
	 M261.253,60.316h10.416c0.102-0.504,0.153-1.031,0.153-1.584c0-0.519-0.052-1.028-0.153-1.529h-6.751v-4.771h5.22
	c0.101-0.519,0.152-1.044,0.152-1.581c0-0.5-0.052-1.021-0.152-1.557h-5.22v-3.916h6.576c0.101-0.501,0.151-1.028,0.151-1.582
	c0-0.518-0.051-1.027-0.151-1.531h-10.241V60.316z M273.957,60.316h12.396c0.1-0.504,0.149-1.031,0.149-1.584
	c0-0.519-0.05-1.028-0.149-1.529h-7.129l7.506-14.634l-0.201-0.302h-12.098c-0.102,0.504-0.15,1.03-0.15,1.583
	c0,0.518,0.049,1.027,0.15,1.529h6.928l-7.579,14.683L273.957,60.316z M289.14,60.316h10.418c0.1-0.504,0.148-1.031,0.148-1.584
	c0-0.519-0.049-1.028-0.148-1.529h-6.753v-4.771h5.22c0.102-0.519,0.15-1.044,0.15-1.581c0-0.5-0.049-1.021-0.15-1.557h-5.22v-3.916
	h6.577c0.1-0.501,0.15-1.028,0.15-1.582c0-0.518-0.051-1.027-0.15-1.531H289.14V60.316z M305.982,60.316
	c0.336,0.049,0.664,0.083,0.992,0.098c0.324,0.018,0.631,0.025,0.916,0.025s0.574-0.011,0.877-0.037s0.602-0.055,0.904-0.086V45.379
	h4.492c0.1-0.501,0.152-1.028,0.152-1.582c0-0.518-0.053-1.027-0.152-1.531H301.49c-0.102,0.504-0.15,1.013-0.15,1.531
	c0,0.554,0.049,1.08,0.15,1.582h4.492V60.316"/>
</svg>
