<?xml version="1.0" encoding="utf-8"?>
<!-- Generator: Adobe Illustrator 23.0.5, SVG Export Plug-In . SVG Version: 6.00 Build 0)  -->
<svg version="1.1"
	 id="svg2" xmlns:cc="http://creativecommons.org/ns#" xmlns:dc="http://purl.org/dc/elements/1.1/" xmlns:rdf="http://www.w3.org/1999/02/22-rdf-syntax-ns#" xmlns:svg="http://www.w3.org/2000/svg"
	 xmlns="http://www.w3.org/2000/svg" xmlns:xlink="http://www.w3.org/1999/xlink" x="0px" y="0px" viewBox="0 0 886.2 324"
	 style="enable-background:new 0 0 886.2 324;" xml:space="preserve">
<style type="text/css">
	.st0{fill:#FFFFFF;}
	.st1{fill:#258B96;}
</style>
<path id="path14" class="st0" d="M90.6,114.3c-22.9,22.9-22,61,2,85.1c24,24,62.1,24.9,85.1,2c22.9-22.9,22-61-2-85.1
	C151.7,92.3,113.6,91.4,90.6,114.3"/>
<path id="path16" class="st0" d="M235,54.3L214,0l-53.4,24.2l11.7,78.2L235,54.3"/>
<path id="path18" class="st0" d="M74.3,205.8c0-2.7-2.2-4.9-4.8-4.9s-4.8,2.2-4.8,4.9c0,2.7,2.2,4.8,4.8,4.8S74.3,208.4,74.3,205.8"
	/>
<path id="path20" class="st0" d="M77.3,215.1c-2.7,0-4.8,2.2-4.8,4.8c0,2.7,2.2,4.9,4.8,4.9c2.7,0,4.8-2.2,4.8-4.9
	C82.1,217.3,80,215.1,77.3,215.1"/>
<path id="path22" class="st0" d="M91.9,234.1c0-2.7-2.2-4.9-4.8-4.9c-2.7,0-4.8,2.2-4.8,4.9c0,2.7,2.2,4.8,4.8,4.8
	C89.8,239,91.9,236.8,91.9,234.1"/>
<path id="path24" class="st0" d="M87.1,210.6c2.7,0,4.8-2.2,4.8-4.8c0-2.7-2.2-4.9-4.8-4.9c-2.7,0-4.8,2.2-4.8,4.9
	C82.2,208.4,84.4,210.6,87.1,210.6"/>
<path id="path26" class="st0" d="M99.4,248.3c0-2.7-2.2-4.8-4.8-4.8s-4.8,2.2-4.8,4.8s2.2,4.9,4.8,4.9
	C97.2,253.1,99.4,251,99.4,248.3"/>
<path id="path28" class="st0" d="M90.1,219.9c0,2.7,2.2,4.9,4.8,4.9s4.8-2.2,4.8-4.9c0-2.7-2.2-4.8-4.8-4.8S90.1,217.3,90.1,219.9"
	/>
<path id="path30" class="st0" d="M102.4,257.6c-2.7,0-4.8,2.2-4.8,4.9c0,2.7,2.2,4.8,4.8,4.8s4.8-2.2,4.8-4.8
	C107.2,259.8,105.1,257.6,102.4,257.6"/>
<path id="path32" class="st0" d="M104.7,239c2.7,0,4.8-2.2,4.8-4.8c0-2.7-2.2-4.9-4.8-4.9s-4.8,2.2-4.8,4.9
	C99.9,236.8,102,239,104.7,239"/>
<path id="path34" class="st0" d="M112.2,271.8c-2.7,0-4.8,2.2-4.8,4.8c0,2.7,2.2,4.9,4.8,4.9s4.8-2.2,4.8-4.9
	C117,274,114.9,271.8,112.2,271.8"/>
<path id="path36" class="st0" d="M104.7,210.6c2.7,0,4.8-2.2,4.8-4.8c0-2.7-2.2-4.9-4.8-4.9s-4.8,2.2-4.8,4.9
	C99.9,208.4,102,210.6,104.7,210.6"/>
<path id="path38" class="st0" d="M112.2,243.4c-2.7,0-4.8,2.2-4.8,4.8s2.2,4.9,4.8,4.9s4.8-2.2,4.8-4.9S114.9,243.4,112.2,243.4"/>
<path id="path40" class="st0" d="M107.7,219.9c0,2.7,2.2,4.9,4.8,4.9s4.8-2.2,4.8-4.9c0-2.7-2.2-4.8-4.8-4.8
	S107.7,217.3,107.7,219.9"/>
<path id="path42" class="st0" d="M120,267.3c2.7,0,4.8-2.2,4.8-4.8c0-2.7-2.2-4.9-4.8-4.9c-2.7,0-4.8,2.2-4.8,4.9
	C115.2,265.2,117.3,267.3,120,267.3"/>
<path id="path44" class="st0" d="M122.3,239c2.7,0,4.8-2.2,4.8-4.8c0-2.7-2.2-4.9-4.8-4.9c-2.7,0-4.8,2.2-4.8,4.9
	C117.5,236.8,119.7,239,122.3,239"/>
<path id="path46" class="st0" d="M129.8,271.8c-2.7,0-4.8,2.2-4.8,4.8c0,2.7,2.2,4.9,4.8,4.9c2.7,0,4.8-2.2,4.8-4.9
	C134.7,274,132.5,271.8,129.8,271.8"/>
<path id="path48" class="st0" d="M122.3,210.6c2.7,0,4.8-2.2,4.8-4.8c0-2.7-2.2-4.9-4.8-4.9c-2.7,0-4.8,2.2-4.8,4.9
	C117.5,208.4,119.7,210.6,122.3,210.6"/>
<path id="path50" class="st0" d="M129.8,243.4c-2.7,0-4.8,2.2-4.8,4.8s2.2,4.9,4.8,4.9c2.7,0,4.8-2.2,4.8-4.9
	S132.5,243.4,129.8,243.4"/>
<path id="path52" class="st0" d="M125.3,219.9c0,2.7,2.2,4.9,4.8,4.9s4.9-2.2,4.9-4.9c0-2.7-2.2-4.8-4.9-4.8
	S125.3,217.3,125.3,219.9"/>
<path id="path54" class="st0" d="M137.6,257.6c-2.7,0-4.8,2.2-4.8,4.9c0,2.7,2.2,4.8,4.8,4.8s4.9-2.2,4.9-4.8
	C142.5,259.8,140.3,257.6,137.6,257.6"/>
<path id="path56" class="st0" d="M140,239c2.7,0,4.9-2.2,4.9-4.8c0-2.7-2.2-4.9-4.9-4.9s-4.8,2.2-4.8,4.9
	C135.1,236.8,137.3,239,140,239"/>
<path id="path58" class="st0" d="M147.4,271.8c-2.7,0-4.8,2.2-4.8,4.8c0,2.7,2.2,4.9,4.8,4.9s4.9-2.2,4.9-4.9
	C152.3,274,150.1,271.8,147.4,271.8"/>
<path id="path60" class="st0" d="M140,210.6c2.7,0,4.9-2.2,4.9-4.8c0-2.7-2.2-4.9-4.9-4.9s-4.8,2.2-4.8,4.9
	C135.1,208.4,137.3,210.6,140,210.6"/>
<path id="path62" class="st0" d="M147.4,243.4c-2.7,0-4.8,2.2-4.8,4.8s2.2,4.9,4.8,4.9s4.9-2.2,4.9-4.9S150.1,243.4,147.4,243.4"/>
<path id="path64" class="st0" d="M143,219.9c0,2.7,2.2,4.9,4.9,4.9s4.8-2.2,4.8-4.9c0-2.7-2.2-4.8-4.8-4.8S143,217.3,143,219.9"/>
<path id="path66" class="st0" d="M155.3,267.3c2.7,0,4.8-2.2,4.8-4.8c0-2.7-2.2-4.9-4.8-4.9c-2.7,0-4.9,2.2-4.9,4.9
	C150.4,265.2,152.6,267.3,155.3,267.3"/>
<path id="path68" class="st0" d="M157.6,239c2.7,0,4.9-2.2,4.9-4.8c0-2.7-2.2-4.9-4.9-4.9c-2.7,0-4.9,2.2-4.9,4.9
	C152.8,236.8,154.9,239,157.6,239"/>
<path id="path70" class="st0" d="M165.1,271.8c-2.7,0-4.8,2.2-4.8,4.8c0,2.7,2.2,4.9,4.8,4.9c2.7,0,4.9-2.2,4.9-4.9
	C169.9,274,167.7,271.8,165.1,271.8"/>
<path id="path72" class="st0" d="M157.6,210.6c2.7,0,4.9-2.2,4.9-4.8c0-2.7-2.2-4.9-4.9-4.9c-2.7,0-4.9,2.2-4.9,4.9
	C152.8,208.4,154.9,210.6,157.6,210.6"/>
<path id="path74" class="st0" d="M165.1,243.4c-2.7,0-4.8,2.2-4.8,4.8s2.2,4.9,4.8,4.9c2.7,0,4.9-2.2,4.9-4.9
	S167.7,243.4,165.1,243.4"/>
<path id="path76" class="st0" d="M165.4,215.1c-2.7,0-4.8,2.2-4.8,4.8c0,2.7,2.2,4.9,4.8,4.9s4.9-2.2,4.9-4.9
	C170.3,217.3,168.1,215.1,165.4,215.1"/>
<path id="path78" class="st0" d="M172.9,257.6c-2.7,0-4.8,2.2-4.8,4.9c0,2.7,2.2,4.8,4.8,4.8s4.8-2.2,4.8-4.8
	C177.7,259.8,175.6,257.6,172.9,257.6"/>
<path id="path80" class="st0" d="M170.4,234.1c0,2.7,2.2,4.8,4.9,4.8c2.7,0,4.8-2.2,4.8-4.8c0-2.7-2.2-4.9-4.8-4.9
	C172.5,229.3,170.4,231.4,170.4,234.1"/>
<path id="path82" class="st0" d="M180.1,205.8c0-2.7-2.2-4.9-4.8-4.9c-2.7,0-4.9,2.2-4.9,4.9c0,2.7,2.2,4.8,4.9,4.8
	C177.9,210.6,180.1,208.4,180.1,205.8"/>
<path id="path84" class="st0" d="M182.7,243.4c-2.7,0-4.8,2.2-4.8,4.8s2.2,4.9,4.8,4.9c2.7,0,4.9-2.2,4.9-4.9
	S185.4,243.4,182.7,243.4"/>
<path id="path86" class="st0" d="M183.1,215.1c-2.7,0-4.9,2.2-4.9,4.8c0,2.7,2.2,4.9,4.9,4.9c2.7,0,4.8-2.2,4.8-4.9
	C187.9,217.3,185.7,215.1,183.1,215.1"/>
<path id="path88" class="st0" d="M192.9,229.3c-2.7,0-4.8,2.2-4.8,4.9c0,2.7,2.2,4.8,4.8,4.8s4.9-2.2,4.9-4.8
	C197.7,231.4,195.5,229.3,192.9,229.3"/>
<path id="path90" class="st0" d="M188,205.8c0,2.7,2.2,4.8,4.8,4.8s4.9-2.2,4.9-4.8c0-2.7-2.2-4.9-4.9-4.9S188,203.1,188,205.8"/>
<path id="path92" class="st0" d="M200.7,215.1c-2.7,0-4.8,2.2-4.8,4.8c0,2.7,2.2,4.9,4.8,4.9c2.7,0,4.9-2.2,4.9-4.9
	C205.5,217.3,203.4,215.1,200.7,215.1"/>
<path id="path94" class="st0" d="M210.5,200.9c-2.7,0-4.9,2.2-4.9,4.9c0,2.7,2.2,4.8,4.9,4.8c2.7,0,4.8-2.2,4.8-4.8
	C215.3,203.1,213.2,200.9,210.5,200.9"/>
<path id="path96" class="st0" d="M126.7,290.8c0-2.7-2.2-4.9-4.8-4.9c-2.7,0-4.8,2.2-4.8,4.9c0,2.7,2.2,4.9,4.8,4.9
	C124.6,295.7,126.7,293.5,126.7,290.8"/>
<path id="path98" class="st0" d="M129.7,300.2c-2.7,0-4.8,2.2-4.8,4.8c0,2.7,2.2,4.9,4.8,4.9s4.9-2.2,4.9-4.9
	C134.6,302.3,132.4,300.2,129.7,300.2"/>
<path id="path100" class="st0" d="M139.5,314.3c-2.7,0-4.8,2.2-4.8,4.9s2.2,4.9,4.8,4.9c2.7,0,4.9-2.2,4.9-4.9
	S142.2,314.3,139.5,314.3"/>
<path id="path102" class="st0" d="M134.7,290.8c0,2.7,2.2,4.9,4.8,4.9c2.7,0,4.9-2.2,4.9-4.9c0-2.7-2.2-4.9-4.9-4.9
	C136.8,286,134.7,288.2,134.7,290.8"/>
<path id="path104" class="st0" d="M147.3,300.2c-2.7,0-4.8,2.2-4.8,4.8c0,2.7,2.2,4.9,4.8,4.9s4.8-2.2,4.8-4.9
	C152.2,302.3,150,300.2,147.3,300.2"/>
<path id="path106" class="st0" d="M157.1,286c-2.7,0-4.8,2.2-4.8,4.9c0,2.7,2.2,4.9,4.8,4.9c2.7,0,4.8-2.2,4.8-4.9
	C162,288.2,159.8,286,157.1,286"/>
<path id="path108" class="st0" d="M5.2,71.3c-2.9,0-5.2,2.3-5.2,5.1c0,2.8,2.3,5.1,5.2,5.1c2.9,0,5.2-2.3,5.2-5.1
	C10.3,73.6,8,71.3,5.2,71.3"/>
<path id="path110" class="st0" d="M20.1,76.4c0,2.8,2.3,5.1,5.2,5.1c2.9,0,5.2-2.3,5.2-5.1c0-2.8-2.3-5.1-5.2-5.1
	C22.4,71.3,20.1,73.6,20.1,76.4"/>
<path id="path112" class="st0" d="M45.3,81.5c2.9,0,5.2-2.3,5.2-5.1c0-2.8-2.3-5.1-5.2-5.1s-5.2,2.3-5.2,5.1
	C40.1,79.2,42.4,81.5,45.3,81.5"/>
<path id="path114" class="st0" d="M65.3,71.1c-2.9,0-5.2,2.3-5.2,5.1c0,2.8,2.3,5.1,5.2,5.1s5.2-2.3,5.2-5.1
	C70.5,73.4,68.2,71.1,65.3,71.1"/>
<path id="path116" class="st0" d="M85.4,71.1c-2.9,0-5.2,2.3-5.2,5.1c0,2.8,2.3,5.1,5.2,5.1c2.9,0,5.2-2.3,5.2-5.1
	C90.6,73.4,88.2,71.1,85.4,71.1"/>
<path id="path118" class="st0" d="M105.4,81.3c2.9,0,5.2-2.3,5.2-5.1c0-2.8-2.3-5.1-5.2-5.1c-2.9,0-5.2,2.3-5.2,5.1
	C100.3,79,102.6,81.3,105.4,81.3"/>
<path id="path120" class="st0" d="M125.5,81.3c2.9,0,5.2-2.3,5.2-5.1c0-2.8-2.3-5.1-5.2-5.1c-2.9,0-5.2,2.3-5.2,5.1
	C120.3,79,122.6,81.3,125.5,81.3"/>
<path id="path122" class="st0" d="M145.5,81.3c2.9,0,5.2-2.3,5.2-5.1c0-2.8-2.3-5.1-5.2-5.1c-2.9,0-5.2,2.3-5.2,5.1
	C140.4,79,142.7,81.3,145.5,81.3"/>
<path id="path124" class="st0" d="M13.7,67.7c2.9,0,5.2-2.3,5.2-5.1c0-2.8-2.3-5.1-5.2-5.1s-5.2,2.3-5.2,5.1
	C8.6,65.4,10.9,67.7,13.7,67.7"/>
<path id="path126" class="st0" d="M22.5,51.7c2.9,0,5.2-2.3,5.2-5.1c0-2.8-2.3-5.1-5.2-5.1s-5.2,2.3-5.2,5.1
	C17.3,49.4,19.6,51.7,22.5,51.7"/>
<path id="path128" class="st0" d="M31.5,36.5c2.9,0,5.2-2.3,5.2-5.1c0-2.8-2.3-5.1-5.2-5.1s-5.2,2.3-5.2,5.1
	C26.3,34.3,28.7,36.5,31.5,36.5"/>
<path id="path130" class="st0" d="M41.3,20.2c2.9,0,5.2-2.3,5.2-5.1S44.1,10,41.3,10c-2.9,0-5.2,2.3-5.2,5.1
	C36.1,17.9,38.4,20.2,41.3,20.2"/>
<path id="path132" class="st0" d="M33.9,67.7c2.9,0,5.2-2.3,5.2-5.1c0-2.8-2.3-5.1-5.2-5.1c-2.9,0-5.2,2.3-5.2,5.1
	C28.8,65.4,31.1,67.7,33.9,67.7"/>
<path id="path134" class="st0" d="M37.9,46.6c0,2.8,2.3,5.1,5.2,5.1c2.9,0,5.2-2.3,5.2-5.1c0-2.8-2.3-5.1-5.2-5.1
	S37.9,43.8,37.9,46.6"/>
<path id="path136" class="st0" d="M52.6,36.5c2.9,0,5.2-2.3,5.2-5.1c0-2.8-2.3-5.1-5.2-5.1c-2.9,0-5.2,2.3-5.2,5.1
	C47.4,34.3,49.8,36.5,52.6,36.5"/>
<path id="path138" class="st0" d="M63.1,20.2c2.9,0,5.2-2.3,5.2-5.1S66,10,63.1,10s-5.2,2.3-5.2,5.1C57.9,17.9,60.3,20.2,63.1,20.2"
	/>
<path id="path140" class="st0" d="M49,62.6c0,2.8,2.3,5.1,5.2,5.1s5.2-2.3,5.2-5.1c0-2.8-2.3-5.1-5.2-5.1S49,59.8,49,62.6"/>
<path id="path142" class="st0" d="M68.9,46.6c0-2.8-2.3-5.1-5.2-5.1s-5.2,2.3-5.2,5.1c0,2.8,2.3,5.1,5.2,5.1
	C66.6,51.7,68.9,49.4,68.9,46.6"/>
<path id="path144" class="st0" d="M73.7,36.5c2.9,0,5.2-2.3,5.2-5.1c0-2.8-2.3-5.1-5.2-5.1c-2.9,0-5.2,2.3-5.2,5.1
	C68.5,34.3,70.9,36.5,73.7,36.5"/>
<path id="path146" class="st0" d="M85,20.2c2.9,0,5.2-2.3,5.2-5.1S87.8,10,85,10c-2.9,0-5.2,2.3-5.2,5.1
	C79.8,17.9,82.1,20.2,85,20.2"/>
<path id="path148" class="st0" d="M74.4,67.5c2.9,0,5.2-2.3,5.2-5.1c0-2.8-2.3-5.1-5.2-5.1s-5.2,2.3-5.2,5.1
	C69.2,65.2,71.5,67.5,74.4,67.5"/>
<path id="path150" class="st0" d="M84.4,51.5c2.9,0,5.2-2.3,5.2-5.1c0-2.8-2.3-5.1-5.2-5.1s-5.2,2.3-5.2,5.1
	C79.2,49.2,81.5,51.5,84.4,51.5"/>
<path id="path152" class="st0" d="M94.8,36.3c2.9,0,5.2-2.3,5.2-5.1c0-2.8-2.3-5.1-5.2-5.1s-5.2,2.3-5.2,5.1
	C89.6,34.1,92,36.3,94.8,36.3"/>
<path id="path154" class="st0" d="M106.8,20c2.9,0,5.2-2.3,5.2-5.1c0-2.8-2.3-5.1-5.2-5.1c-2.9,0-5.2,2.3-5.2,5.1S104,20,106.8,20"
	/>
<path id="path156" class="st0" d="M94.6,67.5c2.9,0,5.2-2.3,5.2-5.1c0-2.8-2.3-5.1-5.2-5.1c-2.9,0-5.2,2.3-5.2,5.1
	C89.4,65.2,91.7,67.5,94.6,67.5"/>
<path id="path158" class="st0" d="M105,51.5c2.9,0,5.2-2.3,5.2-5.1c0-2.8-2.3-5.1-5.2-5.1s-5.2,2.3-5.2,5.1
	C99.9,49.2,102.2,51.5,105,51.5"/>
<path id="path160" class="st0" d="M115.9,36.3c2.9,0,5.2-2.3,5.2-5.1c0-2.8-2.3-5.1-5.2-5.1c-2.9,0-5.2,2.3-5.2,5.1
	C110.7,34.1,113.1,36.3,115.9,36.3"/>
<path id="path162" class="st0" d="M114.8,67.5c2.9,0,5.2-2.3,5.2-5.1c0-2.8-2.3-5.1-5.2-5.1c-2.9,0-5.2,2.3-5.2,5.1
	C109.6,65.2,111.9,67.5,114.8,67.5"/>
<path id="path164" class="st0" d="M125.7,51.5c2.9,0,5.2-2.3,5.2-5.1c0-2.8-2.3-5.1-5.2-5.1c-2.9,0-5.2,2.3-5.2,5.1
	C120.5,49.2,122.8,51.5,125.7,51.5"/>
<path id="path166" class="st0" d="M135,67.5c2.9,0,5.2-2.3,5.2-5.1c0-2.8-2.3-5.1-5.2-5.1c-2.9,0-5.2,2.3-5.2,5.1
	C129.8,65.2,132.1,67.5,135,67.5"/>
<path id="path168" class="st0" d="M14.8,86.7c-2.9,0-5.2,2.3-5.2,5.1c0,2.8,2.3,5.1,5.2,5.1c2.9,0,5.2-2.3,5.2-5.1
	C20,88.9,17.7,86.7,14.8,86.7"/>
<path id="path170" class="st0" d="M29.8,106.9c0-2.8-2.3-5.1-5.2-5.1c-2.9,0-5.2,2.3-5.2,5.1s2.3,5.1,5.2,5.1
	C27.4,112,29.8,109.7,29.8,106.9"/>
<path id="path172" class="st0" d="M33.3,117.9c-2.9,0-5.2,2.3-5.2,5.1c0,2.8,2.3,5.1,5.2,5.1c2.9,0,5.2-2.3,5.2-5.1
	C38.5,120.2,36.2,117.9,33.3,117.9"/>
<path id="path174" class="st0" d="M43.1,133c-2.9,0-5.2,2.3-5.2,5.1s2.3,5.1,5.2,5.1s5.2-2.3,5.2-5.1S46,133,43.1,133"/>
<path id="path176" class="st0" d="M35.1,96.9c2.9,0,5.2-2.3,5.2-5.1c0-2.8-2.3-5.1-5.2-5.1c-2.9,0-5.2,2.3-5.2,5.1
	C29.9,94.6,32.2,96.9,35.1,96.9"/>
<path id="path178" class="st0" d="M45.1,101.6c-2.9,0-5.2,2.3-5.2,5.1c0,2.8,2.3,5.1,5.2,5.1s5.2-2.3,5.2-5.1
	C50.3,103.9,48,101.6,45.1,101.6"/>
<path id="path180" class="st0" d="M54.4,117.9c-2.9,0-5.2,2.3-5.2,5.1c0,2.8,2.3,5.1,5.2,5.1c2.9,0,5.2-2.3,5.2-5.1
	C59.6,120.2,57.3,117.9,54.4,117.9"/>
<path id="path182" class="st0" d="M65,133c-2.9,0-5.2,2.3-5.2,5.1s2.3,5.1,5.2,5.1c2.9,0,5.2-2.3,5.2-5.1S67.8,133,65,133"/>
<path id="path184" class="st0" d="M55.3,96.7c2.9,0,5.2-2.3,5.2-5.1s-2.3-5.1-5.2-5.1c-2.9,0-5.2,2.3-5.2,5.1S52.5,96.7,55.3,96.7"
	/>
<path id="path186" class="st0" d="M60.5,106.7c0,2.8,2.3,5.1,5.2,5.1s5.2-2.3,5.2-5.1c0-2.8-2.3-5.1-5.2-5.1S60.5,103.9,60.5,106.7"
	/>
<path id="path188" class="st0" d="M75.5,117.9c-2.9,0-5.2,2.3-5.2,5.1c0,2.8,2.3,5.1,5.2,5.1s5.2-2.3,5.2-5.1
	C80.6,120.2,78.3,117.9,75.5,117.9"/>
<path id="path190" class="st0" d="M86.8,133c-2.9,0-5.2,2.3-5.2,5.1s2.3,5.1,5.2,5.1c2.9,0,5.2-2.3,5.2-5.1S89.6,133,86.8,133"/>
<path id="path192" class="st0" d="M75.6,86.5c-2.9,0-5.2,2.3-5.2,5.1s2.3,5.1,5.2,5.1c2.9,0,5.2-2.3,5.2-5.1S78.4,86.5,75.6,86.5"/>
<path id="path194" class="st0" d="M86.2,111.8c2.9,0,5.2-2.3,5.2-5.1c0-2.8-2.3-5.1-5.2-5.1c-2.9,0-5.2,2.3-5.2,5.1
	C81.1,109.5,83.4,111.8,86.2,111.8"/>
<path id="path196" class="st0" d="M96.5,117.9c-2.9,0-5.2,2.3-5.2,5.1c0,2.8,2.3,5.1,5.2,5.1c2.9,0,5.2-2.3,5.2-5.1
	C101.7,120.2,99.4,117.9,96.5,117.9"/>
<path id="path198" class="st0" d="M108.6,133c-2.9,0-5.2,2.3-5.2,5.1s2.3,5.1,5.2,5.1c2.9,0,5.2-2.3,5.2-5.1S111.5,133,108.6,133"/>
<path id="path200" class="st0" d="M95.8,96.7c2.9,0,5.2-2.3,5.2-5.1s-2.3-5.1-5.2-5.1c-2.9,0-5.2,2.3-5.2,5.1S93,96.7,95.8,96.7"/>
<path id="path202" class="st0" d="M112,106.7c0-2.8-2.3-5.1-5.2-5.1c-2.9,0-5.2,2.3-5.2,5.1c0,2.8,2.3,5.1,5.2,5.1
	C109.6,111.8,112,109.5,112,106.7"/>
<path id="path204" class="st0" d="M117.6,117.9c-2.9,0-5.2,2.3-5.2,5.1c0,2.8,2.3,5.1,5.2,5.1c2.9,0,5.2-2.3,5.2-5.1
	C122.8,120.2,120.5,117.9,117.6,117.9"/>
<path id="path206" class="st0" d="M116.1,96.7c2.9,0,5.2-2.3,5.2-5.1s-2.3-5.1-5.2-5.1c-2.9,0-5.2,2.3-5.2,5.1
	S113.2,96.7,116.1,96.7"/>
<path id="path208" class="st0" d="M127.3,101.6c-2.9,0-5.2,2.3-5.2,5.1c0,2.8,2.3,5.1,5.2,5.1c2.9,0,5.2-2.3,5.2-5.1
	C132.5,103.9,130.2,101.6,127.3,101.6"/>
<path id="path210" class="st0" d="M141.5,91.6c0-2.8-2.3-5.1-5.2-5.1c-2.9,0-5.2,2.3-5.2,5.1s2.3,5.1,5.2,5.1
	C139.2,96.7,141.5,94.4,141.5,91.6"/>
<path id="path212" class="st0" d="M228.2,140.3l-82.9,28.5l3,8.6l82.9-28.5L228.2,140.3"/>
<path id="path214" class="st0" d="M218.2,111.3l-82.9,28.5l3,8.6l82.9-28.5L218.2,111.3"/>
<path id="path216" class="st0" d="M57,205.6H30.1v90.6h90.5v-26.9H57V205.6"/>
<path id="path218" class="st0" d="M248.7,269.3h-63.7v26.9h90.6v-90.6h-26.9V269.3"/>
<path id="path220" class="st0" d="M57,81.8h63.7V54.9H30.1v90.5H57L57,81.8"/>
<path id="path222" class="st0" d="M185.1,81.8h63.7v63.7h26.9V54.9h-90.6V81.8"/>
<path id="path224" class="st1" d="M363.5-218.8c-1.9,0-3.6,0.1-5.1,0.4l-12.5,30.3l-12.1-30.3c-1.9-0.3-3.8-0.4-5.7-0.4
	c-1.8,0-3.7,0.1-5.7,0.4l-2.1,52.9c1.7,0.3,3.3,0.4,4.9,0.4c1.5,0,3-0.1,4.6-0.4l1-36.4l10,25.4c0.7,0.1,1.3,0.2,2,0.3
	c0.6,0,1.3,0.1,1.9,0.1c0.7,0,1.5,0,2.2-0.1c0.7-0.1,1.4-0.2,2.1-0.3l10.7-24.9l1.3,35.9c1.6,0.3,3.3,0.4,4.9,0.4
	c1.7,0,3.4-0.1,5.3-0.4l-2.5-52.9C367.2-218.7,365.4-218.8,363.5-218.8"/>
<path id="path226" class="st1" d="M173.7-218.4l-10.3,24l-10.4-24c-1.9-0.3-3.7-0.4-5.6-0.4c-2.1,0-4.1,0.1-6.2,0.4l16.5,34v19
	c0.9,0.1,1.8,0.2,2.8,0.3c0.9,0,1.8,0.1,2.6,0.1c0.9,0,1.8,0,2.6-0.1c0.9,0,1.8-0.1,2.8-0.3v-19l16.5-34c-2-0.3-3.9-0.4-5.7-0.4
	C177.4-218.8,175.5-218.7,173.7-218.4"/>
<path id="path228" class="st1" d="M305.6-218.8c-0.8,0-1.7,0-2.6,0.1c-0.9,0.1-1.8,0.1-2.8,0.3v27.4c0,3-0.1,5.6-0.3,7.7
	c-0.2,2.1-0.7,3.9-1.3,5.3s-1.6,2.4-2.8,3.1c-1.2,0.7-2.7,1-4.6,1c-1.9,0-3.5-0.3-4.7-1c-1.2-0.7-2.1-1.7-2.8-3.1
	c-0.7-1.4-1.1-3.2-1.3-5.3c-0.2-2.1-0.3-4.7-0.3-7.7v-27.4c-0.9-0.1-1.8-0.2-2.7-0.3c-0.9,0-1.7-0.1-2.6-0.1c-0.9,0-1.8,0-2.7,0.1
	c-0.9,0.1-1.8,0.1-2.7,0.3v29.7c0,3.6,0.3,6.9,0.9,9.8c0.6,3,1.6,5.5,3.2,7.6c1.5,2.1,3.6,3.7,6.1,4.9c2.5,1.1,5.8,1.7,9.7,1.7
	c3.9,0,7.2-0.6,9.7-1.7c2.5-1.2,4.6-2.8,6.1-4.9c1.5-2.1,2.6-4.6,3.2-7.6c0.6-3,0.9-6.2,0.9-9.8v-29.7c-0.9-0.1-1.9-0.2-2.8-0.3
	C307.4-218.7,306.5-218.8,305.6-218.8"/>
<path id="path230" class="st1" d="M243.4-174.6v-14h15.3c0.3-1.5,0.4-3.1,0.4-4.6c0-1.5-0.1-3-0.4-4.6h-15.3v-11.5h19.3
	c0.3-1.5,0.4-3,0.4-4.6c0-1.5-0.1-3-0.4-4.5h-30v52.9h30.5c0.3-1.5,0.4-3,0.4-4.6c0-1.5-0.1-3-0.4-4.5L243.4-174.6"/>
<path id="path232" class="st1" d="M222.1-175.5c-1.7,0.6-3.3,1-4.6,1.2c-1.4,0.2-3,0.4-4.8,0.4c-10.1,0-15.2-6-15.2-17.9
	c0-6,1.3-10.6,3.8-13.6c2.5-3.1,6.1-4.6,10.8-4.6c1.8,0,3.4,0.1,4.7,0.4c1.3,0.2,2.8,0.7,4.6,1.3c0.6-1.4,1.1-2.8,1.6-4.2
	c0.5-1.4,0.8-2.8,0.9-4.3c-2.3-0.9-4.4-1.5-6.4-1.8c-2-0.3-4.2-0.4-6.5-0.4c-4,0-7.5,0.7-10.6,2.1c-3.1,1.4-5.7,3.3-7.9,5.7
	c-2.1,2.5-3.8,5.4-4.9,8.7c-1.1,3.4-1.7,7-1.7,10.9c0,3.9,0.5,7.6,1.6,10.9c1.1,3.3,2.7,6.2,4.8,8.6c2.1,2.4,4.8,4.3,7.9,5.7
	c3.1,1.3,6.8,2,11,2c2.4,0,4.5-0.1,6.6-0.4c2-0.3,4.3-0.9,6.9-1.8c-0.2-1.5-0.5-2.9-0.9-4.4C223.3-172.7,222.7-174.1,222.1-175.5"/>
<path id="path234" class="st1" d="M146.4-174.8H128v-43.6c-1.9-0.3-3.7-0.4-5.4-0.4c-1.7,0-3.4,0.1-5.2,0.4v52.9h28.9
	c0.1-0.8,0.2-1.6,0.3-2.4c0-0.8,0.1-1.5,0.1-2.3c0-0.7,0-1.4-0.1-2.2C146.6-173.1,146.5-173.9,146.4-174.8"/>
<path id="path236" class="st1" d="M500.5-274l6.4-22.2L513-274H500.5z M510.2-307.7c-0.9-0.1-1.9-0.1-2.9-0.1c-1.1,0-2.2,0-3.1,0.1
	c-0.9,0.1-1.9,0.2-2.9,0.3l-16.7,52.9c1.8,0.3,3.6,0.4,5.4,0.4c1.6,0,3.3-0.1,5.1-0.4l3-10.6h17.5l2.9,10.6c1.8,0.3,3.6,0.4,5.4,0.4
	c1.9,0,3.9-0.1,5.9-0.4l-16.5-52.9C512.1-307.6,511.1-307.7,510.2-307.7"/>
<path id="path238" class="st1" d="M122.6-261.3c2.1,2.4,4.8,4.3,7.9,5.7c3.1,1.3,6.8,2,11,2c2.4,0,4.5-0.1,6.6-0.4
	c2-0.3,4.3-0.9,6.9-1.8c-0.2-1.5-0.5-2.9-0.9-4.4c-0.4-1.4-0.9-2.9-1.6-4.2c-1.7,0.6-3.3,1-4.6,1.3c-1.4,0.2-3,0.4-4.8,0.4
	c-10.1,0-15.2-6-15.2-17.9c0-6,1.3-10.6,3.8-13.6c2.5-3.1,6.1-4.6,10.8-4.6c1.8,0,3.4,0.1,4.7,0.4c1.3,0.2,2.8,0.7,4.6,1.3
	c0.6-1.4,1.1-2.8,1.6-4.2c0.5-1.4,0.8-2.8,0.9-4.3c-2.3-0.9-4.5-1.5-6.4-1.8c-2-0.3-4.2-0.4-6.5-0.4c-4,0-7.5,0.7-10.6,2.1
	c-3.1,1.4-5.7,3.3-7.9,5.7c-2.1,2.5-3.8,5.4-4.9,8.7c-1.1,3.4-1.7,7-1.7,10.9c0,3.9,0.5,7.6,1.6,10.9
	C118.8-266.6,120.4-263.8,122.6-261.3"/>
<path id="path240" class="st1" d="M168.1-307.9c-1.7,0-3.4,0.1-5.2,0.4v52.9h28.9c0.1-0.8,0.2-1.6,0.3-2.4c0-0.8,0.1-1.5,0.1-2.3
	c0-0.7,0-1.4-0.1-2.2c0-0.8-0.1-1.6-0.3-2.4h-18.3v-43.6C171.6-307.7,169.8-307.9,168.1-307.9"/>
<path id="path242" class="st1" d="M239.5-307.9c-0.8,0-1.8,0-2.9,0.1c-1.1,0.1-2,0.2-2.9,0.3l16.9,52.9c1.1,0.1,2.2,0.3,3.1,0.3
	c0.9,0.1,1.9,0.1,2.9,0.1c1.1,0,2.1,0,3.1-0.1c1-0.1,1.9-0.2,3-0.3l17.1-52.9c-1-0.1-1.9-0.2-2.8-0.3c-0.9,0-1.8-0.1-2.7-0.1
	c-0.9,0-1.9,0-2.8,0.1c-0.9,0.1-1.9,0.1-2.8,0.3L257-265.7l-11.5-41.7C243.4-307.7,241.4-307.9,239.5-307.9"/>
<path id="path244" class="st1" d="M468.9-282v18.6c-0.5,0.1-1.1,0.2-1.8,0.3c-0.7,0.1-1.4,0.1-2.2,0.1c-4.9,0-8.5-1.5-11-4.4
	c-2.5-3-3.7-7.5-3.7-13.5c0-6,1.3-10.6,3.8-13.6c2.5-3.1,6.1-4.6,10.8-4.6c1.8,0,3.4,0.1,4.7,0.4c1.3,0.2,2.8,0.7,4.6,1.3
	c0.6-1.4,1.1-2.8,1.6-4.2c0.5-1.4,0.8-2.8,0.9-4.3c-2.2-0.9-4.3-1.5-6.4-1.8c-2-0.3-4.2-0.4-6.6-0.4c-4,0-7.5,0.7-10.6,2.1
	c-3.1,1.4-5.7,3.3-7.9,5.7c-2.1,2.5-3.8,5.4-4.9,8.7s-1.7,7-1.7,10.9c0,3.9,0.5,7.6,1.6,10.9c1.1,3.3,2.7,6.2,4.9,8.6
	c2.2,2.4,4.9,4.3,8.1,5.7c3.2,1.3,7,2,11.3,2c2.1,0,4.5-0.2,7.2-0.5s5.4-0.9,8-1.9v-26c-1.9-0.3-3.7-0.4-5.4-0.4
	S470.7-282.3,468.9-282"/>
<path id="path246" class="st1" d="M354.6-279.7c0.9-0.8,1.7-1.8,2.5-2.9c0.8-1.1,1.4-2.4,1.9-3.9c0.5-1.5,0.7-3.2,0.7-5.2
	c0-3.3-0.7-6-1.9-8.1c-1.3-2.1-3-3.8-5.1-5.1c-2.1-1.3-4.5-2.1-7.1-2.6c-2.6-0.5-5.3-0.7-8-0.7c-2.3,0-4.4,0.1-6.3,0.3
	c-1.9,0.2-3.9,0.4-6.1,0.6v52.9c1,0.1,1.9,0.2,2.9,0.3c0.9,0,1.8,0.1,2.6,0.1c0.8,0,1.7,0,2.6-0.1c0.9-0.1,1.8-0.2,2.6-0.3v-44.6
	c0.9-0.1,1.9-0.2,2.9-0.2c2.8,0,5.1,0.7,6.8,2.2c1.8,1.4,2.6,3.7,2.6,6.8c0,1.6-0.3,2.9-1,4.1c-0.6,1.1-1.4,2.1-2.3,2.9
	c-0.9,0.8-1.9,1.5-2.8,2c-1,0.5-1.8,1-2.5,1.3l-1.8,0.9l13.8,24.6c1.8,0.3,3.7,0.4,5.5,0.4c1.1,0,2.2,0,3.3-0.1
	c1.1-0.1,2.1-0.2,3.1-0.3L350.9-277l1.3-0.8C352.9-278.3,353.7-278.9,354.6-279.7"/>
<path id="path248" class="st1" d="M209.9-263.7v-14h15.3c0.3-1.5,0.4-3.1,0.4-4.6c0-1.5-0.1-3-0.4-4.6h-15.3v-11.5h19.3
	c0.3-1.5,0.4-3,0.4-4.6c0-1.5-0.1-3-0.4-4.5h-30v52.9h30.5c0.3-1.5,0.4-3,0.4-4.6c0-1.5-0.1-3-0.4-4.5L209.9-263.7"/>
<path id="path250" class="st1" d="M296.4-263.7v-14h15.3c0.3-1.5,0.4-3.1,0.4-4.6c0-1.5-0.1-3-0.4-4.6h-15.3v-11.5h19.3
	c0.3-1.5,0.4-3,0.4-4.6c0-1.5-0.1-3-0.4-4.5h-30v52.9h30.5c0.3-1.5,0.4-3,0.4-4.6c0-1.5-0.1-3-0.4-4.5L296.4-263.7"/>
<path id="path252" class="st1" d="M369.6-307.4v52.9c1.8,0.3,3.6,0.4,5.4,0.4c1.7,0,3.5-0.1,5.4-0.4v-52.9c-1.9-0.3-3.7-0.4-5.4-0.4
	C373.2-307.9,371.4-307.7,369.6-307.4"/>
<path id="path254" class="st1" d="M420.1-307.4v33.7l-20.4-33.7c-1.6-0.3-3.1-0.4-4.6-0.4c-1.4,0-2.8,0.1-4.3,0.4v52.9
	c1.5,0.3,3.1,0.4,4.7,0.4c1.6,0,3.2-0.1,4.8-0.4v-33.6l20.6,33.6c1.6,0.3,3.1,0.4,4.5,0.4c1.3,0,2.7-0.1,4.3-0.4v-52.9
	c-1.4-0.3-2.9-0.4-4.4-0.4C423.5-307.9,421.8-307.7,420.1-307.4"/>
<path id="path256" class="st1" d="M625.3-396.8c-0.8,0-1.7,0-2.6,0.1c-0.9,0.1-1.8,0.1-2.8,0.3v27.4c0,3-0.1,5.6-0.3,7.7
	c-0.2,2.1-0.7,3.9-1.3,5.3c-0.7,1.4-1.6,2.4-2.8,3.1c-1.2,0.7-2.7,1-4.6,1c-1.9,0-3.5-0.3-4.7-1c-1.2-0.7-2.1-1.7-2.8-3.1
	c-0.7-1.4-1.1-3.2-1.3-5.3c-0.2-2.1-0.3-4.7-0.3-7.7v-27.4c-0.9-0.1-1.8-0.2-2.7-0.3c-0.9,0-1.7-0.1-2.6-0.1c-0.9,0-1.8,0-2.7,0.1
	c-0.9,0.1-1.8,0.1-2.7,0.3v29.7c0,3.6,0.3,6.9,0.9,9.8c0.6,3,1.6,5.5,3.2,7.6c1.5,2.1,3.6,3.7,6.1,4.9c2.5,1.1,5.8,1.7,9.7,1.7
	c3.9,0,7.2-0.6,9.7-1.7c2.5-1.1,4.6-2.8,6.1-4.9c1.5-2.1,2.6-4.6,3.2-7.6c0.6-3,0.9-6.2,0.9-9.8v-29.7c-0.9-0.1-1.9-0.2-2.8-0.3
	C627-396.8,626.1-396.8,625.3-396.8"/>
<path id="path258" class="st1" d="M222.8-387.8c0.7-0.1,1.5-0.2,2.4-0.2c0.9,0,1.7,0,2.4,0c2.1,0,4,0.3,5.8,0.8
	c1.8,0.6,3.5,1.5,4.9,2.9c1.4,1.4,2.5,3.2,3.4,5.6s1.3,5.3,1.3,8.8c0,3.6-0.4,6.6-1.3,8.9c-0.8,2.3-2,4.1-3.4,5.5
	c-1.4,1.4-3.1,2.3-5,2.8c-1.9,0.5-4,0.8-6.3,0.8c-1,0-1.8,0-2.5-0.1c-0.7,0-1.2-0.1-1.7-0.1L222.8-387.8L222.8-387.8z M225.1-342.7
	c9.7,0,16.9-2.2,21.8-6.5c4.9-4.4,7.4-11.2,7.4-20.4c0-9.2-2.4-16.1-7.2-20.7c-4.8-4.6-11.9-6.9-21.1-6.9c-2.7,0-5.2,0.1-7.5,0.3
	c-2.3,0.2-4.4,0.4-6.5,0.6v52.9c2.1,0.2,4.1,0.5,6.3,0.6C220.3-342.8,222.6-342.7,225.1-342.7"/>
<path id="path260" class="st1" d="M166.1-349.3c1.5,2.1,3.6,3.7,6.1,4.9c2.6,1.1,5.8,1.7,9.7,1.7s7.2-0.6,9.7-1.7
	c2.5-1.1,4.6-2.8,6.1-4.9c1.5-2.1,2.6-4.6,3.2-7.6c0.6-3,0.9-6.2,0.9-9.8v-29.7c-0.9-0.1-1.9-0.2-2.8-0.3c-0.9,0-1.8-0.1-2.7-0.1
	c-0.8,0-1.7,0-2.6,0.1c-0.9,0.1-1.8,0.1-2.8,0.3v27.4c0,3-0.1,5.6-0.3,7.7c-0.2,2.1-0.7,3.9-1.3,5.3c-0.7,1.4-1.6,2.4-2.8,3.1
	c-1.2,0.7-2.7,1-4.6,1c-1.9,0-3.5-0.3-4.7-1c-1.2-0.7-2.1-1.7-2.8-3.1c-0.7-1.4-1.1-3.2-1.3-5.3c-0.2-2.1-0.3-4.7-0.3-7.7v-27.4
	c-0.9-0.1-1.8-0.2-2.7-0.3c-0.9,0-1.7-0.1-2.6-0.1c-0.9,0-1.8,0-2.7,0.1c-0.9,0.1-1.8,0.1-2.7,0.3v29.7c0,3.6,0.3,6.9,0.9,9.8
	C163.6-353.9,164.6-351.4,166.1-349.3"/>
<path id="path262" class="st1" d="M284.8-388.1c3.9,0,6.7,1.5,8.6,4.6c1.8,3,2.8,7.6,2.8,13.7c0,12.2-3.8,18.2-11.4,18.2
	c-7.6,0-11.5-6.1-11.5-18.2C273.3-382,277.1-388.1,284.8-388.1z M267.3-350.4c1.9,2.4,4.2,4.3,7.1,5.7c2.9,1.4,6.3,2.1,10.3,2.1
	c4,0,7.4-0.7,10.3-2.1c2.9-1.4,5.3-3.3,7.1-5.7c1.9-2.4,3.2-5.3,4.2-8.6c0.9-3.3,1.4-6.9,1.4-10.8c0-3.9-0.5-7.6-1.4-10.9
	c-0.9-3.4-2.3-6.3-4.2-8.7c-1.9-2.5-4.2-4.4-7.1-5.7c-2.9-1.4-6.3-2.1-10.3-2.1c-4,0-7.4,0.7-10.3,2.1c-2.9,1.4-5.3,3.3-7.1,5.7
	c-1.9,2.5-3.2,5.4-4.2,8.7c-0.9,3.4-1.4,7-1.4,10.9c0,3.9,0.5,7.5,1.4,10.8C264.1-355.7,265.5-352.9,267.3-350.4"/>
<path id="path264" class="st1" d="M672.5-365.6c-0.6-1.6-1.4-3-2.5-4.2c-1.1-1.2-2.3-2.1-3.9-2.9c-1.5-0.8-3.2-1.5-5.1-2.3l-4.4-1.7
	c-0.7-0.3-1.5-0.6-2.2-0.9c-0.7-0.3-1.4-0.7-2-1.2c-0.6-0.5-1.1-1-1.4-1.7c-0.3-0.7-0.5-1.5-0.5-2.5c0-1.2,0.2-2.2,0.7-3
	s1-1.3,1.7-1.7c0.7-0.4,1.5-0.7,2.3-0.8s1.7-0.2,2.5-0.2c1.4,0,2.6,0.1,3.7,0.2c1.1,0.1,2,0.3,2.9,0.5c0.9,0.2,1.7,0.4,2.4,0.7
	c0.8,0.3,1.5,0.6,2.2,0.9c1.3-2.7,2.1-5.5,2.4-8.4c-2.4-0.8-4.7-1.5-6.9-1.9c-2.2-0.4-4.5-0.7-7-0.7c-2.7,0-5.2,0.3-7.4,1
	c-2.2,0.7-4.1,1.6-5.7,2.9c-1.6,1.3-2.8,2.9-3.6,4.8c-0.9,1.9-1.3,4.1-1.3,6.6c0,2.1,0.3,3.8,0.8,5.3c0.5,1.5,1.2,2.7,2.2,3.8
	c0.9,1.1,2.1,2,3.4,2.7c1.3,0.8,2.8,1.5,4.5,2.1l4.5,1.7c0.9,0.3,1.7,0.7,2.6,1.1c0.8,0.4,1.6,0.8,2.2,1.4c0.7,0.5,1.2,1.2,1.6,2
	c0.4,0.8,0.6,1.8,0.6,2.9c0,2.4-0.9,4.1-2.6,5.3c-1.8,1.2-4.2,1.7-7.3,1.7c-2.1,0-4-0.2-5.8-0.6c-1.8-0.4-3.8-1-5.8-1.9
	c-0.5,1.6-1,3.1-1.4,4.7c-0.4,1.5-0.7,3-0.8,4.4c1.2,0.5,2.4,0.9,3.5,1.3c1.1,0.3,2.3,0.6,3.4,0.8c1.2,0.2,2.4,0.4,3.6,0.5
	c1.3,0.1,2.7,0.1,4.3,0.1c3.3,0,6.2-0.4,8.7-1.3c2.5-0.8,4.6-2,6.4-3.5c1.7-1.5,3-3.2,3.9-5.3c0.9-2.1,1.4-4.3,1.4-6.8
	C673.4-361.9,673.1-363.9,672.5-365.6"/>
<path id="path266" class="st1" d="M123.5-343.2c0.8,0,1.7,0,2.6-0.1c0.9-0.1,1.8-0.2,2.6-0.3v-44.6c0.9-0.1,1.9-0.2,2.9-0.2
	c2.8,0,5.1,0.7,6.8,2.2c1.8,1.4,2.6,3.7,2.6,6.8c0,1.6-0.3,2.9-1,4.1c-0.6,1.2-1.4,2.1-2.3,2.9c-0.9,0.8-1.9,1.5-2.8,2
	c-1,0.5-1.8,1-2.5,1.3l-1.8,0.9l13.8,24.6c1.8,0.3,3.6,0.4,5.5,0.4c1.1,0,2.2-0.1,3.3-0.1c1.1-0.1,2.1-0.2,3.1-0.3L143.6-366
	l1.3-0.8c0.8-0.5,1.6-1.1,2.5-1.9c0.9-0.8,1.7-1.8,2.5-2.9c0.8-1.1,1.4-2.4,1.9-3.9c0.5-1.5,0.7-3.2,0.7-5.2c0-3.3-0.6-6-1.9-8.1
	c-1.3-2.1-3-3.8-5.1-5.1c-2.1-1.2-4.5-2.1-7.1-2.6c-2.6-0.5-5.3-0.7-8-0.7c-2.3,0-4.4,0.1-6.3,0.3c-1.9,0.2-3.9,0.4-6.1,0.6v52.9
	c1,0.1,1.9,0.2,2.9,0.3C121.8-343.2,122.6-343.2,123.5-343.2"/>
<path id="path268" class="st1" d="M424.3-396.4v20.7h-17.7v-20.7c-1.9-0.3-3.7-0.4-5.4-0.4c-1.8,0-3.6,0.1-5.4,0.4v52.9
	c1.8,0.3,3.6,0.4,5.4,0.4c1.7,0,3.5-0.1,5.4-0.4v-22.9h17.7v22.9c1.8,0.3,3.6,0.4,5.4,0.4c1.7,0,3.5-0.1,5.4-0.4v-52.9
	c-1.9-0.3-3.7-0.4-5.4-0.4C427.9-396.9,426.1-396.7,424.3-396.4"/>
<path id="path270" class="st1" d="M484.7-374.3c-0.5,1.2-1.3,2.2-2.2,2.9c-0.9,0.7-1.9,1.3-3.1,1.6c-1.2,0.3-2.4,0.5-3.6,0.5h-1.9
	c-0.5,0-1.1,0-1.7-0.1v-18.8c0.9-0.1,1.6-0.2,2-0.2c0.5,0,1,0,1.5,0c1.2,0,2.4,0.2,3.6,0.5c1.2,0.3,2.2,0.9,3.1,1.6
	c0.9,0.8,1.6,1.8,2.2,3c0.5,1.3,0.8,2.8,0.8,4.6C485.5-377,485.3-375.5,484.7-374.3z M494.7-369.6c1.3-2.4,1.9-5.5,1.9-9.3
	c0-3.8-0.6-6.9-1.9-9.3c-1.3-2.4-2.9-4.3-5-5.6c-2-1.3-4.3-2.3-6.8-2.8c-2.5-0.5-5-0.7-7.5-0.7c-2.4,0-4.7,0.1-7,0.2
	c-2.3,0.1-4.6,0.3-6.8,0.5v53.1c1,0.1,1.9,0.2,2.9,0.3c0.9,0,1.8,0.1,2.6,0.1c0.8,0,1.7,0,2.6-0.1c0.9-0.1,1.8-0.1,2.7-0.3v-17
	c0.5,0,1,0.1,1.6,0.1c0.6,0,1.2,0,1.8,0c2.4,0,4.8-0.2,7.3-0.7c2.5-0.5,4.7-1.4,6.7-2.8C491.7-365.3,493.4-367.2,494.7-369.6"/>
<path id="path272" class="st1" d="M345.8-346c0-0.8,0.1-1.5,0.1-2.3c0-0.7,0-1.4-0.1-2.2c0-0.8-0.1-1.6-0.3-2.4h-18.3v-43.6
	c-1.9-0.3-3.7-0.4-5.4-0.4c-1.7,0-3.4,0.1-5.2,0.4v52.9h28.9C345.7-344.4,345.8-345.2,345.8-346"/>
<path id="path274" class="st1" d="M376-374.3c-0.5,1.2-1.3,2.2-2.2,2.9c-0.9,0.7-1.9,1.3-3.1,1.6c-1.2,0.3-2.4,0.5-3.6,0.5h-1.9
	c-0.5,0-1.1,0-1.7-0.1v-18.8c0.9-0.1,1.6-0.2,2-0.2c0.5,0,1,0,1.5,0c1.2,0,2.4,0.2,3.6,0.5c1.2,0.3,2.2,0.9,3.1,1.6
	c0.9,0.8,1.6,1.8,2.2,3c0.5,1.3,0.8,2.8,0.8,4.6C376.8-377,376.6-375.5,376-374.3L376-374.3z M381-393.8c-2-1.4-4.3-2.3-6.8-2.8
	c-2.5-0.5-5-0.7-7.5-0.7c-2.4,0-4.7,0.1-7,0.2c-2.3,0.1-4.6,0.3-6.8,0.5v53.1c1,0.1,1.9,0.2,2.9,0.3c0.9,0,1.8,0.1,2.6,0.1
	c0.8,0,1.7,0,2.6-0.1c0.9,0,1.8-0.1,2.7-0.3v-17c0.5,0,1,0.1,1.6,0.1c0.6,0,1.2,0,1.8,0c2.4,0,4.8-0.2,7.3-0.7
	c2.5-0.5,4.7-1.4,6.7-2.8c2-1.4,3.7-3.2,4.9-5.6c1.3-2.4,1.9-5.5,1.9-9.3c0-3.8-0.6-6.9-1.9-9.3C384.7-390.6,383-392.5,381-393.8"/>
<path id="path276" class="st1" d="M571.3-355.1c-0.6,1-1.4,1.8-2.4,2.4c-1,0.6-2,0.9-3.2,1.1c-1.1,0.2-2.2,0.3-3.2,0.3
	c-0.7,0-1.6,0-2.5-0.1c-0.9,0-1.7-0.1-2.4-0.2v-15.3h4.4c1.5,0,2.9,0.1,4.2,0.4c1.3,0.2,2.3,0.7,3.2,1.3c0.9,0.6,1.6,1.4,2.1,2.4
	c0.5,1,0.7,2.3,0.7,3.8C572.2-357.5,571.9-356.2,571.3-355.1L571.3-355.1z M557.6-389.2c0.9-0.1,2.1-0.2,3.5-0.2c1,0,2,0.1,3,0.3
	c1,0.2,1.9,0.5,2.7,1c0.8,0.5,1.5,1.2,2,2.1s0.8,2.1,0.8,3.5c0,1.5-0.2,2.7-0.7,3.6c-0.4,1-1.1,1.7-1.8,2.3c-0.8,0.6-1.7,1-2.8,1.2
	c-1.1,0.2-2.2,0.3-3.4,0.3h-3.2L557.6-389.2L557.6-389.2z M579.2-368.5c-1.2-1.1-2.5-1.9-3.8-2.4c-1.4-0.5-2.6-0.9-3.7-1
	c1-0.1,2-0.6,3-1.2c1-0.7,1.9-1.5,2.6-2.5c0.8-1,1.4-2.2,1.9-3.5c0.5-1.3,0.7-2.8,0.7-4.4c0-2.6-0.5-4.9-1.5-6.6
	c-1-1.8-2.4-3.2-4.2-4.2c-1.8-1.1-3.9-1.8-6.3-2.2c-2.4-0.4-5-0.7-7.6-0.7c-3.1,0-5.7,0.1-7.7,0.2c-2.1,0.1-3.9,0.3-5.4,0.6v53
	c2.8,0.3,5.3,0.6,7.5,0.7c2.2,0.1,4.4,0.2,6.7,0.2c2.9,0,5.7-0.2,8.4-0.7c2.7-0.4,5-1.2,7.1-2.4c2-1.2,3.7-2.8,4.9-4.8
	c1.2-2,1.8-4.6,1.8-7.8c0-2.4-0.4-4.4-1.2-6C581.3-366.1,580.3-367.5,579.2-368.5"/>
<path id="path278" class="st1" d="M511.6-363.1l6.4-22.2l6.1,22.2H511.6z M521.2-396.8c-0.9-0.1-1.9-0.1-2.9-0.1
	c-1.1,0-2.2,0-3.1,0.1c-0.9,0.1-1.9,0.2-2.9,0.3l-16.7,52.9c1.8,0.3,3.6,0.4,5.4,0.4c1.6,0,3.3-0.1,5.1-0.4l3-10.6h17.5l2.9,10.6
	c1.8,0.3,3.6,0.4,5.4,0.4c1.9,0,3.9-0.1,5.9-0.4l-16.5-52.9C523.2-396.6,522.1-396.7,521.2-396.8"/>
<path id="path252_1_" class="st0" d="M323.6,56.7v108.4c3.7,0.6,7.4,0.9,11.2,0.9c3.5,0,7.2-0.3,11-0.9V56.7
	c-3.8-0.6-7.5-0.9-11.2-0.9C331,55.8,327.3,56.1,323.6,56.7"/>
<path id="path238_1_" class="st0" d="M382.2,151.1c4.4,5,9.8,8.8,16.2,11.6c6.4,2.8,13.9,4.1,22.5,4.1c4.8,0,9.3-0.3,13.5-0.9
	c4.2-0.6,8.9-1.9,14.1-3.8c-0.4-3-1-6-1.9-9c-0.9-3-1.9-5.9-3.2-8.7c-3.5,1.2-6.7,2.1-9.5,2.6c-2.8,0.5-6.1,0.8-9.8,0.8
	c-20.8,0-31.2-12.3-31.2-36.8c0-12.4,2.6-21.7,7.8-28c5.2-6.3,12.6-9.4,22.2-9.4c3.7,0,6.9,0.3,9.7,0.8c2.7,0.5,5.8,1.4,9.3,2.6
	c1.2-2.9,2.3-5.8,3.3-8.7c1-2.9,1.6-5.8,1.8-8.8c-4.7-1.9-9.1-3.2-13.2-3.8c-4.1-0.6-8.5-0.9-13.3-0.9c-8.1,0-15.4,1.4-21.8,4.2
	c-6.4,2.8-11.8,6.7-16.1,11.8c-4.4,5-7.7,11-10,17.9c-2.3,6.9-3.5,14.3-3.5,22.4c0,8,1.1,15.5,3.3,22.3
	C374.5,140.2,377.8,146.1,382.2,151.1"/>
<path id="path238_2_" class="st0" d="M336.7,282.6c4.4,5,9.8,8.8,16.2,11.6c6.4,2.8,13.9,4.1,22.5,4.1c4.8,0,9.3-0.3,13.5-0.9
	c4.2-0.6,8.9-1.9,14.1-3.8c-0.4-3-1-6-1.9-9c-0.9-3-1.9-5.9-3.2-8.7c-3.5,1.2-6.7,2.1-9.5,2.6c-2.8,0.5-6.1,0.8-9.8,0.8
	c-20.8,0-31.2-12.3-31.2-36.8c0-12.4,2.6-21.7,7.8-28c5.2-6.3,12.6-9.4,22.2-9.4c3.7,0,6.9,0.3,9.7,0.8c2.7,0.5,5.8,1.4,9.3,2.6
	c1.2-2.9,2.3-5.8,3.3-8.7c1-2.9,1.6-5.8,1.8-8.8c-4.7-1.9-9.1-3.2-13.2-3.8c-4.1-0.6-8.5-0.9-13.3-0.9c-8.1,0-15.4,1.4-21.8,4.2
	c-6.4,2.8-11.8,6.7-16.1,11.8c-4.4,5-7.7,11-10,17.9c-2.3,6.9-3.5,14.3-3.5,22.4c0,8,1.1,15.5,3.3,22.3
	C329,271.7,332.3,277.6,336.7,282.6"/>
<path id="path266_1_" class="st0" d="M437.7,297.8c1.7,0,3.5-0.1,5.3-0.2c1.8-0.1,3.6-0.3,5.4-0.5v-91.5c1.8-0.3,3.8-0.5,6-0.5
	c5.7,0,10.4,1.5,14,4.4c3.6,3,5.4,7.6,5.4,13.9c0,3.2-0.7,6-2,8.4c-1.3,2.4-2.9,4.4-4.7,6c-1.9,1.7-3.8,3-5.8,4.1
	c-2,1.1-3.7,2-5.1,2.7l-3.6,1.8l28.3,50.4c3.7,0.6,7.5,0.9,11.3,0.9c2.3,0,4.6-0.1,6.8-0.3c2.2-0.2,4.3-0.4,6.3-0.6L479,251.1
	l2.6-1.7c1.6-1,3.3-2.3,5.1-4c1.8-1.7,3.5-3.6,5.1-6c1.6-2.3,2.8-5,3.8-8.1c1-3.1,1.5-6.6,1.5-10.6c0-6.7-1.3-12.3-4-16.7
	c-2.7-4.4-6.2-7.8-10.5-10.4c-4.3-2.6-9.2-4.3-14.6-5.4c-5.4-1-10.8-1.5-16.4-1.5c-4.7,0-9,0.2-12.9,0.5c-3.9,0.4-8,0.8-12.4,1.3
	v108.4c2,0.3,4,0.5,5.9,0.6C434.2,297.8,436,297.8,437.7,297.8"/>
<path id="path248_1_" class="st0" d="M550.9,277.8v-28.6h31.4c0.6-3.1,0.9-6.3,0.9-9.5c0-3-0.3-6.1-0.9-9.3h-31.4v-23.5h39.5
	c0.6-3,0.9-6.2,0.9-9.5c0-3.1-0.3-6.2-0.9-9.2h-61.5v108.4h62.6c0.6-3,0.9-6.2,0.9-9.5c0-3.1-0.3-6.2-0.9-9.2L550.9,277.8"/>
<path id="path224_1_" class="st0" d="M632.1,297.5c3.8,0,7.3-0.3,10.4-0.9l25.5-62.2l25,62.1c3.8,0.6,7.7,0.9,11.6,0.9
	c3.7,0,7.6-0.3,11.6-0.9l4-108.4c-3.4-0.6-6.7-0.9-10-0.9c-3,0-6.1,0.3-9.3,0.9l-2,74.6l-20.6-52c-1.4-0.3-2.8-0.5-4.1-0.6
	c-1.3-0.1-2.6-0.1-3.9-0.1c-1.5,0-3,0.1-4.5,0.2c-1.5,0.2-3,0.3-4.4,0.5l-21.9,51l-2.8-73.6c-3.3-0.6-6.7-0.9-10.1-0.9
	c-3.4,0-7,0.3-10.9,0.9l5.3,108.4C624.6,297.2,628.3,297.5,632.1,297.5"/>
<g>
	<path id="path234_1_" class="st0" d="M558.5,75.2c0.3-1.7,0.5-3.3,0.6-4.9c0.1-1.6,0.1-3,0.1-4.4c0-1.6-0.1-3.2-0.1-4.7
		c-0.1-1.6-0.3-3.2-0.6-4.9h-59.2v108.4c3.7,0.6,7.3,0.9,10.7,0.9c3.5,0,7.2-0.3,11-0.9V75.2H558.5"/>
	<path id="path234_4_" class="st0" d="M523.7,56.2h-59.2c-0.3,1.7-0.5,3.3-0.6,4.9c-0.1,1.6-0.1,3.1-0.1,4.7c0,1.4,0.1,2.9,0.1,4.4
		c0.1,1.6,0.3,3.2,0.6,4.9h34.8"/>
</g>
<g>
	<path id="path234_3_" class="st1" d="M98.5-385.6c0.1-0.8,0.2-1.6,0.3-2.4c0-0.8,0.1-1.5,0.1-2.2c0-0.8,0-1.6-0.1-2.3
		c-0.1-0.8-0.1-1.6-0.3-2.4H69.6v52.9c1.8,0.3,3.6,0.4,5.2,0.4c1.7,0,3.5-0.1,5.4-0.4v-43.6H98.5"/>
	<path id="path234_2_" class="st1" d="M81.5-394.9H52.6c-0.1,0.8-0.2,1.6-0.3,2.4c0,0.8-0.1,1.5-0.1,2.3c0,0.7,0,1.4,0.1,2.2
		c0,0.8,0.1,1.6,0.3,2.4h17"/>
</g>
</svg>
