<svg version="1.1" id="svg2" xmlns:svg="http://www.w3.org/2000/svg" xmlns:rdf="http://www.w3.org/1999/02/22-rdf-syntax-ns#" xmlns:cc="http://creativecommons.org/ns#" xmlns:dc="http://purl.org/dc/elements/1.1/" xmlns="http://www.w3.org/2000/svg" xmlns:xlink="http://www.w3.org/1999/xlink" x="0px" y="0px" width="448.52px" height="26.734px" viewBox="0 0 448.52 26.734" enable-background="new 0 0 448.52 26.734" xml:space="preserve">
<path id="path14" d="M2.736,26c0.64,0,1.118-0.225,1.435-0.672c0.315-0.449,0.474-1.061,0.474-1.836
	c0-0.777-0.159-1.389-0.474-1.836c-0.317-0.449-0.794-0.672-1.435-0.672s-1.118,0.223-1.434,0.672
	c-0.316,0.447-0.474,1.059-0.474,1.836c0,0.775,0.158,1.387,0.474,1.836C1.619,25.775,2.096,26,2.736,26z M2.736,26.696
	c-0.456,0-0.856-0.083-1.2-0.247c-0.344-0.164-0.63-0.391-0.858-0.678c-0.228-0.287-0.398-0.628-0.509-1.02
	C0.056,24.359,0,23.939,0,23.492c0-0.449,0.056-0.869,0.169-1.262c0.111-0.392,0.282-0.73,0.509-1.019
	c0.228-0.288,0.514-0.515,0.858-0.679c0.344-0.164,0.744-0.246,1.2-0.246c0.456,0,0.854,0.082,1.194,0.246
	c0.34,0.164,0.624,0.391,0.852,0.679s0.4,0.627,0.516,1.019c0.116,0.393,0.174,0.812,0.174,1.262c0,0.447-0.058,0.867-0.174,1.26
	c-0.116,0.392-0.288,0.732-0.516,1.02s-0.512,0.514-0.852,0.678C3.591,26.613,3.192,26.696,2.736,26.696"></path>
<path id="path16" d="M7.236,20.431c0.063-0.008,0.126-0.014,0.186-0.018c0.06-0.005,0.118-0.007,0.174-0.007
	c0.064,0,0.124,0.002,0.18,0.007c0.056,0.004,0.116,0.01,0.18,0.018c0.016,0.143,0.028,0.324,0.036,0.54s0.013,0.404,0.013,0.563
	c0.079-0.144,0.183-0.289,0.311-0.438c0.128-0.148,0.278-0.282,0.45-0.401c0.172-0.122,0.37-0.22,0.594-0.294
	c0.224-0.078,0.468-0.115,0.733-0.115c0.704,0,1.216,0.211,1.535,0.631c0.32,0.42,0.48,1.01,0.48,1.77v3.863
	c-0.047,0.008-0.114,0.015-0.197,0.02c-0.084,0.004-0.15,0.004-0.198,0.004c-0.04,0-0.104,0-0.192-0.004
	c-0.088-0.005-0.156-0.012-0.205-0.02v-3.623c0-0.68-0.105-1.168-0.318-1.465c-0.211-0.295-0.53-0.443-0.954-0.443
	c-0.28,0-0.544,0.055-0.792,0.168c-0.248,0.112-0.462,0.274-0.643,0.486c-0.18,0.213-0.321,0.475-0.425,0.785
	c-0.104,0.312-0.156,0.668-0.156,1.068v3.023c-0.049,0.008-0.115,0.015-0.199,0.02c-0.084,0.004-0.15,0.004-0.198,0.004
	c-0.04,0-0.104,0-0.192-0.004c-0.088-0.005-0.156-0.012-0.204-0.02V20.431"></path>
<path id="path18" d="M18.216,21.248c-0.16-0.065-0.364-0.122-0.612-0.174c-0.248-0.053-0.503-0.078-0.768-0.078
	c-0.376,0-0.702,0.062-0.978,0.191c-0.277,0.128-0.506,0.305-0.69,0.534c-0.184,0.228-0.322,0.501-0.414,0.821
	c-0.093,0.32-0.138,0.672-0.138,1.057c0,0.832,0.198,1.438,0.594,1.818c0.396,0.38,0.958,0.569,1.686,0.569
	c0.263,0,0.516-0.015,0.756-0.041c0.24-0.028,0.427-0.063,0.563-0.103V21.248z M18.216,17.73c0.048-0.008,0.115-0.012,0.204-0.018
	c0.088-0.004,0.152-0.006,0.191-0.006c0.048,0,0.115,0.002,0.199,0.006c0.084,0.006,0.15,0.01,0.198,0.018v8.677
	c-0.248,0.08-0.556,0.147-0.924,0.204c-0.368,0.057-0.752,0.085-1.152,0.085c-0.44,0-0.852-0.053-1.236-0.156
	c-0.383-0.104-0.715-0.276-0.995-0.517c-0.281-0.24-0.503-0.555-0.667-0.949c-0.164-0.392-0.246-0.875-0.246-1.451
	c0-0.527,0.071-0.997,0.216-1.41c0.144-0.412,0.347-0.759,0.612-1.043c0.264-0.283,0.582-0.502,0.954-0.654
	c0.372-0.152,0.782-0.229,1.229-0.229c0.265,0,0.526,0.021,0.787,0.066c0.26,0.045,0.47,0.094,0.63,0.15V17.73"></path>
<path id="path20" d="M25.224,22.951c0-0.247-0.032-0.492-0.097-0.731c-0.063-0.239-0.164-0.45-0.299-0.631
	c-0.136-0.18-0.312-0.325-0.529-0.437c-0.215-0.112-0.476-0.168-0.78-0.168c-0.56,0-0.996,0.172-1.308,0.516
	c-0.312,0.344-0.5,0.828-0.563,1.451H25.224z M21.624,23.611c0,0.816,0.188,1.416,0.563,1.799c0.376,0.385,0.94,0.577,1.692,0.577
	c0.304,0,0.586-0.025,0.846-0.078c0.26-0.052,0.514-0.122,0.761-0.21c0.041,0.088,0.073,0.195,0.097,0.324
	c0.024,0.129,0.04,0.244,0.047,0.348c-0.232,0.105-0.504,0.184-0.816,0.24s-0.652,0.085-1.02,0.085
	c-0.528,0-0.982-0.078-1.362-0.234c-0.38-0.157-0.692-0.374-0.936-0.653c-0.245-0.281-0.425-0.615-0.54-1.004
	c-0.116-0.387-0.174-0.812-0.174-1.277c0-0.447,0.054-0.868,0.162-1.26c0.108-0.392,0.272-0.736,0.492-1.032
	c0.22-0.296,0.502-0.528,0.846-0.695c0.344-0.169,0.756-0.253,1.236-0.253c0.4,0,0.756,0.068,1.068,0.205
	c0.312,0.135,0.574,0.324,0.786,0.57c0.212,0.242,0.373,0.535,0.479,0.875c0.108,0.34,0.162,0.711,0.162,1.11
	c0,0.071-0.002,0.164-0.006,0.276c-0.004,0.111-0.01,0.207-0.018,0.287H21.624"></path>
<path id="path22" d="M27.756,20.431c0.064-0.008,0.126-0.014,0.186-0.018c0.06-0.005,0.118-0.007,0.174-0.007
	c0.064,0,0.124,0.002,0.18,0.007c0.056,0.004,0.116,0.01,0.18,0.018c0.016,0.143,0.027,0.314,0.036,0.51
	c0.007,0.195,0.012,0.374,0.012,0.535c0.16-0.297,0.384-0.547,0.672-0.75c0.288-0.205,0.668-0.307,1.14-0.307
	c0.04,0,0.083,0,0.125,0c0.044,0,0.095,0.004,0.15,0.012c0.024,0.135,0.036,0.265,0.036,0.384c0,0.128-0.012,0.251-0.036,0.372
	c-0.064-0.008-0.114-0.012-0.15-0.012c-0.036,0-0.073,0-0.114,0c-0.543,0-0.979,0.172-1.308,0.516s-0.492,0.916-0.492,1.716v3.144
	c-0.048,0.008-0.114,0.015-0.198,0.02c-0.084,0.004-0.149,0.004-0.198,0.004c-0.04,0-0.104,0-0.192-0.004
	c-0.087-0.005-0.155-0.012-0.204-0.02V20.431"></path>
<path id="path24" d="M35.904,21.248c-0.161-0.065-0.364-0.122-0.612-0.174c-0.248-0.053-0.504-0.078-0.768-0.078
	c-0.376,0-0.703,0.062-0.978,0.191c-0.276,0.128-0.506,0.305-0.691,0.534c-0.183,0.228-0.321,0.501-0.413,0.821
	c-0.092,0.32-0.138,0.672-0.138,1.057c0,0.832,0.198,1.438,0.594,1.818c0.396,0.38,0.957,0.569,1.686,0.569
	c0.263,0,0.516-0.015,0.756-0.041c0.24-0.028,0.427-0.063,0.563-0.103V21.248z M35.904,17.73c0.048-0.008,0.116-0.012,0.205-0.018
	c0.087-0.004,0.151-0.006,0.191-0.006c0.048,0,0.115,0.002,0.199,0.006c0.083,0.006,0.15,0.01,0.198,0.018v8.677
	c-0.248,0.08-0.556,0.147-0.924,0.204c-0.368,0.057-0.752,0.085-1.152,0.085c-0.44,0-0.852-0.053-1.236-0.156
	c-0.383-0.104-0.715-0.276-0.995-0.517c-0.281-0.24-0.503-0.555-0.667-0.949c-0.164-0.392-0.246-0.875-0.246-1.451
	c0-0.527,0.071-0.997,0.216-1.41c0.144-0.412,0.347-0.759,0.612-1.043c0.264-0.283,0.582-0.502,0.954-0.654
	c0.372-0.152,0.782-0.229,1.229-0.229c0.265,0,0.526,0.021,0.787,0.066c0.26,0.045,0.469,0.094,0.63,0.15V17.73"></path>
<path id="path26" d="M42.912,22.951c0-0.247-0.032-0.492-0.097-0.731c-0.063-0.239-0.164-0.45-0.299-0.631
	c-0.136-0.18-0.312-0.325-0.529-0.437c-0.215-0.112-0.475-0.168-0.779-0.168c-0.56,0-0.996,0.172-1.309,0.516
	c-0.312,0.344-0.5,0.828-0.563,1.451H42.912z M39.312,23.611c0,0.816,0.188,1.416,0.563,1.799c0.376,0.385,0.94,0.577,1.692,0.577
	c0.304,0,0.586-0.025,0.846-0.078c0.26-0.052,0.514-0.122,0.761-0.21c0.041,0.088,0.073,0.195,0.097,0.324
	c0.024,0.129,0.04,0.244,0.047,0.348c-0.232,0.105-0.504,0.184-0.816,0.24c-0.312,0.057-0.652,0.085-1.02,0.085
	c-0.528,0-0.982-0.078-1.362-0.234c-0.38-0.157-0.692-0.374-0.936-0.653c-0.244-0.281-0.424-0.615-0.54-1.004
	c-0.116-0.387-0.174-0.812-0.174-1.277c0-0.447,0.054-0.868,0.163-1.26c0.108-0.392,0.271-0.736,0.491-1.032
	c0.22-0.296,0.502-0.528,0.846-0.695c0.344-0.169,0.756-0.253,1.236-0.253c0.4,0,0.756,0.068,1.068,0.205
	c0.312,0.135,0.574,0.324,0.786,0.57c0.212,0.242,0.373,0.535,0.479,0.875c0.108,0.34,0.162,0.711,0.162,1.11
	c0,0.071-0.001,0.164-0.006,0.276c-0.004,0.111-0.01,0.207-0.018,0.287H39.312"></path>
<path id="path28" d="M49.547,22.951c0-0.247-0.032-0.492-0.096-0.731c-0.063-0.239-0.164-0.45-0.3-0.631
	c-0.136-0.18-0.312-0.325-0.528-0.437c-0.215-0.112-0.476-0.168-0.78-0.168c-0.56,0-0.996,0.172-1.308,0.516
	c-0.312,0.344-0.5,0.828-0.564,1.451H49.547z M45.947,23.611c0,0.816,0.188,1.416,0.563,1.799c0.377,0.385,0.94,0.577,1.692,0.577
	c0.304,0,0.586-0.025,0.846-0.078c0.26-0.052,0.514-0.122,0.762-0.21c0.04,0.088,0.072,0.195,0.096,0.324
	c0.024,0.129,0.04,0.244,0.047,0.348c-0.231,0.105-0.504,0.184-0.815,0.24c-0.312,0.057-0.653,0.085-1.021,0.085
	c-0.528,0-0.981-0.078-1.362-0.234c-0.38-0.157-0.692-0.374-0.936-0.653c-0.244-0.281-0.424-0.615-0.54-1.004
	c-0.116-0.387-0.174-0.812-0.174-1.277c0-0.447,0.054-0.868,0.162-1.26s0.271-0.736,0.491-1.032
	c0.221-0.296,0.502-0.528,0.847-0.695c0.344-0.169,0.756-0.253,1.236-0.253c0.4,0,0.756,0.068,1.068,0.205
	c0.312,0.135,0.573,0.324,0.786,0.57c0.212,0.242,0.373,0.535,0.48,0.875c0.108,0.34,0.162,0.711,0.162,1.11
	c0,0.071-0.002,0.164-0.005,0.276c-0.004,0.111-0.01,0.207-0.019,0.287H45.947"></path>
<path id="path30" d="M52.08,17.73c0.048-0.008,0.114-0.012,0.197-0.018c0.084-0.004,0.151-0.006,0.198-0.006
	c0.041,0,0.104,0.002,0.192,0.006c0.088,0.006,0.156,0.01,0.205,0.018v7.406c0,0.207,0.023,0.369,0.071,0.484
	c0.048,0.116,0.108,0.199,0.181,0.252c0.071,0.053,0.151,0.084,0.24,0.097c0.087,0.011,0.167,0.018,0.24,0.018
	c0.088,0,0.18-0.007,0.276-0.018c0.095-0.013,0.175-0.026,0.239-0.042c0.04,0.096,0.068,0.199,0.084,0.311
	c0.016,0.113,0.028,0.217,0.037,0.312c-0.112,0.041-0.238,0.068-0.378,0.086c-0.14,0.016-0.27,0.022-0.39,0.022
	c-0.168,0-0.336-0.018-0.503-0.055c-0.168-0.034-0.318-0.103-0.45-0.202c-0.132-0.102-0.238-0.236-0.319-0.41
	c-0.08-0.172-0.119-0.396-0.119-0.677V17.73"></path>
<path id="path32" d="M57.684,20.431c0.048-0.008,0.115-0.014,0.204-0.018c0.088-0.005,0.172-0.007,0.252-0.007
	c0.063,0,0.144,0.002,0.24,0.007c0.096,0.004,0.167,0.01,0.216,0.018l1.933,5.291l1.967-5.291c0.049-0.008,0.112-0.014,0.192-0.018
	c0.08-0.005,0.153-0.007,0.216-0.007c0.064,0,0.136,0.002,0.216,0.007c0.081,0.004,0.144,0.01,0.192,0.018l-2.437,6.119
	c-0.12,0.023-0.244,0.037-0.372,0.037s-0.256-0.014-0.384-0.037L57.684,20.431"></path>
<path id="path34" d="M68.052,23.574c-0.137-0.016-0.307-0.033-0.51-0.053s-0.398-0.029-0.582-0.029c-0.6,0-1.063,0.111-1.392,0.336
	c-0.328,0.223-0.492,0.543-0.492,0.959c0,0.264,0.05,0.477,0.15,0.637c0.1,0.16,0.229,0.281,0.39,0.366
	c0.16,0.083,0.336,0.14,0.528,0.167C66.336,25.985,66.528,26,66.719,26c0.249,0,0.481-0.013,0.697-0.037
	c0.215-0.023,0.428-0.055,0.636-0.095V23.574z M68.052,22.507c0-0.527-0.124-0.914-0.372-1.158s-0.616-0.365-1.104-0.365
	c-0.32,0-0.612,0.021-0.875,0.064c-0.265,0.045-0.5,0.1-0.708,0.163c-0.04-0.071-0.075-0.177-0.102-0.313
	c-0.029-0.135-0.043-0.262-0.043-0.383c0.208-0.064,0.465-0.117,0.769-0.162c0.304-0.045,0.616-0.066,0.936-0.066
	c0.776,0,1.352,0.17,1.729,0.511c0.375,0.339,0.563,0.874,0.563,1.601v4.045c-0.28,0.057-0.62,0.111-1.021,0.168
	c-0.399,0.057-0.779,0.085-1.139,0.085c-0.745,0-1.331-0.148-1.759-0.444c-0.428-0.297-0.642-0.775-0.642-1.439
	c0-0.32,0.062-0.607,0.186-0.858c0.125-0.253,0.296-0.466,0.517-0.638c0.22-0.172,0.483-0.301,0.792-0.389
	c0.307-0.089,0.646-0.133,1.013-0.133c0.288,0,0.536,0.01,0.745,0.029c0.207,0.021,0.379,0.039,0.516,0.055V22.507"></path>
<path id="path36" d="M70.835,20.431c0.063-0.008,0.126-0.014,0.186-0.018c0.06-0.005,0.118-0.007,0.174-0.007
	c0.063,0,0.124,0.002,0.18,0.007c0.056,0.004,0.116,0.01,0.18,0.018c0.016,0.143,0.028,0.324,0.036,0.54s0.012,0.404,0.012,0.563
	c0.079-0.144,0.184-0.289,0.312-0.438c0.127-0.148,0.278-0.282,0.45-0.401c0.172-0.122,0.37-0.22,0.594-0.294
	c0.224-0.078,0.468-0.115,0.733-0.115c0.704,0,1.216,0.211,1.535,0.631c0.32,0.42,0.48,1.01,0.48,1.77v3.863
	c-0.048,0.008-0.114,0.015-0.199,0.02c-0.083,0.004-0.149,0.004-0.197,0.004c-0.04,0-0.104,0-0.192-0.004
	c-0.088-0.005-0.156-0.012-0.204-0.02v-3.623c0-0.68-0.105-1.168-0.318-1.465c-0.212-0.295-0.53-0.443-0.954-0.443
	c-0.279,0-0.544,0.055-0.792,0.168c-0.248,0.112-0.462,0.274-0.643,0.486c-0.18,0.213-0.321,0.475-0.426,0.785
	c-0.104,0.312-0.156,0.668-0.156,1.068v3.023c-0.048,0.008-0.114,0.015-0.198,0.02c-0.084,0.004-0.15,0.004-0.198,0.004
	c-0.04,0-0.104,0-0.192-0.004c-0.088-0.005-0.156-0.012-0.204-0.02V20.431"></path>
<path id="path38" d="M77.364,26.55c-0.025-0.168-0.036-0.336-0.036-0.503c0-0.177,0.011-0.349,0.036-0.517
	c0.167-0.023,0.335-0.035,0.503-0.035c0.175,0,0.349,0.012,0.516,0.035c0.024,0.168,0.036,0.337,0.036,0.504
	c0,0.177-0.012,0.348-0.036,0.516c-0.167,0.023-0.336,0.037-0.504,0.037C77.703,26.587,77.531,26.574,77.364,26.55z M77.364,21.416
	c-0.025-0.168-0.036-0.336-0.036-0.506c0-0.175,0.011-0.347,0.036-0.516c0.167-0.023,0.335-0.035,0.503-0.035
	c0.175,0,0.349,0.012,0.516,0.035c0.024,0.169,0.036,0.336,0.036,0.504c0,0.176-0.012,0.35-0.036,0.518
	c-0.167,0.023-0.336,0.035-0.504,0.035C77.703,21.451,77.531,21.439,77.364,21.416"></path>
<path id="path40" d="M91.495,21.485c-0.345-0.132-0.654-0.276-0.928-0.435c-0.273-0.156-0.507-0.344-0.7-0.562
	c-0.193-0.217-0.342-0.479-0.448-0.783c-0.106-0.303-0.16-0.67-0.16-1.096c0-0.516,0.088-0.973,0.267-1.367
	c0.177-0.396,0.428-0.729,0.753-0.998c0.324-0.268,0.715-0.471,1.172-0.607c0.456-0.137,0.968-0.205,1.536-0.205
	c0.517,0,1.001,0.045,1.453,0.138c0.451,0.091,0.926,0.222,1.422,0.394c-0.06,0.588-0.223,1.166-0.487,1.734
	c-0.151-0.061-0.307-0.121-0.463-0.182c-0.158-0.062-0.325-0.113-0.503-0.152c-0.177-0.041-0.377-0.073-0.6-0.1
	c-0.223-0.025-0.478-0.037-0.761-0.037c-0.172,0-0.348,0.016-0.524,0.045c-0.178,0.029-0.337,0.086-0.48,0.168
	c-0.142,0.08-0.258,0.201-0.349,0.357c-0.092,0.156-0.137,0.362-0.137,0.615c0,0.203,0.036,0.373,0.107,0.51
	c0.071,0.137,0.167,0.254,0.289,0.35c0.121,0.098,0.258,0.178,0.411,0.244c0.151,0.066,0.304,0.129,0.457,0.189l0.913,0.35
	c0.385,0.152,0.735,0.311,1.049,0.472c0.314,0.163,0.581,0.364,0.799,0.603c0.218,0.238,0.388,0.527,0.51,0.867
	c0.121,0.34,0.182,0.758,0.182,1.255c0,0.517-0.094,0.987-0.281,1.414c-0.188,0.425-0.459,0.792-0.814,1.095
	c-0.356,0.305-0.794,0.543-1.317,0.717c-0.522,0.172-1.123,0.258-1.803,0.258c-0.334,0-0.633-0.012-0.896-0.03
	c-0.265-0.021-0.515-0.054-0.753-0.1S89.934,26.5,89.7,26.43c-0.233-0.071-0.477-0.157-0.73-0.259
	c0.031-0.295,0.086-0.602,0.168-0.921c0.081-0.319,0.177-0.642,0.289-0.966c0.425,0.172,0.826,0.302,1.201,0.387
	c0.375,0.087,0.776,0.129,1.202,0.129c0.639,0,1.141-0.118,1.506-0.355c0.365-0.238,0.547-0.602,0.547-1.09
	c0-0.242-0.042-0.445-0.128-0.607c-0.086-0.161-0.198-0.3-0.335-0.41c-0.138-0.111-0.292-0.205-0.464-0.281
	s-0.349-0.149-0.532-0.221L91.495,21.485"></path>
<path id="path42" d="M100,17.5h-2.724c-0.06-0.304-0.091-0.624-0.091-0.959c0-0.312,0.031-0.623,0.091-0.926h7.683
	c0.061,0.303,0.091,0.613,0.091,0.926c0,0.335-0.03,0.655-0.091,0.959h-2.723v9.051c-0.183,0.021-0.366,0.038-0.548,0.054
	c-0.183,0.017-0.36,0.022-0.532,0.022c-0.173,0-0.358-0.006-0.555-0.014c-0.198-0.011-0.398-0.031-0.601-0.062V17.5"></path>
<path id="path44" d="M106.495,15.615c0.375-0.062,0.746-0.092,1.111-0.092s0.74,0.03,1.126,0.092V26.55
	c-0.386,0.062-0.756,0.092-1.111,0.092c-0.375,0-0.75-0.029-1.125-0.092V15.615"></path>
<path id="path46" d="M118.086,24.482c0.132,0.283,0.241,0.576,0.327,0.875c0.086,0.3,0.149,0.6,0.19,0.904
	c-0.527,0.193-1.001,0.32-1.422,0.381c-0.421,0.062-0.875,0.092-1.362,0.092c-0.862,0-1.618-0.141-2.267-0.419
	s-1.194-0.669-1.635-1.172c-0.442-0.501-0.773-1.097-0.997-1.788c-0.224-0.688-0.335-1.438-0.335-2.251
	c0-0.812,0.117-1.563,0.351-2.259c0.233-0.693,0.57-1.296,1.011-1.803c0.442-0.508,0.984-0.9,1.628-1.185
	c0.644-0.284,1.376-0.427,2.198-0.427c0.487,0,0.936,0.031,1.346,0.092c0.411,0.061,0.854,0.188,1.332,0.381
	c-0.021,0.303-0.082,0.6-0.184,0.889s-0.212,0.58-0.334,0.875c-0.355-0.123-0.669-0.209-0.943-0.26
	c-0.274-0.051-0.599-0.076-0.974-0.076c-0.973,0-1.721,0.316-2.244,0.951c-0.522,0.635-0.783,1.574-0.783,2.821
	c0,2.476,1.049,3.712,3.149,3.712c0.375,0,0.705-0.023,0.988-0.074C117.412,24.691,117.731,24.604,118.086,24.482"></path>
<path id="path48" d="M120.263,15.615c0.375-0.062,0.745-0.092,1.11-0.092s0.74,0.03,1.126,0.092v4.287h3.666v-4.287
	c0.375-0.062,0.745-0.092,1.111-0.092c0.365,0,0.74,0.03,1.125,0.092V26.55c-0.385,0.062-0.755,0.092-1.11,0.092
	c-0.375,0-0.751-0.029-1.126-0.092v-4.73h-3.666v4.73c-0.386,0.062-0.756,0.092-1.11,0.092c-0.375,0-0.75-0.029-1.125-0.092V15.615"></path>
<path id="path50" d="M132.66,17.5h-2.723c-0.061-0.304-0.091-0.624-0.091-0.959c0-0.312,0.03-0.623,0.091-0.926h7.683
	c0.06,0.303,0.09,0.613,0.09,0.926c0,0.335-0.03,0.655-0.09,0.959h-2.724v9.051c-0.181,0.021-0.365,0.038-0.547,0.054
	c-0.183,0.017-0.36,0.022-0.533,0.022c-0.172,0-0.357-0.006-0.555-0.014c-0.198-0.011-0.398-0.031-0.601-0.062V17.5"></path>
<path id="path52" d="M139.156,15.615c0.375-0.062,0.746-0.092,1.111-0.092s0.74,0.03,1.125,0.092V26.55
	c-0.385,0.062-0.755,0.092-1.111,0.092c-0.375,0-0.75-0.029-1.125-0.092V15.615"></path>
<path id="path54" d="M143.522,15.615c0.313-0.062,0.614-0.092,0.896-0.092c0.306,0,0.619,0.03,0.944,0.092l4.229,6.967v-6.967
	c0.366-0.062,0.715-0.092,1.049-0.092c0.315,0,0.619,0.03,0.914,0.092V26.55c-0.325,0.062-0.619,0.092-0.883,0.092
	c-0.284,0-0.593-0.029-0.928-0.092l-4.26-6.951v6.951c-0.324,0.062-0.653,0.092-0.988,0.092c-0.335,0-0.66-0.029-0.974-0.092V15.615
	"></path>
<path id="path56" d="M159.693,20.876c0.375-0.062,0.74-0.092,1.095-0.092c0.354,0,0.725,0.03,1.11,0.092v5.369
	c-0.526,0.193-1.077,0.324-1.65,0.389c-0.573,0.066-1.072,0.1-1.498,0.1c-0.893,0-1.674-0.141-2.344-0.419s-1.227-0.669-1.673-1.172
	c-0.447-0.501-0.781-1.097-1.004-1.788c-0.223-0.688-0.335-1.438-0.335-2.251c0-0.812,0.118-1.563,0.351-2.259
	c0.232-0.693,0.569-1.296,1.011-1.803c0.441-0.508,0.984-0.9,1.628-1.185s1.377-0.427,2.199-0.427c0.487,0,0.941,0.031,1.361,0.092
	s0.86,0.188,1.316,0.381c-0.02,0.303-0.081,0.6-0.183,0.889c-0.101,0.289-0.213,0.58-0.334,0.875
	c-0.354-0.123-0.669-0.209-0.943-0.26c-0.273-0.051-0.599-0.076-0.973-0.076c-0.975,0-1.723,0.316-2.244,0.951
	c-0.522,0.635-0.784,1.574-0.784,2.821c0,1.248,0.258,2.179,0.776,2.792c0.517,0.614,1.277,0.92,2.281,0.92
	c0.172,0,0.328-0.01,0.464-0.029c0.138-0.021,0.261-0.041,0.374-0.061V20.876"></path>
<path id="path58" d="M166.28,15.615c0.172-0.021,0.37-0.041,0.592-0.062c0.224-0.021,0.422-0.03,0.595-0.03
	c0.385,0,0.791,0.03,1.217,0.092l2.388,8.623l2.419-8.623c0.203-0.031,0.397-0.051,0.586-0.062c0.187-0.011,0.377-0.016,0.569-0.016
	c0.183,0,0.368,0.005,0.555,0.016c0.188,0.011,0.383,0.03,0.587,0.062l-3.531,10.936c-0.212,0.031-0.417,0.054-0.616,0.07
	c-0.197,0.014-0.406,0.021-0.63,0.021c-0.204,0-0.4-0.008-0.593-0.021c-0.192-0.017-0.405-0.039-0.639-0.07L166.28,15.615"></path>
<path id="path60" d="M181.066,24.878c1.572,0,2.357-1.258,2.357-3.774c0-1.257-0.189-2.2-0.569-2.829
	c-0.381-0.629-0.972-0.943-1.772-0.943c-1.593,0-2.389,1.258-2.389,3.772C178.693,23.621,179.484,24.878,181.066,24.878z
	 M181.066,26.734c-0.821,0-1.532-0.143-2.13-0.426c-0.597-0.284-1.089-0.678-1.475-1.18s-0.672-1.096-0.86-1.779
	c-0.187-0.685-0.282-1.432-0.282-2.245c0-0.812,0.095-1.563,0.282-2.259c0.188-0.693,0.475-1.296,0.86-1.803
	c0.385-0.508,0.877-0.9,1.475-1.185c0.599-0.284,1.309-0.427,2.13-0.427c0.822,0,1.531,0.143,2.129,0.427s1.091,0.677,1.476,1.185
	c0.385,0.507,0.672,1.109,0.859,1.803c0.188,0.695,0.281,1.447,0.281,2.259c0,0.813-0.093,1.561-0.281,2.245
	c-0.187,0.684-0.474,1.277-0.859,1.779s-0.877,0.896-1.476,1.18C182.597,26.591,181.888,26.734,181.066,26.734"></path>
<path id="path62" d="M192.111,24.878c1.572,0,2.358-1.258,2.358-3.774c0-1.257-0.19-2.2-0.571-2.829
	c-0.38-0.629-0.972-0.943-1.772-0.943c-1.593,0-2.389,1.258-2.389,3.772C189.737,23.621,190.528,24.878,192.111,24.878
	L192.111,24.878z M192.111,26.734c-0.822,0-1.531-0.143-2.131-0.426c-0.597-0.284-1.089-0.678-1.475-1.18s-0.672-1.096-0.86-1.779
	c-0.187-0.685-0.282-1.432-0.282-2.245c0-0.812,0.095-1.563,0.282-2.259c0.188-0.693,0.475-1.296,0.86-1.803
	c0.385-0.508,0.877-0.9,1.475-1.185c0.6-0.284,1.309-0.427,2.131-0.427c0.821,0,1.53,0.143,2.13,0.427
	c0.598,0.284,1.089,0.677,1.475,1.185c0.386,0.507,0.672,1.109,0.86,1.803c0.187,0.695,0.281,1.447,0.281,2.259
	c0,0.813-0.095,1.561-0.281,2.245c-0.188,0.684-0.475,1.277-0.86,1.779s-0.877,0.896-1.475,1.18
	C193.641,26.591,192.932,26.734,192.111,26.734"></path>
<path id="path64" d="M198.805,15.615c0.445-0.051,0.864-0.094,1.255-0.131c0.389-0.035,0.823-0.053,1.3-0.053
	c0.558,0,1.108,0.051,1.651,0.152c0.542,0.102,1.032,0.281,1.468,0.54s0.788,0.606,1.058,1.048c0.269,0.441,0.402,1.002,0.402,1.682
	c0,0.406-0.05,0.764-0.152,1.072c-0.101,0.311-0.23,0.582-0.388,0.814c-0.156,0.232-0.327,0.434-0.509,0.6
	c-0.183,0.169-0.356,0.303-0.517,0.404l-0.259,0.168l2.663,4.623c-0.203,0.021-0.416,0.041-0.639,0.062
	c-0.223,0.021-0.452,0.029-0.685,0.029c-0.385,0-0.766-0.029-1.142-0.092l-2.858-5.08l0.364-0.182
	c0.143-0.072,0.315-0.164,0.518-0.273c0.203-0.113,0.398-0.252,0.585-0.42c0.188-0.166,0.348-0.369,0.48-0.608
	c0.131-0.237,0.198-0.519,0.198-0.845c0-0.639-0.182-1.107-0.548-1.406c-0.364-0.299-0.836-0.449-1.413-0.449
	c-0.224,0-0.427,0.016-0.609,0.045v9.234c-0.183,0.021-0.365,0.038-0.548,0.054c-0.182,0.017-0.36,0.022-0.532,0.022
	c-0.173,0-0.356-0.006-0.548-0.014c-0.193-0.011-0.391-0.031-0.592-0.062V15.615"></path>
<path id="path66" d="M209.834,17.5h-2.724c-0.062-0.304-0.091-0.624-0.091-0.959c0-0.312,0.029-0.623,0.091-0.926h7.683
	c0.061,0.303,0.09,0.613,0.09,0.926c0,0.335-0.029,0.655-0.09,0.959h-2.723v9.051c-0.183,0.021-0.366,0.038-0.548,0.054
	c-0.183,0.017-0.36,0.022-0.533,0.022c-0.172,0-0.356-0.006-0.555-0.014c-0.197-0.011-0.398-0.031-0.6-0.062V17.5"></path>
<path id="path68" d="M221.776,20.876c0.375-0.062,0.74-0.092,1.095-0.092c0.356,0,0.726,0.03,1.111,0.092v5.369
	c-0.527,0.193-1.078,0.324-1.651,0.389c-0.573,0.066-1.072,0.1-1.499,0.1c-0.892,0-1.673-0.141-2.343-0.419
	s-1.227-0.669-1.673-1.172c-0.447-0.501-0.781-1.097-1.004-1.788c-0.224-0.688-0.334-1.438-0.334-2.251
	c0-0.812,0.116-1.563,0.351-2.259c0.233-0.693,0.57-1.296,1.012-1.803c0.44-0.508,0.983-0.9,1.628-1.185
	c0.643-0.284,1.376-0.427,2.198-0.427c0.486,0,0.94,0.031,1.362,0.092c0.42,0.061,0.859,0.188,1.315,0.381
	c-0.021,0.303-0.082,0.6-0.183,0.889c-0.102,0.289-0.213,0.58-0.335,0.875c-0.354-0.123-0.669-0.209-0.942-0.26
	c-0.275-0.051-0.599-0.076-0.974-0.076c-0.975,0-1.721,0.316-2.244,0.951c-0.524,0.635-0.784,1.574-0.784,2.821
	c0,1.248,0.257,2.179,0.776,2.792c0.518,0.614,1.277,0.92,2.281,0.92c0.173,0,0.327-0.01,0.465-0.029
	c0.136-0.021,0.26-0.041,0.372-0.061V20.876"></path>
<path id="path70" d="M225.93,15.615h6.207c0.059,0.303,0.092,0.613,0.092,0.926c0,0.335-0.033,0.655-0.092,0.959h-3.986v2.373h3.164
	c0.062,0.324,0.092,0.639,0.092,0.942c0,0.326-0.03,0.646-0.092,0.959h-3.164v2.891h4.092c0.062,0.305,0.092,0.614,0.092,0.929
	c0,0.334-0.029,0.652-0.092,0.957h-6.312V15.615"></path>
<path id="path72" d="M233.52,26.398l4.594-8.898h-4.197c-0.062-0.304-0.092-0.613-0.092-0.928c0-0.334,0.03-0.654,0.092-0.957h7.332
	l0.121,0.182l-4.549,8.868h4.32c0.061,0.305,0.092,0.614,0.092,0.929c0,0.334-0.031,0.652-0.092,0.957h-7.514L233.52,26.398"></path>
<path id="path74" d="M242.83,15.615h6.207c0.061,0.303,0.092,0.613,0.092,0.926c0,0.335-0.031,0.655-0.092,0.959h-3.985v2.373h3.164
	c0.062,0.324,0.091,0.639,0.091,0.942c0,0.326-0.029,0.646-0.091,0.959h-3.164v2.891h4.091c0.062,0.305,0.094,0.614,0.094,0.929
	c0,0.334-0.032,0.652-0.094,0.957h-6.312V15.615"></path>
<path id="path76" d="M253.037,17.5h-2.724c-0.062-0.304-0.091-0.624-0.091-0.959c0-0.312,0.029-0.623,0.091-0.926h7.683
	c0.061,0.303,0.09,0.613,0.09,0.926c0,0.335-0.029,0.655-0.09,0.959h-2.723v9.051c-0.183,0.021-0.364,0.038-0.549,0.054
	c-0.182,0.017-0.359,0.022-0.531,0.022s-0.357-0.006-0.555-0.014c-0.199-0.011-0.398-0.031-0.602-0.062V17.5"></path>
<path id="path78" d="M267.338,24.878c1.571,0,2.357-1.258,2.357-3.774c0-1.257-0.189-2.2-0.57-2.829
	c-0.38-0.629-0.972-0.943-1.771-0.943c-1.594,0-2.39,1.258-2.39,3.772C264.964,23.621,265.755,24.878,267.338,24.878z
	 M267.338,26.734c-0.822,0-1.533-0.143-2.131-0.426c-0.598-0.284-1.09-0.678-1.475-1.18c-0.386-0.502-0.672-1.096-0.86-1.779
	c-0.187-0.685-0.281-1.432-0.281-2.245c0-0.812,0.095-1.563,0.281-2.259c0.188-0.693,0.475-1.296,0.86-1.803
	c0.385-0.508,0.877-0.9,1.475-1.185s1.309-0.427,2.131-0.427c0.82,0,1.53,0.143,2.13,0.427c0.598,0.284,1.089,0.677,1.476,1.185
	c0.385,0.507,0.672,1.109,0.859,1.803c0.187,0.695,0.281,1.447,0.281,2.259c0,0.813-0.095,1.561-0.281,2.245
	c-0.188,0.684-0.475,1.277-0.859,1.779c-0.387,0.502-0.878,0.896-1.476,1.18C268.868,26.591,268.158,26.734,267.338,26.734"></path>
<path id="path80" d="M273.924,15.615c0.314-0.062,0.613-0.092,0.897-0.092c0.306,0,0.618,0.03,0.944,0.092l4.229,6.967v-6.967
	c0.365-0.062,0.715-0.092,1.05-0.092c0.315,0,0.618,0.03,0.913,0.092V26.55c-0.325,0.062-0.618,0.092-0.883,0.092
	c-0.283,0-0.594-0.029-0.929-0.092l-4.259-6.951v6.951c-0.324,0.062-0.653,0.092-0.988,0.092c-0.334,0-0.66-0.029-0.975-0.092
	V15.615"></path>
<path id="path82" d="M286.368,24.787c0.092,0.011,0.209,0.02,0.351,0.029c0.143,0.012,0.313,0.016,0.518,0.016
	c0.465,0,0.899-0.053,1.3-0.16c0.401-0.106,0.749-0.301,1.044-0.585c0.292-0.284,0.525-0.665,0.699-1.141
	c0.172-0.477,0.258-1.091,0.258-1.842c0-0.729-0.086-1.339-0.258-1.825c-0.174-0.486-0.407-0.871-0.699-1.156
	c-0.295-0.284-0.633-0.482-1.012-0.6c-0.381-0.117-0.784-0.176-1.21-0.176c-0.143,0-0.308,0.004-0.495,0.007
	c-0.188,0.005-0.353,0.019-0.495,0.039V24.787z M284.133,15.615c0.426-0.051,0.873-0.094,1.34-0.131
	c0.465-0.035,0.982-0.053,1.551-0.053c1.916,0,3.374,0.477,4.374,1.43c0.999,0.953,1.499,2.383,1.499,4.289
	c0,1.916-0.508,3.326-1.523,4.229c-1.014,0.904-2.519,1.355-4.518,1.355c-0.517,0-0.994-0.018-1.43-0.054
	c-0.437-0.036-0.867-0.078-1.293-0.13V15.615"></path>
<path id="path84" d="M294.736,15.615h6.206c0.061,0.303,0.091,0.613,0.091,0.926c0,0.335-0.03,0.655-0.091,0.959h-3.985v2.373h3.164
	c0.062,0.324,0.091,0.639,0.091,0.942c0,0.326-0.029,0.646-0.091,0.959h-3.164v2.891h4.091c0.062,0.305,0.092,0.614,0.092,0.929
	c0,0.334-0.03,0.652-0.092,0.957h-6.312V15.615"></path>
<path id="path86" d="M302.92,15.615c0.445-0.051,0.865-0.094,1.256-0.131c0.39-0.035,0.823-0.053,1.299-0.053
	c0.559,0,1.109,0.051,1.652,0.152c0.542,0.102,1.031,0.281,1.468,0.54c0.435,0.259,0.788,0.606,1.058,1.048
	c0.268,0.441,0.402,1.002,0.402,1.682c0,0.406-0.051,0.764-0.152,1.072c-0.102,0.311-0.23,0.582-0.388,0.814
	c-0.156,0.232-0.327,0.434-0.51,0.6c-0.183,0.169-0.355,0.303-0.517,0.404l-0.259,0.168l2.662,4.623
	c-0.202,0.021-0.417,0.041-0.64,0.062c-0.223,0.021-0.45,0.029-0.684,0.029c-0.386,0-0.766-0.029-1.142-0.092l-2.858-5.08
	l0.363-0.182c0.143-0.072,0.315-0.164,0.518-0.273c0.203-0.113,0.398-0.252,0.585-0.42c0.188-0.166,0.349-0.369,0.48-0.608
	c0.131-0.237,0.197-0.519,0.197-0.845c0-0.639-0.183-1.107-0.548-1.406c-0.364-0.299-0.836-0.449-1.413-0.449
	c-0.225,0-0.427,0.016-0.611,0.045v9.234c-0.181,0.021-0.363,0.038-0.547,0.054c-0.181,0.017-0.359,0.022-0.531,0.022
	c-0.174,0-0.356-0.006-0.548-0.014c-0.193-0.011-0.391-0.031-0.594-0.062V15.615"></path>
<path id="path88" d="M311.287,15.615c0.363-0.062,0.781-0.092,1.246-0.092c0.183,0,0.368,0.006,0.555,0.015
	c0.188,0.011,0.375,0.036,0.556,0.077l1.567,8.229l1.887-8.229c0.203-0.031,0.391-0.054,0.562-0.069
	c0.173-0.016,0.351-0.022,0.533-0.022c0.304,0,0.633,0.03,0.989,0.092l1.961,8.441l1.567-8.441c0.315-0.062,0.64-0.092,0.975-0.092
	c0.202,0,0.399,0.01,0.593,0.03c0.192,0.021,0.38,0.04,0.562,0.062l-2.632,10.936c-0.365,0.062-0.745,0.092-1.141,0.092
	c-0.386,0-0.807-0.029-1.263-0.092l-1.75-7.285l-1.887,7.285c-0.243,0.021-0.458,0.041-0.645,0.062
	c-0.188,0.02-0.394,0.029-0.616,0.029c-0.316,0-0.656-0.029-1.021-0.092L311.287,15.615"></path>
<path id="path90" d="M326.118,15.615c0.375-0.062,0.744-0.092,1.111-0.092c0.364,0,0.74,0.03,1.125,0.092V26.55
	c-0.385,0.062-0.756,0.092-1.11,0.092c-0.376,0-0.751-0.029-1.126-0.092V15.615"></path>
<path id="path92" d="M332.463,17.5h-1.812c-0.029-0.143-0.053-0.297-0.066-0.465c-0.016-0.167-0.024-0.332-0.024-0.494
	c0-0.323,0.031-0.633,0.091-0.926h4.032v8.029c0,0.56-0.089,1.033-0.266,1.424s-0.421,0.709-0.73,0.958s-0.675,0.429-1.096,0.54
	c-0.42,0.111-0.88,0.168-1.376,0.168c-0.174,0-0.389-0.015-0.646-0.047c-0.261-0.029-0.505-0.074-0.739-0.137
	c-0.009-0.07-0.018-0.142-0.022-0.213c-0.004-0.07-0.007-0.146-0.007-0.229c0-0.466,0.085-0.932,0.259-1.398
	c0.11,0.02,0.233,0.045,0.364,0.076c0.132,0.029,0.27,0.045,0.412,0.045c0.172,0,0.354-0.01,0.546-0.031
	c0.193-0.02,0.368-0.08,0.525-0.182s0.288-0.251,0.396-0.447c0.106-0.199,0.16-0.48,0.16-0.846V17.5"></path>
<path id="path94" d="M338.729,21.485c-0.346-0.132-0.653-0.276-0.927-0.435c-0.274-0.156-0.508-0.344-0.701-0.562
	c-0.192-0.217-0.343-0.479-0.448-0.783c-0.106-0.303-0.16-0.67-0.16-1.096c0-0.516,0.09-0.973,0.266-1.367
	c0.179-0.396,0.429-0.729,0.755-0.998c0.323-0.268,0.714-0.471,1.17-0.607s0.969-0.205,1.536-0.205c0.519,0,1.002,0.045,1.453,0.138
	c0.452,0.091,0.926,0.222,1.423,0.394c-0.062,0.588-0.224,1.166-0.486,1.734c-0.152-0.061-0.307-0.121-0.466-0.182
	c-0.157-0.062-0.323-0.113-0.501-0.152c-0.178-0.041-0.379-0.073-0.602-0.1c-0.223-0.025-0.476-0.037-0.76-0.037
	c-0.172,0-0.348,0.016-0.525,0.045c-0.176,0.029-0.337,0.086-0.479,0.168c-0.142,0.08-0.259,0.201-0.351,0.357
	c-0.091,0.156-0.136,0.362-0.136,0.615c0,0.203,0.034,0.373,0.106,0.51c0.07,0.137,0.167,0.254,0.289,0.35
	c0.12,0.098,0.258,0.178,0.409,0.244c0.153,0.066,0.306,0.129,0.458,0.189l0.913,0.35c0.385,0.152,0.733,0.311,1.049,0.472
	c0.313,0.163,0.58,0.364,0.798,0.603c0.219,0.238,0.388,0.527,0.511,0.867c0.121,0.34,0.183,0.758,0.183,1.255
	c0,0.517-0.094,0.987-0.281,1.414c-0.188,0.425-0.46,0.792-0.813,1.095c-0.356,0.305-0.795,0.543-1.317,0.717
	c-0.521,0.172-1.123,0.258-1.802,0.258c-0.334,0-0.635-0.012-0.898-0.03c-0.263-0.021-0.515-0.054-0.753-0.1
	c-0.237-0.046-0.474-0.104-0.707-0.174c-0.234-0.071-0.476-0.157-0.73-0.259c0.03-0.295,0.087-0.602,0.167-0.921
	c0.082-0.319,0.178-0.642,0.289-0.966c0.427,0.172,0.826,0.302,1.201,0.387c0.376,0.087,0.777,0.129,1.203,0.129
	c0.639,0,1.141-0.118,1.506-0.355c0.364-0.238,0.549-0.602,0.549-1.09c0-0.242-0.045-0.445-0.131-0.607
	c-0.086-0.161-0.197-0.3-0.335-0.41c-0.136-0.111-0.292-0.205-0.463-0.281c-0.173-0.076-0.351-0.149-0.533-0.221L338.729,21.485"></path>
<path id="path96" d="M351.797,15.615h6.207c0.061,0.303,0.091,0.613,0.091,0.926c0,0.335-0.03,0.655-0.091,0.959h-3.985v2.373h3.164
	c0.062,0.324,0.091,0.639,0.091,0.942c0,0.326-0.029,0.646-0.091,0.959h-3.164v2.891h4.091c0.062,0.305,0.092,0.614,0.092,0.929
	c0,0.334-0.03,0.652-0.092,0.957h-6.312V15.615"></path>
<path id="path98" d="M359.875,15.615h6.208c0.059,0.303,0.09,0.613,0.09,0.926c0,0.335-0.031,0.655-0.09,0.959h-3.987v2.373h3.164
	c0.062,0.324,0.092,0.639,0.092,0.942c0,0.326-0.03,0.646-0.092,0.959h-3.164v2.891h4.092c0.062,0.305,0.093,0.614,0.093,0.929
	c0,0.334-0.031,0.652-0.093,0.957h-6.312V15.615"></path>
<path id="path100" d="M368.257,15.615c0.406-0.062,0.797-0.092,1.171-0.092c0.396,0,0.787,0.03,1.172,0.092l2.511,6.266l2.586-6.266
	c0.314-0.062,0.665-0.092,1.051-0.092c0.385,0,0.754,0.03,1.11,0.092l0.516,10.936c-0.385,0.062-0.75,0.092-1.095,0.092
	s-0.685-0.029-1.02-0.092l-0.273-7.424l-2.222,5.143c-0.141,0.021-0.289,0.039-0.441,0.053c-0.151,0.016-0.304,0.023-0.456,0.023
	c-0.132,0-0.264-0.006-0.395-0.016c-0.132-0.01-0.271-0.03-0.412-0.061l-2.069-5.248l-0.212,7.529
	c-0.325,0.062-0.64,0.092-0.943,0.092c-0.324,0-0.659-0.029-1.004-0.092L368.257,15.615"></path>
<path id="path102" d="M382.373,21.485c-0.345-0.132-0.653-0.276-0.927-0.435c-0.274-0.156-0.508-0.344-0.699-0.562
	c-0.193-0.217-0.343-0.479-0.448-0.783c-0.106-0.303-0.16-0.67-0.16-1.096c0-0.516,0.088-0.973,0.266-1.367
	c0.179-0.396,0.428-0.729,0.753-0.998c0.324-0.268,0.715-0.471,1.171-0.607c0.457-0.137,0.969-0.205,1.536-0.205
	c0.519,0,1.001,0.045,1.453,0.138c0.452,0.091,0.927,0.222,1.424,0.394c-0.062,0.588-0.224,1.166-0.488,1.734
	c-0.151-0.061-0.307-0.121-0.464-0.182c-0.157-0.062-0.324-0.113-0.501-0.152c-0.179-0.041-0.379-0.073-0.602-0.1
	c-0.223-0.025-0.478-0.037-0.761-0.037c-0.173,0-0.348,0.016-0.524,0.045c-0.178,0.029-0.337,0.086-0.48,0.168
	c-0.141,0.08-0.258,0.201-0.349,0.357c-0.093,0.156-0.138,0.362-0.138,0.615c0,0.203,0.036,0.373,0.106,0.51
	c0.071,0.137,0.167,0.254,0.29,0.35c0.121,0.098,0.257,0.178,0.41,0.244c0.152,0.066,0.304,0.129,0.456,0.189l0.913,0.35
	c0.386,0.152,0.735,0.311,1.05,0.472c0.313,0.163,0.581,0.364,0.799,0.603c0.219,0.238,0.388,0.527,0.511,0.867
	c0.119,0.34,0.181,0.758,0.181,1.255c0,0.517-0.093,0.987-0.281,1.414c-0.187,0.425-0.459,0.792-0.813,1.095
	c-0.355,0.305-0.794,0.543-1.315,0.717c-0.523,0.172-1.124,0.258-1.803,0.258c-0.335,0-0.634-0.012-0.898-0.03
	c-0.263-0.021-0.514-0.054-0.752-0.1c-0.239-0.046-0.476-0.104-0.707-0.174c-0.234-0.071-0.478-0.157-0.73-0.259
	c0.029-0.295,0.085-0.602,0.166-0.921c0.082-0.319,0.179-0.642,0.29-0.966c0.427,0.172,0.826,0.302,1.201,0.387
	c0.374,0.087,0.775,0.129,1.201,0.129c0.64,0,1.143-0.118,1.507-0.355c0.365-0.238,0.548-0.602,0.548-1.09
	c0-0.242-0.044-0.445-0.129-0.607c-0.087-0.161-0.199-0.3-0.335-0.41c-0.138-0.111-0.292-0.205-0.464-0.281
	c-0.174-0.076-0.351-0.149-0.532-0.221L382.373,21.485"></path>
<path id="path104" d="M391.029,24.787c0.092,0.011,0.209,0.02,0.351,0.029c0.143,0.012,0.314,0.016,0.518,0.016
	c0.465,0,0.899-0.053,1.3-0.16c0.401-0.106,0.749-0.301,1.044-0.585c0.292-0.284,0.525-0.665,0.698-1.141
	c0.173-0.477,0.259-1.091,0.259-1.842c0-0.729-0.086-1.339-0.259-1.825s-0.406-0.871-0.698-1.156
	c-0.295-0.284-0.632-0.482-1.012-0.6s-0.784-0.176-1.21-0.176c-0.143,0-0.308,0.004-0.494,0.007
	c-0.188,0.005-0.354,0.019-0.496,0.039V24.787z M388.795,15.615c0.425-0.051,0.872-0.094,1.338-0.131
	c0.466-0.035,0.983-0.053,1.553-0.053c1.916,0,3.373,0.477,4.373,1.43c0.999,0.953,1.499,2.383,1.499,4.289
	c0,1.916-0.509,3.326-1.523,4.229c-1.013,0.904-2.519,1.355-4.517,1.355c-0.518,0-0.993-0.018-1.431-0.054
	c-0.437-0.036-0.867-0.078-1.292-0.13V15.615"></path>
<path id="path106" d="M399.397,15.615h6.206c0.061,0.303,0.091,0.613,0.091,0.926c0,0.335-0.03,0.655-0.091,0.959h-3.984v2.373
	h3.163c0.062,0.324,0.091,0.639,0.091,0.942c0,0.326-0.029,0.646-0.091,0.959h-3.163v2.891h4.09
	c0.062,0.305,0.094,0.614,0.094,0.929c0,0.334-0.032,0.652-0.094,0.957h-6.312V15.615"></path>
<path id="path108" d="M407.475,15.615c0.376-0.062,0.734-0.092,1.08-0.092c0.355,0,0.726,0.03,1.11,0.092v9.02h3.788
	c0.031,0.172,0.051,0.337,0.062,0.494c0.011,0.156,0.015,0.307,0.015,0.449c0,0.162-0.004,0.322-0.015,0.479
	c-0.011,0.158-0.03,0.322-0.062,0.494h-5.979V15.615"></path>
<path id="path110" d="M415.676,17.5h-2.724c-0.062-0.304-0.091-0.624-0.091-0.959c0-0.312,0.029-0.623,0.091-0.926h7.683
	c0.06,0.303,0.091,0.613,0.091,0.926c0,0.335-0.031,0.655-0.091,0.959h-2.723v9.051c-0.183,0.021-0.365,0.038-0.55,0.054
	c-0.181,0.017-0.358,0.022-0.531,0.022s-0.357-0.006-0.555-0.014c-0.197-0.011-0.399-0.031-0.601-0.062V17.5"></path>
<path id="path112" d="M426.08,22.519l-1.263-4.594l-1.324,4.594H426.08z M423.646,15.615c0.215-0.031,0.416-0.054,0.607-0.069
	c0.193-0.016,0.407-0.022,0.641-0.022c0.202,0,0.401,0.007,0.593,0.022c0.193,0.016,0.405,0.038,0.639,0.069l3.423,10.936
	c-0.415,0.062-0.821,0.092-1.217,0.092c-0.386,0-0.761-0.029-1.126-0.092l-0.607-2.189h-3.622l-0.622,2.189
	c-0.367,0.062-0.715,0.092-1.05,0.092c-0.377,0-0.746-0.029-1.11-0.092L423.646,15.615"></path>
<path id="path114" d="M430.062,0.001v5.477h12.975v12.976h5.478V0.001H430.062"></path>
</svg>