<?xml version="1.0" encoding="utf-8"?>

<svg xmlns:svg="http://www.w3.org/2000/svg" xmlns:rdf="http://www.w3.org/1999/02/22-rdf-syntax-ns#" xmlns:cc="http://creativecommons.org/ns#" xmlns:dc="http://purl.org/dc/elements/1.1/" xmlns="http://www.w3.org/2000/svg" xmlns:xlink="http://www.w3.org/1999/xlink" version="1.1" id="svg2" x="0px" y="0px" width="448.52px" height="26.734px" viewBox="0 0 448.52 26.734" enable-background="new 0 0 448.52 26.734" xml:space="preserve">
<style type="text/css">
	.st0{fill:#506BBD;}
</style>
<path id="path14" class="st0" d="M2.7,26c0.6,0,1.1-0.2,1.4-0.7c0.3-0.4,0.5-1.1,0.5-1.8c0-0.8-0.2-1.4-0.5-1.8
	C3.9,21.2,3.4,21,2.7,21s-1.1,0.2-1.4,0.7c-0.3,0.4-0.5,1.1-0.5,1.8c0,0.8,0.2,1.4,0.5,1.8C1.6,25.8,2.1,26,2.7,26z M2.7,26.7
	c-0.5,0-0.9-0.1-1.2-0.2s-0.6-0.4-0.9-0.7c-0.2-0.3-0.4-0.6-0.5-1C0.1,24.4,0,23.9,0,23.5c0-0.4,0.1-0.9,0.2-1.3
	c0.1-0.4,0.3-0.7,0.5-1c0.2-0.3,0.5-0.5,0.9-0.7c0.3-0.2,0.7-0.2,1.2-0.2s0.9,0.1,1.2,0.2s0.6,0.4,0.9,0.7s0.4,0.6,0.5,1
	c0.1,0.4,0.2,0.8,0.2,1.3c0,0.4-0.1,0.9-0.2,1.3c-0.1,0.4-0.3,0.7-0.5,1s-0.5,0.5-0.9,0.7C3.6,26.6,3.2,26.7,2.7,26.7"/>
<path id="path16" class="st0" d="M7.2,20.4c0.1,0,0.1,0,0.2,0c0.1,0,0.1,0,0.2,0c0.1,0,0.1,0,0.2,0c0.1,0,0.1,0,0.2,0
	c0,0.1,0,0.3,0,0.5s0,0.4,0,0.6c0.1-0.1,0.2-0.3,0.3-0.4c0.1-0.1,0.3-0.3,0.4-0.4c0.2-0.1,0.4-0.2,0.6-0.3c0.2-0.1,0.5-0.1,0.7-0.1
	c0.7,0,1.2,0.2,1.5,0.6c0.3,0.4,0.5,1,0.5,1.8v3.9c0,0-0.1,0-0.2,0c-0.1,0-0.1,0-0.2,0c0,0-0.1,0-0.2,0c-0.1,0-0.2,0-0.2,0v-3.6
	c0-0.7-0.1-1.2-0.3-1.5c-0.2-0.3-0.5-0.4-1-0.4c-0.3,0-0.5,0.1-0.8,0.2c-0.2,0.1-0.5,0.3-0.6,0.5c-0.2,0.2-0.3,0.5-0.4,0.8
	C8.1,22.8,8,23.1,8,23.5v3c0,0-0.1,0-0.2,0c-0.1,0-0.2,0-0.2,0c0,0-0.1,0-0.2,0c-0.1,0-0.2,0-0.2,0L7.2,20.4"/>
<path id="path18" class="st0" d="M18.2,21.2c-0.2-0.1-0.4-0.1-0.6-0.2C17.4,21,17.1,21,16.8,21c-0.4,0-0.7,0.1-1,0.2
	c-0.3,0.1-0.5,0.3-0.7,0.5c-0.2,0.2-0.3,0.5-0.4,0.8c-0.1,0.3-0.1,0.7-0.1,1.1c0,0.8,0.2,1.4,0.6,1.8c0.4,0.4,1,0.6,1.7,0.6
	c0.3,0,0.5,0,0.8,0c0.2,0,0.4-0.1,0.6-0.1L18.2,21.2L18.2,21.2z M18.2,17.7c0,0,0.1,0,0.2,0c0.1,0,0.2,0,0.2,0c0,0,0.1,0,0.2,0
	c0.1,0,0.1,0,0.2,0v8.7c-0.2,0.1-0.6,0.1-0.9,0.2c-0.4,0.1-0.8,0.1-1.2,0.1c-0.4,0-0.9-0.1-1.2-0.2c-0.4-0.1-0.7-0.3-1-0.5
	c-0.3-0.2-0.5-0.6-0.7-0.9c-0.2-0.4-0.2-0.9-0.2-1.5c0-0.5,0.1-1,0.2-1.4c0.1-0.4,0.3-0.8,0.6-1c0.3-0.3,0.6-0.5,1-0.7
	c0.4-0.2,0.8-0.2,1.2-0.2c0.3,0,0.5,0,0.8,0.1c0.3,0,0.5,0.1,0.6,0.1V17.7"/>
<path id="path20" class="st0" d="M25.2,23c0-0.2,0-0.5-0.1-0.7c-0.1-0.2-0.2-0.5-0.3-0.6c-0.1-0.2-0.3-0.3-0.5-0.4
	C24.1,21,23.8,21,23.5,21c-0.6,0-1,0.2-1.3,0.5s-0.5,0.8-0.6,1.5H25.2z M21.6,23.6c0,0.8,0.2,1.4,0.6,1.8c0.4,0.4,0.9,0.6,1.7,0.6
	c0.3,0,0.6,0,0.8-0.1c0.3-0.1,0.5-0.1,0.8-0.2c0,0.1,0.1,0.2,0.1,0.3s0,0.2,0,0.3c-0.2,0.1-0.5,0.2-0.8,0.2s-0.7,0.1-1,0.1
	c-0.5,0-1-0.1-1.4-0.2c-0.4-0.2-0.7-0.4-0.9-0.7c-0.2-0.3-0.4-0.6-0.5-1c-0.1-0.4-0.2-0.8-0.2-1.3c0-0.4,0.1-0.9,0.2-1.3
	s0.3-0.7,0.5-1c0.2-0.3,0.5-0.5,0.8-0.7c0.3-0.2,0.8-0.3,1.2-0.3c0.4,0,0.8,0.1,1.1,0.2c0.3,0.1,0.6,0.3,0.8,0.6
	c0.2,0.2,0.4,0.5,0.5,0.9C26,22.3,26,22.6,26,23c0,0.1,0,0.2,0,0.3c0,0.1,0,0.2,0,0.3H21.6"/>
<path id="path22" class="st0" d="M27.8,20.4c0.1,0,0.1,0,0.2,0c0.1,0,0.1,0,0.2,0c0.1,0,0.1,0,0.2,0c0.1,0,0.1,0,0.2,0
	c0,0.1,0,0.3,0,0.5c0,0.2,0,0.4,0,0.5c0.2-0.3,0.4-0.5,0.7-0.8c0.3-0.2,0.7-0.3,1.1-0.3c0,0,0.1,0,0.1,0c0,0,0.1,0,0.1,0
	c0,0.1,0,0.3,0,0.4c0,0.1,0,0.3,0,0.4c-0.1,0-0.1,0-0.1,0s-0.1,0-0.1,0c-0.5,0-1,0.2-1.3,0.5s-0.5,0.9-0.5,1.7v3.1c0,0-0.1,0-0.2,0
	c-0.1,0-0.1,0-0.2,0c0,0-0.1,0-0.2,0c-0.1,0-0.2,0-0.2,0L27.8,20.4"/>
<path id="path24" class="st0" d="M35.9,21.2c-0.2-0.1-0.4-0.1-0.6-0.2C35,21,34.8,21,34.5,21c-0.4,0-0.7,0.1-1,0.2
	c-0.3,0.1-0.5,0.3-0.7,0.5c-0.2,0.2-0.3,0.5-0.4,0.8s-0.1,0.7-0.1,1.1c0,0.8,0.2,1.4,0.6,1.8c0.4,0.4,1,0.6,1.7,0.6
	c0.3,0,0.5,0,0.8,0c0.2,0,0.4-0.1,0.6-0.1L35.9,21.2L35.9,21.2z M35.9,17.7c0,0,0.1,0,0.2,0c0.1,0,0.2,0,0.2,0c0,0,0.1,0,0.2,0
	c0.1,0,0.2,0,0.2,0v8.7c-0.2,0.1-0.6,0.1-0.9,0.2c-0.4,0.1-0.8,0.1-1.2,0.1c-0.4,0-0.9-0.1-1.2-0.2c-0.4-0.1-0.7-0.3-1-0.5
	c-0.3-0.2-0.5-0.6-0.7-0.9c-0.2-0.4-0.2-0.9-0.2-1.5c0-0.5,0.1-1,0.2-1.4c0.1-0.4,0.3-0.8,0.6-1c0.3-0.3,0.6-0.5,1-0.7
	c0.4-0.2,0.8-0.2,1.2-0.2c0.3,0,0.5,0,0.8,0.1c0.3,0,0.5,0.1,0.6,0.1L35.9,17.7"/>
<path id="path26" class="st0" d="M42.9,23c0-0.2,0-0.5-0.1-0.7c-0.1-0.2-0.2-0.5-0.3-0.6c-0.1-0.2-0.3-0.3-0.5-0.4
	C41.8,21,41.5,21,41.2,21c-0.6,0-1,0.2-1.3,0.5c-0.3,0.3-0.5,0.8-0.6,1.5H42.9z M39.3,23.6c0,0.8,0.2,1.4,0.6,1.8
	c0.4,0.4,0.9,0.6,1.7,0.6c0.3,0,0.6,0,0.8-0.1c0.3-0.1,0.5-0.1,0.8-0.2c0,0.1,0.1,0.2,0.1,0.3s0,0.2,0,0.3c-0.2,0.1-0.5,0.2-0.8,0.2
	c-0.3,0.1-0.7,0.1-1,0.1c-0.5,0-1-0.1-1.4-0.2c-0.4-0.2-0.7-0.4-0.9-0.7c-0.2-0.3-0.4-0.6-0.5-1c-0.1-0.4-0.2-0.8-0.2-1.3
	c0-0.4,0.1-0.9,0.2-1.3c0.1-0.4,0.3-0.7,0.5-1s0.5-0.5,0.8-0.7c0.3-0.2,0.8-0.3,1.2-0.3c0.4,0,0.8,0.1,1.1,0.2
	c0.3,0.1,0.6,0.3,0.8,0.6c0.2,0.2,0.4,0.5,0.5,0.9c0.1,0.3,0.2,0.7,0.2,1.1c0,0.1,0,0.2,0,0.3c0,0.1,0,0.2,0,0.3H39.3"/>
<path id="path28" class="st0" d="M49.5,23c0-0.2,0-0.5-0.1-0.7c-0.1-0.2-0.2-0.5-0.3-0.6c-0.1-0.2-0.3-0.3-0.5-0.4
	C48.4,21,48.1,21,47.8,21c-0.6,0-1,0.2-1.3,0.5S46,22.3,46,23H49.5z M45.9,23.6c0,0.8,0.2,1.4,0.6,1.8c0.4,0.4,0.9,0.6,1.7,0.6
	c0.3,0,0.6,0,0.8-0.1c0.3-0.1,0.5-0.1,0.8-0.2c0,0.1,0.1,0.2,0.1,0.3c0,0.1,0,0.2,0,0.3c-0.2,0.1-0.5,0.2-0.8,0.2
	c-0.3,0.1-0.7,0.1-1,0.1c-0.5,0-1-0.1-1.4-0.2c-0.4-0.2-0.7-0.4-0.9-0.7c-0.2-0.3-0.4-0.6-0.5-1c-0.1-0.4-0.2-0.8-0.2-1.3
	c0-0.4,0.1-0.9,0.2-1.3s0.3-0.7,0.5-1c0.2-0.3,0.5-0.5,0.8-0.7c0.3-0.2,0.8-0.3,1.2-0.3c0.4,0,0.8,0.1,1.1,0.2
	c0.3,0.1,0.6,0.3,0.8,0.6c0.2,0.2,0.4,0.5,0.5,0.9c0.1,0.3,0.2,0.7,0.2,1.1c0,0.1,0,0.2,0,0.3c0,0.1,0,0.2,0,0.3H45.9"/>
<path id="path30" class="st0" d="M52.1,17.7c0,0,0.1,0,0.2,0c0.1,0,0.2,0,0.2,0c0,0,0.1,0,0.2,0c0.1,0,0.2,0,0.2,0v7.4
	c0,0.2,0,0.4,0.1,0.5c0,0.1,0.1,0.2,0.2,0.3c0.1,0.1,0.2,0.1,0.2,0.1c0.1,0,0.2,0,0.2,0c0.1,0,0.2,0,0.3,0c0.1,0,0.2,0,0.2,0
	c0,0.1,0.1,0.2,0.1,0.3c0,0.1,0,0.2,0,0.3c-0.1,0-0.2,0.1-0.4,0.1c-0.1,0-0.3,0-0.4,0c-0.2,0-0.3,0-0.5-0.1c-0.2,0-0.3-0.1-0.5-0.2
	c-0.1-0.1-0.2-0.2-0.3-0.4c-0.1-0.2-0.1-0.4-0.1-0.7L52.1,17.7"/>
<path id="path32" class="st0" d="M57.7,20.4c0,0,0.1,0,0.2,0c0.1,0,0.2,0,0.3,0c0.1,0,0.1,0,0.2,0c0.1,0,0.2,0,0.2,0l1.9,5.3l2-5.3
	c0,0,0.1,0,0.2,0c0.1,0,0.2,0,0.2,0c0.1,0,0.1,0,0.2,0c0.1,0,0.1,0,0.2,0l-2.4,6.1c-0.1,0-0.2,0-0.4,0s-0.3,0-0.4,0L57.7,20.4"/>
<path id="path34" class="st0" d="M68.1,23.6c-0.1,0-0.3,0-0.5-0.1s-0.4,0-0.6,0c-0.6,0-1.1,0.1-1.4,0.3c-0.3,0.2-0.5,0.5-0.5,1
	c0,0.3,0.1,0.5,0.2,0.6s0.2,0.3,0.4,0.4c0.2,0.1,0.3,0.1,0.5,0.2c0.2,0,0.4,0,0.6,0c0.2,0,0.5,0,0.7,0c0.2,0,0.4-0.1,0.6-0.1V23.6z
	 M68.1,22.5c0-0.5-0.1-0.9-0.4-1.2S67.1,21,66.6,21c-0.3,0-0.6,0-0.9,0.1c-0.3,0-0.5,0.1-0.7,0.2c0-0.1-0.1-0.2-0.1-0.3
	c0-0.1,0-0.3,0-0.4c0.2-0.1,0.5-0.1,0.8-0.2s0.6-0.1,0.9-0.1c0.8,0,1.4,0.2,1.7,0.5c0.4,0.3,0.6,0.9,0.6,1.6v4
	c-0.3,0.1-0.6,0.1-1,0.2c-0.4,0.1-0.8,0.1-1.1,0.1c-0.7,0-1.3-0.1-1.8-0.4c-0.4-0.3-0.6-0.8-0.6-1.4c0-0.3,0.1-0.6,0.2-0.9
	c0.1-0.3,0.3-0.5,0.5-0.6c0.2-0.2,0.5-0.3,0.8-0.4c0.3-0.1,0.6-0.1,1-0.1c0.3,0,0.5,0,0.7,0c0.2,0,0.4,0,0.5,0.1L68.1,22.5"/>
<path id="path36" class="st0" d="M70.8,20.4c0.1,0,0.1,0,0.2,0c0.1,0,0.1,0,0.2,0c0.1,0,0.1,0,0.2,0c0.1,0,0.1,0,0.2,0
	c0,0.1,0,0.3,0,0.5s0,0.4,0,0.6c0.1-0.1,0.2-0.3,0.3-0.4c0.1-0.1,0.3-0.3,0.4-0.4c0.2-0.1,0.4-0.2,0.6-0.3c0.2-0.1,0.5-0.1,0.7-0.1
	c0.7,0,1.2,0.2,1.5,0.6c0.3,0.4,0.5,1,0.5,1.8v3.9c0,0-0.1,0-0.2,0c-0.1,0-0.1,0-0.2,0c0,0-0.1,0-0.2,0c-0.1,0-0.2,0-0.2,0v-3.6
	c0-0.7-0.1-1.2-0.3-1.5c-0.2-0.3-0.5-0.4-1-0.4c-0.3,0-0.5,0.1-0.8,0.2c-0.2,0.1-0.5,0.3-0.6,0.5c-0.2,0.2-0.3,0.5-0.4,0.8
	c-0.1,0.3-0.2,0.7-0.2,1.1v3c0,0-0.1,0-0.2,0c-0.1,0-0.2,0-0.2,0c0,0-0.1,0-0.2,0c-0.1,0-0.2,0-0.2,0L70.8,20.4"/>
<path id="path38" class="st0" d="M77.4,26.5c0-0.2,0-0.3,0-0.5c0-0.2,0-0.3,0-0.5c0.2,0,0.3,0,0.5,0c0.2,0,0.3,0,0.5,0
	c0,0.2,0,0.3,0,0.5c0,0.2,0,0.3,0,0.5c-0.2,0-0.3,0-0.5,0C77.7,26.6,77.5,26.6,77.4,26.5z M77.4,21.4c0-0.2,0-0.3,0-0.5
	c0-0.2,0-0.3,0-0.5c0.2,0,0.3,0,0.5,0c0.2,0,0.3,0,0.5,0c0,0.2,0,0.3,0,0.5c0,0.2,0,0.4,0,0.5c-0.2,0-0.3,0-0.5,0
	C77.7,21.5,77.5,21.4,77.4,21.4"/>
<path id="path40" class="st0" d="M91.5,21.5c-0.3-0.1-0.7-0.3-0.9-0.4c-0.3-0.2-0.5-0.3-0.7-0.6c-0.2-0.2-0.3-0.5-0.4-0.8
	c-0.1-0.3-0.2-0.7-0.2-1.1c0-0.5,0.1-1,0.3-1.4c0.2-0.4,0.4-0.7,0.8-1c0.3-0.3,0.7-0.5,1.2-0.6c0.5-0.1,1-0.2,1.5-0.2
	c0.5,0,1,0,1.5,0.1c0.5,0.1,0.9,0.2,1.4,0.4c-0.1,0.6-0.2,1.2-0.5,1.7c-0.2-0.1-0.3-0.1-0.5-0.2c-0.2-0.1-0.3-0.1-0.5-0.2
	c-0.2,0-0.4-0.1-0.6-0.1c-0.2,0-0.5,0-0.8,0c-0.2,0-0.3,0-0.5,0c-0.2,0-0.3,0.1-0.5,0.2c-0.1,0.1-0.3,0.2-0.3,0.4
	c-0.1,0.2-0.1,0.4-0.1,0.6c0,0.2,0,0.4,0.1,0.5c0.1,0.1,0.2,0.3,0.3,0.4c0.1,0.1,0.3,0.2,0.4,0.2c0.2,0.1,0.3,0.1,0.5,0.2l0.9,0.4
	c0.4,0.2,0.7,0.3,1,0.5c0.3,0.2,0.6,0.4,0.8,0.6c0.2,0.2,0.4,0.5,0.5,0.9c0.1,0.3,0.2,0.8,0.2,1.3c0,0.5-0.1,1-0.3,1.4
	c-0.2,0.4-0.5,0.8-0.8,1.1c-0.4,0.3-0.8,0.5-1.3,0.7c-0.5,0.2-1.1,0.3-1.8,0.3c-0.3,0-0.6,0-0.9,0c-0.3,0-0.5-0.1-0.8-0.1
	s-0.5-0.1-0.7-0.2c-0.2-0.1-0.5-0.2-0.7-0.3c0-0.3,0.1-0.6,0.2-0.9c0.1-0.3,0.2-0.6,0.3-1c0.4,0.2,0.8,0.3,1.2,0.4
	c0.4,0.1,0.8,0.1,1.2,0.1c0.6,0,1.1-0.1,1.5-0.4c0.4-0.2,0.5-0.6,0.5-1.1c0-0.2,0-0.4-0.1-0.6c-0.1-0.2-0.2-0.3-0.3-0.4
	c-0.1-0.1-0.3-0.2-0.5-0.3s-0.3-0.1-0.5-0.2L91.5,21.5"/>
<path id="path42" class="st0" d="M100,17.5h-2.7c-0.1-0.3-0.1-0.6-0.1-1c0-0.3,0-0.6,0.1-0.9h7.7c0.1,0.3,0.1,0.6,0.1,0.9
	c0,0.3,0,0.7-0.1,1h-2.7v9.1c-0.2,0-0.4,0-0.5,0.1c-0.2,0-0.4,0-0.5,0c-0.2,0-0.4,0-0.6,0c-0.2,0-0.4,0-0.6-0.1L100,17.5"/>
<path id="path44" class="st0" d="M106.5,15.6c0.4-0.1,0.7-0.1,1.1-0.1s0.7,0,1.1,0.1v10.9c-0.4,0.1-0.8,0.1-1.1,0.1
	c-0.4,0-0.8,0-1.1-0.1L106.5,15.6"/>
<path id="path46" class="st0" d="M118.1,24.5c0.1,0.3,0.2,0.6,0.3,0.9c0.1,0.3,0.1,0.6,0.2,0.9c-0.5,0.2-1,0.3-1.4,0.4
	c-0.4,0.1-0.9,0.1-1.4,0.1c-0.9,0-1.6-0.1-2.3-0.4s-1.2-0.7-1.6-1.2c-0.4-0.5-0.8-1.1-1-1.8c-0.2-0.7-0.3-1.4-0.3-2.3
	c0-0.8,0.1-1.6,0.4-2.3c0.2-0.7,0.6-1.3,1-1.8c0.4-0.5,1-0.9,1.6-1.2c0.6-0.3,1.4-0.4,2.2-0.4c0.5,0,0.9,0,1.3,0.1
	c0.4,0.1,0.9,0.2,1.3,0.4c0,0.3-0.1,0.6-0.2,0.9s-0.2,0.6-0.3,0.9c-0.4-0.1-0.7-0.2-0.9-0.3s-0.6-0.1-1-0.1c-1,0-1.7,0.3-2.2,1
	c-0.5,0.6-0.8,1.6-0.8,2.8c0,2.5,1,3.7,3.1,3.7c0.4,0,0.7,0,1-0.1C117.4,24.7,117.7,24.6,118.1,24.5"/>
<path id="path48" class="st0" d="M120.3,15.6c0.4-0.1,0.7-0.1,1.1-0.1s0.7,0,1.1,0.1v4.3h3.7v-4.3c0.4-0.1,0.7-0.1,1.1-0.1
	c0.4,0,0.7,0,1.1,0.1v10.9c-0.4,0.1-0.8,0.1-1.1,0.1c-0.4,0-0.8,0-1.1-0.1v-4.7h-3.7v4.7c-0.4,0.1-0.8,0.1-1.1,0.1
	c-0.4,0-0.8,0-1.1-0.1L120.3,15.6"/>
<path id="path50" class="st0" d="M132.7,17.5h-2.7c-0.1-0.3-0.1-0.6-0.1-1c0-0.3,0-0.6,0.1-0.9h7.7c0.1,0.3,0.1,0.6,0.1,0.9
	c0,0.3,0,0.7-0.1,1h-2.7v9.1c-0.2,0-0.4,0-0.5,0.1c-0.2,0-0.4,0-0.5,0c-0.2,0-0.4,0-0.6,0c-0.2,0-0.4,0-0.6-0.1V17.5"/>
<path id="path52" class="st0" d="M139.2,15.6c0.4-0.1,0.7-0.1,1.1-0.1s0.7,0,1.1,0.1v10.9c-0.4,0.1-0.8,0.1-1.1,0.1
	c-0.4,0-0.8,0-1.1-0.1V15.6"/>
<path id="path54" class="st0" d="M143.5,15.6c0.3-0.1,0.6-0.1,0.9-0.1c0.3,0,0.6,0,0.9,0.1l4.2,7v-7c0.4-0.1,0.7-0.1,1-0.1
	c0.3,0,0.6,0,0.9,0.1v10.9c-0.3,0.1-0.6,0.1-0.9,0.1c-0.3,0-0.6,0-0.9-0.1l-4.3-7v7c-0.3,0.1-0.7,0.1-1,0.1s-0.7,0-1-0.1L143.5,15.6
	"/>
<path id="path56" class="st0" d="M159.7,20.9c0.4-0.1,0.7-0.1,1.1-0.1c0.4,0,0.7,0,1.1,0.1v5.4c-0.5,0.2-1.1,0.3-1.6,0.4
	c-0.6,0.1-1.1,0.1-1.5,0.1c-0.9,0-1.7-0.1-2.3-0.4s-1.2-0.7-1.7-1.2c-0.4-0.5-0.8-1.1-1-1.8c-0.2-0.7-0.3-1.4-0.3-2.3
	c0-0.8,0.1-1.6,0.4-2.3c0.2-0.7,0.6-1.3,1-1.8c0.4-0.5,1-0.9,1.6-1.2s1.4-0.4,2.2-0.4c0.5,0,0.9,0,1.4,0.1s0.9,0.2,1.3,0.4
	c0,0.3-0.1,0.6-0.2,0.9c-0.1,0.3-0.2,0.6-0.3,0.9c-0.4-0.1-0.7-0.2-0.9-0.3c-0.3-0.1-0.6-0.1-1-0.1c-1,0-1.7,0.3-2.2,1
	c-0.5,0.6-0.8,1.6-0.8,2.8c0,1.2,0.3,2.2,0.8,2.8c0.5,0.6,1.3,0.9,2.3,0.9c0.2,0,0.3,0,0.5,0c0.1,0,0.3,0,0.4-0.1L159.7,20.9"/>
<path id="path58" class="st0" d="M166.3,15.6c0.2,0,0.4,0,0.6-0.1c0.2,0,0.4,0,0.6,0c0.4,0,0.8,0,1.2,0.1l2.4,8.6l2.4-8.6
	c0.2,0,0.4-0.1,0.6-0.1c0.2,0,0.4,0,0.6,0c0.2,0,0.4,0,0.6,0c0.2,0,0.4,0,0.6,0.1l-3.5,10.9c-0.2,0-0.4,0.1-0.6,0.1
	c-0.2,0-0.4,0-0.6,0c-0.2,0-0.4,0-0.6,0c-0.2,0-0.4,0-0.6-0.1L166.3,15.6"/>
<path id="path60" class="st0" d="M181.1,24.9c1.6,0,2.4-1.3,2.4-3.8c0-1.3-0.2-2.2-0.6-2.8c-0.4-0.6-1-0.9-1.8-0.9
	c-1.6,0-2.4,1.3-2.4,3.8C178.7,23.6,179.5,24.9,181.1,24.9z M181.1,26.7c-0.8,0-1.5-0.1-2.1-0.4c-0.6-0.3-1.1-0.7-1.5-1.2
	s-0.7-1.1-0.9-1.8c-0.2-0.7-0.3-1.4-0.3-2.2c0-0.8,0.1-1.6,0.3-2.3c0.2-0.7,0.5-1.3,0.9-1.8c0.4-0.5,0.9-0.9,1.5-1.2
	c0.6-0.3,1.3-0.4,2.1-0.4c0.8,0,1.5,0.1,2.1,0.4s1.1,0.7,1.5,1.2c0.4,0.5,0.7,1.1,0.9,1.8c0.2,0.7,0.3,1.4,0.3,2.3
	c0,0.8-0.1,1.6-0.3,2.2c-0.2,0.7-0.5,1.3-0.9,1.8s-0.9,0.9-1.5,1.2C182.6,26.6,181.9,26.7,181.1,26.7"/>
<path id="path62" class="st0" d="M192.1,24.9c1.6,0,2.4-1.3,2.4-3.8c0-1.3-0.2-2.2-0.6-2.8c-0.4-0.6-1-0.9-1.8-0.9
	c-1.6,0-2.4,1.3-2.4,3.8C189.7,23.6,190.5,24.9,192.1,24.9L192.1,24.9z M192.1,26.7c-0.8,0-1.5-0.1-2.1-0.4
	c-0.6-0.3-1.1-0.7-1.5-1.2s-0.7-1.1-0.9-1.8c-0.2-0.7-0.3-1.4-0.3-2.2c0-0.8,0.1-1.6,0.3-2.3c0.2-0.7,0.5-1.3,0.9-1.8
	c0.4-0.5,0.9-0.9,1.5-1.2c0.6-0.3,1.3-0.4,2.1-0.4c0.8,0,1.5,0.1,2.1,0.4c0.6,0.3,1.1,0.7,1.5,1.2c0.4,0.5,0.7,1.1,0.9,1.8
	c0.2,0.7,0.3,1.4,0.3,2.3c0,0.8-0.1,1.6-0.3,2.2c-0.2,0.7-0.5,1.3-0.9,1.8s-0.9,0.9-1.5,1.2C193.6,26.6,192.9,26.7,192.1,26.7"/>
<path id="path64" class="st0" d="M198.8,15.6c0.4-0.1,0.9-0.1,1.3-0.1c0.4,0,0.8-0.1,1.3-0.1c0.6,0,1.1,0.1,1.7,0.2
	c0.5,0.1,1,0.3,1.5,0.5s0.8,0.6,1.1,1c0.3,0.4,0.4,1,0.4,1.7c0,0.4-0.1,0.8-0.2,1.1c-0.1,0.3-0.2,0.6-0.4,0.8
	c-0.2,0.2-0.3,0.4-0.5,0.6c-0.2,0.2-0.4,0.3-0.5,0.4l-0.3,0.2l2.7,4.6c-0.2,0-0.4,0-0.6,0.1s-0.5,0-0.7,0c-0.4,0-0.8,0-1.1-0.1
	l-2.9-5.1l0.4-0.2c0.1-0.1,0.3-0.2,0.5-0.3c0.2-0.1,0.4-0.3,0.6-0.4c0.2-0.2,0.3-0.4,0.5-0.6c0.1-0.2,0.2-0.5,0.2-0.8
	c0-0.6-0.2-1.1-0.5-1.4c-0.4-0.3-0.8-0.4-1.4-0.4c-0.2,0-0.4,0-0.6,0v9.2c-0.2,0-0.4,0-0.5,0.1c-0.2,0-0.4,0-0.5,0
	c-0.2,0-0.4,0-0.5,0c-0.2,0-0.4,0-0.6-0.1L198.8,15.6"/>
<path id="path66" class="st0" d="M209.8,17.5h-2.7c-0.1-0.3-0.1-0.6-0.1-1c0-0.3,0-0.6,0.1-0.9h7.7c0.1,0.3,0.1,0.6,0.1,0.9
	c0,0.3,0,0.7-0.1,1h-2.7v9.1c-0.2,0-0.4,0-0.5,0.1c-0.2,0-0.4,0-0.5,0c-0.2,0-0.4,0-0.6,0c-0.2,0-0.4,0-0.6-0.1L209.8,17.5"/>
<path id="path68" class="st0" d="M221.8,20.9c0.4-0.1,0.7-0.1,1.1-0.1c0.4,0,0.7,0,1.1,0.1v5.4c-0.5,0.2-1.1,0.3-1.7,0.4
	c-0.6,0.1-1.1,0.1-1.5,0.1c-0.9,0-1.7-0.1-2.3-0.4s-1.2-0.7-1.7-1.2c-0.4-0.5-0.8-1.1-1-1.8c-0.2-0.7-0.3-1.4-0.3-2.3
	c0-0.8,0.1-1.6,0.4-2.3c0.2-0.7,0.6-1.3,1-1.8c0.4-0.5,1-0.9,1.6-1.2c0.6-0.3,1.4-0.4,2.2-0.4c0.5,0,0.9,0,1.4,0.1
	c0.4,0.1,0.9,0.2,1.3,0.4c0,0.3-0.1,0.6-0.2,0.9c-0.1,0.3-0.2,0.6-0.3,0.9c-0.4-0.1-0.7-0.2-0.9-0.3c-0.3-0.1-0.6-0.1-1-0.1
	c-1,0-1.7,0.3-2.2,1c-0.5,0.6-0.8,1.6-0.8,2.8c0,1.2,0.3,2.2,0.8,2.8c0.5,0.6,1.3,0.9,2.3,0.9c0.2,0,0.3,0,0.5,0
	c0.1,0,0.3,0,0.4-0.1L221.8,20.9"/>
<path id="path70" class="st0" d="M225.9,15.6h6.2c0.1,0.3,0.1,0.6,0.1,0.9c0,0.3,0,0.7-0.1,1h-4v2.4h3.2c0.1,0.3,0.1,0.6,0.1,0.9
	c0,0.3,0,0.6-0.1,1h-3.2v2.9h4.1c0.1,0.3,0.1,0.6,0.1,0.9c0,0.3,0,0.7-0.1,1h-6.3L225.9,15.6"/>
<path id="path72" class="st0" d="M233.5,26.4l4.6-8.9h-4.2c-0.1-0.3-0.1-0.6-0.1-0.9c0-0.3,0-0.7,0.1-1h7.3l0.1,0.2l-4.5,8.9h4.3
	c0.1,0.3,0.1,0.6,0.1,0.9c0,0.3,0,0.7-0.1,1h-7.5L233.5,26.4"/>
<path id="path74" class="st0" d="M242.8,15.6h6.2c0.1,0.3,0.1,0.6,0.1,0.9c0,0.3,0,0.7-0.1,1h-4v2.4h3.2c0.1,0.3,0.1,0.6,0.1,0.9
	c0,0.3,0,0.6-0.1,1h-3.2v2.9h4.1c0.1,0.3,0.1,0.6,0.1,0.9c0,0.3,0,0.7-0.1,1h-6.3L242.8,15.6"/>
<path id="path76" class="st0" d="M253,17.5h-2.7c-0.1-0.3-0.1-0.6-0.1-1c0-0.3,0-0.6,0.1-0.9h7.7c0.1,0.3,0.1,0.6,0.1,0.9
	c0,0.3,0,0.7-0.1,1h-2.7v9.1c-0.2,0-0.4,0-0.5,0.1c-0.2,0-0.4,0-0.5,0s-0.4,0-0.6,0c-0.2,0-0.4,0-0.6-0.1L253,17.5"/>
<path id="path78" class="st0" d="M267.3,24.9c1.6,0,2.4-1.3,2.4-3.8c0-1.3-0.2-2.2-0.6-2.8c-0.4-0.6-1-0.9-1.8-0.9
	c-1.6,0-2.4,1.3-2.4,3.8C265,23.6,265.8,24.9,267.3,24.9z M267.3,26.7c-0.8,0-1.5-0.1-2.1-0.4c-0.6-0.3-1.1-0.7-1.5-1.2
	c-0.4-0.5-0.7-1.1-0.9-1.8c-0.2-0.7-0.3-1.4-0.3-2.2c0-0.8,0.1-1.6,0.3-2.3c0.2-0.7,0.5-1.3,0.9-1.8c0.4-0.5,0.9-0.9,1.5-1.2
	s1.3-0.4,2.1-0.4c0.8,0,1.5,0.1,2.1,0.4c0.6,0.3,1.1,0.7,1.5,1.2c0.4,0.5,0.7,1.1,0.9,1.8c0.2,0.7,0.3,1.4,0.3,2.3
	c0,0.8-0.1,1.6-0.3,2.2c-0.2,0.7-0.5,1.3-0.9,1.8c-0.4,0.5-0.9,0.9-1.5,1.2C268.9,26.6,268.2,26.7,267.3,26.7"/>
<path id="path80" class="st0" d="M273.9,15.6c0.3-0.1,0.6-0.1,0.9-0.1c0.3,0,0.6,0,0.9,0.1l4.2,7v-7c0.4-0.1,0.7-0.1,1-0.1
	c0.3,0,0.6,0,0.9,0.1v10.9c-0.3,0.1-0.6,0.1-0.9,0.1c-0.3,0-0.6,0-0.9-0.1l-4.3-7v7c-0.3,0.1-0.7,0.1-1,0.1c-0.3,0-0.7,0-1-0.1
	L273.9,15.6"/>
<path id="path82" class="st0" d="M286.4,24.8c0.1,0,0.2,0,0.4,0c0.1,0,0.3,0,0.5,0c0.5,0,0.9-0.1,1.3-0.2c0.4-0.1,0.7-0.3,1-0.6
	c0.3-0.3,0.5-0.7,0.7-1.1c0.2-0.5,0.3-1.1,0.3-1.8c0-0.7-0.1-1.3-0.3-1.8c-0.2-0.5-0.4-0.9-0.7-1.2c-0.3-0.3-0.6-0.5-1-0.6
	c-0.4-0.1-0.8-0.2-1.2-0.2c-0.1,0-0.3,0-0.5,0c-0.2,0-0.4,0-0.5,0L286.4,24.8L286.4,24.8z M284.1,15.6c0.4-0.1,0.9-0.1,1.3-0.1
	c0.5,0,1-0.1,1.6-0.1c1.9,0,3.4,0.5,4.4,1.4c1,1,1.5,2.4,1.5,4.3c0,1.9-0.5,3.3-1.5,4.2c-1,0.9-2.5,1.4-4.5,1.4c-0.5,0-1,0-1.4-0.1
	c-0.4,0-0.9-0.1-1.3-0.1L284.1,15.6"/>
<path id="path84" class="st0" d="M294.7,15.6h6.2c0.1,0.3,0.1,0.6,0.1,0.9c0,0.3,0,0.7-0.1,1h-4v2.4h3.2c0.1,0.3,0.1,0.6,0.1,0.9
	c0,0.3,0,0.6-0.1,1H297v2.9h4.1c0.1,0.3,0.1,0.6,0.1,0.9c0,0.3,0,0.7-0.1,1h-6.3V15.6"/>
<path id="path86" class="st0" d="M302.9,15.6c0.4-0.1,0.9-0.1,1.3-0.1c0.4,0,0.8-0.1,1.3-0.1c0.6,0,1.1,0.1,1.7,0.2
	c0.5,0.1,1,0.3,1.5,0.5c0.4,0.3,0.8,0.6,1.1,1c0.3,0.4,0.4,1,0.4,1.7c0,0.4-0.1,0.8-0.2,1.1c-0.1,0.3-0.2,0.6-0.4,0.8
	c-0.2,0.2-0.3,0.4-0.5,0.6c-0.2,0.2-0.4,0.3-0.5,0.4l-0.3,0.2l2.7,4.6c-0.2,0-0.4,0-0.6,0.1c-0.2,0-0.5,0-0.7,0
	c-0.4,0-0.8,0-1.1-0.1l-2.9-5.1l0.4-0.2c0.1-0.1,0.3-0.2,0.5-0.3c0.2-0.1,0.4-0.3,0.6-0.4c0.2-0.2,0.3-0.4,0.5-0.6
	c0.1-0.2,0.2-0.5,0.2-0.8c0-0.6-0.2-1.1-0.5-1.4c-0.4-0.3-0.8-0.4-1.4-0.4c-0.2,0-0.4,0-0.6,0v9.2c-0.2,0-0.4,0-0.5,0.1
	c-0.2,0-0.4,0-0.5,0c-0.2,0-0.4,0-0.5,0c-0.2,0-0.4,0-0.6-0.1L302.9,15.6"/>
<path id="path88" class="st0" d="M311.3,15.6c0.4-0.1,0.8-0.1,1.2-0.1c0.2,0,0.4,0,0.6,0c0.2,0,0.4,0,0.6,0.1l1.6,8.2l1.9-8.2
	c0.2,0,0.4-0.1,0.6-0.1c0.2,0,0.4,0,0.5,0c0.3,0,0.6,0,1,0.1l2,8.4l1.6-8.4c0.3-0.1,0.6-0.1,1-0.1c0.2,0,0.4,0,0.6,0
	c0.2,0,0.4,0,0.6,0.1l-2.6,10.9c-0.4,0.1-0.7,0.1-1.1,0.1c-0.4,0-0.8,0-1.3-0.1l-1.8-7.3l-1.9,7.3c-0.2,0-0.5,0-0.6,0.1
	c-0.2,0-0.4,0-0.6,0c-0.3,0-0.7,0-1-0.1L311.3,15.6"/>
<path id="path90" class="st0" d="M326.1,15.6c0.4-0.1,0.7-0.1,1.1-0.1c0.4,0,0.7,0,1.1,0.1v10.9c-0.4,0.1-0.8,0.1-1.1,0.1
	c-0.4,0-0.8,0-1.1-0.1V15.6"/>
<path id="path92" class="st0" d="M332.5,17.5h-1.8c0-0.1-0.1-0.3-0.1-0.5c0-0.2,0-0.3,0-0.5c0-0.3,0-0.6,0.1-0.9h4v8
	c0,0.6-0.1,1-0.3,1.4s-0.4,0.7-0.7,1s-0.7,0.4-1.1,0.5c-0.4,0.1-0.9,0.2-1.4,0.2c-0.2,0-0.4,0-0.6,0c-0.3,0-0.5-0.1-0.7-0.1
	c0-0.1,0-0.1,0-0.2c0-0.1,0-0.1,0-0.2c0-0.5,0.1-0.9,0.3-1.4c0.1,0,0.2,0,0.4,0.1c0.1,0,0.3,0,0.4,0c0.2,0,0.4,0,0.5,0
	c0.2,0,0.4-0.1,0.5-0.2s0.3-0.3,0.4-0.4c0.1-0.2,0.2-0.5,0.2-0.8L332.5,17.5"/>
<path id="path94" class="st0" d="M338.7,21.5c-0.3-0.1-0.7-0.3-0.9-0.4c-0.3-0.2-0.5-0.3-0.7-0.6c-0.2-0.2-0.3-0.5-0.4-0.8
	c-0.1-0.3-0.2-0.7-0.2-1.1c0-0.5,0.1-1,0.3-1.4c0.2-0.4,0.4-0.7,0.8-1c0.3-0.3,0.7-0.5,1.2-0.6s1-0.2,1.5-0.2c0.5,0,1,0,1.5,0.1
	c0.5,0.1,0.9,0.2,1.4,0.4c-0.1,0.6-0.2,1.2-0.5,1.7c-0.2-0.1-0.3-0.1-0.5-0.2c-0.2-0.1-0.3-0.1-0.5-0.2c-0.2,0-0.4-0.1-0.6-0.1
	c-0.2,0-0.5,0-0.8,0c-0.2,0-0.3,0-0.5,0c-0.2,0-0.3,0.1-0.5,0.2c-0.1,0.1-0.3,0.2-0.4,0.4c-0.1,0.2-0.1,0.4-0.1,0.6
	c0,0.2,0,0.4,0.1,0.5c0.1,0.1,0.2,0.3,0.3,0.4c0.1,0.1,0.3,0.2,0.4,0.2c0.2,0.1,0.3,0.1,0.5,0.2l0.9,0.4c0.4,0.2,0.7,0.3,1,0.5
	c0.3,0.2,0.6,0.4,0.8,0.6c0.2,0.2,0.4,0.5,0.5,0.9c0.1,0.3,0.2,0.8,0.2,1.3c0,0.5-0.1,1-0.3,1.4c-0.2,0.4-0.5,0.8-0.8,1.1
	c-0.4,0.3-0.8,0.5-1.3,0.7c-0.5,0.2-1.1,0.3-1.8,0.3c-0.3,0-0.6,0-0.9,0c-0.3,0-0.5-0.1-0.8-0.1c-0.2,0-0.5-0.1-0.7-0.2
	c-0.2-0.1-0.5-0.2-0.7-0.3c0-0.3,0.1-0.6,0.2-0.9c0.1-0.3,0.2-0.6,0.3-1c0.4,0.2,0.8,0.3,1.2,0.4c0.4,0.1,0.8,0.1,1.2,0.1
	c0.6,0,1.1-0.1,1.5-0.4c0.4-0.2,0.5-0.6,0.5-1.1c0-0.2,0-0.4-0.1-0.6c-0.1-0.2-0.2-0.3-0.3-0.4c-0.1-0.1-0.3-0.2-0.5-0.3
	c-0.2-0.1-0.4-0.1-0.5-0.2L338.7,21.5"/>
<path id="path96" class="st0" d="M351.8,15.6h6.2c0.1,0.3,0.1,0.6,0.1,0.9c0,0.3,0,0.7-0.1,1h-4v2.4h3.2c0.1,0.3,0.1,0.6,0.1,0.9
	c0,0.3,0,0.6-0.1,1H354v2.9h4.1c0.1,0.3,0.1,0.6,0.1,0.9c0,0.3,0,0.7-0.1,1h-6.3L351.8,15.6"/>
<path id="path98" class="st0" d="M359.9,15.6h6.2c0.1,0.3,0.1,0.6,0.1,0.9c0,0.3,0,0.7-0.1,1h-4v2.4h3.2c0.1,0.3,0.1,0.6,0.1,0.9
	c0,0.3,0,0.6-0.1,1h-3.2v2.9h4.1c0.1,0.3,0.1,0.6,0.1,0.9c0,0.3,0,0.7-0.1,1h-6.3L359.9,15.6"/>
<path id="path100" class="st0" d="M368.3,15.6c0.4-0.1,0.8-0.1,1.2-0.1c0.4,0,0.8,0,1.2,0.1l2.5,6.3l2.6-6.3
	c0.3-0.1,0.7-0.1,1.1-0.1c0.4,0,0.8,0,1.1,0.1l0.5,10.9c-0.4,0.1-0.8,0.1-1.1,0.1s-0.7,0-1-0.1l-0.3-7.4l-2.2,5.1
	c-0.1,0-0.3,0-0.4,0.1c-0.2,0-0.3,0-0.5,0c-0.1,0-0.3,0-0.4,0c-0.1,0-0.3,0-0.4-0.1L370,19l-0.2,7.5c-0.3,0.1-0.6,0.1-0.9,0.1
	c-0.3,0-0.7,0-1-0.1L368.3,15.6"/>
<path id="path102" class="st0" d="M382.4,21.5c-0.3-0.1-0.7-0.3-0.9-0.4c-0.3-0.2-0.5-0.3-0.7-0.6c-0.2-0.2-0.3-0.5-0.4-0.8
	c-0.1-0.3-0.2-0.7-0.2-1.1c0-0.5,0.1-1,0.3-1.4c0.2-0.4,0.4-0.7,0.8-1c0.3-0.3,0.7-0.5,1.2-0.6c0.5-0.1,1-0.2,1.5-0.2
	c0.5,0,1,0,1.5,0.1c0.5,0.1,0.9,0.2,1.4,0.4c-0.1,0.6-0.2,1.2-0.5,1.7c-0.2-0.1-0.3-0.1-0.5-0.2c-0.2-0.1-0.3-0.1-0.5-0.2
	c-0.2,0-0.4-0.1-0.6-0.1c-0.2,0-0.5,0-0.8,0c-0.2,0-0.3,0-0.5,0c-0.2,0-0.3,0.1-0.5,0.2c-0.1,0.1-0.3,0.2-0.3,0.4
	c-0.1,0.2-0.1,0.4-0.1,0.6c0,0.2,0,0.4,0.1,0.5c0.1,0.1,0.2,0.3,0.3,0.4c0.1,0.1,0.3,0.2,0.4,0.2c0.2,0.1,0.3,0.1,0.5,0.2l0.9,0.4
	c0.4,0.2,0.7,0.3,1,0.5c0.3,0.2,0.6,0.4,0.8,0.6c0.2,0.2,0.4,0.5,0.5,0.9c0.1,0.3,0.2,0.8,0.2,1.3c0,0.5-0.1,1-0.3,1.4
	c-0.2,0.4-0.5,0.8-0.8,1.1c-0.4,0.3-0.8,0.5-1.3,0.7c-0.5,0.2-1.1,0.3-1.8,0.3c-0.3,0-0.6,0-0.9,0c-0.3,0-0.5-0.1-0.8-0.1
	c-0.2,0-0.5-0.1-0.7-0.2c-0.2-0.1-0.5-0.2-0.7-0.3c0-0.3,0.1-0.6,0.2-0.9c0.1-0.3,0.2-0.6,0.3-1c0.4,0.2,0.8,0.3,1.2,0.4
	c0.4,0.1,0.8,0.1,1.2,0.1c0.6,0,1.1-0.1,1.5-0.4c0.4-0.2,0.5-0.6,0.5-1.1c0-0.2,0-0.4-0.1-0.6c-0.1-0.2-0.2-0.3-0.3-0.4
	c-0.1-0.1-0.3-0.2-0.5-0.3c-0.2-0.1-0.4-0.1-0.5-0.2L382.4,21.5"/>
<path id="path104" class="st0" d="M391,24.8c0.1,0,0.2,0,0.4,0c0.1,0,0.3,0,0.5,0c0.5,0,0.9-0.1,1.3-0.2c0.4-0.1,0.7-0.3,1-0.6
	c0.3-0.3,0.5-0.7,0.7-1.1c0.2-0.5,0.3-1.1,0.3-1.8c0-0.7-0.1-1.3-0.3-1.8s-0.4-0.9-0.7-1.2c-0.3-0.3-0.6-0.5-1-0.6s-0.8-0.2-1.2-0.2
	c-0.1,0-0.3,0-0.5,0c-0.2,0-0.4,0-0.5,0L391,24.8L391,24.8z M388.8,15.6c0.4-0.1,0.9-0.1,1.3-0.1c0.5,0,1-0.1,1.6-0.1
	c1.9,0,3.4,0.5,4.4,1.4c1,1,1.5,2.4,1.5,4.3c0,1.9-0.5,3.3-1.5,4.2c-1,0.9-2.5,1.4-4.5,1.4c-0.5,0-1,0-1.4-0.1
	c-0.4,0-0.9-0.1-1.3-0.1V15.6"/>
<path id="path106" class="st0" d="M399.4,15.6h6.2c0.1,0.3,0.1,0.6,0.1,0.9c0,0.3,0,0.7-0.1,1h-4v2.4h3.2c0.1,0.3,0.1,0.6,0.1,0.9
	c0,0.3,0,0.6-0.1,1h-3.2v2.9h4.1c0.1,0.3,0.1,0.6,0.1,0.9c0,0.3,0,0.7-0.1,1h-6.3L399.4,15.6"/>
<path id="path108" class="st0" d="M407.5,15.6c0.4-0.1,0.7-0.1,1.1-0.1c0.4,0,0.7,0,1.1,0.1v9h3.8c0,0.2,0.1,0.3,0.1,0.5
	c0,0.2,0,0.3,0,0.4c0,0.2,0,0.3,0,0.5c0,0.2,0,0.3-0.1,0.5h-6L407.5,15.6"/>
<path id="path110" class="st0" d="M415.7,17.5H413c-0.1-0.3-0.1-0.6-0.1-1c0-0.3,0-0.6,0.1-0.9h7.7c0.1,0.3,0.1,0.6,0.1,0.9
	c0,0.3,0,0.7-0.1,1h-2.7v9.1c-0.2,0-0.4,0-0.5,0.1c-0.2,0-0.4,0-0.5,0s-0.4,0-0.6,0c-0.2,0-0.4,0-0.6-0.1L415.7,17.5"/>
<path id="path112" class="st0" d="M426.1,22.5l-1.3-4.6l-1.3,4.6H426.1z M423.6,15.6c0.2,0,0.4-0.1,0.6-0.1c0.2,0,0.4,0,0.6,0
	c0.2,0,0.4,0,0.6,0c0.2,0,0.4,0,0.6,0.1l3.4,10.9c-0.4,0.1-0.8,0.1-1.2,0.1c-0.4,0-0.8,0-1.1-0.1l-0.6-2.2H423l-0.6,2.2
	c-0.4,0.1-0.7,0.1-1,0.1c-0.4,0-0.7,0-1.1-0.1L423.6,15.6"/>
<path id="path114" class="st0" d="M430.1,0v5.5h13v13h5.5V0H430.1"/>
</svg>
