<?xml version="1.0" encoding="utf-8"?>
<!-- Generator: Adobe Illustrator 15.0.0, SVG Export Plug-In . SVG Version: 6.00 Build 0)  -->
<!DOCTYPE svg PUBLIC "-//W3C//DTD SVG 1.1//EN" "http://www.w3.org/Graphics/SVG/1.1/DTD/svg11.dtd">
<svg version="1.1"
	 id="svg2" xmlns:svg="http://www.w3.org/2000/svg" xmlns:rdf="http://www.w3.org/1999/02/22-rdf-syntax-ns#" xmlns:cc="http://creativecommons.org/ns#" xmlns:dc="http://purl.org/dc/elements/1.1/"
	 xmlns="http://www.w3.org/2000/svg" xmlns:xlink="http://www.w3.org/1999/xlink" x="0px" y="0px" width="886.213px"
	 height="324.027px" viewBox="0 0 886.213 324.027" enable-background="new 0 0 886.213 324.027" xml:space="preserve">
<path id="path14" fill="#BFB3E0" d="M90.646,114.308c-22.938,22.937-22.042,61.022,2,85.062c24.042,24.041,62.125,24.937,85.062,2
	c22.927-22.926,22.031-61.011-2.011-85.051C151.656,92.277,113.572,91.382,90.646,114.308"/>
<path id="path16" fill="#DDD63B" d="M235.048,54.277L213.96-0.004l-53.377,24.197l11.72,78.192L235.048,54.277"/>
<path id="path18" fill="#DDD63B" d="M74.314,205.766c0-2.677-2.17-4.854-4.849-4.854s-4.85,2.177-4.85,4.854
	c0,2.678,2.171,4.844,4.85,4.844S74.314,208.444,74.314,205.766"/>
<path id="path20" fill="#DDD63B" d="M77.299,215.101c-2.678,0-4.848,2.167-4.848,4.843c0,2.678,2.17,4.854,4.848,4.854
	c2.679,0,4.85-2.176,4.85-4.854C82.149,217.268,79.979,215.101,77.299,215.101"/>
<path id="path22" fill="#DDD63B" d="M91.942,234.122c0-2.678-2.171-4.854-4.849-4.854c-2.679,0-4.85,2.176-4.85,4.854
	c0,2.676,2.17,4.842,4.85,4.842C89.771,238.964,91.942,236.798,91.942,234.122"/>
<path id="path24" fill="#DDD63B" d="M87.093,210.61c2.678,0,4.849-2.166,4.849-4.844c0-2.677-2.171-4.854-4.849-4.854
	c-2.679,0-4.85,2.177-4.85,4.854C82.243,208.444,84.414,210.61,87.093,210.61"/>
<path id="path26" fill="#DDD63B" d="M99.403,248.288c0-2.676-2.17-4.843-4.849-4.843c-2.679,0-4.85,2.167-4.85,4.843
	s2.17,4.854,4.85,4.854C97.233,253.141,99.403,250.964,99.403,248.288"/>
<path id="path28" fill="#DDD63B" d="M90.077,219.944c0,2.678,2.171,4.854,4.85,4.854s4.849-2.176,4.849-4.854
	c0-2.676-2.17-4.843-4.849-4.843S90.077,217.268,90.077,219.944"/>
<path id="path30" fill="#DDD63B" d="M102.388,257.623c-2.679,0-4.85,2.175-4.85,4.852c0,2.678,2.171,4.845,4.85,4.845
	s4.85-2.167,4.85-4.845C107.238,259.798,105.067,257.623,102.388,257.623"/>
<path id="path32" fill="#DDD63B" d="M104.72,238.964c2.679,0,4.85-2.166,4.85-4.842c0-2.678-2.171-4.854-4.85-4.854
	s-4.849,2.176-4.849,4.854C99.871,236.798,102.041,238.964,104.72,238.964"/>
<path id="path34" fill="#DDD63B" d="M112.181,271.799c-2.679,0-4.849,2.167-4.849,4.843c0,2.688,2.17,4.854,4.849,4.854
	s4.85-2.167,4.85-4.854C117.03,273.966,114.859,271.799,112.181,271.799"/>
<path id="path36" fill="#DDD63B" d="M104.72,210.61c2.679,0,4.85-2.166,4.85-4.844c0-2.677-2.171-4.854-4.85-4.854
	s-4.849,2.177-4.849,4.854C99.871,208.444,102.041,210.61,104.72,210.61"/>
<path id="path38" fill="#DDD63B" d="M112.181,243.445c-2.679,0-4.849,2.167-4.849,4.843s2.17,4.854,4.849,4.854
	s4.85-2.178,4.85-4.854S114.859,243.445,112.181,243.445"/>
<path id="path40" fill="#DDD63B" d="M107.705,219.944c0,2.678,2.171,4.854,4.85,4.854c2.679,0,4.849-2.176,4.849-4.854
	c0-2.676-2.17-4.843-4.849-4.843C109.876,215.101,107.705,217.268,107.705,219.944"/>
<path id="path42" fill="#DDD63B" d="M120.015,267.319c2.679,0,4.849-2.167,4.849-4.845c0-2.677-2.17-4.852-4.849-4.852
	c-2.678,0-4.85,2.175-4.85,4.852C115.166,265.152,117.337,267.319,120.015,267.319"/>
<path id="path44" fill="#DDD63B" d="M122.347,238.964c2.678,0,4.849-2.166,4.849-4.842c0-2.678-2.171-4.854-4.849-4.854
	c-2.679,0-4.85,2.176-4.85,4.854C117.498,236.798,119.668,238.964,122.347,238.964"/>
<path id="path46" fill="#DDD63B" d="M129.809,271.799c-2.679,0-4.85,2.167-4.85,4.843c0,2.688,2.171,4.854,4.85,4.854
	c2.678,0,4.849-2.167,4.849-4.854C134.657,273.966,132.486,271.799,129.809,271.799"/>
<path id="path48" fill="#DDD63B" d="M122.347,210.61c2.678,0,4.849-2.166,4.849-4.844c0-2.677-2.171-4.854-4.849-4.854
	c-2.679,0-4.85,2.177-4.85,4.854C117.498,208.444,119.668,210.61,122.347,210.61"/>
<path id="path50" fill="#DDD63B" d="M129.809,243.445c-2.679,0-4.85,2.167-4.85,4.843s2.171,4.854,4.85,4.854
	c2.678,0,4.849-2.178,4.849-4.854S132.486,243.445,129.809,243.445"/>
<path id="path52" fill="#DDD63B" d="M125.332,219.944c0,2.678,2.17,4.854,4.849,4.854s4.85-2.176,4.85-4.854
	c0-2.676-2.171-4.843-4.85-4.843S125.332,217.268,125.332,219.944"/>
<path id="path54" fill="#DDD63B" d="M137.641,257.623c-2.678,0-4.849,2.175-4.849,4.852c0,2.678,2.17,4.845,4.849,4.845
	c2.679,0,4.85-2.167,4.85-4.845C142.491,259.798,140.32,257.623,137.641,257.623"/>
<path id="path56" fill="#DDD63B" d="M139.973,238.964c2.679,0,4.85-2.166,4.85-4.842c0-2.678-2.171-4.854-4.85-4.854
	s-4.849,2.176-4.849,4.854C135.124,236.798,137.294,238.964,139.973,238.964"/>
<path id="path58" fill="#DDD63B" d="M147.435,271.799c-2.679,0-4.849,2.167-4.849,4.843c0,2.688,2.17,4.854,4.849,4.854
	s4.85-2.167,4.85-4.854C152.284,273.966,150.113,271.799,147.435,271.799"/>
<path id="path60" fill="#DDD63B" d="M139.973,210.61c2.679,0,4.85-2.166,4.85-4.844c0-2.677-2.171-4.854-4.85-4.854
	s-4.849,2.177-4.849,4.854C135.124,208.444,137.294,210.61,139.973,210.61"/>
<path id="path62" fill="#DDD63B" d="M147.435,243.445c-2.679,0-4.849,2.167-4.849,4.843s2.17,4.854,4.849,4.854
	s4.85-2.178,4.85-4.854S150.113,243.445,147.435,243.445"/>
<path id="path64" fill="#DDD63B" d="M142.958,219.944c0,2.678,2.171,4.854,4.85,4.854s4.849-2.176,4.849-4.854
	c0-2.676-2.17-4.843-4.849-4.843S142.958,217.268,142.958,219.944"/>
<path id="path66" fill="#DDD63B" d="M155.27,267.319c2.678,0,4.849-2.167,4.849-4.845c0-2.677-2.171-4.852-4.849-4.852
	c-2.679,0-4.85,2.175-4.85,4.852C150.42,265.152,152.591,267.319,155.27,267.319"/>
<path id="path68" fill="#DDD63B" d="M157.6,238.964c2.68,0,4.851-2.166,4.851-4.842c0-2.678-2.171-4.854-4.851-4.854
	c-2.677,0-4.85,2.176-4.85,4.854C152.75,236.798,154.923,238.964,157.6,238.964"/>
<path id="path70" fill="#DDD63B" d="M165.062,271.799c-2.679,0-4.849,2.167-4.849,4.843c0,2.688,2.17,4.854,4.849,4.854
	c2.677,0,4.85-2.167,4.85-4.854C169.912,273.966,167.74,271.799,165.062,271.799"/>
<path id="path72" fill="#DDD63B" d="M157.6,210.61c2.68,0,4.851-2.166,4.851-4.844c0-2.677-2.171-4.854-4.851-4.854
	c-2.677,0-4.85,2.177-4.85,4.854C152.75,208.444,154.923,210.61,157.6,210.61"/>
<path id="path74" fill="#DDD63B" d="M165.062,243.445c-2.679,0-4.849,2.167-4.849,4.843s2.17,4.854,4.849,4.854
	c2.677,0,4.85-2.178,4.85-4.854S167.74,243.445,165.062,243.445"/>
<path id="path76" fill="#DDD63B" d="M165.435,215.101c-2.679,0-4.849,2.167-4.849,4.843c0,2.678,2.17,4.854,4.849,4.854
	s4.85-2.176,4.85-4.854C170.284,217.268,168.113,215.101,165.435,215.101"/>
<path id="path78" fill="#DDD63B" d="M172.896,257.623c-2.679,0-4.849,2.175-4.849,4.852c0,2.678,2.17,4.845,4.849,4.845
	s4.849-2.167,4.849-4.845C177.745,259.798,175.575,257.623,172.896,257.623"/>
<path id="path80" fill="#DDD63B" d="M170.377,234.122c0,2.676,2.172,4.842,4.851,4.842c2.677,0,4.849-2.166,4.849-4.842
	c0-2.678-2.172-4.854-4.849-4.854C172.549,229.268,170.377,231.444,170.377,234.122"/>
<path id="path82" fill="#DDD63B" d="M180.077,205.766c0-2.677-2.172-4.854-4.849-4.854c-2.679,0-4.851,2.177-4.851,4.854
	c0,2.678,2.172,4.844,4.851,4.844C177.905,210.61,180.077,208.444,180.077,205.766"/>
<path id="path84" fill="#DDD63B" d="M182.688,243.445c-2.677,0-4.848,2.167-4.848,4.843s2.171,4.854,4.848,4.854
	c2.68,0,4.851-2.178,4.851-4.854S185.368,243.445,182.688,243.445"/>
<path id="path86" fill="#DDD63B" d="M183.062,215.101c-2.679,0-4.85,2.167-4.85,4.843c0,2.678,2.171,4.854,4.85,4.854
	c2.678,0,4.849-2.176,4.849-4.854C187.911,217.268,185.74,215.101,183.062,215.101"/>
<path id="path88" fill="#DDD63B" d="M192.854,229.268c-2.679,0-4.849,2.176-4.849,4.854c0,2.676,2.17,4.842,4.849,4.842
	s4.85-2.166,4.85-4.842C197.704,231.444,195.533,229.268,192.854,229.268"/>
<path id="path90" fill="#DDD63B" d="M188.005,205.766c0,2.678,2.17,4.844,4.849,4.844s4.85-2.166,4.85-4.844
	c0-2.677-2.171-4.854-4.85-4.854S188.005,203.09,188.005,205.766"/>
<path id="path92" fill="#DDD63B" d="M200.688,215.101c-2.677,0-4.849,2.167-4.849,4.843c0,2.678,2.172,4.854,4.849,4.854
	c2.679,0,4.851-2.176,4.851-4.854C205.539,217.268,203.367,215.101,200.688,215.101"/>
<path id="path94" fill="#DDD63B" d="M210.482,200.913c-2.68,0-4.851,2.177-4.851,4.854c0,2.678,2.171,4.844,4.851,4.844
	c2.678,0,4.848-2.166,4.848-4.844C215.331,203.09,213.16,200.913,210.482,200.913"/>
<path id="path96" fill="#DDD63B" d="M126.73,290.829c0-2.676-2.172-4.854-4.85-4.854c-2.679,0-4.85,2.179-4.85,4.854
	c0,2.678,2.171,4.854,4.85,4.854C124.559,295.682,126.73,293.507,126.73,290.829"/>
<path id="path98" fill="#DDD63B" d="M129.714,300.153c-2.678,0-4.85,2.167-4.85,4.843c0,2.687,2.171,4.854,4.85,4.854
	s4.85-2.167,4.85-4.854C134.564,302.32,132.393,300.153,129.714,300.153"/>
<path id="path100" fill="#DDD63B" d="M139.508,314.319c-2.679,0-4.849,2.179-4.849,4.854s2.17,4.854,4.849,4.854
	c2.678,0,4.85-2.178,4.85-4.854S142.186,314.319,139.508,314.319"/>
<path id="path102" fill="#DDD63B" d="M134.659,290.829c0,2.678,2.17,4.854,4.849,4.854c2.678,0,4.85-2.176,4.85-4.854
	c0-2.676-2.172-4.854-4.85-4.854C136.829,285.974,134.659,288.153,134.659,290.829"/>
<path id="path104" fill="#DDD63B" d="M147.341,300.153c-2.679,0-4.849,2.167-4.849,4.843c0,2.687,2.17,4.854,4.849,4.854
	s4.849-2.167,4.849-4.854C152.19,302.32,150.02,300.153,147.341,300.153"/>
<path id="path106" fill="#DDD63B" d="M157.133,285.974c-2.679,0-4.848,2.179-4.848,4.854c0,2.678,2.169,4.854,4.848,4.854
	c2.68,0,4.849-2.176,4.849-4.854C161.982,288.153,159.813,285.974,157.133,285.974"/>
<path id="path108" fill="#5FC6F2" d="M5.174,71.269C2.316,71.269,0,73.558,0,76.382c0,2.822,2.316,5.111,5.174,5.111
	c2.859,0,5.175-2.289,5.175-5.111C10.349,73.558,8.033,71.269,5.174,71.269"/>
<path id="path110" fill="#5FC6F2" d="M20.052,76.382c0,2.822,2.316,5.111,5.174,5.111c2.859,0,5.175-2.289,5.175-5.111
	c0-2.823-2.316-5.112-5.175-5.112C22.368,71.269,20.052,73.558,20.052,76.382"/>
<path id="path112" fill="#5FC6F2" d="M45.279,81.493c2.858,0,5.174-2.289,5.174-5.111c0-2.823-2.315-5.112-5.174-5.112
	c-2.859,0-5.175,2.289-5.175,5.112C40.104,79.204,42.42,81.493,45.279,81.493"/>
<path id="path114" fill="#5FC6F2" d="M65.331,71.072c-2.858,0-5.174,2.287-5.174,5.112c0,2.822,2.315,5.111,5.174,5.111
	c2.859,0,5.175-2.289,5.175-5.111C70.506,73.359,68.189,71.072,65.331,71.072"/>
<path id="path116" fill="#5FC6F2" d="M85.383,71.072c-2.858,0-5.174,2.287-5.174,5.112c0,2.822,2.316,5.111,5.174,5.111
	c2.859,0,5.176-2.289,5.176-5.111C90.559,73.359,88.242,71.072,85.383,71.072"/>
<path id="path118" fill="#5FC6F2" d="M105.436,81.296c2.858,0,5.174-2.289,5.174-5.111c0-2.825-2.315-5.112-5.174-5.112
	c-2.859,0-5.175,2.287-5.175,5.112C100.26,79.007,102.577,81.296,105.436,81.296"/>
<path id="path120" fill="#5FC6F2" d="M125.487,81.296c2.859,0,5.176-2.289,5.176-5.111c0-2.825-2.317-5.112-5.176-5.112
	c-2.858,0-5.174,2.287-5.174,5.112C120.313,79.007,122.629,81.296,125.487,81.296"/>
<path id="path122" fill="#5FC6F2" d="M145.539,81.296c2.86,0,5.176-2.289,5.176-5.111c0-2.825-2.316-5.112-5.176-5.112
	c-2.858,0-5.173,2.287-5.173,5.112C140.365,79.007,142.68,81.296,145.539,81.296"/>
<path id="path124" fill="#5FC6F2" d="M13.739,67.686c2.858,0,5.175-2.289,5.175-5.111c0-2.825-2.316-5.115-5.175-5.115
	c-2.859,0-5.175,2.29-5.175,5.115C8.564,65.397,10.88,67.686,13.739,67.686"/>
<path id="path126" fill="#5FC6F2" d="M22.468,51.715c2.859,0,5.174-2.289,5.174-5.112c0-2.822-2.315-5.111-5.174-5.111
	s-5.174,2.289-5.174,5.111C17.294,49.426,19.609,51.715,22.468,51.715"/>
<path id="path128" fill="#5FC6F2" d="M31.514,36.548c2.859,0,5.174-2.289,5.174-5.111c0-2.823-2.315-5.112-5.174-5.112
	s-5.175,2.289-5.175,5.112C26.339,34.259,28.655,36.548,31.514,36.548"/>
<path id="path130" fill="#5FC6F2" d="M41.256,20.21c2.858,0,5.174-2.29,5.174-5.112s-2.316-5.112-5.174-5.112
	c-2.859,0-5.175,2.289-5.175,5.112C36.081,17.92,38.397,20.21,41.256,20.21"/>
<path id="path132" fill="#5FC6F2" d="M33.943,67.686c2.859,0,5.175-2.289,5.175-5.111c0-2.825-2.316-5.115-5.175-5.115
	c-2.858,0-5.174,2.29-5.174,5.115C28.769,65.397,31.084,67.686,33.943,67.686"/>
<path id="path134" fill="#5FC6F2" d="M37.936,46.602c0,2.823,2.315,5.112,5.174,5.112c2.858,0,5.175-2.289,5.175-5.112
	c0-2.822-2.316-5.111-5.175-5.111C40.251,41.491,37.936,43.78,37.936,46.602"/>
<path id="path136" fill="#5FC6F2" d="M52.614,36.548c2.858,0,5.175-2.289,5.175-5.111c0-2.823-2.316-5.112-5.175-5.112
	c-2.858,0-5.175,2.289-5.175,5.112C47.439,34.259,49.756,36.548,52.614,36.548"/>
<path id="path138" fill="#5FC6F2" d="M63.119,20.21c2.859,0,5.175-2.29,5.175-5.112s-2.316-5.112-5.175-5.112
	s-5.175,2.289-5.175,5.112C57.944,17.92,60.26,20.21,63.119,20.21"/>
<path id="path140" fill="#5FC6F2" d="M48.973,62.575c0,2.822,2.315,5.111,5.174,5.111s5.175-2.289,5.175-5.111
	c0-2.825-2.316-5.115-5.175-5.115S48.973,59.75,48.973,62.575"/>
<path id="path142" fill="#5FC6F2" d="M68.927,46.602c0-2.822-2.316-5.111-5.175-5.111s-5.174,2.289-5.174,5.111
	c0,2.823,2.315,5.112,5.174,5.112S68.927,49.426,68.927,46.602"/>
<path id="path144" fill="#5FC6F2" d="M73.713,36.548c2.859,0,5.175-2.289,5.175-5.111c0-2.823-2.316-5.112-5.175-5.112
	c-2.858,0-5.174,2.289-5.174,5.112C68.54,34.259,70.855,36.548,73.713,36.548"/>
<path id="path146" fill="#5FC6F2" d="M84.983,20.21c2.858,0,5.174-2.29,5.174-5.112s-2.316-5.112-5.174-5.112
	c-2.859,0-5.174,2.289-5.174,5.112C79.809,17.92,82.124,20.21,84.983,20.21"/>
<path id="path148" fill="#5FC6F2" d="M74.352,67.485c2.858,0,5.175-2.289,5.175-5.111c0-2.823-2.316-5.112-5.175-5.112
	c-2.859,0-5.175,2.289-5.175,5.112C69.177,65.196,71.493,67.485,74.352,67.485"/>
<path id="path150" fill="#5FC6F2" d="M84.394,51.517c2.858,0,5.175-2.289,5.175-5.112c0-2.822-2.316-5.111-5.175-5.111
	s-5.174,2.289-5.174,5.111C79.22,49.228,81.536,51.517,84.394,51.517"/>
<path id="path152" fill="#5FC6F2" d="M94.814,36.345c2.859,0,5.174-2.289,5.174-5.112c0-2.822-2.315-5.112-5.174-5.112
	s-5.174,2.29-5.174,5.112C89.64,34.056,91.955,36.345,94.814,36.345"/>
<path id="path154" fill="#5FC6F2" d="M106.846,20.01c2.859,0,5.175-2.289,5.175-5.112c0-2.822-2.316-5.112-5.175-5.112
	c-2.858,0-5.175,2.29-5.175,5.112C101.671,17.72,103.988,20.01,106.846,20.01"/>
<path id="path156" fill="#5FC6F2" d="M94.557,67.485c2.858,0,5.174-2.289,5.174-5.111c0-2.823-2.316-5.112-5.174-5.112
	c-2.859,0-5.175,2.289-5.175,5.112C89.382,65.196,91.697,67.485,94.557,67.485"/>
<path id="path158" fill="#5FC6F2" d="M105.036,51.517c2.859,0,5.174-2.289,5.174-5.112c0-2.822-2.315-5.111-5.174-5.111
	s-5.175,2.289-5.175,5.111C99.861,49.228,102.177,51.517,105.036,51.517"/>
<path id="path160" fill="#5FC6F2" d="M115.914,36.345c2.859,0,5.174-2.289,5.174-5.112c0-2.822-2.315-5.112-5.174-5.112
	c-2.858,0-5.175,2.29-5.175,5.112C110.739,34.056,113.056,36.345,115.914,36.345"/>
<path id="path162" fill="#5FC6F2" d="M114.76,67.485c2.859,0,5.176-2.289,5.176-5.111c0-2.823-2.317-5.112-5.176-5.112
	c-2.858,0-5.174,2.289-5.174,5.112C109.586,65.196,111.902,67.485,114.76,67.485"/>
<path id="path164" fill="#5FC6F2" d="M125.678,51.517c2.858,0,5.174-2.289,5.174-5.112c0-2.822-2.316-5.111-5.174-5.111
	c-2.859,0-5.175,2.289-5.175,5.111C120.503,49.228,122.819,51.517,125.678,51.517"/>
<path id="path166" fill="#5FC6F2" d="M134.965,67.485c2.859,0,5.175-2.289,5.175-5.111c0-2.823-2.316-5.112-5.175-5.112
	c-2.858,0-5.175,2.289-5.175,5.112C129.791,65.196,132.107,67.485,134.965,67.485"/>
<path id="path168" fill="#5FC6F2" d="M14.808,86.66c-2.859,0-5.175,2.289-5.175,5.112c0,2.825,2.316,5.111,5.175,5.111
	c2.858,0,5.174-2.286,5.174-5.111C19.982,88.949,17.666,86.66,14.808,86.66"/>
<path id="path170" fill="#5FC6F2" d="M29.757,106.923c0-2.822-2.315-5.112-5.175-5.112c-2.858,0-5.175,2.29-5.175,5.112
	s2.316,5.112,5.175,5.112C27.441,112.035,29.757,109.745,29.757,106.923"/>
<path id="path172" fill="#5FC6F2" d="M33.334,117.9c-2.859,0-5.175,2.289-5.175,5.112c0,2.822,2.316,5.111,5.175,5.111
	c2.858,0,5.174-2.289,5.174-5.111C38.509,120.189,36.193,117.9,33.334,117.9"/>
<path id="path174" fill="#5FC6F2" d="M43.126,133.021c-2.859,0-5.174,2.288-5.174,5.112s2.315,5.111,5.174,5.111
	s5.175-2.287,5.175-5.111S45.985,133.021,43.126,133.021"/>
<path id="path176" fill="#5FC6F2" d="M35.067,96.884c2.858,0,5.174-2.286,5.174-5.111c0-2.823-2.316-5.112-5.174-5.112
	c-2.859,0-5.175,2.289-5.175,5.112C29.892,94.597,32.208,96.884,35.067,96.884"/>
<path id="path178" fill="#5FC6F2" d="M45.131,101.611c-2.859,0-5.174,2.289-5.174,5.111c0,2.825,2.315,5.112,5.174,5.112
	s5.174-2.287,5.174-5.112C50.306,103.9,47.99,101.611,45.131,101.611"/>
<path id="path180" fill="#5FC6F2" d="M54.405,117.9c-2.859,0-5.174,2.289-5.174,5.112c0,2.822,2.315,5.111,5.174,5.111
	c2.858,0,5.174-2.289,5.174-5.111C59.579,120.189,57.263,117.9,54.405,117.9"/>
<path id="path182" fill="#5FC6F2" d="M64.951,133.021c-2.859,0-5.176,2.288-5.176,5.112s2.317,5.111,5.176,5.111
	c2.858,0,5.174-2.287,5.174-5.111S67.81,133.021,64.951,133.021"/>
<path id="path184" fill="#5FC6F2" d="M55.326,96.684c2.859,0,5.175-2.29,5.175-5.112s-2.316-5.112-5.175-5.112
	c-2.858,0-5.174,2.29-5.174,5.112S52.467,96.684,55.326,96.684"/>
<path id="path186" fill="#5FC6F2" d="M60.506,106.722c0,2.825,2.315,5.112,5.174,5.112s5.174-2.287,5.174-5.112
	c0-2.822-2.315-5.111-5.174-5.111S60.506,103.9,60.506,106.722"/>
<path id="path188" fill="#5FC6F2" d="M75.475,117.9c-2.859,0-5.176,2.289-5.176,5.112c0,2.822,2.317,5.111,5.176,5.111
	s5.174-2.289,5.174-5.111C80.649,120.189,78.334,117.9,75.475,117.9"/>
<path id="path190" fill="#5FC6F2" d="M86.774,133.021c-2.859,0-5.174,2.288-5.174,5.112s2.315,5.111,5.174,5.111
	c2.858,0,5.174-2.287,5.174-5.111S89.633,133.021,86.774,133.021"/>
<path id="path192" fill="#5FC6F2" d="M75.585,86.46c-2.859,0-5.175,2.29-5.175,5.112s2.316,5.112,5.175,5.112
	c2.858,0,5.174-2.29,5.174-5.112S78.444,86.46,75.585,86.46"/>
<path id="path194" fill="#5FC6F2" d="M86.229,111.835c2.858,0,5.175-2.287,5.175-5.112c0-2.822-2.317-5.111-5.175-5.111
	c-2.859,0-5.175,2.289-5.175,5.111C81.055,109.548,83.371,111.835,86.229,111.835"/>
<path id="path196" fill="#5FC6F2" d="M96.545,117.9c-2.859,0-5.175,2.289-5.175,5.112c0,2.822,2.316,5.111,5.175,5.111
	c2.858,0,5.175-2.289,5.175-5.111C101.72,120.189,99.403,117.9,96.545,117.9"/>
<path id="path198" fill="#5FC6F2" d="M108.598,133.021c-2.858,0-5.174,2.288-5.174,5.112s2.316,5.111,5.174,5.111
	c2.859,0,5.175-2.287,5.175-5.111S111.457,133.021,108.598,133.021"/>
<path id="path200" fill="#5FC6F2" d="M95.845,96.684c2.858,0,5.175-2.29,5.175-5.112s-2.317-5.112-5.175-5.112
	c-2.859,0-5.175,2.29-5.175,5.112S92.986,96.684,95.845,96.684"/>
<path id="path202" fill="#5FC6F2" d="M111.953,106.722c0-2.822-2.315-5.111-5.174-5.111c-2.859,0-5.175,2.289-5.175,5.111
	c0,2.825,2.316,5.112,5.175,5.112C109.638,111.835,111.953,109.548,111.953,106.722"/>
<path id="path204" fill="#5FC6F2" d="M117.615,117.9c-2.858,0-5.174,2.289-5.174,5.112c0,2.822,2.316,5.111,5.174,5.111
	c2.859,0,5.175-2.289,5.175-5.111C122.79,120.189,120.474,117.9,117.615,117.9"/>
<path id="path206" fill="#5FC6F2" d="M116.104,96.684c2.859,0,5.175-2.29,5.175-5.112s-2.316-5.112-5.175-5.112
	c-2.858,0-5.174,2.29-5.174,5.112S113.245,96.684,116.104,96.684"/>
<path id="path208" fill="#5FC6F2" d="M127.329,101.611c-2.859,0-5.176,2.289-5.176,5.111c0,2.825,2.317,5.112,5.176,5.112
	c2.858,0,5.174-2.287,5.174-5.112C132.502,103.9,130.187,101.611,127.329,101.611"/>
<path id="path210" fill="#5FC6F2" d="M141.537,91.572c0-2.822-2.316-5.112-5.174-5.112c-2.859,0-5.174,2.29-5.174,5.112
	s2.315,5.112,5.174,5.112C139.221,96.684,141.537,94.394,141.537,91.572"/>
<path id="path212" fill="#5FC6F2" d="M228.181,140.291l-82.853,28.53l2.962,8.605l82.854-28.53L228.181,140.291"/>
<path id="path214" fill="#5FC6F2" d="M218.207,111.32l-82.853,28.529l2.962,8.606l82.854-28.532L218.207,111.32"/>
<path id="path216" fill="#258B96" d="M56.999,205.584h-26.88v90.55h90.549v-26.88H56.999V205.584"/>
<path id="path218" fill="#258B96" d="M248.724,269.254h-63.672v26.88h90.552v-90.55h-26.88V269.254"/>
<path id="path220" fill="#258B96" d="M56.999,81.796h63.669V54.918h-90.55v90.546h26.88V81.796"/>
<path id="path222" fill="#258B96" d="M185.052,81.796h63.672v63.668h26.88V54.918h-90.552V81.796"/>
<path id="path224" fill="#258B96" d="M576.387,237.398c-1.865,0-3.555,0.146-5.076,0.442l-12.501,30.298l-12.134-30.298
	c-1.865-0.297-3.752-0.442-5.665-0.442c-1.813,0-3.701,0.146-5.663,0.442l-2.059,52.875c1.667,0.297,3.284,0.441,4.854,0.441
	c1.472,0,2.991-0.145,4.561-0.441l1.029-36.403l10.002,25.372c0.686,0.149,1.349,0.246,1.987,0.295
	c0.634,0.049,1.274,0.074,1.91,0.074c0.736,0,1.472-0.038,2.208-0.11c0.733-0.075,1.445-0.159,2.131-0.259l10.737-24.856
	l1.324,35.888c1.618,0.297,3.26,0.441,4.928,0.441c1.667,0,3.432-0.145,5.295-0.441l-2.5-52.875
	C580.037,237.544,578.248,237.398,576.387,237.398"/>
<path id="path226" fill="#258B96" d="M386.57,237.841l-10.296,23.973l-10.442-23.973c-1.864-0.297-3.727-0.442-5.59-0.442
	c-2.06,0-4.118,0.146-6.177,0.442l16.474,33.974v18.977c0.931,0.146,1.849,0.244,2.757,0.293c0.908,0.048,1.777,0.073,2.61,0.073
	c0.883,0,1.767-0.025,2.648-0.073c0.883-0.049,1.814-0.147,2.795-0.293v-18.977l16.473-33.974c-2.009-0.297-3.896-0.442-5.662-0.442
	C390.248,237.398,388.384,237.544,386.57,237.841"/>
<path id="path228" fill="#258B96" d="M518.51,237.47c-0.835,0-1.693,0.027-2.575,0.073c-0.883,0.05-1.814,0.146-2.796,0.297v27.429
	c0,2.992-0.11,5.553-0.331,7.687c-0.22,2.132-0.661,3.897-1.323,5.295s-1.582,2.428-2.756,3.09
	c-1.178,0.662-2.722,0.993-4.635,0.993c-1.912,0-3.47-0.331-4.671-0.993c-1.2-0.662-2.132-1.692-2.795-3.09
	c-0.661-1.397-1.103-3.163-1.324-5.295c-0.22-2.134-0.33-4.694-0.33-7.687v-27.429c-0.933-0.15-1.839-0.247-2.722-0.297
	c-0.883-0.046-1.74-0.073-2.573-0.073c-0.932,0-1.837,0.027-2.722,0.073c-0.883,0.05-1.789,0.146-2.721,0.297v29.708
	c0,3.581,0.294,6.854,0.884,9.819c0.587,2.968,1.642,5.504,3.162,7.611c1.518,2.108,3.555,3.74,6.104,4.892
	c2.549,1.15,5.784,1.728,9.707,1.728c3.921,0,7.157-0.577,9.708-1.728c2.548-1.151,4.584-2.783,6.104-4.892
	c1.519-2.107,2.573-4.644,3.161-7.611c0.59-2.965,0.885-6.238,0.885-9.819v-29.708c-0.934-0.15-1.853-0.247-2.759-0.297
	C520.285,237.498,519.392,237.47,518.51,237.47"/>
<path id="path230" fill="#258B96" d="M456.219,281.596v-13.973h15.295c0.294-1.521,0.441-3.062,0.441-4.633
	c0-1.473-0.147-2.99-0.441-4.561h-15.295v-11.473h19.267c0.296-1.472,0.441-3.014,0.441-4.634c0-1.519-0.146-3.015-0.441-4.483
	H445.48v52.875h30.521c0.294-1.47,0.441-3.015,0.441-4.633c0-1.518-0.147-3.014-0.441-4.486H456.219"/>
<path id="path232" fill="#258B96" d="M434.963,280.715c-1.716,0.588-3.26,1.007-4.634,1.249c-1.373,0.247-2.967,0.37-4.78,0.37
	c-10.148,0-15.224-5.983-15.224-17.944c0-6.032,1.264-10.58,3.789-13.644c2.523-3.064,6.142-4.598,10.847-4.598
	c1.813,0,3.383,0.125,4.708,0.368c1.323,0.246,2.842,0.663,4.561,1.25c0.587-1.42,1.125-2.832,1.616-4.229
	c0.49-1.396,0.783-2.83,0.884-4.301c-2.306-0.933-4.449-1.546-6.437-1.838c-1.986-0.296-4.155-0.44-6.508-0.44
	c-3.971,0-7.515,0.685-10.628,2.057c-3.114,1.375-5.734,3.286-7.869,5.736c-2.132,2.453-3.763,5.358-4.89,8.716
	c-1.129,3.358-1.693,6.999-1.693,10.923c0,3.921,0.54,7.551,1.619,10.884c1.077,3.334,2.686,6.213,4.817,8.64
	c2.132,2.429,4.768,4.316,7.905,5.663c3.137,1.348,6.792,2.022,10.96,2.022c2.352,0,4.545-0.146,6.58-0.441
	c2.034-0.294,4.326-0.906,6.877-1.838c-0.197-1.471-0.504-2.929-0.92-4.375C436.127,283.499,435.6,282.087,434.963,280.715"/>
<path id="path234" fill="#258B96" d="M359.212,281.451H340.9v-43.61c-1.863-0.297-3.653-0.442-5.37-0.442
	c-1.666,0-3.407,0.146-5.22,0.442v52.875h28.901c0.146-0.833,0.245-1.629,0.296-2.391c0.047-0.757,0.072-1.53,0.072-2.314
	c0-0.688-0.025-1.41-0.072-2.169C359.457,283.08,359.358,282.286,359.212,281.451"/>
<path id="path236" fill="#258B96" d="M713.395,182.2l6.397-22.211l6.105,22.211H713.395z M723.028,148.481
	c-0.933-0.074-1.889-0.11-2.867-0.11c-1.129,0-2.158,0.036-3.091,0.11c-0.932,0.073-1.91,0.185-2.941,0.331l-16.694,52.877
	c1.766,0.295,3.555,0.441,5.369,0.441c1.617,0,3.311-0.146,5.076-0.441l3.015-10.589h17.504l2.941,10.589
	c1.766,0.295,3.577,0.441,5.442,0.441c1.911,0,3.871-0.146,5.883-0.441l-16.547-52.877
	C724.989,148.666,723.959,148.554,723.028,148.481"/>
<path id="path238" fill="#258B96" d="M335.42,194.888c2.134,2.426,4.768,4.314,7.906,5.662c3.138,1.348,6.792,2.021,10.959,2.021
	c2.353,0,4.547-0.147,6.583-0.441c2.033-0.294,4.325-0.905,6.874-1.839c-0.195-1.47-0.502-2.929-0.918-4.376
	c-0.418-1.445-0.945-2.854-1.582-4.229c-1.717,0.591-3.26,1.006-4.633,1.252c-1.373,0.245-2.966,0.367-4.78,0.367
	c-10.149,0-15.224-5.98-15.224-17.945c0-6.029,1.263-10.576,3.789-13.641c2.522-3.064,6.14-4.597,10.846-4.597
	c1.813,0,3.384,0.122,4.709,0.366c1.321,0.247,2.842,0.663,4.559,1.251c0.588-1.421,1.127-2.832,1.617-4.228
	c0.491-1.397,0.784-2.832,0.885-4.305c-2.306-0.929-4.45-1.542-6.438-1.837c-1.985-0.295-4.155-0.441-6.507-0.441
	c-3.972,0-7.517,0.688-10.628,2.059c-3.115,1.375-5.736,3.286-7.869,5.737c-2.134,2.452-3.765,5.357-4.891,8.715
	c-1.13,3.358-1.692,7-1.692,10.92c0,3.925,0.539,7.551,1.618,10.885C331.682,189.58,333.288,192.459,335.42,194.888"/>
<path id="path240" fill="#258B96" d="M380.982,148.371c-1.668,0-3.41,0.146-5.223,0.441v52.877h28.901
	c0.149-0.833,0.245-1.628,0.295-2.391c0.049-0.759,0.073-1.53,0.073-2.314c0-0.688-0.024-1.41-0.073-2.17
	c-0.05-0.76-0.146-1.556-0.295-2.391H386.35v-43.611C384.485,148.517,382.696,148.371,380.982,148.371"/>
<path id="path242" fill="#258B96" d="M452.392,148.371c-0.834,0-1.79,0.049-2.869,0.146c-1.078,0.1-2.036,0.197-2.866,0.295
	l16.913,52.877c1.127,0.147,2.158,0.259,3.091,0.331c0.929,0.074,1.887,0.11,2.866,0.11c1.079,0,2.097-0.036,3.052-0.11
	c0.956-0.072,1.948-0.184,2.98-0.331l17.062-52.877c-0.982-0.146-1.926-0.244-2.832-0.295c-0.907-0.047-1.803-0.072-2.685-0.072
	c-0.932,0-1.852,0.025-2.758,0.072c-0.907,0.051-1.85,0.148-2.832,0.295l-11.693,41.699l-11.544-41.699
	C456.216,148.517,454.253,148.371,452.392,148.371"/>
<path id="path244" fill="#258B96" d="M681.771,174.259v18.605c-0.539,0.099-1.141,0.197-1.804,0.294
	c-0.661,0.101-1.408,0.147-2.241,0.147c-4.854,0-8.532-1.481-11.033-4.449c-2.5-2.966-3.749-7.464-3.749-13.496
	c0-6.029,1.261-10.576,3.788-13.64c2.522-3.065,6.14-4.598,10.847-4.598c1.814,0,3.382,0.122,4.708,0.366
	c1.323,0.247,2.841,0.663,4.559,1.251c0.589-1.421,1.126-2.832,1.617-4.228c0.49-1.397,0.784-2.832,0.883-4.305
	c-2.207-0.929-4.328-1.542-6.361-1.837c-2.035-0.295-4.229-0.441-6.583-0.441c-3.97,0-7.512,0.688-10.625,2.059
	c-3.115,1.375-5.737,3.286-7.871,5.737c-2.132,2.452-3.764,5.357-4.891,8.715c-1.127,3.358-1.69,7-1.69,10.92
	c0,3.925,0.538,7.551,1.618,10.885c1.076,3.335,2.695,6.214,4.853,8.644c2.158,2.426,4.854,4.314,8.092,5.662
	c3.234,1.348,7.011,2.021,11.324,2.021c2.06,0,4.473-0.16,7.244-0.478c2.771-0.318,5.431-0.942,7.979-1.875v-25.961
	c-1.864-0.296-3.651-0.441-5.369-0.441S683.584,173.963,681.771,174.259"/>
<path id="path246" fill="#258B96" d="M567.485,176.502c0.883-0.81,1.702-1.776,2.464-2.904c0.759-1.13,1.386-2.438,1.876-3.935
	c0.488-1.496,0.736-3.225,0.736-5.187c0-3.283-0.652-5.992-1.949-8.127c-1.302-2.132-3.004-3.822-5.112-5.073
	s-4.476-2.121-7.098-2.61c-2.622-0.49-5.282-0.736-7.979-0.736c-2.304,0-4.401,0.085-6.288,0.257
	c-1.888,0.174-3.909,0.382-6.066,0.626v52.877c0.98,0.147,1.937,0.245,2.869,0.295c0.929,0.049,1.812,0.074,2.646,0.074
	c0.833,0,1.693-0.038,2.575-0.11c0.882-0.073,1.765-0.16,2.647-0.259v-44.64c0.881-0.146,1.863-0.221,2.941-0.221
	c2.794,0,5.075,0.725,6.84,2.17c1.764,1.446,2.646,3.713,2.646,6.801c0,1.571-0.318,2.931-0.955,4.083
	c-0.639,1.15-1.41,2.132-2.317,2.941c-0.906,0.808-1.851,1.482-2.832,2.022c-0.98,0.54-1.814,0.981-2.5,1.324l-1.765,0.883
	l13.826,24.563c1.814,0.293,3.653,0.441,5.517,0.441c1.128,0,2.23-0.049,3.309-0.148c1.078-0.098,2.107-0.195,3.09-0.293
	l-12.871-22.357l1.25-0.809C565.77,177.96,566.604,177.309,567.485,176.502"/>
<path id="path248" fill="#258B96" d="M422.755,192.569v-13.972h15.296c0.293-1.521,0.441-3.064,0.441-4.635
	c0-1.47-0.148-2.989-0.441-4.559h-15.296V157.93h19.267c0.295-1.471,0.441-3.015,0.441-4.633c0-1.518-0.146-3.014-0.441-4.485
	h-30.006v52.877h30.521c0.294-1.47,0.441-3.015,0.441-4.632c0-1.521-0.147-3.017-0.441-4.488H422.755"/>
<path id="path250" fill="#258B96" d="M509.238,192.569v-13.972h15.298c0.296-1.521,0.441-3.064,0.441-4.635
	c0-1.47-0.146-2.989-0.441-4.559h-15.298V157.93h19.271c0.292-1.471,0.44-3.015,0.44-4.633c0-1.518-0.148-3.014-0.44-4.485h-30.007
	v52.877h30.52c0.294-1.47,0.441-3.015,0.441-4.632c0-1.521-0.147-3.017-0.441-4.488H509.238"/>
<path id="path252" fill="#258B96" d="M582.486,148.812v52.877c1.813,0.295,3.63,0.441,5.443,0.441c1.716,0,3.506-0.146,5.369-0.441
	v-52.877c-1.863-0.295-3.678-0.441-5.443-0.441C586.091,148.371,584.3,148.517,582.486,148.812"/>
<path id="path254" fill="#258B96" d="M632.938,148.812v33.684l-20.445-33.684c-1.57-0.295-3.091-0.441-4.562-0.441
	c-1.372,0-2.818,0.146-4.338,0.441v52.877c1.52,0.295,3.089,0.441,4.706,0.441c1.619,0,3.211-0.146,4.78-0.441V168.08l20.595,33.609
	c1.616,0.295,3.112,0.441,4.485,0.441c1.274,0,2.694-0.146,4.264-0.441v-52.877c-1.421-0.295-2.894-0.441-4.412-0.441
	C636.395,148.371,634.703,148.517,632.938,148.812"/>
<path id="path256" fill="#258B96" d="M838.121,59.419c-0.833,0-1.689,0.025-2.572,0.072c-0.882,0.051-1.815,0.146-2.796,0.296
	v27.429c0,2.992-0.11,5.554-0.33,7.688c-0.222,2.133-0.663,3.896-1.323,5.296c-0.661,1.397-1.582,2.425-2.757,3.088
	c-1.178,0.662-2.722,0.993-4.634,0.993c-1.914,0-3.471-0.331-4.67-0.993c-1.202-0.663-2.135-1.69-2.797-3.088
	c-0.661-1.399-1.103-3.163-1.323-5.296c-0.221-2.134-0.331-4.695-0.331-7.688V59.787c-0.931-0.149-1.839-0.245-2.722-0.296
	c-0.882-0.047-1.739-0.072-2.573-0.072c-0.932,0-1.838,0.025-2.721,0.072c-0.883,0.051-1.79,0.146-2.722,0.296v29.71
	c0,3.579,0.295,6.852,0.883,9.817c0.589,2.969,1.643,5.506,3.164,7.612c1.517,2.109,3.553,3.74,6.104,4.891
	c2.548,1.15,5.784,1.729,9.708,1.729c3.92,0,7.156-0.578,9.705-1.729c2.55-1.15,4.586-2.781,6.104-4.891
	c1.52-2.106,2.574-4.644,3.163-7.612c0.59-2.966,0.884-6.238,0.884-9.817v-29.71c-0.934-0.149-1.851-0.245-2.759-0.296
	C839.898,59.444,839.005,59.419,838.121,59.419"/>
<path id="path258" fill="#258B96" d="M435.623,68.39c0.687-0.097,1.483-0.158,2.389-0.186c0.908-0.023,1.704-0.034,2.391-0.034
	c2.061,0,4.008,0.282,5.847,0.844c1.839,0.564,3.47,1.533,4.891,2.907c1.423,1.372,2.55,3.234,3.383,5.588
	c0.833,2.354,1.252,5.295,1.252,8.826c0,3.627-0.419,6.594-1.252,8.897c-0.833,2.306-1.96,4.143-3.383,5.515
	c-1.421,1.373-3.101,2.318-5.036,2.832c-1.937,0.517-4.034,0.773-6.287,0.773c-0.981,0-1.815-0.025-2.502-0.073
	c-0.688-0.048-1.249-0.099-1.691-0.148V68.39z M437.978,113.546c9.657,0,16.938-2.181,21.843-6.544
	c4.901-4.365,7.354-11.181,7.354-20.445c0-9.218-2.418-16.133-7.245-20.739c-4.83-4.609-11.878-6.914-21.144-6.914
	c-2.747,0-5.247,0.085-7.501,0.257c-2.256,0.174-4.413,0.382-6.472,0.627v52.877c2.059,0.244,4.142,0.453,6.25,0.624
	C433.172,113.46,435.478,113.546,437.978,113.546"/>
<path id="path260" fill="#258B96" d="M378.996,106.927c1.518,2.109,3.553,3.74,6.103,4.891c2.551,1.15,5.787,1.729,9.709,1.729
	s7.156-0.578,9.707-1.729c2.55-1.15,4.584-2.781,6.105-4.891c1.519-2.106,2.573-4.644,3.162-7.612
	c0.589-2.966,0.882-6.238,0.882-9.816V59.787c-0.932-0.149-1.851-0.245-2.759-0.296c-0.906-0.047-1.802-0.072-2.683-0.072
	c-0.835,0-1.692,0.025-2.574,0.072c-0.885,0.051-1.815,0.146-2.797,0.296v27.429c0,2.992-0.11,5.554-0.33,7.688
	c-0.22,2.133-0.66,3.896-1.323,5.296c-0.661,1.397-1.581,2.425-2.757,3.088c-1.179,0.662-2.722,0.993-4.634,0.993
	c-1.911,0-3.469-0.331-4.672-0.993c-1.201-0.663-2.131-1.69-2.793-3.088c-0.663-1.399-1.104-3.163-1.325-5.296
	c-0.221-2.134-0.331-4.695-0.331-7.688V59.787c-0.931-0.149-1.839-0.245-2.721-0.296c-0.881-0.047-1.739-0.072-2.572-0.072
	c-0.934,0-1.839,0.025-2.722,0.072c-0.884,0.051-1.792,0.146-2.721,0.296v29.711c0,3.578,0.293,6.851,0.882,9.816
	C376.422,102.283,377.477,104.82,378.996,106.927"/>
<path id="path262" fill="#258B96" d="M497.693,68.096c3.872,0,6.729,1.521,8.569,4.559c1.839,3.042,2.756,7.6,2.756,13.681
	c0,12.159-3.799,18.239-11.397,18.239c-7.65,0-11.475-6.08-11.475-18.239C486.146,74.176,489.996,68.096,497.693,68.096z
	 M480.189,105.788c1.864,2.426,4.241,4.327,7.136,5.699c2.892,1.372,6.323,2.059,10.296,2.059c3.97,0,7.401-0.688,10.295-2.059
	c2.892-1.372,5.27-3.273,7.135-5.699c1.861-2.427,3.246-5.297,4.154-8.606c0.907-3.31,1.36-6.924,1.36-10.846
	c0-3.924-0.453-7.563-1.36-10.923c-0.908-3.356-2.293-6.262-4.154-8.714c-1.865-2.452-4.243-4.363-7.135-5.736
	c-2.894-1.372-6.325-2.06-10.295-2.06c-3.973,0-7.404,0.688-10.296,2.06c-2.895,1.373-5.271,3.284-7.136,5.736
	c-1.863,2.452-3.247,5.357-4.155,8.714c-0.907,3.359-1.359,6.999-1.359,10.923c0,3.922,0.452,7.536,1.359,10.846
	C476.942,100.491,478.326,103.361,480.189,105.788"/>
<path id="path264" fill="#258B96" d="M885.337,90.635c-0.589-1.641-1.41-3.037-2.465-4.19c-1.055-1.151-2.342-2.121-3.86-2.903
	c-1.52-0.784-3.212-1.547-5.073-2.282l-4.415-1.69c-0.734-0.295-1.469-0.602-2.203-0.919c-0.737-0.318-1.399-0.712-1.987-1.177
	c-0.589-0.466-1.055-1.029-1.397-1.692c-0.344-0.661-0.516-1.482-0.516-2.464c0-1.224,0.222-2.217,0.663-2.978
	s1.004-1.336,1.691-1.728c0.686-0.392,1.458-0.663,2.316-0.811c0.858-0.148,1.702-0.222,2.537-0.222
	c1.373,0,2.599,0.062,3.678,0.186c1.078,0.123,2.046,0.281,2.905,0.478c0.855,0.195,1.666,0.441,2.425,0.735
	c0.762,0.294,1.508,0.589,2.245,0.883c1.275-2.745,2.059-5.541,2.353-8.385c-2.401-0.834-4.694-1.47-6.876-1.911
	s-4.522-0.662-7.022-0.662c-2.748,0-5.222,0.33-7.43,0.993c-2.207,0.662-4.095,1.643-5.663,2.942
	c-1.567,1.297-2.782,2.902-3.639,4.814c-0.859,1.913-1.289,4.119-1.289,6.621c0,2.06,0.258,3.824,0.773,5.295
	c0.516,1.47,1.238,2.732,2.169,3.787s2.061,1.961,3.383,2.72c1.324,0.763,2.819,1.46,4.487,2.098l4.486,1.691
	c0.883,0.343,1.738,0.699,2.573,1.067c0.833,0.366,1.583,0.821,2.244,1.358c0.66,0.541,1.2,1.202,1.617,1.988
	c0.415,0.783,0.625,1.763,0.625,2.941c0,2.352-0.884,4.104-2.647,5.258c-1.766,1.151-4.19,1.727-7.281,1.727
	c-2.059,0-3.996-0.206-5.809-0.625c-1.814-0.414-3.752-1.041-5.812-1.875c-0.54,1.571-1.004,3.127-1.396,4.67
	c-0.393,1.545-0.662,3.028-0.811,4.449c1.226,0.49,2.404,0.909,3.532,1.251c1.125,0.344,2.267,0.625,3.419,0.847
	c1.15,0.221,2.364,0.377,3.642,0.479c1.274,0.097,2.721,0.146,4.337,0.146c3.285,0,6.189-0.416,8.717-1.25
	c2.523-0.833,4.645-1.985,6.36-3.456s3.028-3.237,3.935-5.297c0.908-2.059,1.361-4.338,1.361-6.838
	C886.22,94.302,885.925,92.281,885.337,90.635"/>
<path id="path266" fill="#258B96" d="M336.342,113.032c0.833,0,1.69-0.039,2.571-0.11c0.883-0.073,1.766-0.162,2.649-0.258V68.021
	c0.883-0.146,1.863-0.22,2.941-0.22c2.793,0,5.073,0.724,6.84,2.169c1.766,1.448,2.646,3.714,2.646,6.804
	c0,1.568-0.318,2.931-0.954,4.08c-0.639,1.155-1.412,2.134-2.317,2.944c-0.908,0.807-1.851,1.482-2.831,2.021
	c-0.982,0.539-1.815,0.979-2.501,1.324l-1.766,0.881l13.827,24.565c1.812,0.292,3.65,0.441,5.515,0.441
	c1.128,0,2.231-0.051,3.311-0.149c1.076-0.098,2.106-0.196,3.089-0.292L356.49,90.233l1.251-0.81c0.784-0.49,1.617-1.14,2.5-1.949
	c0.883-0.808,1.704-1.775,2.464-2.905c0.761-1.126,1.386-2.438,1.875-3.935c0.49-1.493,0.736-3.224,0.736-5.184
	c0-3.284-0.649-5.993-1.948-8.128c-1.3-2.133-3.004-3.823-5.11-5.075c-2.109-1.248-4.476-2.118-7.1-2.61
	c-2.621-0.489-5.283-0.734-7.979-0.734c-2.304,0-4.398,0.085-6.285,0.257c-1.888,0.174-3.911,0.382-6.069,0.627v52.877
	c0.981,0.146,1.936,0.244,2.868,0.294C334.623,113.007,335.507,113.032,336.342,113.032"/>
<path id="path268" fill="#258B96" d="M637.131,59.787v20.737h-17.725V59.787c-1.862-0.296-3.676-0.441-5.442-0.441
	c-1.764,0-3.555,0.146-5.366,0.441v52.877c1.812,0.294,3.628,0.44,5.441,0.44c1.714,0,3.505-0.146,5.367-0.44V89.791h17.725v22.873
	c1.814,0.294,3.629,0.44,5.442,0.44c1.716,0,3.504-0.146,5.369-0.44V59.787c-1.865-0.296-3.677-0.441-5.441-0.441
	C640.734,59.345,638.945,59.491,637.131,59.787"/>
<path id="path270" fill="#258B96" d="M697.581,81.96c-0.538,1.2-1.261,2.17-2.169,2.904c-0.907,0.736-1.949,1.263-3.124,1.581
	c-1.178,0.32-2.38,0.479-3.605,0.479h-1.875c-0.515,0-1.066-0.049-1.653-0.147V68.021c0.882-0.098,1.557-0.157,2.021-0.183
	c0.466-0.024,0.967-0.037,1.507-0.037c1.226,0,2.428,0.161,3.605,0.479c1.175,0.32,2.217,0.857,3.124,1.618
	c0.908,0.759,1.631,1.766,2.169,3.014c0.54,1.252,0.811,2.785,0.811,4.598C698.392,79.274,698.121,80.758,697.581,81.96z
	 M707.511,86.667c1.274-2.379,1.912-5.48,1.912-9.304c0-3.824-0.638-6.939-1.912-9.342c-1.276-2.4-2.931-4.277-4.964-5.624
	c-2.036-1.35-4.314-2.268-6.839-2.76c-2.526-0.489-5.015-0.734-7.467-0.734c-2.352,0-4.682,0.062-6.986,0.185
	c-2.304,0.122-4.583,0.281-6.839,0.478v53.099c0.981,0.146,1.936,0.244,2.869,0.294c0.931,0.049,1.788,0.074,2.572,0.074
	c0.833,0,1.693-0.025,2.576-0.074c0.881-0.05,1.789-0.147,2.721-0.294V95.676c0.488,0.05,1.017,0.084,1.58,0.109
	c0.562,0.025,1.164,0.036,1.802,0.036c2.402,0,4.843-0.245,7.317-0.734c2.476-0.49,4.719-1.421,6.729-2.796
	C704.592,90.92,706.234,89.044,707.511,86.667"/>
<path id="path272" fill="#258B96" d="M558.661,110.272c0.05-0.758,0.073-1.531,0.073-2.314c0-0.688-0.023-1.411-0.073-2.17
	c-0.049-0.76-0.147-1.556-0.295-2.391h-18.311v-43.61c-1.865-0.296-3.654-0.441-5.37-0.441c-1.667,0-3.407,0.146-5.222,0.441v52.877
	h28.902C558.514,111.831,558.612,111.033,558.661,110.272"/>
<path id="path274" fill="#258B96" d="M588.888,81.96c-0.541,1.2-1.264,2.17-2.169,2.904c-0.909,0.736-1.949,1.263-3.125,1.581
	c-1.179,0.32-2.379,0.479-3.604,0.479h-1.876c-0.515,0-1.065-0.049-1.656-0.147V68.021c0.885-0.098,1.557-0.157,2.024-0.183
	c0.466-0.024,0.968-0.037,1.508-0.037c1.226,0,2.426,0.161,3.604,0.479c1.176,0.32,2.216,0.857,3.125,1.618
	c0.905,0.759,1.628,1.766,2.169,3.014c0.539,1.252,0.809,2.785,0.809,4.598C589.696,79.274,589.427,80.758,588.888,81.96
	L588.888,81.96z M593.851,62.397c-2.033-1.35-4.314-2.268-6.839-2.76c-2.525-0.489-5.013-0.734-7.464-0.734
	c-2.354,0-4.684,0.062-6.986,0.185c-2.307,0.122-4.587,0.281-6.84,0.478v53.099c0.979,0.146,1.937,0.244,2.868,0.294
	c0.93,0.049,1.789,0.074,2.574,0.074c0.833,0,1.69-0.025,2.573-0.074c0.883-0.05,1.788-0.147,2.72-0.294V95.676
	c0.492,0.05,1.018,0.084,1.582,0.109s1.164,0.036,1.804,0.036c2.399,0,4.84-0.245,7.317-0.734c2.473-0.49,4.719-1.421,6.729-2.796
	c2.009-1.371,3.651-3.247,4.925-5.624c1.274-2.379,1.915-5.48,1.915-9.304c0-3.824-0.641-6.939-1.915-9.342
	C597.541,65.621,595.887,63.744,593.851,62.397"/>
<path id="path276" fill="#258B96" d="M784.142,101.08c-0.637,1.007-1.447,1.789-2.426,2.354c-0.982,0.565-2.037,0.944-3.162,1.142
	c-1.13,0.194-2.208,0.292-3.236,0.292c-0.737,0-1.559-0.024-2.466-0.073c-0.906-0.049-1.703-0.12-2.389-0.219V89.277h4.413
	c1.519,0,2.905,0.123,4.153,0.368c1.252,0.245,2.329,0.675,3.237,1.287c0.906,0.611,1.605,1.421,2.095,2.425
	c0.49,1.007,0.737,2.27,0.737,3.788C785.099,98.762,784.778,100.075,784.142,101.08L784.142,101.08z M770.463,67.066
	c0.932-0.146,2.084-0.221,3.456-0.221c0.979,0,1.975,0.087,2.979,0.257c1.003,0.174,1.911,0.517,2.722,1.029
	c0.807,0.517,1.47,1.228,1.985,2.135c0.515,0.907,0.771,2.071,0.771,3.493c0,1.471-0.22,2.685-0.661,3.641
	c-0.441,0.954-1.055,1.716-1.839,2.278c-0.786,0.564-1.703,0.956-2.758,1.176c-1.055,0.222-2.196,0.332-3.42,0.332h-3.236V67.066z
	 M792.011,87.696c-1.176-1.054-2.451-1.851-3.824-2.392c-1.373-0.538-2.622-0.883-3.749-1.028c1.027-0.146,2.032-0.552,3.015-1.214
	c0.979-0.662,1.861-1.495,2.647-2.5c0.784-1.005,1.408-2.183,1.874-3.53s0.699-2.807,0.699-4.377c0-2.646-0.515-4.854-1.545-6.619
	c-1.028-1.766-2.44-3.172-4.229-4.228c-1.788-1.054-3.885-1.802-6.286-2.243c-2.403-0.441-4.952-0.662-7.649-0.662
	c-3.088,0-5.663,0.073-7.723,0.221c-2.059,0.146-3.874,0.343-5.441,0.587v52.953c2.794,0.343,5.294,0.575,7.501,0.699
	c2.208,0.121,4.437,0.183,6.693,0.183c2.941,0,5.747-0.222,8.42-0.663c2.671-0.438,5.026-1.249,7.061-2.425
	c2.034-1.177,3.651-2.781,4.854-4.817c1.2-2.035,1.801-4.646,1.801-7.832c0-2.354-0.393-4.363-1.176-6.031
	C794.169,90.112,793.187,88.751,792.011,87.696"/>
<path id="path278" fill="#258B96" d="M724.426,93.175l6.398-22.209l6.103,22.209H724.426z M734.06,59.455
	c-0.933-0.075-1.888-0.109-2.869-0.109c-1.127,0-2.157,0.034-3.088,0.109c-0.931,0.074-1.913,0.183-2.941,0.332l-16.696,52.877
	c1.767,0.294,3.555,0.44,5.371,0.44c1.617,0,3.308-0.146,5.073-0.44l3.015-10.592h17.505l2.94,10.592
	c1.766,0.294,3.58,0.44,5.442,0.44c1.913,0,3.872-0.146,5.883-0.44l-16.547-52.877C736.02,59.637,734.99,59.529,734.06,59.455"/>
</svg>
