<?xml version="1.0" encoding="utf-8"?>
<!-- Generator: Adobe Illustrator 23.0.5, SVG Export Plug-In . SVG Version: 6.00 Build 0)  -->
<svg version="1.1"
	 id="svg2" xmlns:cc="http://creativecommons.org/ns#" xmlns:dc="http://purl.org/dc/elements/1.1/" xmlns:rdf="http://www.w3.org/1999/02/22-rdf-syntax-ns#" xmlns:svg="http://www.w3.org/2000/svg"
	 xmlns="http://www.w3.org/2000/svg" xmlns:xlink="http://www.w3.org/1999/xlink" x="0px" y="0px" viewBox="0 0 721.3 783"
	 style="enable-background:new 0 0 721.3 783;" xml:space="preserve">
<style type="text/css">
	.st0{fill:#5FC6F2;}
	.st1{fill:#DDD63B;}
	.st2{fill:#DF7585;}
	.st3{fill:#BFB3E0;}
</style>
<path id="path14" class="st0" d="M328.5,13.2c-3.6,0-6.6-2.9-6.6-6.6s3-6.6,6.6-6.6c3.6,0,6.6,2.9,6.6,6.6S332.2,13.2,328.5,13.2"/>
<path id="path16" class="st0" d="M328.5,38.7c-3.6,0-6.6-2.9-6.6-6.6s3-6.6,6.6-6.6c3.6,0,6.6,2.9,6.6,6.6S332.2,38.7,328.5,38.7"/>
<path id="path18" class="st0" d="M328.5,64.2c-3.6,0-6.6-2.9-6.6-6.6c0-3.6,3-6.6,6.6-6.6c3.6,0,6.6,2.9,6.6,6.6
	S332.2,64.2,328.5,64.2"/>
<path id="path20" class="st0" d="M328.8,89.7c-3.6,0-6.6-2.9-6.6-6.6s3-6.6,6.6-6.6c3.6,0,6.6,2.9,6.6,6.6S332.4,89.7,328.8,89.7"/>
<path id="path22" class="st0" d="M328.8,115.2c-3.6,0-6.6-2.9-6.6-6.6c0-3.6,3-6.6,6.6-6.6c3.6,0,6.6,2.9,6.6,6.6
	C335.4,112.2,332.4,115.2,328.8,115.2"/>
<path id="path24" class="st0" d="M328.8,140.7c-3.6,0-6.6-2.9-6.6-6.6s3-6.6,6.6-6.6c3.6,0,6.6,2.9,6.6,6.6
	C335.4,137.7,332.4,140.7,328.8,140.7"/>
<path id="path26" class="st0" d="M328.8,166.1c-3.6,0-6.6-2.9-6.6-6.6c0-3.6,3-6.6,6.6-6.6c3.6,0,6.6,2.9,6.6,6.6
	C335.4,163.2,332.4,166.1,328.8,166.1"/>
<path id="path28" class="st0" d="M328.8,191.6c-3.6,0-6.6-2.9-6.6-6.6c0-3.6,3-6.6,6.6-6.6c3.6,0,6.6,2.9,6.6,6.6
	C335.4,188.7,332.4,191.6,328.8,191.6"/>
<path id="path30" class="st0" d="M346.4,24.1c-3.6,0-6.6-2.9-6.6-6.6s3-6.6,6.6-6.6c3.6,0,6.6,2.9,6.6,6.6S350,24.1,346.4,24.1"/>
<path id="path32" class="st0" d="M367,35.2c-3.6,0-6.6-2.9-6.6-6.6c0-3.6,3-6.6,6.6-6.6c3.6,0,6.6,2.9,6.6,6.6
	C373.6,32.2,370.6,35.2,367,35.2"/>
<path id="path34" class="st0" d="M386.5,46.7c-3.6,0-6.6-2.9-6.6-6.6s3-6.6,6.6-6.6c3.6,0,6.6,2.9,6.6,6.6S390.2,46.7,386.5,46.7"/>
<path id="path36" class="st0" d="M407.6,59c-3.6,0-6.6-2.9-6.6-6.6c0-3.6,3-6.6,6.6-6.6s6.6,2.9,6.6,6.6
	C414.2,56.1,411.3,59,407.6,59"/>
<path id="path38" class="st0" d="M346.4,49.7c-3.6,0-6.6-2.9-6.6-6.6s3-6.6,6.6-6.6c3.6,0,6.6,2.9,6.6,6.6S350,49.7,346.4,49.7"/>
<path id="path40" class="st0" d="M367,61.4c-3.6,0-6.6-2.9-6.6-6.6c0-3.6,3-6.6,6.6-6.6c3.6,0,6.6,2.9,6.6,6.6
	C373.6,58.5,370.6,61.4,367,61.4"/>
<path id="path42" class="st0" d="M386.5,73.5c-3.6,0-6.6-2.9-6.6-6.6c0-3.6,3-6.6,6.6-6.6c3.6,0,6.6,2.9,6.6,6.6
	S390.2,73.5,386.5,73.5"/>
<path id="path44" class="st0" d="M407.6,86.8c-3.6,0-6.6-2.9-6.6-6.6c0-3.6,3-6.6,6.6-6.6s6.6,2.9,6.6,6.6
	C414.2,83.9,411.3,86.8,407.6,86.8"/>
<path id="path46" class="st0" d="M346.4,75.4c-3.6,0-6.6-2.9-6.6-6.6c0-3.6,3-6.6,6.6-6.6c3.6,0,6.6,2.9,6.6,6.6
	C352.9,72.5,350,75.4,346.4,75.4"/>
<path id="path48" class="st0" d="M367,87.6c-3.6,0-6.6-2.9-6.6-6.6s3-6.6,6.6-6.6c3.6,0,6.6,2.9,6.6,6.6
	C373.6,84.7,370.6,87.6,367,87.6"/>
<path id="path50" class="st0" d="M386.5,100.3c-3.6,0-6.6-2.9-6.6-6.6s3-6.6,6.6-6.6c3.6,0,6.6,2.9,6.6,6.6S390.2,100.3,386.5,100.3
	"/>
<path id="path52" class="st0" d="M407.6,114.6c-3.6,0-6.6-2.9-6.6-6.6s3-6.6,6.6-6.6s6.6,2.9,6.6,6.6S411.3,114.6,407.6,114.6"/>
<path id="path54" class="st0" d="M346.6,101.1c-3.6,0-6.6-2.9-6.6-6.6c0-3.6,3-6.6,6.6-6.6c3.6,0,6.6,2.9,6.6,6.6
	C353.2,98.2,350.3,101.1,346.6,101.1"/>
<path id="path56" class="st0" d="M367.2,113.9c-0.7,0-1.4-0.1-2-0.3c-1.1-2.6-2.5-5.2-4.4-7.8c0.7-2.9,3.3-5,6.4-5
	c3.6,0,6.6,2.9,6.6,6.6C373.8,110.9,370.9,113.9,367.2,113.9"/>
<path id="path58" class="st0" d="M386.8,127.1c-3.6,0-6.6-2.9-6.6-6.6s3-6.6,6.6-6.6c3.6,0,6.6,2.9,6.6,6.6S390.4,127.1,386.8,127.1
	"/>
<path id="path60" class="st0" d="M407.9,142.4c-3.6,0-6.6-2.9-6.6-6.6s3-6.6,6.6-6.6c3.6,0,6.6,2.9,6.6,6.6S411.5,142.4,407.9,142.4
	"/>
<path id="path62" class="st0" d="M346.6,126.8c-3.6,0-6.6-2.9-6.6-6.6c0-3.2,2.3-5.9,5.3-6.5l-1,0.9c3.4,3.8,4.8,7.4,5.3,11.4
	C348.7,126.6,347.7,126.8,346.6,126.8"/>
<path id="path64" class="st0" d="M367.6,140.1c0-1.1,0.1-2.2,0.2-3.4c0.2-3,0.4-6.3,0.2-9.7c3.3,0.4,5.8,3.2,5.8,6.5
	C373.8,137.1,371.1,139.9,367.6,140.1"/>
<path id="path66" class="st0" d="M386.8,154c-3.6,0-6.6-2.9-6.6-6.6c0-3.6,3-6.6,6.6-6.6c3.6,0,6.6,2.9,6.6,6.6
	C393.4,151,390.4,154,386.8,154"/>
<path id="path68" class="st0" d="M346.6,152.5c-3.6,0-6.6-2.9-6.6-6.6c0-3.6,3-6.6,6.6-6.6c1,0,1.9,0.2,2.8,0.6
	c-0.1,3.7-0.1,7.6,0.6,11.6C349,152.2,347.8,152.5,346.6,152.5"/>
<path id="path70" class="st0" d="M373.7,158.7c-0.3-0.3-0.6-0.7-1-1c-1.2-1.3-2.1-2.6-2.8-3.8C371.9,154.7,373.3,156.5,373.7,158.7"
	/>
<path id="path72" class="st0" d="M346.6,178.2c-3.6,0-6.6-2.9-6.6-6.6c0-3.6,3-6.6,6.6-6.6c3.6,0,6.6,2.9,6.6,6.6
	C353.2,175.3,350.3,178.2,346.6,178.2"/>
<path id="path74" class="st0" d="M308.6,25.4c-3.6,0-6.6-2.9-6.6-6.6c0-3.6,3-6.6,6.6-6.6c3.6,0,6.6,2.9,6.6,6.6
	C315.3,22.5,312.3,25.4,308.6,25.4"/>
<path id="path76" class="st0" d="M289.1,37.8c-3.6,0-6.6-2.9-6.6-6.6c0-3.6,3-6.6,6.6-6.6c3.6,0,6.6,2.9,6.6,6.6
	C295.7,34.9,292.7,37.8,289.1,37.8"/>
<path id="path78" class="st0" d="M268.3,49c-3.6,0-6.6-2.9-6.6-6.6s3-6.6,6.6-6.6s6.6,2.9,6.6,6.6C274.9,46,272,49,268.3,49"/>
<path id="path80" class="st0" d="M248.8,61.4c-3.6,0-6.6-2.9-6.6-6.6c0-3.6,3-6.6,6.6-6.6c3.6,0,6.6,2.9,6.6,6.6
	C255.4,58.5,252.5,61.4,248.8,61.4"/>
<path id="path82" class="st0" d="M308.6,51.2c-3.6,0-6.6-2.9-6.6-6.6c0-3.6,3-6.6,6.6-6.6c3.6,0,6.6,2.9,6.6,6.6
	C315.3,48.2,312.3,51.2,308.6,51.2"/>
<path id="path84" class="st0" d="M289.4,64c-3.6,0-6.6-2.9-6.6-6.6c0-3.6,3-6.6,6.6-6.6c3.6,0,6.6,2.9,6.6,6.6
	C296,61,293,64,289.4,64"/>
<path id="path86" class="st0" d="M268.3,75.8c-3.6,0-6.6-2.9-6.6-6.6c0-3.6,3-6.6,6.6-6.6s6.6,2.9,6.6,6.6
	C274.9,72.8,272,75.8,268.3,75.8"/>
<path id="path88" class="st0" d="M248.8,89.2c-3.6,0-6.6-2.9-6.6-6.6s3-6.6,6.6-6.6c3.6,0,6.6,2.9,6.6,6.6
	C255.4,86.2,252.5,89.2,248.8,89.2"/>
<path id="path90" class="st0" d="M308.9,76.9c-3.6,0-6.6-2.9-6.6-6.6c0-3.6,3-6.6,6.6-6.6c3.6,0,6.6,2.9,6.6,6.6
	C315.5,74,312.6,76.9,308.9,76.9"/>
<path id="path92" class="st0" d="M289.4,90.1c-3.6,0-6.6-2.9-6.6-6.6c0-3.6,3-6.6,6.6-6.6c3.6,0,6.6,2.9,6.6,6.6
	C296,87.2,293,90.1,289.4,90.1"/>
<path id="path94" class="st0" d="M268.3,102.6c-3.6,0-6.6-2.9-6.6-6.6c0-3.6,3-6.6,6.6-6.6s6.6,2.9,6.6,6.6S272,102.6,268.3,102.6"
	/>
<path id="path96" class="st0" d="M248.8,116.9c-3.6,0-6.6-2.9-6.6-6.6s3-6.6,6.6-6.6c3.6,0,6.6,2.9,6.6,6.6S252.5,116.9,248.8,116.9
	"/>
<path id="path98" class="st0" d="M308.9,102.7c-3.6,0-6.6-2.9-6.6-6.6s3-6.6,6.6-6.6c3.6,0,6.6,2.9,6.6,6.6S312.6,102.7,308.9,102.7
	"/>
<path id="path100" class="st0" d="M289.4,116.2c-3.6,0-6.6-2.9-6.6-6.6s3-6.6,6.6-6.6c3.6,0,6.6,2.9,6.6,6.6S293,116.2,289.4,116.2"
	/>
<path id="path102" class="st0" d="M268.3,129.3c-3.6,0-6.6-2.9-6.6-6.6c0-3.6,3-6.6,6.6-6.6s6.6,2.9,6.6,6.6S272,129.3,268.3,129.3"
	/>
<path id="path104" class="st0" d="M248.8,144.7c-3.6,0-6.6-2.9-6.6-6.6c0-3.6,3-6.6,6.6-6.6c3.6,0,6.6,2.9,6.6,6.6
	C255.4,141.7,252.5,144.7,248.8,144.7"/>
<path id="path106" class="st0" d="M308.9,128.5c-3.6,0-6.6-2.9-6.6-6.6c0-3.6,3-6.6,6.6-6.6c3.6,0,6.6,2.9,6.6,6.6
	C315.5,125.5,312.6,128.5,308.9,128.5"/>
<path id="path108" class="st0" d="M289.4,142.4c-3.6,0-6.6-2.9-6.6-6.6s3-6.6,6.6-6.6c3.6,0,6.6,2.9,6.6,6.6
	C296,139.4,293,142.4,289.4,142.4"/>
<path id="path110" class="st0" d="M268.3,156.1c-3.6,0-6.6-2.9-6.6-6.6c0-3.6,3-6.6,6.6-6.6s6.6,2.9,6.6,6.6
	C274.9,153.2,272,156.1,268.3,156.1"/>
<path id="path112" class="st0" d="M308.9,154.2c-3.6,0-6.6-2.9-6.6-6.6c0-3.6,3-6.6,6.6-6.6c3.6,0,6.6,2.9,6.6,6.6
	C315.5,151.3,312.6,154.2,308.9,154.2"/>
<path id="path114" class="st0" d="M289.4,168.5c-3.6,0-6.6-2.9-6.6-6.6c0-3.6,3-6.6,6.6-6.6c3.6,0,6.6,2.9,6.6,6.6
	S293,168.5,289.4,168.5"/>
<path id="path116" class="st0" d="M308.9,180c-3.6,0-6.6-2.9-6.6-6.6s3-6.6,6.6-6.6c3.6,0,6.6,2.9,6.6,6.6
	C315.5,177,312.6,180,308.9,180"/>
<path id="path118" class="st0" d="M115.6,534.3c-3.6,0-6.6-2.9-6.6-6.6c0-3.6,3-6.6,6.6-6.6c3.6,0,6.6,2.9,6.6,6.6
	C122.2,531.4,119.3,534.3,115.6,534.3"/>
<path id="path120" class="st0" d="M115.6,559.8c-3.6,0-6.6-2.9-6.6-6.6c0-3.6,3-6.6,6.6-6.6c3.6,0,6.6,2.9,6.6,6.6
	C122.2,556.9,119.3,559.8,115.6,559.8"/>
<path id="path122" class="st0" d="M115.6,585.3c-3.6,0-6.6-2.9-6.6-6.6s3-6.6,6.6-6.6c3.6,0,6.6,2.9,6.6,6.6
	S119.3,585.3,115.6,585.3"/>
<path id="path124" class="st0" d="M115.9,610.8c-3.6,0-6.6-2.9-6.6-6.6c0-3.6,3-6.6,6.6-6.6c3.6,0,6.6,2.9,6.6,6.6
	C122.5,607.9,119.5,610.8,115.9,610.8"/>
<path id="path126" class="st0" d="M115.9,636.3c-3.6,0-6.6-2.9-6.6-6.6s3-6.6,6.6-6.6c3.6,0,6.6,2.9,6.6,6.6
	S119.5,636.3,115.9,636.3"/>
<path id="path128" class="st0" d="M115.9,661.8c-3.6,0-6.6-2.9-6.6-6.6c0-3.6,3-6.6,6.6-6.6c3.6,0,6.6,2.9,6.6,6.6
	C122.5,658.9,119.5,661.8,115.9,661.8"/>
<path id="path130" class="st0" d="M115.9,687.3c-3.6,0-6.6-2.9-6.6-6.6c0-3.6,3-6.6,6.6-6.6c3.6,0,6.6,2.9,6.6,6.6
	C122.5,684.4,119.5,687.3,115.9,687.3"/>
<path id="path132" class="st0" d="M115.9,712.8c-3.6,0-6.6-2.9-6.6-6.6c0-3.6,3-6.6,6.6-6.6c3.6,0,6.6,2.9,6.6,6.6
	C122.5,709.9,119.5,712.8,115.9,712.8"/>
<path id="path134" class="st0" d="M133.4,545.2c-3.6,0-6.6-2.9-6.6-6.6c0-3.6,3-6.6,6.6-6.6s6.6,2.9,6.6,6.6
	C140,542.3,137.1,545.2,133.4,545.2"/>
<path id="path136" class="st0" d="M154,556.3c-3.6,0-6.6-2.9-6.6-6.6s3-6.6,6.6-6.6c3.6,0,6.6,2.9,6.6,6.6S157.7,556.3,154,556.3"/>
<path id="path138" class="st0" d="M173.6,567.8c-3.6,0-6.6-2.9-6.6-6.6s3-6.6,6.6-6.6c3.6,0,6.6,2.9,6.6,6.6
	S177.3,567.8,173.6,567.8"/>
<path id="path140" class="st0" d="M194.7,580.2c-3.6,0-6.6-2.9-6.6-6.6c0-3.6,3-6.6,6.6-6.6c3.6,0,6.6,2.9,6.6,6.6
	C201.3,577.2,198.4,580.2,194.7,580.2"/>
<path id="path142" class="st0" d="M133.4,570.9c-3.6,0-6.6-2.9-6.6-6.6c0-3.6,3-6.6,6.6-6.6s6.6,2.9,6.6,6.6
	C140,568,137.1,570.9,133.4,570.9"/>
<path id="path144" class="st0" d="M154,582.6c-3.6,0-6.6-2.9-6.6-6.6c0-3.6,3-6.6,6.6-6.6c3.6,0,6.6,2.9,6.6,6.6
	C160.6,579.6,157.7,582.6,154,582.6"/>
<path id="path146" class="st0" d="M173.6,594.6c-3.6,0-6.6-2.9-6.6-6.6s3-6.6,6.6-6.6c3.6,0,6.6,2.9,6.6,6.6
	S177.3,594.6,173.6,594.6"/>
<path id="path148" class="st0" d="M194.7,608c-3.6,0-6.6-2.9-6.6-6.6s3-6.6,6.6-6.6c3.6,0,6.6,2.9,6.6,6.6S198.4,608,194.7,608"/>
<path id="path150" class="st0" d="M133.4,596.6c-3.6,0-6.6-2.9-6.6-6.6s3-6.6,6.6-6.6s6.6,2.9,6.6,6.6S137.1,596.6,133.4,596.6"/>
<path id="path152" class="st0" d="M154,608.8c-3.6,0-6.6-2.9-6.6-6.6c0-3.6,3-6.6,6.6-6.6c3.6,0,6.6,2.9,6.6,6.6
	C160.6,605.9,157.7,608.8,154,608.8"/>
<path id="path154" class="st0" d="M173.6,621.5c-3.6,0-6.6-2.9-6.6-6.6s3-6.6,6.6-6.6c3.6,0,6.6,2.9,6.6,6.6
	S177.3,621.5,173.6,621.5"/>
<path id="path156" class="st0" d="M194.7,635.8c-3.6,0-6.6-2.9-6.6-6.6s3-6.6,6.6-6.6c3.6,0,6.6,2.9,6.6,6.6
	S198.4,635.8,194.7,635.8"/>
<path id="path158" class="st0" d="M133.7,622.3c-3.6,0-6.6-2.9-6.6-6.6c0-3.6,3-6.6,6.6-6.6c3.6,0,6.6,2.9,6.6,6.6
	C140.3,619.3,137.3,622.3,133.7,622.3"/>
<path id="path160" class="st0" d="M154.3,635c-3.6,0-6.6-2.9-6.6-6.6c0-3.6,3-6.6,6.6-6.6c3.6,0,6.6,2.9,6.6,6.6
	C160.9,632.1,157.9,635,154.3,635"/>
<path id="path162" class="st0" d="M173.9,648.3c-3.6,0-6.6-2.9-6.6-6.6s3-6.6,6.6-6.6c3.6,0,6.6,2.9,6.6,6.6
	S177.5,648.3,173.9,648.3"/>
<path id="path164" class="st0" d="M195,663.6c-3.6,0-6.6-2.9-6.6-6.6c0-3.6,3-6.6,6.6-6.6c3.6,0,6.6,2.9,6.6,6.6
	C201.6,660.7,198.6,663.6,195,663.6"/>
<path id="path166" class="st0" d="M133.7,648c-3.6,0-6.6-2.9-6.6-6.6s3-6.6,6.6-6.6c3.6,0,6.6,2.9,6.6,6.6S137.3,648,133.7,648"/>
<path id="path168" class="st0" d="M154.3,661.3c-3.6,0-6.6-2.9-6.6-6.6c0-3.6,3-6.6,6.6-6.6c3.6,0,6.6,2.9,6.6,6.6
	C160.9,658.4,157.9,661.3,154.3,661.3"/>
<path id="path170" class="st0" d="M173.9,675.1c-3.6,0-6.6-2.9-6.6-6.6c0-3.6,3-6.6,6.6-6.6c3.6,0,6.6,2.9,6.6,6.6
	C180.5,672.2,177.5,675.1,173.9,675.1"/>
<path id="path172" class="st0" d="M133.7,673.7c-3.6,0-6.6-2.9-6.6-6.6s3-6.6,6.6-6.6c3.6,0,6.6,2.9,6.6,6.6
	S137.3,673.7,133.7,673.7"/>
<path id="path174" class="st0" d="M154.3,687.5c-3.6,0-6.6-2.9-6.6-6.6c0-3.6,3-6.6,6.6-6.6c3.6,0,6.6,2.9,6.6,6.6
	C160.9,684.6,157.9,687.5,154.3,687.5"/>
<path id="path176" class="st0" d="M133.7,699.4c-3.6,0-6.6-2.9-6.6-6.6c0-3.6,3-6.6,6.6-6.6c3.6,0,6.6,2.9,6.6,6.6
	C140.3,696.4,137.3,699.4,133.7,699.4"/>
<path id="path178" class="st0" d="M95.7,546.6c-3.6,0-6.6-2.9-6.6-6.6s3-6.6,6.6-6.6c3.6,0,6.6,2.9,6.6,6.6S99.4,546.6,95.7,546.6"
	/>
<path id="path180" class="st0" d="M76.2,559c-3.6,0-6.6-2.9-6.6-6.6s3-6.6,6.6-6.6c3.6,0,6.6,2.9,6.6,6.6S79.8,559,76.2,559"/>
<path id="path182" class="st0" d="M55.4,570.1c-3.6,0-6.6-2.9-6.6-6.6c0-3.6,3-6.6,6.6-6.6c3.6,0,6.6,2.9,6.6,6.6
	C62,567.2,59.1,570.1,55.4,570.1"/>
<path id="path184" class="st0" d="M35.9,582.6c-3.6,0-6.6-2.9-6.6-6.6c0-3.6,3-6.6,6.6-6.6c3.6,0,6.6,2.9,6.6,6.6
	C42.5,579.6,39.5,582.6,35.9,582.6"/>
<path id="path186" class="st0" d="M95.7,572.3c-3.6,0-6.6-2.9-6.6-6.6s3-6.6,6.6-6.6c3.6,0,6.6,2.9,6.6,6.6S99.4,572.3,95.7,572.3"
	/>
<path id="path188" class="st0" d="M76.4,585.1c-3.6,0-6.6-2.9-6.6-6.6s3-6.6,6.6-6.6c3.6,0,6.6,2.9,6.6,6.6S80.1,585.1,76.4,585.1"
	/>
<path id="path190" class="st0" d="M55.4,596.9c-3.6,0-6.6-2.9-6.6-6.6c0-3.6,3-6.6,6.6-6.6c3.6,0,6.6,2.9,6.6,6.6
	C62,594,59.1,596.9,55.4,596.9"/>
<path id="path192" class="st0" d="M35.9,610.3c-3.6,0-6.6-2.9-6.6-6.6s3-6.6,6.6-6.6c3.6,0,6.6,2.9,6.6,6.6S39.5,610.3,35.9,610.3"
	/>
<path id="path194" class="st0" d="M96,598.1c-3.6,0-6.6-2.9-6.6-6.6c0-3.6,3-6.6,6.6-6.6c3.6,0,6.6,2.9,6.6,6.6
	C102.6,595.1,99.6,598.1,96,598.1"/>
<path id="path196" class="st0" d="M76.4,611.3c-3.6,0-6.6-2.9-6.6-6.6c0-3.6,3-6.6,6.6-6.6c3.6,0,6.6,2.9,6.6,6.6
	C83,608.3,80.1,611.3,76.4,611.3"/>
<path id="path198" class="st0" d="M55.4,623.7c-3.6,0-6.6-2.9-6.6-6.6s3-6.6,6.6-6.6c3.6,0,6.6,2.9,6.6,6.6S59.1,623.7,55.4,623.7"
	/>
<path id="path200" class="st0" d="M35.9,638.1c-3.6,0-6.6-2.9-6.6-6.6c0-3.6,3-6.6,6.6-6.6c3.6,0,6.6,2.9,6.6,6.6
	C42.5,635.1,39.5,638.1,35.9,638.1"/>
<path id="path202" class="st0" d="M96,623.8c-3.6,0-6.6-2.9-6.6-6.6c0-3.6,3-6.6,6.6-6.6c3.6,0,6.6,2.9,6.6,6.6
	C102.6,620.9,99.6,623.8,96,623.8"/>
<path id="path204" class="st0" d="M76.4,637.4c-3.6,0-6.6-2.9-6.6-6.6s3-6.6,6.6-6.6c3.6,0,6.6,2.9,6.6,6.6S80.1,637.4,76.4,637.4"
	/>
<path id="path206" class="st0" d="M55.4,650.5c-3.6,0-6.6-2.9-6.6-6.6c0-3.6,3-6.6,6.6-6.6c3.6,0,6.6,2.9,6.6,6.6
	C62,647.6,59.1,650.5,55.4,650.5"/>
<path id="path208" class="st0" d="M35.9,665.8c-3.6,0-6.6-2.9-6.6-6.6c0-3.6,3-6.6,6.6-6.6c3.6,0,6.6,2.9,6.6,6.6
	C42.5,662.9,39.5,665.8,35.9,665.8"/>
<path id="path210" class="st0" d="M96,649.6c-3.6,0-6.6-2.9-6.6-6.6c0-3.6,3-6.6,6.6-6.6c3.6,0,6.6,2.9,6.6,6.6
	C102.6,646.7,99.6,649.6,96,649.6"/>
<path id="path212" class="st0" d="M76.4,663.5c-3.6,0-6.6-2.9-6.6-6.6s3-6.6,6.6-6.6c3.6,0,6.6,2.9,6.6,6.6S80.1,663.5,76.4,663.5"
	/>
<path id="path214" class="st0" d="M55.4,677.3c-3.6,0-6.6-2.9-6.6-6.6s3-6.6,6.6-6.6c3.6,0,6.6,2.9,6.6,6.6S59.1,677.3,55.4,677.3"
	/>
<path id="path216" class="st0" d="M96,675.4c-3.6,0-6.6-2.9-6.6-6.6s3-6.6,6.6-6.6c3.6,0,6.6,2.9,6.6,6.6S99.6,675.4,96,675.4"/>
<path id="path218" class="st0" d="M76.4,689.6c-3.6,0-6.6-2.9-6.6-6.6s3-6.6,6.6-6.6c3.6,0,6.6,2.9,6.6,6.6S80.1,689.6,76.4,689.6"
	/>
<path id="path220" class="st0" d="M96,701.1c-3.6,0-6.6-2.9-6.6-6.6s3-6.6,6.6-6.6c3.6,0,6.6,2.9,6.6,6.6S99.6,701.1,96,701.1"/>
<path id="path222" class="st1" d="M480.8,266.1c-6-6.7-12.1-6.9-20.5-7.3c-9.8-0.4-22-0.9-33-13.1c-11-12.2-10.2-24.4-9.6-34.2
	c0.5-8.4,0.9-14.4-5.1-21.1c-6.1-6.8-12.3-7.1-20.8-7.4c-9.8-0.4-21.9-1-32.7-13c-5.6-6.2-8.1-12.5-9.1-18.4
	c-0.7-4.1-0.7-8-0.6-11.6c0.1-1.3,0.1-2.6,0.2-3.8c0.2-3.7,0.4-7,0.1-10c-0.5-4-1.8-7.6-5.3-11.4l1-0.9l12.7-11.4
	c1,1.1,1.9,2.3,2.8,3.4c1.9,2.6,3.4,5.3,4.4,7.8c1.9,4.6,2.6,9.2,2.8,13.4c0.1,3.4-0.1,6.7-0.2,9.7c-0.1,1.2-0.1,2.3-0.2,3.4
	c-0.2,5.1,0,9.4,2.4,13.7c0.7,1.3,1.6,2.6,2.8,3.8c0.3,0.4,0.6,0.7,1,1c5.5,5.5,11.4,5.8,19.3,6.1c9.9,0.5,22.2,1,33.2,13.3
	c11,12.2,10.2,24.4,9.6,34.2c-0.5,8.4-0.9,14.4,5.1,21.1c6,6.7,12.1,6.9,20.5,7.3c9.8,0.4,22,0.9,33,13.1L480.8,266.1"/>
<path id="path224" class="st2" d="M565,694.3l-5.3-9.2l88.9-51.4l5.3,9.2L565,694.3"/>
<path id="path226" class="st2" d="M547,663.2l-5.3-9.2l88.9-51.4l5.3,9.2L547,663.2"/>
<path id="path228" class="st0" d="M441.4,737.7c-9.6,0-19.2-1.9-28-5.7c0-0.1,0-0.2,0-0.3c0-3.4-2.7-6.1-6-6.1
	c-1.4,0-2.7,0.5-3.7,1.3c-3.4-2.2-6.7-4.7-9.7-7.5c0.2-0.6,0.3-1.2,0.3-1.8c0-3.3-2.7-6.1-6-6.1c-0.5,0-0.9,0.1-1.3,0.2
	c-6.2-7.8-10.4-16.7-12.7-26c1.2-1.1,2-2.7,2-4.5c0-2.6-1.6-4.7-3.8-5.6c-0.4-4.3-0.5-8.6-0.1-12.9c2.3-0.9,3.9-3.1,3.9-5.7
	c0-1.9-0.9-3.7-2.3-4.8c3.1-13.6,10-26.6,20.7-37.3c8.8-8.8,19.2-15.1,30.2-18.7c0,0.1,0,0.2,0,0.3c0,2.9,2.3,5.3,5.2,5.3
	c2.9,0,5.2-2.4,5.2-5.3c0-1-0.3-2-0.8-2.8c3.7-0.7,7.4-1.1,11.1-1.2c-1.1,1-1.8,2.4-1.8,4c0,2.9,2.3,5.3,5.2,5.3
	c2.9,0,5.2-2.4,5.2-5.3c0-1.6-0.7-3-1.8-3.9c3.7,0.2,7.3,0.7,10.9,1.5c-0.4,0.7-0.6,1.6-0.6,2.4c0,2.9,2.3,5.3,5.2,5.3
	c2.7,0,5-2.1,5.2-4.8c6.7,2.5,13.1,6.1,18.9,10.8c-1.2,1-1.9,2.4-1.9,4.1c0,2.9,2.3,5.3,5.2,5.3c1.8,0,3.3-0.9,4.3-2.2
	c21.2,23.3,23.4,58,7.1,85.3l-50.1-30.9v66.9C451.6,737.1,446.5,737.7,441.4,737.7 M407.2,699.9c-3.3,0-6,2.7-6,6.1s2.7,6.1,6,6.1
	c3.3,0,6-2.7,6-6.1S410.5,699.9,407.2,699.9 M388,686.7c-3.3,0-6,2.7-6,6.1c0,3.4,2.7,6.1,6,6.1c3.3,0,6-2.7,6-6.1
	C394,689.4,391.3,686.7,388,686.7 M407.2,674.3c-3.3,0-6,2.7-6,6.1c0,3.4,2.7,6.1,6,6.1c3.3,0,6-2.7,6-6.1
	C413.2,677,410.5,674.3,407.2,674.3 M388,662c-3.3,0-6,2.7-6,6.1s2.7,6.1,6,6.1c3.3,0,6-2.7,6-6.1S391.3,662,388,662 M407.2,648.7
	c-3.3,0-6,2.7-6,6.1c0,3.4,2.7,6.1,6,6.1c3.3,0,6-2.7,6-6.1C413.2,651.4,410.5,648.7,407.2,648.7 M388,637.3c-3.3,0-6,2.7-6,6.1
	s2.7,6.1,6,6.1c3.3,0,6-2.7,6-6.1S391.3,637.3,388,637.3 M476.5,606.5c-2.9,0-5.2,2.4-5.2,5.3s2.3,5.3,5.2,5.3s5.2-2.4,5.2-5.3
	S479.3,606.5,476.5,606.5 M457.5,606.5c-2.9,0-5.2,2.4-5.2,5.3s2.3,5.3,5.2,5.3s5.2-2.4,5.2-5.3S460.4,606.5,457.5,606.5
	 M438.5,606.5c-2.9,0-5.2,2.4-5.2,5.3s2.3,5.3,5.2,5.3c2.9,0,5.2-2.4,5.2-5.3S441.4,606.5,438.5,606.5 M419.6,606.5
	c-2.9,0-5.2,2.4-5.2,5.3s2.3,5.3,5.2,5.3s5.2-2.4,5.2-5.3S422.4,606.5,419.6,606.5"/>
<path id="path230" class="st1" d="M456.7,781.4V669.2l50.1,30.9l41.6,25.6L456.7,781.4"/>
<path id="path232" class="st3" d="M345.1,280.5v-77.8l61.7,39.2L345.1,280.5"/>
<path id="path234" class="st2" d="M335.4,618.5c-3.3,0-6-2.7-6-6.1c0-3.3,2.7-6.1,6-6.1c3.3,0,6,2.7,6,6.1
	C341.3,615.8,338.7,618.5,335.4,618.5"/>
<path id="path236" class="st2" d="M335.4,642c-3.3,0-6-2.7-6-6.1c0-3.4,2.7-6.1,6-6.1c3.3,0,6,2.7,6,6.1
	C341.3,639.3,338.7,642,335.4,642"/>
<path id="path238" class="st2" d="M335.4,665.5c-3.3,0-6-2.7-6-6.1c0-3.4,2.7-6.1,6-6.1c3.3,0,6,2.7,6,6.1
	C341.3,662.8,338.7,665.5,335.4,665.5"/>
<path id="path240" class="st2" d="M335.6,689c-3.3,0-6-2.7-6-6.1c0-3.4,2.7-6.1,6-6.1c3.3,0,6,2.7,6,6.1
	C341.6,686.3,338.9,689,335.6,689"/>
<path id="path242" class="st2" d="M335.6,712.5c-3.3,0-6-2.7-6-6.1c0-3.3,2.7-6.1,6-6.1c3.3,0,6,2.7,6,6.1
	C341.6,709.8,338.9,712.5,335.6,712.5"/>
<path id="path244" class="st2" d="M335.6,736c-3.3,0-6-2.7-6-6.1c0-3.3,2.7-6.1,6-6.1c3.3,0,6,2.7,6,6.1
	C341.6,733.3,338.9,736,335.6,736"/>
<path id="path246" class="st2" d="M335.6,759.5c-3.3,0-6-2.7-6-6.1c0-3.3,2.7-6.1,6-6.1c3.3,0,6,2.7,6,6.1
	C341.6,756.8,338.9,759.5,335.6,759.5"/>
<path id="path248" class="st2" d="M335.6,783c-3.3,0-6-2.7-6-6.1s2.7-6.1,6-6.1c3.3,0,6,2.7,6,6.1C341.6,780.3,338.9,783,335.6,783"
	/>
<path id="path250" class="st2" d="M351.5,628.6c-3.3,0-6-2.7-6-6.1s2.7-6.1,6-6.1c3.3,0,6,2.7,6,6.1S354.8,628.6,351.5,628.6"/>
<path id="path252" class="st2" d="M370.3,638.8c-3.3,0-6-2.7-6-6.1c0-3.3,2.7-6.1,6-6.1c3.3,0,6,2.7,6,6.1
	C376.2,636.1,373.6,638.8,370.3,638.8"/>
<path id="path254" class="st2" d="M388,649.4c-3.3,0-6-2.7-6-6.1s2.7-6.1,6-6.1c3.3,0,6,2.7,6,6.1S391.3,649.4,388,649.4"/>
<path id="path256" class="st2" d="M407.2,660.8c-3.3,0-6-2.7-6-6.1c0-3.3,2.7-6.1,6-6.1c3.3,0,6,2.7,6,6.1
	C413.2,658.1,410.5,660.8,407.2,660.8"/>
<path id="path258" class="st2" d="M351.5,652.2c-3.3,0-6-2.7-6-6.1c0-3.3,2.7-6.1,6-6.1c3.3,0,6,2.7,6,6.1
	C357.5,649.5,354.8,652.2,351.5,652.2"/>
<path id="path260" class="st2" d="M370.3,663c-3.3,0-6-2.7-6-6.1c0-3.3,2.7-6.1,6-6.1c1.4,0,2.7,0.5,3.7,1.3
	c1.4,1.1,2.3,2.8,2.3,4.8c0,2.6-1.6,4.8-3.9,5.7C371.7,662.8,371,663,370.3,663"/>
<path id="path262" class="st2" d="M388,674.1c-3.3,0-6-2.7-6-6.1s2.7-6.1,6-6.1c3.3,0,6,2.7,6,6.1S391.3,674.1,388,674.1"/>
<path id="path264" class="st2" d="M407.2,686.4c-3.3,0-6-2.7-6-6.1c0-3.3,2.7-6.1,6-6.1c3.3,0,6,2.7,6,6.1
	C413.2,683.7,410.5,686.4,407.2,686.4"/>
<path id="path266" class="st2" d="M351.5,675.9c-3.3,0-6-2.7-6-6.1s2.7-6.1,6-6.1c3.3,0,6,2.7,6,6.1S354.8,675.9,351.5,675.9"/>
<path id="path268" class="st2" d="M370.3,687.2c-3.3,0-6-2.7-6-6.1c0-3.3,2.7-6.1,6-6.1c0.8,0,1.5,0.2,2.2,0.4
	c2.2,0.9,3.8,3.1,3.8,5.6c0,1.8-0.8,3.4-2,4.5C373.2,686.6,371.8,687.2,370.3,687.2"/>
<path id="path270" class="st2" d="M388,698.9c-3.3,0-6-2.7-6-6.1c0-3.3,2.7-6.1,6-6.1c3.3,0,6,2.7,6,6.1
	C394,696.1,391.3,698.9,388,698.9"/>
<path id="path272" class="st2" d="M407.2,712.1c-3.3,0-6-2.7-6-6.1s2.7-6.1,6-6.1c3.3,0,6,2.7,6,6.1S410.5,712.1,407.2,712.1"/>
<path id="path274" class="st2" d="M351.8,699.6c-3.3,0-6-2.7-6-6.1s2.7-6.1,6-6.1c3.3,0,6,2.7,6,6.1S355.1,699.6,351.8,699.6"/>
<path id="path276" class="st2" d="M370.5,711.4c-3.3,0-6-2.7-6-6.1s2.7-6.1,6-6.1c3.3,0,6,2.7,6,6.1S373.8,711.4,370.5,711.4"/>
<path id="path278" class="st2" d="M388.3,723.6c-3.3,0-6-2.7-6-6.1c0-2.9,2-5.3,4.6-5.9c0.4-0.1,0.9-0.2,1.3-0.2c3.3,0,6,2.7,6,6.1
	c0,0.6-0.1,1.2-0.3,1.8C393.3,721.8,391,723.6,388.3,723.6"/>
<path id="path280" class="st2" d="M407.4,737.7c-3.3,0-6-2.7-6-6.1c0-1.9,0.9-3.7,2.3-4.8c1-0.8,2.3-1.3,3.7-1.3c3.3,0,6,2.7,6,6.1
	c0,0.1,0,0.2,0,0.3C413.2,735.2,410.6,737.7,407.4,737.7"/>
<path id="path282" class="st2" d="M351.8,723.3c-3.3,0-6-2.7-6-6.1s2.7-6.1,6-6.1c3.3,0,6,2.7,6,6.1S355.1,723.3,351.8,723.3"/>
<path id="path284" class="st2" d="M370.5,735.6c-3.3,0-6-2.7-6-6.1c0-3.4,2.7-6.1,6-6.1c3.3,0,6,2.7,6,6.1
	C376.5,732.8,373.8,735.6,370.5,735.6"/>
<path id="path286" class="st2" d="M388.3,748.3c-3.3,0-6-2.7-6-6.1c0-3.3,2.7-6.1,6-6.1c3.3,0,6,2.7,6,6.1
	C394.3,745.6,391.6,748.3,388.3,748.3"/>
<path id="path288" class="st2" d="M351.8,747c-3.3,0-6-2.7-6-6.1c0-3.4,2.7-6.1,6-6.1c3.3,0,6,2.7,6,6.1
	C357.8,744.2,355.1,747,351.8,747"/>
<path id="path290" class="st2" d="M370.5,759.8c-3.3,0-6-2.7-6-6.1c0-3.3,2.7-6.1,6-6.1c3.3,0,6,2.7,6,6.1
	C376.5,757,373.8,759.8,370.5,759.8"/>
<path id="path292" class="st2" d="M351.8,770.6c-3.3,0-6-2.7-6-6.1c0-3.3,2.7-6.1,6-6.1c3.3,0,6,2.7,6,6.1
	C357.8,767.9,355.1,770.6,351.8,770.6"/>
<path id="path294" class="st2" d="M317.3,629.8c-3.3,0-6-2.7-6-6.1c0-3.4,2.7-6.1,6-6.1c3.3,0,6,2.7,6,6.1
	C323.3,627.1,320.6,629.8,317.3,629.8"/>
<path id="path296" class="st2" d="M299.6,641.3c-3.3,0-6-2.7-6-6.1c0-3.3,2.7-6.1,6-6.1c3.3,0,6,2.7,6,6.1
	C305.5,638.5,302.9,641.3,299.6,641.3"/>
<path id="path298" class="st2" d="M280.7,651.5c-3.3,0-6-2.7-6-6.1c0-3.4,2.7-6.1,6-6.1c3.3,0,6,2.7,6,6.1
	C286.7,648.8,284,651.5,280.7,651.5"/>
<path id="path300" class="st2" d="M263,663c-3.3,0-6-2.7-6-6.1c0-3.3,2.7-6.1,6-6.1c3.3,0,6,2.7,6,6.1C269,660.3,266.3,663,263,663"
	/>
<path id="path302" class="st2" d="M317.3,653.6c-3.3,0-6-2.7-6-6.1c0-3.4,2.7-6.1,6-6.1c3.3,0,6,2.7,6,6.1
	C323.3,650.8,320.6,653.6,317.3,653.6"/>
<path id="path304" class="st2" d="M299.8,665.3c-3.3,0-6-2.7-6-6.1c0-3.4,2.7-6.1,6-6.1c3.3,0,6,2.7,6,6.1
	C305.8,662.6,303.1,665.3,299.8,665.3"/>
<path id="path306" class="st2" d="M280.7,676.2c-3.3,0-6-2.7-6-6.1c0-3.3,2.7-6.1,6-6.1c3.3,0,6,2.7,6,6.1
	C286.7,673.5,284,676.2,280.7,676.2"/>
<path id="path308" class="st2" d="M263,688.6c-3.3,0-6-2.7-6-6.1c0-3.4,2.7-6.1,6-6.1c3.3,0,6,2.7,6,6.1
	C269,685.9,266.3,688.6,263,688.6"/>
<path id="path310" class="st2" d="M317.5,677.3c-3.3,0-6-2.7-6-6.1c0-3.4,2.7-6.1,6-6.1c3.3,0,6,2.7,6,6.1
	C323.5,674.6,320.9,677.3,317.5,677.3"/>
<path id="path312" class="st2" d="M299.8,689.4c-3.3,0-6-2.7-6-6.1c0-3.4,2.7-6.1,6-6.1c3.3,0,6,2.7,6,6.1
	C305.8,686.7,303.1,689.4,299.8,689.4"/>
<path id="path314" class="st2" d="M280.7,700.9c-3.3,0-6-2.7-6-6.1c0-3.3,2.7-6.1,6-6.1c3.3,0,6,2.7,6,6.1
	C286.7,698.2,284,700.9,280.7,700.9"/>
<path id="path316" class="st2" d="M263,714.2c-3.3,0-6-2.7-6-6.1c0-3.3,2.7-6.1,6-6.1c3.3,0,6,2.7,6,6.1
	C269,711.4,266.3,714.2,263,714.2"/>
<path id="path318" class="st2" d="M317.5,701c-3.3,0-6-2.7-6-6.1c0-3.4,2.7-6.1,6-6.1c3.3,0,6,2.7,6,6.1
	C323.5,698.3,320.9,701,317.5,701"/>
<path id="path320" class="st2" d="M299.8,713.5c-3.3,0-6-2.7-6-6.1c0-3.4,2.7-6.1,6-6.1c3.3,0,6,2.7,6,6.1
	C305.8,710.8,303.1,713.5,299.8,713.5"/>
<path id="path322" class="st2" d="M280.7,725.6c-3.3,0-6-2.7-6-6.1s2.7-6.1,6-6.1c3.3,0,6,2.7,6,6.1S284,725.6,280.7,725.6"/>
<path id="path324" class="st2" d="M263,739.7c-3.3,0-6-2.7-6-6.1c0-3.4,2.7-6.1,6-6.1c3.3,0,6,2.7,6,6.1
	C269,737,266.3,739.7,263,739.7"/>
<path id="path326" class="st2" d="M317.5,724.8c-3.3,0-6-2.7-6-6.1c0-3.4,2.7-6.1,6-6.1c3.3,0,6,2.7,6,6.1
	C323.5,722.1,320.9,724.8,317.5,724.8"/>
<path id="path328" class="st2" d="M299.8,737.6c-3.3,0-6-2.7-6-6.1c0-3.4,2.7-6.1,6-6.1c3.3,0,6,2.7,6,6.1
	C305.8,734.9,303.1,737.6,299.8,737.6"/>
<path id="path330" class="st2" d="M280.7,750.3c-3.3,0-6-2.7-6-6.1c0-3.4,2.7-6.1,6-6.1c3.3,0,6,2.7,6,6.1
	C286.7,747.6,284,750.3,280.7,750.3"/>
<path id="path332" class="st2" d="M317.5,748.5c-3.3,0-6-2.7-6-6.1c0-3.3,2.7-6.1,6-6.1c3.3,0,6,2.7,6,6.1
	C323.5,745.8,320.9,748.5,317.5,748.5"/>
<path id="path334" class="st2" d="M299.8,761.7c-3.3,0-6-2.7-6-6.1c0-3.3,2.7-6.1,6-6.1c3.3,0,6,2.7,6,6.1
	C305.8,759,303.1,761.7,299.8,761.7"/>
<path id="path336" class="st2" d="M317.5,772.3c-3.3,0-6-2.7-6-6.1s2.7-6.1,6-6.1c3.3,0,6,2.7,6,6.1S320.9,772.3,317.5,772.3"/>
<path id="path338" class="st0" d="M552.3,617c-2.9,0-5.2-2.4-5.2-5.3s2.3-5.3,5.2-5.3s5.2,2.4,5.2,5.3
	C557.5,614.6,555.2,617,552.3,617"/>
<path id="path340" class="st0" d="M543.9,601.6c-2.9,0-5.2-2.4-5.2-5.3c0-2.9,2.3-5.3,5.2-5.3s5.2,2.4,5.2,5.3
	C549.1,599.2,546.8,601.6,543.9,601.6"/>
<path id="path342" class="st0" d="M533.4,586.2c-2.9,0-5.2-2.4-5.2-5.3c0-2.9,2.3-5.3,5.2-5.3s5.2,2.4,5.2,5.3
	C538.6,583.9,536.2,586.2,533.4,586.2"/>
<path id="path344" class="st0" d="M533.4,617c-2.9,0-5.2-2.4-5.2-5.3s2.3-5.3,5.2-5.3s5.2,2.4,5.2,5.3
	C538.6,614.6,536.2,617,533.4,617"/>
<path id="path346" class="st0" d="M525.3,570.9c-2.9,0-5.2-2.4-5.2-5.3c0-2.9,2.3-5.3,5.2-5.3s5.2,2.4,5.2,5.3
	C530.6,568.5,528.2,570.9,525.3,570.9"/>
<path id="path348" class="st0" d="M524.9,601.6c-2.9,0-5.2-2.4-5.2-5.3c0-2.9,2.3-5.3,5.2-5.3s5.2,2.4,5.2,5.3
	C530.1,599.2,527.8,601.6,524.9,601.6"/>
<path id="path350" class="st0" d="M516.9,555.5c-2.9,0-5.2-2.4-5.2-5.3c0-2.9,2.3-5.3,5.2-5.3s5.2,2.4,5.2,5.3
	C522.1,553.1,519.8,555.5,516.9,555.5"/>
<path id="path352" class="st0" d="M514.4,586.2c-2.9,0-5.2-2.4-5.2-5.3c0-2.9,2.3-5.3,5.2-5.3s5.2,2.4,5.2,5.3
	C519.6,583.9,517.3,586.2,514.4,586.2"/>
<path id="path354" class="st0" d="M506.4,540.1c-2.9,0-5.2-2.4-5.2-5.3c0-2.9,2.3-5.3,5.2-5.3s5.2,2.4,5.2,5.3
	C511.6,537.8,509.2,540.1,506.4,540.1"/>
<path id="path356" class="st0" d="M514.4,617c-2.9,0-5.2-2.4-5.2-5.3s2.3-5.3,5.2-5.3s5.2,2.4,5.2,5.3
	C519.6,614.6,517.3,617,514.4,617"/>
<path id="path358" class="st0" d="M506.4,570.9c-2.9,0-5.2-2.4-5.2-5.3c0-2.9,2.3-5.3,5.2-5.3s5.2,2.4,5.2,5.3
	C511.6,568.5,509.2,570.9,506.4,570.9"/>
<path id="path360" class="st0" d="M506,601.6c-2.9,0-5.2-2.4-5.2-5.3c0-2.9,2.3-5.3,5.2-5.3s5.2,2.4,5.2,5.3
	C511.2,599.2,508.8,601.6,506,601.6"/>
<path id="path362" class="st0" d="M497.9,555.5c-2.9,0-5.2-2.4-5.2-5.3c0-2.9,2.3-5.3,5.2-5.3s5.2,2.4,5.2,5.3
	C503.2,553.1,500.8,555.5,497.9,555.5"/>
<path id="path364" class="st0" d="M495.4,586.2c-2.9,0-5.2-2.4-5.2-5.3c0-2.9,2.3-5.3,5.2-5.3c2.9,0,5.2,2.4,5.2,5.3
	C500.6,583.9,498.3,586.2,495.4,586.2"/>
<path id="path366" class="st0" d="M487.4,540.1c-2.9,0-5.2-2.4-5.2-5.3c0-2.9,2.3-5.3,5.2-5.3s5.2,2.4,5.2,5.3
	C492.6,537.8,490.3,540.1,487.4,540.1"/>
<path id="path368" class="st0" d="M495.4,617c-2.9,0-5.2-2.4-5.2-5.3c0-1.7,0.8-3.1,1.9-4.1c0.9-0.7,2-1.2,3.3-1.2
	c2.9,0,5.2,2.4,5.2,5.3c0,1.1-0.4,2.2-1,3C498.7,616.1,497.2,617,495.4,617"/>
<path id="path370" class="st0" d="M487.4,570.9c-2.9,0-5.2-2.4-5.2-5.3c0-2.9,2.3-5.3,5.2-5.3s5.2,2.4,5.2,5.3
	C492.6,568.5,490.3,570.9,487.4,570.9"/>
<path id="path372" class="st0" d="M487,601.6c-2.9,0-5.2-2.4-5.2-5.3c0-2.9,2.3-5.3,5.2-5.3s5.2,2.4,5.2,5.3
	C492.2,599.2,489.9,601.6,487,601.6"/>
<path id="path374" class="st0" d="M479,555.5c-2.9,0-5.2-2.4-5.2-5.3c0-2.9,2.3-5.3,5.2-5.3s5.2,2.4,5.2,5.3
	C484.2,553.1,481.8,555.5,479,555.5"/>
<path id="path376" class="st0" d="M476.5,586.2c-2.9,0-5.2-2.4-5.2-5.3c0-2.9,2.3-5.3,5.2-5.3s5.2,2.4,5.2,5.3
	C481.7,583.9,479.3,586.2,476.5,586.2"/>
<path id="path378" class="st0" d="M468.4,540.1c-2.9,0-5.2-2.4-5.2-5.3c0-2.9,2.3-5.3,5.2-5.3s5.2,2.4,5.2,5.3
	C473.6,537.8,471.3,540.1,468.4,540.1"/>
<path id="path380" class="st0" d="M476.5,617c-2.9,0-5.2-2.4-5.2-5.3s2.3-5.3,5.2-5.3s5.2,2.4,5.2,5.3
	C481.7,614.6,479.3,617,476.5,617"/>
<path id="path382" class="st0" d="M468.4,570.9c-2.9,0-5.2-2.4-5.2-5.3c0-2.9,2.3-5.3,5.2-5.3s5.2,2.4,5.2,5.3
	C473.6,568.5,471.3,570.9,468.4,570.9"/>
<path id="path384" class="st0" d="M468,601.6c-2.9,0-5.2-2.4-5.2-5.3c0-0.9,0.2-1.7,0.6-2.4c0.9-1.7,2.6-2.8,4.6-2.8
	c2.9,0,5.2,2.4,5.2,5.3c0,0.1,0,0.3,0,0.4C473,599.5,470.8,601.6,468,601.6"/>
<path id="path386" class="st0" d="M460,555.5c-2.9,0-5.2-2.4-5.2-5.3c0-2.9,2.3-5.3,5.2-5.3s5.2,2.4,5.2,5.3
	C465.2,553.1,462.9,555.5,460,555.5"/>
<path id="path388" class="st0" d="M457.5,586.2c-2.9,0-5.2-2.4-5.2-5.3c0-2.9,2.3-5.3,5.2-5.3s5.2,2.4,5.2,5.3
	C462.7,583.9,460.4,586.2,457.5,586.2"/>
<path id="path390" class="st0" d="M457.5,617c-2.9,0-5.2-2.4-5.2-5.3s2.3-5.3,5.2-5.3s5.2,2.4,5.2,5.3
	C462.7,614.6,460.4,617,457.5,617"/>
<path id="path392" class="st0" d="M449.5,570.9c-2.9,0-5.2-2.4-5.2-5.3c0-2.9,2.3-5.3,5.2-5.3s5.2,2.4,5.2,5.3
	C454.7,568.5,452.3,570.9,449.5,570.9"/>
<path id="path394" class="st0" d="M449.1,601.6c-2.9,0-5.2-2.4-5.2-5.3c0-1.6,0.7-3,1.8-4c0.9-0.8,2.1-1.3,3.4-1.3
	c1.3,0,2.5,0.5,3.5,1.3c1.1,1,1.8,2.4,1.8,3.9C454.3,599.2,451.9,601.6,449.1,601.6"/>
<path id="path396" class="st0" d="M438.5,586.2c-2.9,0-5.2-2.4-5.2-5.3c0-2.9,2.3-5.3,5.2-5.3c2.9,0,5.2,2.4,5.2,5.3
	C443.7,583.9,441.4,586.2,438.5,586.2"/>
<path id="path398" class="st0" d="M438.5,617c-2.9,0-5.2-2.4-5.2-5.3s2.3-5.3,5.2-5.3c2.9,0,5.2,2.4,5.2,5.3
	C443.7,614.6,441.4,617,438.5,617"/>
<path id="path400" class="st0" d="M430.1,601.6c-2.9,0-5.2-2.4-5.2-5.3c0-0.1,0-0.2,0-0.3c0.1-2.8,2.4-5,5.2-5c1.9,0,3.5,1,4.4,2.5
	c0.5,0.8,0.8,1.7,0.8,2.8C435.3,599.2,433,601.6,430.1,601.6"/>
<path id="path402" class="st0" d="M419.6,617c-2.9,0-5.2-2.4-5.2-5.3s2.3-5.3,5.2-5.3s5.2,2.4,5.2,5.3
	C424.8,614.6,422.4,617,419.6,617"/>
<path id="path404" class="st0" d="M495.9,524.7c-2.9,0-5.2-2.4-5.2-5.3c0-2.9,2.3-5.3,5.2-5.3s5.2,2.4,5.2,5.3
	C501.1,522.4,498.8,524.7,495.9,524.7"/>
<path id="path406" class="st0" d="M487.5,509.4c-2.9,0-5.2-2.4-5.2-5.3c0-2.9,2.3-5.3,5.2-5.3s5.2,2.4,5.2,5.3
	C492.7,507,490.4,509.4,487.5,509.4"/>
<path id="path408" class="st0" d="M477,524.7c-2.9,0-5.2-2.4-5.2-5.3c0-2.9,2.3-5.3,5.2-5.3s5.2,2.4,5.2,5.3
	C482.2,522.4,479.8,524.7,477,524.7"/>
<path id="path410" class="st1" d="M252.1,372l-60.2-34.8v-73.6l63.8-36.8l63.8,36.8v73.6l-49.6,28.6c2.2-10.4-1.9-17.4-5.2-23.1
	c-3-5.1-5.2-8.8-3.6-15.1l-12.2-3c-2.8,11.3,1.5,18.7,5,24.6c2.9,5,5.1,8.7,3.6,14.6C256.4,367.8,254.6,370,252.1,372"/>
<path id="path412" class="st2" d="M149.9,428.2l17.4-69.6l52,50.2L149.9,428.2"/>
<path id="path414" class="st0" d="M132.2,498.9l17.4-69.6l52,50.2L132.2,498.9"/>
<path id="path416" class="st2" d="M278.1,405.4c-0.2,0-0.3,0-0.5,0c-3.3-0.3-5.7-3.2-5.4-6.5c0.3-3.1,2.9-5.4,5.9-5.4
	c0.2,0,0.4,0,0.5,0c3.3,0.3,5.7,3.2,5.4,6.5C283.7,403,281.1,405.4,278.1,405.4"/>
<path id="path418" class="st2" d="M294.6,416.5c-0.2,0-0.4,0-0.5,0c-3.3-0.3-5.7-3.2-5.4-6.5c0.3-3.1,2.9-5.4,5.9-5.4
	c0.2,0,0.4,0,0.5,0c3.3,0.3,5.7,3.2,5.4,6.5C300.3,414.1,297.7,416.5,294.6,416.5"/>
<path id="path420" class="st2" d="M310.9,430c-0.2,0-0.4,0-0.5,0c-3.3-0.3-5.7-3.2-5.4-6.5c0.3-3.1,2.9-5.4,5.9-5.4
	c0.2,0,0.4,0,0.5,0c3.3,0.3,5.7,3.2,5.4,6.5C316.6,427.7,314,430,310.9,430"/>
<path id="path422" class="st2" d="M276.2,427c-0.2,0-0.4,0-0.5,0c-3.3-0.3-5.7-3.2-5.4-6.5c0.3-3.1,2.9-5.4,5.9-5.4
	c0.2,0,0.4,0,0.5,0c3.3,0.3,5.7,3.2,5.4,6.5C281.8,424.6,279.2,427,276.2,427"/>
<path id="path424" class="st2" d="M327.5,440.7c-0.2,0-0.4,0-0.5,0c-3.3-0.3-5.7-3.2-5.4-6.5c0.3-3.1,2.9-5.4,5.9-5.4
	c0.2,0,0.4,0,0.5,0c3.3,0.3,5.7,3.2,5.4,6.5C333.1,438.3,330.5,440.7,327.5,440.7"/>
<path id="path426" class="st2" d="M292.7,438.1c-0.2,0-0.4,0-0.5,0c-3.3-0.3-5.7-3.2-5.4-6.5c0.3-3.1,2.9-5.4,5.9-5.4
	c0.2,0,0.4,0,0.5,0c3.3,0.3,5.7,3.2,5.4,6.5C298.4,435.7,295.8,438.1,292.7,438.1"/>
<path id="path428" class="st2" d="M344,451.8c-0.2,0-0.4,0-0.5,0c-3.3-0.3-5.7-3.2-5.4-6.5c0.3-3.1,2.9-5.4,5.9-5.4
	c0.2,0,0.4,0,0.5,0c3.3,0.3,5.7,3.2,5.4,6.5C349.7,449.4,347.1,451.8,344,451.8"/>
<path id="path430" class="st2" d="M309,451.6c-0.2,0-0.4,0-0.5,0c-3.3-0.3-5.7-3.2-5.4-6.5c0.3-3.1,2.9-5.4,5.9-5.4
	c0.2,0,0.4,0,0.5,0c3.3,0.3,5.7,3.2,5.4,6.5C314.7,449.3,312.1,451.6,309,451.6"/>
<path id="path432" class="st2" d="M360.3,465.3c-0.2,0-0.3,0-0.5,0c-3.3-0.3-5.7-3.2-5.4-6.5c0.3-3.1,2.9-5.4,5.9-5.4
	c0.2,0,0.4,0,0.5,0c3.3,0.3,5.7,3.2,5.4,6.5C366,463,363.4,465.3,360.3,465.3"/>
<path id="path434" class="st2" d="M274.3,448.6c-0.2,0-0.4,0-0.5,0c-3.3-0.3-5.7-3.2-5.4-6.5c0.3-3.1,2.9-5.4,5.9-5.4
	c0.2,0,0.4,0,0.5,0c3.3,0.3,5.7,3.2,5.4,6.5C280,446.2,277.3,448.6,274.3,448.6"/>
<path id="path436" class="st2" d="M325.6,462.3c-0.2,0-0.4,0-0.5,0c-3.3-0.3-5.7-3.2-5.4-6.5c0.3-3.1,2.9-5.4,5.9-5.4
	c0.2,0,0.4,0,0.5,0c3.3,0.3,5.7,3.2,5.4,6.5C331.2,459.9,328.6,462.3,325.6,462.3"/>
<path id="path438" class="st2" d="M290.8,459.7c-0.2,0-0.4,0-0.5,0c-3.3-0.3-5.7-3.2-5.4-6.5c0.3-3.1,2.9-5.4,5.9-5.4
	c0.2,0,0.3,0,0.5,0c3.3,0.3,5.7,3.2,5.4,6.5C296.5,457.3,293.9,459.7,290.8,459.7"/>
<path id="path440" class="st2" d="M342.1,473.4c-0.2,0-0.3,0-0.5,0c-3.3-0.3-5.7-3.2-5.4-6.5c0.3-3.1,2.9-5.4,5.9-5.4
	c0.2,0,0.4,0,0.5,0c3.3,0.3,5.7,3.2,5.4,6.5C347.8,471,345.2,473.4,342.1,473.4"/>
<path id="path442" class="st2" d="M307.1,473.2c-0.2,0-0.4,0-0.5,0c-3.3-0.3-5.7-3.2-5.4-6.5c0.3-3.1,2.9-5.4,5.9-5.4
	c0.2,0,0.4,0,0.5,0c3.3,0.3,5.7,3.2,5.4,6.5C312.8,470.9,310.2,473.2,307.1,473.2"/>
<path id="path444" class="st2" d="M358.4,486.9c-0.2,0-0.4,0-0.5,0c-3.3-0.3-5.7-3.2-5.4-6.5c0.3-3.1,2.9-5.4,5.9-5.4
	c0.2,0,0.4,0,0.5,0c3.3,0.3,5.7,3.2,5.4,6.5C364.1,484.6,361.5,486.9,358.4,486.9"/>
<path id="path446" class="st2" d="M272.4,470.2c-0.2,0-0.4,0-0.5,0c-3.3-0.3-5.7-3.2-5.4-6.5c0.3-3.1,2.9-5.4,5.9-5.4
	c0.2,0,0.4,0,0.5,0c3.3,0.3,5.7,3.2,5.4,6.5C278.1,467.8,275.5,470.2,272.4,470.2"/>
<path id="path448" class="st2" d="M323.7,483.9c-0.2,0-0.4,0-0.5,0c-3.3-0.3-5.7-3.2-5.4-6.5c0.3-3.1,2.9-5.4,5.9-5.4
	c0.2,0,0.4,0,0.5,0c3.3,0.3,5.7,3.2,5.4,6.5C329.4,481.5,326.8,483.9,323.7,483.9"/>
<path id="path450" class="st2" d="M288.9,481.3c-0.2,0-0.4,0-0.5,0c-3.3-0.3-5.7-3.2-5.4-6.5c0.3-3.1,2.9-5.4,5.9-5.4
	c0.2,0,0.4,0,0.5,0c3.3,0.3,5.7,3.2,5.4,6.5C294.6,478.9,292,481.3,288.9,481.3"/>
<path id="path452" class="st2" d="M340.2,495c-0.2,0-0.4,0-0.5,0c-3.3-0.3-5.7-3.2-5.4-6.5c0.3-3.1,2.9-5.4,5.9-5.4
	c0.2,0,0.4,0,0.5,0c3.3,0.3,5.7,3.2,5.4,6.5C345.9,492.6,343.3,495,340.2,495"/>
<path id="path454" class="st2" d="M305.2,494.8c-0.2,0-0.4,0-0.5,0c-3.3-0.3-5.7-3.2-5.4-6.5c0.3-3.1,2.9-5.4,5.9-5.4
	c0.2,0,0.4,0,0.5,0c3.3,0.3,5.7,3.2,5.4,6.5C310.9,492.4,308.3,494.8,305.2,494.8"/>
<path id="path456" class="st2" d="M356.6,508.5c-0.2,0-0.3,0-0.5,0c-3.3-0.3-5.7-3.2-5.4-6.5c0.3-3.1,2.9-5.4,5.9-5.4
	c0.2,0,0.4,0,0.5,0c3.3,0.3,5.7,3.2,5.4,6.5C362.2,506.1,359.6,508.5,356.6,508.5"/>
<path id="path458" class="st2" d="M270.5,491.8c-0.2,0-0.3,0-0.5,0c-3.3-0.3-5.7-3.2-5.4-6.5c0.3-3.1,2.9-5.4,5.9-5.4
	c0.2,0,0.3,0,0.5,0c3.3,0.3,5.7,3.2,5.4,6.5C276.2,489.4,273.6,491.8,270.5,491.8"/>
<path id="path460" class="st2" d="M321.8,505.5c-0.2,0-0.4,0-0.5,0c-3.3-0.3-5.7-3.2-5.4-6.5c0.3-3.1,2.9-5.4,5.9-5.4
	c0.2,0,0.4,0,0.5,0c3.3,0.3,5.7,3.2,5.4,6.5C327.5,503.1,324.9,505.5,321.8,505.5"/>
<path id="path462" class="st2" d="M287,502.9c-0.2,0-0.4,0-0.5,0c-3.3-0.3-5.7-3.2-5.4-6.5c0.3-3.1,2.9-5.4,5.9-5.4
	c0.2,0,0.4,0,0.5,0c3.3,0.3,5.7,3.2,5.4,6.5C292.7,500.5,290.1,502.9,287,502.9"/>
<path id="path464" class="st2" d="M338.3,516.6c-0.2,0-0.4,0-0.5,0c-3.3-0.3-5.7-3.2-5.4-6.5c0.3-3.1,2.9-5.4,5.9-5.4
	c0.2,0,0.4,0,0.5,0c3.3,0.3,5.7,3.2,5.4,6.5C344,514.2,341.4,516.6,338.3,516.6"/>
<path id="path466" class="st2" d="M303.3,516.4c-0.2,0-0.4,0-0.5,0c-3.3-0.3-5.7-3.2-5.4-6.5c0.3-3.1,2.9-5.4,5.9-5.4
	c0.2,0,0.4,0,0.5,0c3.3,0.3,5.7,3.2,5.4,6.5C309,514,306.4,516.4,303.3,516.4"/>
<path id="path468" class="st2" d="M354.7,530.1c-0.2,0-0.3,0-0.5,0c-3.3-0.3-5.7-3.2-5.4-6.5c0.3-3.1,2.9-5.4,5.9-5.4
	c0.2,0,0.4,0,0.5,0c3.3,0.3,5.7,3.2,5.4,6.5C360.3,527.7,357.7,530.1,354.7,530.1"/>
<path id="path470" class="st2" d="M268.6,513.3c-0.2,0-0.4,0-0.5,0c-3.3-0.3-5.7-3.2-5.4-6.5c0.3-3.1,2.9-5.4,5.9-5.4
	c0.2,0,0.4,0,0.5,0c3.3,0.3,5.7,3.2,5.4,6.5C274.3,511,271.7,513.3,268.6,513.3"/>
<path id="path472" class="st2" d="M319.9,527c-0.2,0-0.4,0-0.5,0c-3.3-0.3-5.7-3.2-5.4-6.5c0.3-3.1,2.9-5.4,5.9-5.4
	c0.2,0,0.4,0,0.5,0c3.3,0.3,5.7,3.2,5.4,6.5C325.6,524.7,323,527,319.9,527"/>
<path id="path474" class="st2" d="M285.1,524.5c-0.2,0-0.4,0-0.5,0c-3.3-0.3-5.7-3.2-5.4-6.5c0.3-3.1,2.9-5.4,5.9-5.4
	c0.2,0,0.3,0,0.5,0c3.3,0.3,5.7,3.2,5.4,6.5C290.8,522.1,288.2,524.5,285.1,524.5"/>
<path id="path476" class="st2" d="M336.4,538.2c-0.2,0-0.4,0-0.5,0c-3.3-0.3-5.7-3.2-5.4-6.5c0.3-3.1,2.9-5.4,5.9-5.4
	c0.2,0,0.4,0,0.5,0c3.3,0.3,5.7,3.2,5.4,6.5C342.1,535.8,339.5,538.2,336.4,538.2"/>
<path id="path478" class="st2" d="M301.5,538c-0.2,0-0.4,0-0.5,0c-3.3-0.3-5.7-3.2-5.4-6.5c0.3-3.1,2.9-5.4,5.9-5.4
	c0.2,0,0.4,0,0.5,0c3.3,0.3,5.7,3.2,5.4,6.5C307.1,535.6,304.5,538,301.5,538"/>
<path id="path480" class="st2" d="M266.7,534.9c-0.2,0-0.4,0-0.5,0c-3.3-0.3-5.7-3.2-5.4-6.5c0.3-3.1,2.9-5.4,5.9-5.4
	c0.2,0,0.3,0,0.5,0c3.3,0.3,5.7,3.2,5.4,6.5C272.4,532.6,269.8,534.9,266.7,534.9"/>
<path id="path482" class="st2" d="M318,548.6c-0.2,0-0.4,0-0.5,0c-3.3-0.3-5.7-3.2-5.4-6.5c0.3-3.1,2.9-5.4,5.9-5.4
	c0.2,0,0.4,0,0.5,0c3.3,0.3,5.7,3.2,5.4,6.5C323.7,546.3,321.1,548.6,318,548.6"/>
<path id="path484" class="st2" d="M283.3,546.1c-0.2,0-0.4,0-0.5,0c-3.3-0.3-5.7-3.2-5.4-6.5c0.3-3.1,2.9-5.4,5.9-5.4
	c0.2,0,0.4,0,0.5,0c3.3,0.3,5.7,3.2,5.4,6.5C288.9,543.7,286.3,546.1,283.3,546.1"/>
<path id="path486" class="st2" d="M299.6,559.6c-0.2,0-0.4,0-0.5,0c-3.3-0.3-5.7-3.2-5.4-6.5c0.3-3.1,2.9-5.4,5.9-5.4
	c0.2,0,0.3,0,0.5,0c3.3,0.3,5.7,3.2,5.4,6.5C305.2,557.2,302.6,559.6,299.6,559.6"/>
<path id="path488" class="st2" d="M264.8,556.5c-0.2,0-0.4,0-0.5,0c-3.3-0.3-5.7-3.2-5.4-6.5c0.3-3.1,2.9-5.4,5.9-5.4
	c0.2,0,0.3,0,0.5,0c3.3,0.3,5.7,3.2,5.4,6.5C270.5,554.2,267.9,556.5,264.8,556.5"/>
<path id="path490" class="st2" d="M281.4,567.6c-0.2,0-0.4,0-0.5,0c-3.3-0.3-5.7-3.2-5.4-6.5c0.3-3.1,2.9-5.4,5.9-5.4
	c0.2,0,0.4,0,0.5,0c3.3,0.3,5.7,3.2,5.4,6.5C287,565.3,284.4,567.6,281.4,567.6"/>
<path id="path492" class="st2" d="M262.9,578.1c-0.2,0-0.4,0-0.5,0c-3.3-0.3-5.7-3.2-5.4-6.5c0.3-3.1,2.9-5.4,5.9-5.4
	c0.2,0,0.3,0,0.5,0c3.3,0.3,5.7,3.2,5.4,6.5C268.6,575.8,266,578.1,262.9,578.1"/>
<path id="path494" class="st2" d="M376.6,478.7c-0.2,0-0.4,0-0.5,0c-3.3-0.3-5.7-3.2-5.4-6.5c0.3-3.1,2.9-5.4,5.9-5.4
	c0.2,0,0.4,0,0.5,0c3.3,0.3,5.7,3.2,5.4,6.5C382.3,476.4,379.7,478.7,376.6,478.7"/>
<path id="path496" class="st2" d="M393.2,489.8c-0.2,0-0.4,0-0.5,0c-3.3-0.3-5.7-3.2-5.4-6.5c0.3-3.1,2.9-5.4,5.9-5.4
	c0.2,0,0.3,0,0.5,0c3.3,0.3,5.7,3.2,5.4,6.5C398.9,487.5,396.2,489.8,393.2,489.8"/>
<path id="path498" class="st2" d="M409.5,503.3c-0.2,0-0.4,0-0.5,0c-3.3-0.3-5.7-3.2-5.4-6.5c0.3-3.1,2.9-5.4,5.9-5.4
	c0.2,0,0.4,0,0.5,0c3.3,0.3,5.7,3.2,5.4,6.5C415.2,501,412.6,503.3,409.5,503.3"/>
<path id="path500" class="st2" d="M374.8,500.3c-0.2,0-0.4,0-0.5,0c-3.3-0.3-5.7-3.2-5.4-6.5c0.3-3.1,2.9-5.4,5.9-5.4
	c0.2,0,0.4,0,0.5,0c3.3,0.3,5.7,3.2,5.4,6.5C380.4,498,377.8,500.3,374.8,500.3"/>
<path id="path502" class="st2" d="M391.3,511.4c-0.2,0-0.4,0-0.5,0c-3.3-0.3-5.7-3.2-5.4-6.5c0.3-3.1,2.9-5.4,5.9-5.4
	c0.2,0,0.3,0,0.5,0c3.3,0.3,5.7,3.2,5.4,6.5C397,509.1,394.3,511.4,391.3,511.4"/>
<path id="path504" class="st2" d="M372.9,521.9c-0.2,0-0.4,0-0.5,0c-3.3-0.3-5.7-3.2-5.4-6.5c0.3-3.1,2.9-5.4,5.9-5.4
	c0.2,0,0.4,0,0.5,0c3.3,0.3,5.7,3.2,5.4,6.5C378.5,519.5,375.9,521.9,372.9,521.9"/>
<path id="path506" class="st0" d="M538.4,194.8c-7.3,0-14.8-1.3-22.1-4.1c-5.2-2-10-4.7-14.3-7.8l47.2-27.3l-5.3-9.2l-50.3,29
	c-5.9-6.3-10.3-13.7-12.9-21.7l50.6-29.2l-5.3-9.2l-47.7,27.6c-1-8.5-0.1-17.3,3.2-25.7c8.4-22,29.9-35.4,53.1-35.4
	c7.3,0,14.8,1.3,22.1,4.1c30.4,11.7,46.1,44.6,35,73.5C583,181.5,561.5,194.8,538.4,194.8"/>
<path id="path508" class="st0" d="M442.3,175.9l-5.3-9.2l41.2-23.8l47.7-27.6l5.3,9.2l-50.6,29.2L442.3,175.9"/>
<path id="path510" class="st0" d="M460.2,207l-5.3-9.2l38.6-22.3l50.3-29l5.3,9.2l-47.2,27.3L460.2,207"/>
<path id="path512" class="st0" d="M226.2,467.5l-12.2-3c2.8-11.3,10.1-15.7,15.9-19.2c5-3,8.6-5.2,10.1-11.4
	c1.5-6.2-0.6-9.8-3.6-14.8c-3.5-5.9-7.8-13.1-5-24.4c2.8-11.3,10.1-15.8,16-19.4c1.8-1.1,3.4-2.1,4.7-3.1c2.5-2,4.3-4.2,5.3-8.1
	c1.5-6-0.6-9.6-3.6-14.6c-3.5-5.9-7.8-13.3-5-24.6l12.2,3c-1.6,6.2,0.6,9.9,3.6,15.1c3.3,5.7,7.4,12.6,5.2,23.1
	c-0.1,0.4-0.2,0.7-0.3,1.1c-2.8,11.1-9.9,15.5-15.7,19c-5.1,3.1-8.7,5.4-10.3,11.6c-1.5,6.2,0.6,9.8,3.6,14.8
	c3.5,5.9,7.8,13.1,5,24.4c-2.8,11.3-10.1,15.7-15.9,19.2C231.3,459.1,227.7,461.3,226.2,467.5"/>
<path id="path514" class="st1" d="M657.7,486.5L601.3,413l91.7-13.7l28.4,62.6L657.7,486.5"/>
<path id="path516" class="st3" d="M531.9,438.8c-16.7-0.2-33.1-6.4-45.8-18.6c0.9-1,1.4-2.3,1.4-3.8c0-3.1-2.6-5.7-5.7-5.7
	c-1.2,0-2.3,0.4-3.2,1c-5-6.8-8.6-14.5-10.7-22.5c1.7-1,2.9-2.8,2.9-5c0-2.8-2.1-5.2-4.8-5.6c-0.3-3.1-0.4-6.2-0.3-9.4
	c2.9-0.3,5.1-2.7,5.1-5.7c0-2.5-1.6-4.7-3.9-5.4c1.6-8.3,4.6-16.5,9.2-24c0.2,2.9,2.7,5.2,5.7,5.2c3.1,0,5.7-2.5,5.7-5.7
	c0-3.1-2.6-5.7-5.7-5.7c-0.6,0-1.2,0.1-1.8,0.3c2.2-3.1,4.8-6,7.5-8.8c14.5-14.5,33.4-21.8,52-21.8c17.5,0,34.7,6.5,47.7,19.5
	c4,4,7.3,8.3,10.1,12.9c-0.4-0.1-0.8-0.1-1.2-0.1c-3.3,0-6,2.7-6,6.1s2.7,6.1,6,6.1c2.4,0,4.5-1.4,5.4-3.5
	c10.5,25.5,4.9,56.7-16.7,78.2c-2.8,2.8-5.7,5.3-8.7,7.5l-18.9-54.8l-10.1,3.5l19.7,57.1c-7.6,4-15.8,6.6-24,7.8l-19.5-56.7
	l-10.1,3.5L531.9,438.8 M481.9,390.1c-3.1,0-5.7,2.5-5.7,5.7c0,3.1,2.6,5.7,5.7,5.7c3.1,0,5.7-2.5,5.7-5.7
	C487.6,392.6,485.1,390.1,481.9,390.1 M481.9,369.4c-3.1,0-5.7,2.5-5.7,5.7c0,3.1,2.6,5.7,5.7,5.7c3.1,0,5.7-2.5,5.7-5.7
	C487.6,371.9,485.1,369.4,481.9,369.4 M596.2,354.2c-3.3,0-6,2.7-6,6.1s2.7,6.1,6,6.1c3.3,0,6-2.7,6-6.1
	C602.2,356.9,599.5,354.2,596.2,354.2 M481.9,348.7c-3.1,0-5.7,2.5-5.7,5.7c0,3.1,2.6,5.7,5.7,5.7c3.1,0,5.7-2.5,5.7-5.7
	C487.6,351.3,485.1,348.7,481.9,348.7 M577.1,342.8c-3.3,0-6,2.7-6,6.1s2.7,6.1,6,6.1c3.3,0,6-2.7,6-6.1S580.5,342.8,577.1,342.8
	 M559.4,332.2c-3.3,0-6,2.7-6,6.1s2.7,6.1,6,6.1c3.3,0,6-2.7,6-6.1S562.7,332.2,559.4,332.2 M577.1,318.1c-3.3,0-6,2.7-6,6.1
	s2.7,6.1,6,6.1c3.3,0,6-2.7,6-6.1S580.5,318.1,577.1,318.1 M559.4,306.7c-3.3,0-6,2.7-6,6.1s2.7,6.1,6,6.1c3.3,0,6-2.7,6-6.1
	S562.7,306.7,559.4,306.7"/>
<path id="path518" class="st0" d="M631.8,223.1c-3.3,0-6-2.7-6-6.1c0-3.3,2.7-6.1,6-6.1s6,2.7,6,6.1
	C637.8,220.4,635.1,223.1,631.8,223.1"/>
<path id="path520" class="st0" d="M631.8,246.7c-3.3,0-6-2.7-6-6.1s2.7-6.1,6-6.1s6,2.7,6,6.1C637.8,243.9,635.1,246.7,631.8,246.7"
	/>
<path id="path522" class="st0" d="M631.8,270.2c-3.3,0-6-2.7-6-6.1c0-3.4,2.7-6.1,6-6.1s6,2.7,6,6.1
	C637.8,267.4,635.1,270.2,631.8,270.2"/>
<path id="path524" class="st0" d="M632,293.7c-3.3,0-6-2.7-6-6.1s2.7-6.1,6-6.1c3.3,0,6,2.7,6,6.1S635.3,293.7,632,293.7"/>
<path id="path526" class="st0" d="M632,317.2c-3.3,0-6-2.7-6-6.1s2.7-6.1,6-6.1c3.3,0,6,2.7,6,6.1S635.3,317.2,632,317.2"/>
<path id="path528" class="st0" d="M632,340.7c-3.3,0-6-2.7-6-6.1c0-3.4,2.7-6.1,6-6.1c3.3,0,6,2.7,6,6.1
	C638,338,635.3,340.7,632,340.7"/>
<path id="path530" class="st0" d="M632,364.2c-3.3,0-6-2.7-6-6.1s2.7-6.1,6-6.1c3.3,0,6,2.7,6,6.1S635.3,364.2,632,364.2"/>
<path id="path532" class="st0" d="M632,387.7c-3.3,0-6-2.7-6-6.1c0-3.3,2.7-6.1,6-6.1c3.3,0,6,2.7,6,6.1
	C638,385,635.3,387.7,632,387.7"/>
<path id="path534" class="st0" d="M648,233.2c-3.3,0-6-2.7-6-6.1s2.7-6.1,6-6.1s6,2.7,6,6.1C654,230.5,651.3,233.2,648,233.2"/>
<path id="path536" class="st0" d="M666.7,243.4c-3.3,0-6-2.7-6-6.1s2.7-6.1,6-6.1s6,2.7,6,6.1C672.7,240.7,670,243.4,666.7,243.4"/>
<path id="path538" class="st0" d="M684.5,254c-3.3,0-6-2.7-6-6.1s2.7-6.1,6-6.1c3.3,0,6,2.7,6,6.1S687.8,254,684.5,254"/>
<path id="path540" class="st0" d="M703.6,265.4c-3.3,0-6-2.7-6-6.1c0-3.4,2.7-6.1,6-6.1c3.3,0,6,2.7,6,6.1
	C709.6,262.7,706.9,265.4,703.6,265.4"/>
<path id="path542" class="st0" d="M648,256.9c-3.3,0-6-2.7-6-6.1c0-3.4,2.7-6.1,6-6.1s6,2.7,6,6.1C654,254.2,651.3,256.9,648,256.9"
	/>
<path id="path544" class="st0" d="M666.7,267.6c-3.3,0-6-2.7-6-6.1s2.7-6.1,6-6.1s6,2.7,6,6.1S670,267.6,666.7,267.6"/>
<path id="path546" class="st0" d="M684.5,278.8c-3.3,0-6-2.7-6-6.1c0-3.3,2.7-6.1,6-6.1c3.3,0,6,2.7,6,6.1
	C690.5,276,687.8,278.8,684.5,278.8"/>
<path id="path548" class="st0" d="M703.6,291.1c-3.3,0-6-2.7-6-6.1c0-3.4,2.7-6.1,6-6.1c3.3,0,6,2.7,6,6.1
	C709.6,288.4,706.9,291.1,703.6,291.1"/>
<path id="path550" class="st0" d="M648,280.6c-3.3,0-6-2.7-6-6.1s2.7-6.1,6-6.1s6,2.7,6,6.1S651.3,280.6,648,280.6"/>
<path id="path552" class="st0" d="M666.7,291.8c-3.3,0-6-2.7-6-6.1s2.7-6.1,6-6.1s6,2.7,6,6.1S670,291.8,666.7,291.8"/>
<path id="path554" class="st0" d="M684.5,303.5c-3.3,0-6-2.7-6-6.1s2.7-6.1,6-6.1c3.3,0,6,2.7,6,6.1
	C690.5,300.8,687.8,303.5,684.5,303.5"/>
<path id="path556" class="st0" d="M703.6,316.7c-3.3,0-6-2.7-6-6.1s2.7-6.1,6-6.1c3.3,0,6,2.7,6,6.1S706.9,316.7,703.6,316.7"/>
<path id="path558" class="st0" d="M648.2,304.2c-3.3,0-6-2.7-6-6.1c0-3.3,2.7-6.1,6-6.1c3.3,0,6,2.7,6,6.1
	C654.2,301.5,651.5,304.2,648.2,304.2"/>
<path id="path560" class="st0" d="M666.9,316c-3.3,0-6-2.7-6-6.1s2.7-6.1,6-6.1c3.3,0,6,2.7,6,6.1S670.2,316,666.9,316"/>
<path id="path562" class="st0" d="M684.7,328.2c-3.3,0-6-2.7-6-6.1s2.7-6.1,6-6.1s6,2.7,6,6.1C690.7,325.5,688,328.2,684.7,328.2"/>
<path id="path564" class="st0" d="M703.9,342.3c-3.3,0-6-2.7-6-6.1s2.7-6.1,6-6.1c3.3,0,6,2.7,6,6.1
	C709.9,339.6,707.2,342.3,703.9,342.3"/>
<path id="path566" class="st0" d="M648.2,327.9c-3.3,0-6-2.7-6-6.1s2.7-6.1,6-6.1c3.3,0,6,2.7,6,6.1
	C654.2,325.2,651.5,327.9,648.2,327.9"/>
<path id="path568" class="st0" d="M666.9,340.2c-3.3,0-6-2.7-6-6.1s2.7-6.1,6-6.1c3.3,0,6,2.7,6,6.1S670.2,340.2,666.9,340.2"/>
<path id="path570" class="st0" d="M684.7,352.9c-3.3,0-6-2.7-6-6.1s2.7-6.1,6-6.1s6,2.7,6,6.1S688,352.9,684.7,352.9"/>
<path id="path572" class="st0" d="M648.2,351.6c-3.3,0-6-2.7-6-6.1s2.7-6.1,6-6.1c3.3,0,6,2.7,6,6.1S651.5,351.6,648.2,351.6"/>
<path id="path574" class="st0" d="M666.9,364.4c-3.3,0-6-2.7-6-6.1c0-3.4,2.7-6.1,6-6.1c3.3,0,6,2.7,6,6.1
	C672.9,361.7,670.2,364.4,666.9,364.4"/>
<path id="path576" class="st0" d="M648.2,375.3c-3.3,0-6-2.7-6-6.1s2.7-6.1,6-6.1c3.3,0,6,2.7,6,6.1S651.5,375.3,648.2,375.3"/>
<path id="path578" class="st0" d="M613.8,234.4c-3.3,0-6-2.7-6-6.1c0-3.4,2.7-6.1,6-6.1c3.3,0,6,2.7,6,6.1
	C619.8,231.7,617.1,234.4,613.8,234.4"/>
<path id="path580" class="st0" d="M596,245.9c-3.3,0-6-2.7-6-6.1s2.7-6.1,6-6.1c3.3,0,6,2.7,6,6.1S599.3,245.9,596,245.9"/>
<path id="path582" class="st0" d="M577.1,256.2c-3.3,0-6-2.7-6-6.1s2.7-6.1,6-6.1c3.3,0,6,2.7,6,6.1S580.5,256.2,577.1,256.2"/>
<path id="path584" class="st0" d="M559.4,267.6c-3.3,0-6-2.7-6-6.1c0-3.4,2.7-6.1,6-6.1c3.3,0,6,2.7,6,6.1
	C565.4,264.9,562.7,267.6,559.4,267.6"/>
<path id="path586" class="st0" d="M613.8,258.2c-3.3,0-6-2.7-6-6.1s2.7-6.1,6-6.1c3.3,0,6,2.7,6,6.1S617.1,258.2,613.8,258.2"/>
<path id="path588" class="st0" d="M596.2,270c-3.3,0-6-2.7-6-6.1s2.7-6.1,6-6.1c3.3,0,6,2.7,6,6.1S599.5,270,596.2,270"/>
<path id="path590" class="st0" d="M577.1,280.9c-3.3,0-6-2.7-6-6.1c0-3.4,2.7-6.1,6-6.1c3.3,0,6,2.7,6,6.1
	C583.1,278.1,580.5,280.9,577.1,280.9"/>
<path id="path592" class="st0" d="M559.4,293.2c-3.3,0-6-2.7-6-6.1c0-3.4,2.7-6.1,6-6.1c3.3,0,6,2.7,6,6.1
	C565.4,290.5,562.7,293.2,559.4,293.2"/>
<path id="path594" class="st0" d="M614,281.9c-3.3,0-6-2.7-6-6.1s2.7-6.1,6-6.1c3.3,0,6,2.7,6,6.1S617.3,281.9,614,281.9"/>
<path id="path596" class="st0" d="M596.2,294.1c-3.3,0-6-2.7-6-6.1s2.7-6.1,6-6.1c3.3,0,6,2.7,6,6.1S599.5,294.1,596.2,294.1"/>
<path id="path598" class="st0" d="M577.1,305.5c-3.3,0-6-2.7-6-6.1s2.7-6.1,6-6.1c3.3,0,6,2.7,6,6.1
	C583.1,302.8,580.5,305.5,577.1,305.5"/>
<path id="path600" class="st0" d="M559.4,318.8c-3.3,0-6-2.7-6-6.1s2.7-6.1,6-6.1c3.3,0,6,2.7,6,6.1S562.7,318.8,559.4,318.8"/>
<path id="path602" class="st0" d="M614,305.7c-3.3,0-6-2.7-6-6.1c0-3.3,2.7-6.1,6-6.1c3.3,0,6,2.7,6,6.1
	C620,303,617.3,305.7,614,305.7"/>
<path id="path604" class="st0" d="M596.2,318.2c-3.3,0-6-2.7-6-6.1s2.7-6.1,6-6.1c3.3,0,6,2.7,6,6.1S599.5,318.2,596.2,318.2"/>
<path id="path606" class="st0" d="M577.1,330.2c-3.3,0-6-2.7-6-6.1s2.7-6.1,6-6.1c3.3,0,6,2.7,6,6.1S580.5,330.2,577.1,330.2"/>
<path id="path608" class="st0" d="M559.4,344.4c-3.3,0-6-2.7-6-6.1s2.7-6.1,6-6.1c3.3,0,6,2.7,6,6.1S562.7,344.4,559.4,344.4"/>
<path id="path610" class="st0" d="M614,329.4c-3.3,0-6-2.7-6-6.1s2.7-6.1,6-6.1c3.3,0,6,2.7,6,6.1C620,326.7,617.3,329.4,614,329.4"
	/>
<path id="path612" class="st0" d="M596.2,342.2c-3.3,0-6-2.7-6-6.1s2.7-6.1,6-6.1c0.4,0,0.8,0,1.2,0.1c2.7,0.5,4.8,3,4.8,5.9
	c0,0.9-0.2,1.8-0.6,2.6C600.7,340.8,598.6,342.2,596.2,342.2"/>
<path id="path614" class="st0" d="M577.1,354.9c-3.3,0-6-2.7-6-6.1s2.7-6.1,6-6.1c3.3,0,6,2.7,6,6.1S580.5,354.9,577.1,354.9"/>
<path id="path616" class="st0" d="M614,353.2c-3.3,0-6-2.7-6-6.1s2.7-6.1,6-6.1c3.3,0,6,2.7,6,6.1S617.3,353.2,614,353.2"/>
<path id="path618" class="st0" d="M596.2,366.3c-3.3,0-6-2.7-6-6.1s2.7-6.1,6-6.1c3.3,0,6,2.7,6,6.1S599.5,366.3,596.2,366.3"/>
<path id="path620" class="st0" d="M614,376.9c-3.3,0-6-2.7-6-6.1c0-3.4,2.7-6.1,6-6.1c3.3,0,6,2.7,6,6.1
	C620,374.2,617.3,376.9,614,376.9"/>
<path id="path622" class="st0" d="M88.8,130.8c-3.3,0-6-2.7-6-6.1c0-3.4,2.7-6.1,6-6.1c3.3,0,6,2.7,6,6.1
	C94.8,128.1,92.2,130.8,88.8,130.8"/>
<path id="path624" class="st0" d="M88.8,154.3c-3.3,0-6-2.7-6-6.1s2.7-6.1,6-6.1c3.3,0,6,2.7,6,6.1S92.2,154.3,88.8,154.3"/>
<path id="path626" class="st0" d="M88.8,177.8c-3.3,0-6-2.7-6-6.1s2.7-6.1,6-6.1c3.3,0,6,2.7,6,6.1S92.2,177.8,88.8,177.8"/>
<path id="path628" class="st0" d="M89.1,201.3c-3.3,0-6-2.7-6-6.1c0-3.4,2.7-6.1,6-6.1c3.3,0,6,2.7,6,6.1
	C95.1,198.6,92.4,201.3,89.1,201.3"/>
<path id="path630" class="st0" d="M89.1,224.8c-3.3,0-6-2.7-6-6.1s2.7-6.1,6-6.1c3.3,0,6,2.7,6,6.1S92.4,224.8,89.1,224.8"/>
<path id="path632" class="st0" d="M89.1,248.3c-3.3,0-6-2.7-6-6.1c0-3.4,2.7-6.1,6-6.1c3.3,0,6,2.7,6,6.1
	C95.1,245.6,92.4,248.3,89.1,248.3"/>
<path id="path634" class="st0" d="M89.1,271.8c-3.3,0-6-2.7-6-6.1s2.7-6.1,6-6.1c3.3,0,6,2.7,6,6.1S92.4,271.8,89.1,271.8"/>
<path id="path636" class="st0" d="M89.1,295.3c-3.3,0-6-2.7-6-6.1s2.7-6.1,6-6.1c3.3,0,6,2.7,6,6.1S92.4,295.3,89.1,295.3"/>
<path id="path638" class="st0" d="M105,140.9c-3.3,0-6-2.7-6-6.1s2.7-6.1,6-6.1c3.3,0,6,2.7,6,6.1S108.3,140.9,105,140.9"/>
<path id="path640" class="st0" d="M123.8,151.1c-3.3,0-6-2.7-6-6.1s2.7-6.1,6-6.1c3.3,0,6,2.7,6,6.1S127.1,151.1,123.8,151.1"/>
<path id="path642" class="st0" d="M141.5,161.7c-3.3,0-6-2.7-6-6.1s2.7-6.1,6-6.1s6,2.7,6,6.1C147.5,159,144.8,161.7,141.5,161.7"/>
<path id="path644" class="st0" d="M160.7,173.1c-3.3,0-6-2.7-6-6.1s2.7-6.1,6-6.1c3.3,0,6,2.7,6,6.1S164,173.1,160.7,173.1"/>
<path id="path646" class="st0" d="M105,164.5c-3.3,0-6-2.7-6-6.1s2.7-6.1,6-6.1c3.3,0,6,2.7,6,6.1C111,161.8,108.3,164.5,105,164.5"
	/>
<path id="path648" class="st0" d="M123.8,175.3c-3.3,0-6-2.7-6-6.1s2.7-6.1,6-6.1c3.3,0,6,2.7,6,6.1S127.1,175.3,123.8,175.3"/>
<path id="path650" class="st0" d="M141.5,186.4c-3.3,0-6-2.7-6-6.1s2.7-6.1,6-6.1s6,2.7,6,6.1S144.8,186.4,141.5,186.4"/>
<path id="path652" class="st0" d="M160.7,198.7c-3.3,0-6-2.7-6-6.1s2.7-6.1,6-6.1c3.3,0,6,2.7,6,6.1
	C166.7,196,164,198.7,160.7,198.7"/>
<path id="path654" class="st0" d="M105,188.2c-3.3,0-6-2.7-6-6.1s2.7-6.1,6-6.1c3.3,0,6,2.7,6,6.1C111,185.5,108.3,188.2,105,188.2"
	/>
<path id="path656" class="st0" d="M123.8,199.5c-3.3,0-6-2.7-6-6.1c0-3.4,2.7-6.1,6-6.1c3.3,0,6,2.7,6,6.1
	C129.7,196.8,127.1,199.5,123.8,199.5"/>
<path id="path658" class="st0" d="M141.5,211.2c-3.3,0-6-2.7-6-6.1s2.7-6.1,6-6.1s6,2.7,6,6.1S144.8,211.2,141.5,211.2"/>
<path id="path660" class="st0" d="M160.7,224.4c-3.3,0-6-2.7-6-6.1s2.7-6.1,6-6.1c3.3,0,6,2.7,6,6.1S164,224.4,160.7,224.4"/>
<path id="path662" class="st0" d="M105.3,211.9c-3.3,0-6-2.7-6-6.1c0-3.4,2.7-6.1,6-6.1c3.3,0,6,2.7,6,6.1
	C111.3,209.2,108.6,211.9,105.3,211.9"/>
<path id="path664" class="st0" d="M124,223.7c-3.3,0-6-2.7-6-6.1c0-3.3,2.7-6.1,6-6.1c3.3,0,6,2.7,6,6.1
	C130,221,127.3,223.7,124,223.7"/>
<path id="path666" class="st0" d="M141.8,235.9c-3.3,0-6-2.7-6-6.1c0-3.4,2.7-6.1,6-6.1c3.3,0,6,2.7,6,6.1
	C147.8,233.2,145.1,235.9,141.8,235.9"/>
<path id="path668" class="st0" d="M160.9,250c-3.3,0-6-2.7-6-6.1s2.7-6.1,6-6.1c3.3,0,6,2.7,6,6.1S164.2,250,160.9,250"/>
<path id="path670" class="st0" d="M105.3,235.6c-3.3,0-6-2.7-6-6.1s2.7-6.1,6-6.1c3.3,0,6,2.7,6,6.1S108.6,235.6,105.3,235.6"/>
<path id="path672" class="st0" d="M124,247.9c-3.3,0-6-2.7-6-6.1c0-3.3,2.7-6.1,6-6.1c3.3,0,6,2.7,6,6.1
	C130,245.2,127.3,247.9,124,247.9"/>
<path id="path674" class="st0" d="M141.8,260.6c-3.3,0-6-2.7-6-6.1c0-3.4,2.7-6.1,6-6.1c3.3,0,6,2.7,6,6.1
	C147.8,257.9,145.1,260.6,141.8,260.6"/>
<path id="path676" class="st0" d="M105.3,259.3c-3.3,0-6-2.7-6-6.1s2.7-6.1,6-6.1c3.3,0,6,2.7,6,6.1S108.6,259.3,105.3,259.3"/>
<path id="path678" class="st0" d="M124,272.1c-3.3,0-6-2.7-6-6.1s2.7-6.1,6-6.1c3.3,0,6,2.7,6,6.1C130,269.3,127.3,272.1,124,272.1"
	/>
<path id="path680" class="st0" d="M105.3,282.9c-3.3,0-6-2.7-6-6.1s2.7-6.1,6-6.1c3.3,0,6,2.7,6,6.1S108.6,282.9,105.3,282.9"/>
<path id="path682" class="st0" d="M70.8,142.1c-3.3,0-6-2.7-6-6.1c0-3.3,2.7-6.1,6-6.1c3.3,0,6,2.7,6,6.1
	C76.8,139.4,74.1,142.1,70.8,142.1"/>
<path id="path684" class="st0" d="M53,153.6c-3.3,0-6-2.7-6-6.1c0-3.3,2.7-6.1,6-6.1c3.3,0,6,2.7,6,6.1
	C59,150.9,56.4,153.6,53,153.6"/>
<path id="path686" class="st0" d="M34.2,163.8c-3.3,0-6-2.7-6-6.1s2.7-6.1,6-6.1c3.3,0,6,2.7,6,6.1
	C40.2,161.1,37.5,163.8,34.2,163.8"/>
<path id="path688" class="st0" d="M16.5,175.3c-3.3,0-6-2.7-6-6.1s2.7-6.1,6-6.1c3.3,0,6,2.7,6,6.1S19.8,175.3,16.5,175.3"/>
<path id="path690" class="st0" d="M70.8,165.9c-3.3,0-6-2.7-6-6.1c0-3.4,2.7-6.1,6-6.1c3.3,0,6,2.7,6,6.1
	C76.8,163.1,74.1,165.9,70.8,165.9"/>
<path id="path692" class="st0" d="M53.3,177.7c-3.3,0-6-2.7-6-6.1s2.7-6.1,6-6.1c3.3,0,6,2.7,6,6.1
	C59.3,174.9,56.6,177.7,53.3,177.7"/>
<path id="path694" class="st0" d="M34.2,188.5c-3.3,0-6-2.7-6-6.1s2.7-6.1,6-6.1c3.3,0,6,2.7,6,6.1S37.5,188.5,34.2,188.5"/>
<path id="path696" class="st0" d="M16.5,200.9c-3.3,0-6-2.7-6-6.1s2.7-6.1,6-6.1c3.3,0,6,2.7,6,6.1S19.8,200.9,16.5,200.9"/>
<path id="path698" class="st0" d="M71,189.6c-3.3,0-6-2.7-6-6.1s2.7-6.1,6-6.1c3.3,0,6,2.7,6,6.1C77,186.9,74.3,189.6,71,189.6"/>
<path id="path700" class="st0" d="M53.3,201.7c-3.3,0-6-2.7-6-6.1c0-3.4,2.7-6.1,6-6.1c3.3,0,6,2.7,6,6.1
	C59.3,199,56.6,201.7,53.3,201.7"/>
<path id="path702" class="st0" d="M34.2,213.2c-3.3,0-6-2.7-6-6.1c0-3.4,2.7-6.1,6-6.1c3.3,0,6,2.7,6,6.1
	C40.2,210.5,37.5,213.2,34.2,213.2"/>
<path id="path704" class="st0" d="M16.5,226.5c-3.3,0-6-2.7-6-6.1s2.7-6.1,6-6.1c3.3,0,6,2.7,6,6.1
	C22.5,223.7,19.8,226.5,16.5,226.5"/>
<path id="path706" class="st0" d="M71,213.3c-3.3,0-6-2.7-6-6.1s2.7-6.1,6-6.1c3.3,0,6,2.7,6,6.1S74.3,213.3,71,213.3"/>
<path id="path708" class="st0" d="M53.3,225.8c-3.3,0-6-2.7-6-6.1s2.7-6.1,6-6.1c3.3,0,6,2.7,6,6.1
	C59.3,223.1,56.6,225.8,53.3,225.8"/>
<path id="path710" class="st0" d="M34.2,237.9c-3.3,0-6-2.7-6-6.1s2.7-6.1,6-6.1c3.3,0,6,2.7,6,6.1
	C40.2,235.2,37.5,237.9,34.2,237.9"/>
<path id="path712" class="st0" d="M16.5,252c-3.3,0-6-2.7-6-6.1s2.7-6.1,6-6.1c3.3,0,6,2.7,6,6.1S19.8,252,16.5,252"/>
<path id="path714" class="st0" d="M71,237.1c-3.3,0-6-2.7-6-6.1c0-3.4,2.7-6.1,6-6.1c3.3,0,6,2.7,6,6.1
	C77,234.4,74.3,237.1,71,237.1"/>
<path id="path716" class="st0" d="M53.3,249.9c-3.3,0-6-2.7-6-6.1s2.7-6.1,6-6.1c3.3,0,6,2.7,6,6.1S56.6,249.9,53.3,249.9"/>
<path id="path718" class="st0" d="M34.2,262.6c-3.3,0-6-2.7-6-6.1c0-3.4,2.7-6.1,6-6.1c3.3,0,6,2.7,6,6.1
	C40.2,259.9,37.5,262.6,34.2,262.6"/>
<path id="path720" class="st0" d="M71,260.8c-3.3,0-6-2.7-6-6.1c0-3.4,2.7-6.1,6-6.1c3.3,0,6,2.7,6,6.1
	C77,258.1,74.3,260.8,71,260.8"/>
<path id="path722" class="st0" d="M53.3,274c-3.3,0-6-2.7-6-6.1s2.7-6.1,6-6.1c3.3,0,6,2.7,6,6.1S56.6,274,53.3,274"/>
<path id="path724" class="st0" d="M71,284.6c-3.3,0-6-2.7-6-6.1c0-3.3,2.7-6.1,6-6.1c3.3,0,6,2.7,6,6.1
	C77,281.9,74.3,284.6,71,284.6"/>
<path id="path726" class="st1" d="M481.9,298.1c-3.1,0-5.7-2.5-5.7-5.7s2.6-5.7,5.7-5.7c3.1,0,5.7,2.5,5.7,5.7
	S485.1,298.1,481.9,298.1"/>
<path id="path728" class="st1" d="M465.3,307.3c-3.1,0-5.7-2.5-5.7-5.7c0-3.1,2.5-5.7,5.7-5.7c3.1,0,5.7,2.5,5.7,5.7
	C471,304.8,468.4,307.3,465.3,307.3"/>
<path id="path730" class="st1" d="M448.7,318.8c-3.1,0-5.7-2.5-5.7-5.7c0-3.1,2.5-5.7,5.7-5.7c3.1,0,5.7,2.5,5.7,5.7
	C454.4,316.2,451.8,318.8,448.7,318.8"/>
<path id="path732" class="st1" d="M481.9,318.8c-3.1,0-5.7-2.5-5.7-5.7c0-3.1,2.6-5.7,5.7-5.7c3.1,0,5.7,2.5,5.7,5.7
	C487.6,316.2,485.1,318.8,481.9,318.8"/>
<path id="path734" class="st1" d="M432.1,327.5c-3.1,0-5.7-2.5-5.7-5.7c0-3.1,2.5-5.7,5.7-5.7c3.1,0,5.7,2.5,5.7,5.7
	C437.7,325,435.2,327.5,432.1,327.5"/>
<path id="path736" class="st1" d="M465.3,328c-3.1,0-5.7-2.5-5.7-5.7s2.5-5.7,5.7-5.7c3.1,0,5.7,2.5,5.7,5.7
	C471,325.4,468.4,328,465.3,328"/>
<path id="path738" class="st1" d="M415.4,336.7c-3.1,0-5.7-2.5-5.7-5.7s2.6-5.7,5.7-5.7c3.1,0,5.7,2.5,5.7,5.7
	S418.6,336.7,415.4,336.7"/>
<path id="path740" class="st1" d="M448.7,339.4c-3.1,0-5.7-2.5-5.7-5.7c0-3.1,2.5-5.7,5.7-5.7c3.1,0,5.7,2.5,5.7,5.7
	C454.4,336.9,451.8,339.4,448.7,339.4"/>
<path id="path742" class="st1" d="M398.8,348.2c-3.1,0-5.7-2.5-5.7-5.7c0-3.1,2.5-5.7,5.7-5.7c3.1,0,5.7,2.5,5.7,5.7
	C404.5,345.6,402,348.2,398.8,348.2"/>
<path id="path744" class="st1" d="M481.9,339.4c-3,0-5.4-2.3-5.7-5.2c0-0.1,0-0.3,0-0.4c0-2.5,1.6-4.6,3.9-5.4
	c0.6-0.2,1.2-0.3,1.8-0.3c3.1,0,5.7,2.5,5.7,5.7C487.6,336.9,485.1,339.4,481.9,339.4"/>
<path id="path746" class="st1" d="M432.1,348.2c-3.1,0-5.7-2.5-5.7-5.7c0-3.1,2.5-5.7,5.7-5.7c3.1,0,5.7,2.5,5.7,5.7
	C437.7,345.6,435.2,348.2,432.1,348.2"/>
<path id="path748" class="st1" d="M465.3,348.6c-3.1,0-5.7-2.5-5.7-5.7c0-3.1,2.5-5.7,5.7-5.7c3.1,0,5.7,2.5,5.7,5.7
	C471,346.1,468.4,348.6,465.3,348.6"/>
<path id="path750" class="st1" d="M415.4,357.4c-3.1,0-5.7-2.5-5.7-5.7c0-3.1,2.6-5.7,5.7-5.7c3.1,0,5.7,2.5,5.7,5.7
	C421.1,354.8,418.6,357.4,415.4,357.4"/>
<path id="path752" class="st1" d="M448.7,360.1c-3.1,0-5.7-2.5-5.7-5.7c0-3.1,2.5-5.7,5.7-5.7c3.1,0,5.7,2.5,5.7,5.7
	C454.4,357.6,451.8,360.1,448.7,360.1"/>
<path id="path754" class="st1" d="M398.8,368.9c-3.1,0-5.7-2.5-5.7-5.7c0-3.1,2.5-5.7,5.7-5.7c3.1,0,5.7,2.5,5.7,5.7
	C404.5,366.3,402,368.9,398.8,368.9"/>
<path id="path756" class="st1" d="M481.9,360.1c-3.1,0-5.7-2.5-5.7-5.7c0-3.1,2.6-5.7,5.7-5.7c3.1,0,5.7,2.5,5.7,5.7
	C487.6,357.6,485.1,360.1,481.9,360.1"/>
<path id="path758" class="st1" d="M432.1,368.9c-3.1,0-5.7-2.5-5.7-5.7c0-3.1,2.5-5.7,5.7-5.7c3.1,0,5.7,2.5,5.7,5.7
	C437.7,366.3,435.2,368.9,432.1,368.9"/>
<path id="path760" class="st1" d="M465.3,369.3c-3.1,0-5.7-2.5-5.7-5.7c0-3.1,2.5-5.7,5.7-5.7c0.6,0,1.2,0.1,1.8,0.3
	c2.3,0.7,3.9,2.9,3.9,5.4c0,3-2.2,5.4-5.1,5.7C465.7,369.3,465.5,369.3,465.3,369.3"/>
<path id="path762" class="st1" d="M415.4,378c-3.1,0-5.7-2.5-5.7-5.7s2.6-5.7,5.7-5.7c3.1,0,5.7,2.5,5.7,5.7
	C421.1,375.5,418.6,378,415.4,378"/>
<path id="path764" class="st1" d="M448.7,380.8c-3.1,0-5.7-2.5-5.7-5.7c0-3.1,2.5-5.7,5.7-5.7c3.1,0,5.7,2.5,5.7,5.7
	C454.4,378.2,451.8,380.8,448.7,380.8"/>
<path id="path766" class="st1" d="M398.8,389.5c-3.1,0-5.7-2.5-5.7-5.7c0-3.1,2.5-5.7,5.7-5.7c3.1,0,5.7,2.5,5.7,5.7
	C404.5,387,402,389.5,398.8,389.5"/>
<path id="path768" class="st1" d="M481.9,380.8c-3.1,0-5.7-2.5-5.7-5.7c0-3.1,2.6-5.7,5.7-5.7c3.1,0,5.7,2.5,5.7,5.7
	C487.6,378.2,485.1,380.8,481.9,380.8"/>
<path id="path770" class="st1" d="M432.1,389.5c-3.1,0-5.7-2.5-5.7-5.7c0-3.1,2.5-5.7,5.7-5.7c3.1,0,5.7,2.5,5.7,5.7
	C437.7,387,435.2,389.5,432.1,389.5"/>
<path id="path772" class="st1" d="M465.3,390c-3.1,0-5.7-2.5-5.7-5.7c0-3.1,2.5-5.7,5.7-5.7c0.3,0,0.6,0,0.9,0.1
	c2.7,0.4,4.8,2.8,4.8,5.6c0,2.1-1.2,4-2.9,5C467.2,389.7,466.3,390,465.3,390"/>
<path id="path774" class="st1" d="M415.4,398.7c-3.1,0-5.7-2.5-5.7-5.7c0-3.1,2.6-5.7,5.7-5.7c3.1,0,5.7,2.5,5.7,5.7
	C421.1,396.2,418.6,398.7,415.4,398.7"/>
<path id="path776" class="st1" d="M448.7,401.4c-3.1,0-5.7-2.5-5.7-5.7c0-3.1,2.5-5.7,5.7-5.7c3.1,0,5.7,2.5,5.7,5.7
	C454.4,398.9,451.8,401.4,448.7,401.4"/>
<path id="path778" class="st1" d="M398.8,410.2c-3.1,0-5.7-2.5-5.7-5.7c0-3.1,2.5-5.7,5.7-5.7c3.1,0,5.7,2.5,5.7,5.7
	C404.5,407.6,402,410.2,398.8,410.2"/>
<path id="path780" class="st1" d="M481.9,401.4c-3.1,0-5.7-2.5-5.7-5.7c0-3.1,2.6-5.7,5.7-5.7c3.1,0,5.7,2.5,5.7,5.7
	C487.6,398.9,485.1,401.4,481.9,401.4"/>
<path id="path782" class="st1" d="M432.1,410.2c-3.1,0-5.7-2.5-5.7-5.7c0-3.1,2.5-5.7,5.7-5.7c3.1,0,5.7,2.5,5.7,5.7
	C437.7,407.6,435.2,410.2,432.1,410.2"/>
<path id="path784" class="st1" d="M465.3,410.6c-3.1,0-5.7-2.5-5.7-5.7c0-3.1,2.5-5.7,5.7-5.7c3.1,0,5.7,2.5,5.7,5.7
	C471,408.1,468.4,410.6,465.3,410.6"/>
<path id="path786" class="st1" d="M415.4,419.4c-3.1,0-5.7-2.5-5.7-5.7c0-3.1,2.6-5.7,5.7-5.7c3.1,0,5.7,2.5,5.7,5.7
	C421.1,416.8,418.6,419.4,415.4,419.4"/>
<path id="path788" class="st1" d="M448.7,422.1c-3.1,0-5.7-2.5-5.7-5.7c0-3.1,2.5-5.7,5.7-5.7c3.1,0,5.7,2.5,5.7,5.7
	C454.4,419.5,451.8,422.1,448.7,422.1"/>
<path id="path790" class="st1" d="M481.9,422.1c-3.1,0-5.7-2.5-5.7-5.7c0-2,1-3.7,2.5-4.7c0.9-0.6,2-1,3.2-1c3.1,0,5.7,2.5,5.7,5.7
	c0,1.4-0.5,2.8-1.4,3.8C485.1,421.3,483.6,422.1,481.9,422.1"/>
<path id="path792" class="st1" d="M432.1,430.8c-3.1,0-5.7-2.5-5.7-5.7s2.5-5.7,5.7-5.7c3.1,0,5.7,2.5,5.7,5.7
	S435.2,430.8,432.1,430.8"/>
<path id="path794" class="st1" d="M465.3,431.3c-3.1,0-5.7-2.5-5.7-5.7s2.5-5.7,5.7-5.7c3.1,0,5.7,2.5,5.7,5.7
	C471,428.7,468.4,431.3,465.3,431.3"/>
<path id="path796" class="st1" d="M448.7,442.7c-3.1,0-5.7-2.5-5.7-5.7c0-3.1,2.5-5.7,5.7-5.7c3.1,0,5.7,2.5,5.7,5.7
	C454.4,440.2,451.8,442.7,448.7,442.7"/>
<path id="path798" class="st1" d="M481.9,442.7c-3.1,0-5.7-2.5-5.7-5.7c0-3.1,2.6-5.7,5.7-5.7c3.1,0,5.7,2.5,5.7,5.7
	C487.6,440.2,485.1,442.7,481.9,442.7"/>
<path id="path800" class="st1" d="M465.3,451.9c-3.1,0-5.7-2.5-5.7-5.7s2.5-5.7,5.7-5.7c3.1,0,5.7,2.5,5.7,5.7
	S468.4,451.9,465.3,451.9"/>
<path id="path802" class="st1" d="M481.9,463.4c-3.1,0-5.7-2.5-5.7-5.7c0-3.1,2.6-5.7,5.7-5.7c3.1,0,5.7,2.5,5.7,5.7
	S485.1,463.4,481.9,463.4"/>
<path id="path804" class="st1" d="M382.2,359.6c-3.1,0-5.7-2.5-5.7-5.7s2.5-5.7,5.7-5.7c3.1,0,5.7,2.5,5.7,5.7
	S385.4,359.6,382.2,359.6"/>
<path id="path806" class="st1" d="M365.6,368.7c-3.1,0-5.7-2.5-5.7-5.7c0-3.1,2.6-5.7,5.7-5.7s5.7,2.5,5.7,5.7
	C371.3,366.2,368.7,368.7,365.6,368.7"/>
<path id="path808" class="st1" d="M349,380.2c-3.1,0-5.7-2.5-5.7-5.7s2.5-5.7,5.7-5.7c3.1,0,5.7,2.5,5.7,5.7
	C354.7,377.7,352.1,380.2,349,380.2"/>
<path id="path810" class="st1" d="M382.2,380.2c-3.1,0-5.7-2.5-5.7-5.7s2.5-5.7,5.7-5.7c3.1,0,5.7,2.5,5.7,5.7
	C387.9,377.7,385.4,380.2,382.2,380.2"/>
<path id="path812" class="st1" d="M365.6,389.4c-3.1,0-5.7-2.5-5.7-5.7c0-3.1,2.6-5.7,5.7-5.7s5.7,2.5,5.7,5.7
	C371.3,386.9,368.7,389.4,365.6,389.4"/>
<path id="path814" class="st1" d="M382.2,400.9c-3.1,0-5.7-2.5-5.7-5.7c0-3.1,2.5-5.7,5.7-5.7c3.1,0,5.7,2.5,5.7,5.7
	C387.9,398.3,385.4,400.9,382.2,400.9"/>
<path id="path816" class="st0" d="M546.8,481.9l-14.9-43.2l-18.6-54l10.1-3.5l19.5,56.7l13.9,40.4L546.8,481.9"/>
<path id="path818" class="st0" d="M580.8,470.3l-13.8-40l-19.7-57.1l10.1-3.5l18.9,54.8l14.6,42.3L580.8,470.3"/>
<path id="path820" class="st1" d="M8.9,416.5L0,405.1l109.2-85.4l8.9,11.3L8.9,416.5"/>
<path id="path822" class="st1" d="M38.7,454.7l-8.9-11.3L139,357.9l8.9,11.3L38.7,454.7"/>
</svg>
