<svg version="1.1"
	 id="svg2" xmlns:svg="http://www.w3.org/2000/svg" xmlns:rdf="http://www.w3.org/1999/02/22-rdf-syntax-ns#" xmlns:cc="http://creativecommons.org/ns#" xmlns:dc="http://purl.org/dc/elements/1.1/"
	 xmlns="http://www.w3.org/2000/svg" xmlns:xlink="http://www.w3.org/1999/xlink" x="0px" y="0px" width="721.333px"
	 height="783.04px" viewBox="0 0 721.333 783.04" enable-background="new 0 0 721.333 783.04" xml:space="preserve">
<path id="path14" d="M328.521,13.161c-3.646,0-6.599-2.945-6.599-6.58c0-3.635,2.952-6.58,6.599-6.58
	c3.646,0,6.599,2.945,6.599,6.58C335.12,10.216,332.167,13.161,328.521,13.161"/>
<path id="path16" d="M328.521,38.659c-3.646,0-6.599-2.945-6.599-6.58s2.952-6.579,6.599-6.579c3.646,0,6.599,2.944,6.599,6.579
	S332.167,38.659,328.521,38.659"/>
<path id="path18" d="M328.521,64.157c-3.646,0-6.599-2.945-6.599-6.58c0-3.634,2.952-6.58,6.599-6.58
	c3.646,0,6.599,2.945,6.599,6.58S332.167,64.157,328.521,64.157"/>
<path id="path20" d="M328.781,89.655c-3.646,0-6.598-2.945-6.598-6.58s2.952-6.58,6.598-6.58c3.64,0,6.6,2.945,6.6,6.58
	S332.421,89.655,328.781,89.655"/>
<path id="path22" d="M328.781,115.152c-3.646,0-6.598-2.945-6.598-6.579c0-3.635,2.952-6.581,6.598-6.581
	c3.64,0,6.6,2.946,6.6,6.581C335.381,112.207,332.421,115.152,328.781,115.152"/>
<path id="path24" d="M328.781,140.651c-3.646,0-6.598-2.945-6.598-6.58s2.952-6.58,6.598-6.58c3.64,0,6.6,2.945,6.6,6.58
	C335.381,137.705,332.421,140.651,328.781,140.651"/>
<path id="path26" d="M328.781,166.149c-3.646,0-6.598-2.947-6.598-6.58c0-3.635,2.952-6.58,6.598-6.58c3.64,0,6.6,2.945,6.6,6.58
	C335.381,163.203,332.421,166.149,328.781,166.149"/>
<path id="path28" d="M328.781,191.646c-3.646,0-6.598-2.945-6.598-6.58c0-3.634,2.952-6.58,6.598-6.58c3.64,0,6.6,2.945,6.6,6.58
	C335.381,188.701,332.421,191.646,328.781,191.646"/>
<path id="path30" d="M346.35,24.051c-3.646,0-6.599-2.945-6.599-6.58s2.952-6.58,6.599-6.58c3.641,0,6.599,2.945,6.599,6.58
	S349.99,24.051,346.35,24.051"/>
<path id="path32" d="M366.959,35.152c-3.648,0-6.599-2.945-6.599-6.581c0-3.635,2.951-6.58,6.599-6.58c3.646,0,6.6,2.945,6.6,6.58
	C373.559,32.207,370.606,35.152,366.959,35.152"/>
<path id="path34" d="M386.543,46.653c-3.648,0-6.6-2.945-6.6-6.58s2.951-6.58,6.6-6.58c3.645,0,6.598,2.945,6.598,6.58
	S390.188,46.653,386.543,46.653"/>
<path id="path36" d="M407.625,59.04c-3.646,0-6.6-2.945-6.6-6.579c0-3.635,2.953-6.582,6.6-6.582s6.598,2.947,6.598,6.582
	C414.223,56.095,411.272,59.04,407.625,59.04"/>
<path id="path38" d="M346.35,49.743c-3.646,0-6.599-2.945-6.599-6.58s2.952-6.58,6.599-6.58c3.641,0,6.599,2.945,6.599,6.58
	S349.99,49.743,346.35,49.743"/>
<path id="path40" d="M366.959,61.4c-3.648,0-6.599-2.945-6.599-6.58c0-3.636,2.951-6.58,6.599-6.58c3.646,0,6.6,2.944,6.6,6.58
	C373.559,58.455,370.606,61.4,366.959,61.4"/>
<path id="path42" d="M386.543,73.484c-3.648,0-6.6-2.945-6.6-6.58c0-3.634,2.951-6.58,6.6-6.58c3.645,0,6.598,2.945,6.598,6.58
	C393.141,70.539,390.188,73.484,386.543,73.484"/>
<path id="path44" d="M407.625,86.843c-3.646,0-6.6-2.945-6.6-6.582c0-3.633,2.953-6.579,6.6-6.579s6.598,2.945,6.598,6.579
	C414.223,83.897,411.272,86.843,407.625,86.843"/>
<path id="path46" d="M346.35,75.435c-3.646,0-6.599-2.947-6.599-6.58c0-3.634,2.952-6.58,6.599-6.58c3.641,0,6.599,2.945,6.599,6.58
	C352.948,72.488,349.99,75.435,346.35,75.435"/>
<path id="path48" d="M366.959,87.646c-3.648,0-6.599-2.945-6.599-6.579c0-3.634,2.951-6.58,6.599-6.58c3.646,0,6.6,2.945,6.6,6.58
	C373.559,84.701,370.606,87.646,366.959,87.646"/>
<path id="path50" d="M386.543,100.314c-3.648,0-6.6-2.945-6.6-6.58c0-3.635,2.951-6.58,6.6-6.58c3.645,0,6.598,2.945,6.598,6.58
	C393.141,97.369,390.188,100.314,386.543,100.314"/>
<path id="path52" d="M407.625,114.644c-3.646,0-6.6-2.945-6.6-6.58s2.953-6.58,6.6-6.58s6.598,2.945,6.598,6.58
	S411.272,114.644,407.625,114.644"/>
<path id="path54" d="M346.605,101.125c-3.648,0-6.599-2.945-6.599-6.58c0-3.633,2.95-6.579,6.599-6.579
	c3.646,0,6.599,2.945,6.599,6.579C353.204,98.18,350.251,101.125,346.605,101.125"/>
<path id="path56" d="M367.215,113.895c-0.693,0-1.361-0.106-1.99-0.304c-1.061-2.589-2.494-5.211-4.421-7.841
	c0.707-2.879,3.31-5.015,6.412-5.015c3.645,0,6.598,2.945,6.598,6.58C373.813,110.949,370.86,113.895,367.215,113.895"/>
<path id="path58" d="M386.797,127.146c-3.641,0-6.6-2.945-6.6-6.58s2.959-6.58,6.6-6.58c3.646,0,6.598,2.945,6.598,6.58
	S390.444,127.146,386.797,127.146"/>
<path id="path60" d="M407.887,142.445c-3.648,0-6.6-2.945-6.6-6.58s2.951-6.58,6.6-6.58c3.639,0,6.598,2.945,6.598,6.58
	S411.526,142.445,407.887,142.445"/>
<path id="path62" d="M346.605,126.817c-3.648,0-6.599-2.945-6.599-6.58c0-3.207,2.296-5.876,5.34-6.461l-0.982,0.885
	c3.441,3.822,4.822,7.448,5.284,11.417C348.737,126.551,347.702,126.817,346.605,126.817"/>
<path id="path64" d="M367.588,140.132c0.047-1.079,0.111-2.196,0.182-3.358c0.18-3.043,0.373-6.315,0.23-9.744
	c3.273,0.387,5.812,3.164,5.812,6.533C373.813,137.073,371.059,139.94,367.588,140.132"/>
<path id="path66" d="M386.797,153.975c-3.641,0-6.6-2.945-6.6-6.579c0-3.635,2.959-6.58,6.6-6.58c3.646,0,6.598,2.945,6.598,6.58
	C393.395,151.029,390.444,153.975,386.797,153.975"/>
<path id="path68" d="M346.605,152.509c-3.648,0-6.599-2.945-6.599-6.58c0-3.634,2.95-6.58,6.599-6.58
	c0.994,0,1.938,0.219,2.782,0.611c-0.149,3.657-0.13,7.572,0.576,11.635C348.98,152.175,347.832,152.509,346.605,152.509"/>
<path id="path70" d="M373.715,158.679c-0.32-0.319-0.641-0.655-0.959-1.009c-1.164-1.292-2.082-2.567-2.801-3.845
	C371.901,154.711,373.338,156.513,373.715,158.679"/>
<path id="path72" d="M346.605,178.2c-3.648,0-6.599-2.945-6.599-6.58c0-3.633,2.95-6.579,6.599-6.579
	c3.646,0,6.599,2.945,6.599,6.579C353.204,175.255,350.251,178.2,346.605,178.2"/>
<path id="path74" d="M308.65,25.409c-3.64,0-6.597-2.945-6.597-6.58c0-3.633,2.957-6.579,6.597-6.579
	c3.648,0,6.601,2.945,6.601,6.579C315.251,22.464,312.299,25.409,308.65,25.409"/>
<path id="path76" d="M289.099,37.84c-3.646,0-6.597-2.945-6.597-6.58c0-3.634,2.952-6.581,6.597-6.581
	c3.646,0,6.599,2.947,6.599,6.581C295.697,34.895,292.745,37.84,289.099,37.84"/>
<path id="path78" d="M268.328,48.968c-3.646,0-6.599-2.945-6.599-6.58c0-3.635,2.953-6.58,6.599-6.58
	c3.646,0,6.599,2.945,6.599,6.58C274.927,46.022,271.975,48.968,268.328,48.968"/>
<path id="path80" d="M248.812,61.42c-3.644,0-6.597-2.945-6.597-6.58c0-3.633,2.953-6.579,6.597-6.579c3.641,0,6.6,2.945,6.6,6.579
	C255.412,58.475,252.453,61.42,248.812,61.42"/>
<path id="path82" d="M308.65,51.172c-3.64,0-6.597-2.945-6.597-6.58c0-3.636,2.957-6.58,6.597-6.58c3.648,0,6.601,2.944,6.601,6.58
	C315.251,48.227,312.299,51.172,308.65,51.172"/>
<path id="path84" d="M289.36,63.969c-3.645,0-6.599-2.945-6.599-6.58c0-3.634,2.954-6.58,6.599-6.58c3.642,0,6.599,2.945,6.599,6.58
	C295.958,61.024,293.001,63.969,289.36,63.969"/>
<path id="path86" d="M268.328,75.761c-3.646,0-6.599-2.945-6.599-6.581c0-3.635,2.953-6.579,6.599-6.579
	c3.646,0,6.599,2.944,6.599,6.579C274.927,72.816,271.975,75.761,268.328,75.761"/>
<path id="path88" d="M248.812,89.171c-3.644,0-6.597-2.945-6.597-6.58s2.953-6.58,6.597-6.58c3.641,0,6.6,2.945,6.6,6.58
	C255.412,86.225,252.453,89.171,248.812,89.171"/>
<path id="path90" d="M308.917,76.934c-3.646,0-6.599-2.945-6.599-6.582c0-3.635,2.953-6.58,6.599-6.58
	c3.647,0,6.599,2.945,6.599,6.58C315.516,73.988,312.564,76.934,308.917,76.934"/>
<path id="path92" d="M289.36,90.1c-3.645,0-6.599-2.945-6.599-6.582c0-3.634,2.954-6.58,6.599-6.58c3.642,0,6.599,2.945,6.599,6.58
	C295.958,87.155,293.001,90.1,289.36,90.1"/>
<path id="path94" d="M268.328,102.553c-3.646,0-6.599-2.945-6.599-6.58c0-3.634,2.953-6.58,6.599-6.58
	c3.646,0,6.599,2.945,6.599,6.58C274.927,99.608,271.975,102.553,268.328,102.553"/>
<path id="path96" d="M248.812,116.921c-3.644,0-6.597-2.945-6.597-6.58s2.953-6.58,6.597-6.58c3.641,0,6.6,2.945,6.6,6.58
	S252.453,116.921,248.812,116.921"/>
<path id="path98" d="M308.917,102.693c-3.646,0-6.599-2.945-6.599-6.58s2.953-6.58,6.599-6.58c3.647,0,6.599,2.945,6.599,6.58
	S312.564,102.693,308.917,102.693"/>
<path id="path100" d="M289.36,116.229c-3.645,0-6.599-2.945-6.599-6.58s2.954-6.58,6.599-6.58c3.642,0,6.599,2.945,6.599,6.58
	S293.001,116.229,289.36,116.229"/>
<path id="path102" d="M268.328,129.345c-3.646,0-6.599-2.945-6.599-6.58c0-3.634,2.953-6.58,6.599-6.58
	c3.646,0,6.599,2.945,6.599,6.58C274.927,126.4,271.975,129.345,268.328,129.345"/>
<path id="path104" d="M248.812,144.672c-3.644,0-6.597-2.945-6.597-6.58c0-3.633,2.953-6.579,6.597-6.579
	c3.641,0,6.6,2.945,6.6,6.579C255.412,141.727,252.453,144.672,248.812,144.672"/>
<path id="path106" d="M308.917,128.456c-3.646,0-6.599-2.947-6.599-6.58c0-3.636,2.953-6.581,6.599-6.581
	c3.647,0,6.599,2.945,6.599,6.581C315.516,125.509,312.564,128.456,308.917,128.456"/>
<path id="path108" d="M289.36,142.359c-3.645,0-6.599-2.945-6.599-6.58s2.954-6.58,6.599-6.58c3.642,0,6.599,2.945,6.599,6.58
	C295.958,139.413,293.001,142.359,289.36,142.359"/>
<path id="path110" d="M268.328,156.139c-3.646,0-6.599-2.947-6.599-6.58c0-3.635,2.953-6.58,6.599-6.58
	c3.646,0,6.599,2.945,6.599,6.58C274.927,153.192,271.975,156.139,268.328,156.139"/>
<path id="path112" d="M308.917,154.216c-3.646,0-6.599-2.944-6.599-6.58c0-3.634,2.953-6.58,6.599-6.58
	c3.647,0,6.599,2.945,6.599,6.58C315.516,151.272,312.564,154.216,308.917,154.216"/>
<path id="path114" d="M289.36,168.489c-3.645,0-6.599-2.945-6.599-6.58c0-3.634,2.954-6.58,6.599-6.58
	c3.642,0,6.599,2.945,6.599,6.58S293.001,168.489,289.36,168.489"/>
<path id="path116" d="M308.917,179.978c-3.646,0-6.599-2.945-6.599-6.58s2.953-6.58,6.599-6.58c3.647,0,6.599,2.945,6.599,6.58
	C315.516,177.032,312.564,179.978,308.917,179.978"/>
<path id="path118" d="M115.604,534.315c-3.641,0-6.599-2.945-6.599-6.578c0-3.637,2.958-6.582,6.599-6.582
	c3.646,0,6.599,2.945,6.599,6.582C122.204,531.37,119.25,534.315,115.604,534.315"/>
<path id="path120" d="M115.604,559.813c-3.641,0-6.599-2.947-6.599-6.58c0-3.635,2.958-6.58,6.599-6.58
	c3.646,0,6.599,2.945,6.599,6.58C122.204,556.866,119.25,559.813,115.604,559.813"/>
<path id="path122" d="M115.604,585.311c-3.641,0-6.599-2.945-6.599-6.58s2.958-6.58,6.599-6.58c3.646,0,6.599,2.945,6.599,6.58
	S119.25,585.311,115.604,585.311"/>
<path id="path124" d="M115.866,610.807c-3.647,0-6.599-2.945-6.599-6.578c0-3.635,2.952-6.58,6.599-6.58
	c3.645,0,6.598,2.945,6.598,6.58C122.464,607.862,119.51,610.807,115.866,610.807"/>
<path id="path126" d="M115.866,636.307c-3.647,0-6.599-2.945-6.599-6.58s2.952-6.58,6.599-6.58c3.645,0,6.598,2.945,6.598,6.58
	S119.51,636.307,115.866,636.307"/>
<path id="path128" d="M115.866,661.803c-3.647,0-6.599-2.945-6.599-6.58c0-3.633,2.952-6.58,6.599-6.58
	c3.645,0,6.598,2.947,6.598,6.58C122.464,658.858,119.51,661.803,115.866,661.803"/>
<path id="path130" d="M115.866,687.301c-3.647,0-6.599-2.945-6.599-6.578c0-3.637,2.952-6.582,6.599-6.582
	c3.645,0,6.598,2.945,6.598,6.582C122.464,684.356,119.51,687.301,115.866,687.301"/>
<path id="path132" d="M115.866,712.799c-3.647,0-6.599-2.945-6.599-6.578c0-3.637,2.952-6.582,6.599-6.582
	c3.645,0,6.598,2.945,6.598,6.582C122.464,709.854,119.51,712.799,115.866,712.799"/>
<path id="path134" d="M133.433,545.204c-3.646,0-6.599-2.945-6.599-6.578c0-3.637,2.953-6.582,6.599-6.582
	c3.646,0,6.599,2.945,6.599,6.582C140.032,542.258,137.079,545.204,133.433,545.204"/>
<path id="path136" d="M154.042,556.305c-3.646,0-6.599-2.945-6.599-6.58s2.952-6.58,6.599-6.58c3.646,0,6.599,2.945,6.599,6.58
	S157.688,556.305,154.042,556.305"/>
<path id="path138" d="M173.625,567.807c-3.647,0-6.598-2.945-6.598-6.58s2.951-6.58,6.598-6.58c3.645,0,6.6,2.945,6.6,6.58
	S177.271,567.807,173.625,567.807"/>
<path id="path140" d="M194.709,580.194c-3.642,0-6.599-2.945-6.599-6.58c0-3.633,2.957-6.578,6.599-6.578
	c3.645,0,6.599,2.945,6.599,6.578C201.308,577.249,198.354,580.194,194.709,580.194"/>
<path id="path142" d="M133.433,570.897c-3.646,0-6.599-2.947-6.599-6.58c0-3.635,2.953-6.58,6.599-6.58
	c3.646,0,6.599,2.945,6.599,6.58C140.032,567.95,137.079,570.897,133.433,570.897"/>
<path id="path144" d="M154.042,582.553c-3.646,0-6.599-2.945-6.599-6.582c0-3.633,2.952-6.578,6.599-6.578
	c3.646,0,6.599,2.945,6.599,6.578C160.641,579.608,157.688,582.553,154.042,582.553"/>
<path id="path146" d="M173.625,594.637c-3.647,0-6.598-2.945-6.598-6.58s2.951-6.58,6.598-6.58c3.645,0,6.6,2.945,6.6,6.58
	S177.271,594.637,173.625,594.637"/>
<path id="path148" d="M194.709,607.997c-3.642,0-6.599-2.945-6.599-6.58s2.957-6.58,6.599-6.58c3.645,0,6.599,2.945,6.599,6.58
	S198.354,607.997,194.709,607.997"/>
<path id="path150" d="M133.433,596.588c-3.646,0-6.599-2.945-6.599-6.58s2.953-6.58,6.599-6.58c3.646,0,6.599,2.945,6.599,6.58
	S137.079,596.588,133.433,596.588"/>
<path id="path152" d="M154.042,608.799c-3.646,0-6.599-2.945-6.599-6.578c0-3.637,2.952-6.582,6.599-6.582
	c3.646,0,6.599,2.945,6.599,6.582C160.641,605.854,157.688,608.799,154.042,608.799"/>
<path id="path154" d="M173.625,621.467c-3.647,0-6.598-2.945-6.598-6.58s2.951-6.58,6.598-6.58c3.645,0,6.6,2.945,6.6,6.58
	S177.271,621.467,173.625,621.467"/>
<path id="path156" d="M194.709,635.795c-3.642,0-6.599-2.943-6.599-6.578s2.957-6.58,6.599-6.58c3.645,0,6.599,2.945,6.599,6.58
	S198.354,635.795,194.709,635.795"/>
<path id="path158" d="M133.688,622.28c-3.641,0-6.598-2.945-6.598-6.582c0-3.633,2.957-6.578,6.598-6.578
	c3.646,0,6.599,2.945,6.599,6.578C140.287,619.334,137.333,622.28,133.688,622.28"/>
<path id="path160" d="M154.303,635.049c-3.647,0-6.599-2.945-6.599-6.582c0-3.633,2.952-6.578,6.599-6.578
	c3.64,0,6.599,2.945,6.599,6.578C160.901,632.104,157.943,635.049,154.303,635.049"/>
<path id="path162" d="M173.887,648.297c-3.646,0-6.599-2.943-6.599-6.578s2.952-6.58,6.599-6.58c3.64,0,6.599,2.945,6.599,6.58
	S177.527,648.297,173.887,648.297"/>
<path id="path164" d="M194.969,663.598c-3.646,0-6.599-2.945-6.599-6.582c0-3.633,2.952-6.578,6.599-6.578
	c3.646,0,6.599,2.945,6.599,6.578C201.568,660.653,198.615,663.598,194.969,663.598"/>
<path id="path166" d="M133.688,647.971c-3.641,0-6.598-2.945-6.598-6.58s2.957-6.58,6.598-6.58c3.646,0,6.599,2.945,6.599,6.58
	S137.333,647.971,133.688,647.971"/>
<path id="path168" d="M154.303,661.295c-3.647,0-6.599-2.943-6.599-6.578c0-3.637,2.952-6.582,6.599-6.582
	c3.64,0,6.599,2.945,6.599,6.582C160.901,658.352,157.943,661.295,154.303,661.295"/>
<path id="path170" d="M173.887,675.127c-3.646,0-6.599-2.945-6.599-6.578c0-3.637,2.952-6.582,6.599-6.582
	c3.64,0,6.599,2.945,6.599,6.582C180.485,672.182,177.527,675.127,173.887,675.127"/>
<path id="path172" d="M133.688,673.663c-3.641,0-6.598-2.945-6.598-6.58s2.957-6.58,6.598-6.58c3.646,0,6.599,2.945,6.599,6.58
	S137.333,673.663,133.688,673.663"/>
<path id="path174" d="M154.303,687.543c-3.647,0-6.599-2.945-6.599-6.578c0-3.637,2.952-6.582,6.599-6.582
	c3.64,0,6.599,2.945,6.599,6.582C160.901,684.598,157.943,687.543,154.303,687.543"/>
<path id="path176" d="M133.688,699.354c-3.641,0-6.598-2.945-6.598-6.578c0-3.637,2.957-6.582,6.598-6.582
	c3.646,0,6.599,2.945,6.599,6.582C140.287,696.409,137.333,699.354,133.688,699.354"/>
<path id="path178" d="M95.74,546.565c-3.645,0-6.598-2.945-6.598-6.58s2.953-6.58,6.598-6.58c3.642,0,6.599,2.945,6.599,6.58
	S99.381,546.565,95.74,546.565"/>
<path id="path180" d="M76.182,558.993c-3.64,0-6.598-2.945-6.598-6.58s2.958-6.58,6.598-6.58c3.647,0,6.599,2.945,6.599,6.58
	S79.829,558.993,76.182,558.993"/>
<path id="path182" d="M55.412,570.124c-3.64,0-6.598-2.945-6.598-6.582c0-3.635,2.958-6.58,6.598-6.58
	c3.647,0,6.599,2.945,6.599,6.58C62.01,567.178,59.059,570.124,55.412,570.124"/>
<path id="path184" d="M35.896,582.573c-3.646,0-6.599-2.945-6.599-6.578c0-3.637,2.953-6.582,6.599-6.582
	c3.647,0,6.599,2.945,6.599,6.582C42.495,579.627,39.543,582.573,35.896,582.573"/>
<path id="path186" d="M95.74,572.325c-3.645,0-6.598-2.945-6.598-6.58s2.953-6.58,6.598-6.58c3.642,0,6.599,2.945,6.599,6.58
	S99.381,572.325,95.74,572.325"/>
<path id="path188" d="M76.443,585.124c-3.646,0-6.598-2.945-6.598-6.58s2.953-6.58,6.598-6.58c3.646,0,6.599,2.945,6.599,6.58
	S80.089,585.124,76.443,585.124"/>
<path id="path190" d="M55.412,596.913c-3.64,0-6.598-2.945-6.598-6.578c0-3.635,2.958-6.58,6.598-6.58
	c3.647,0,6.599,2.945,6.599,6.58C62.01,593.967,59.059,596.913,55.412,596.913"/>
<path id="path192" d="M35.896,610.325c-3.646,0-6.599-2.945-6.599-6.58s2.953-6.58,6.599-6.58c3.647,0,6.599,2.945,6.599,6.58
	S39.543,610.325,35.896,610.325"/>
<path id="path194" d="M96,598.084c-3.646,0-6.599-2.945-6.599-6.578c0-3.635,2.953-6.58,6.599-6.58c3.647,0,6.599,2.945,6.599,6.58
	C102.599,595.139,99.647,598.084,96,598.084"/>
<path id="path196" d="M76.443,611.252c-3.646,0-6.598-2.945-6.598-6.58c0-3.633,2.953-6.578,6.598-6.578
	c3.646,0,6.599,2.945,6.599,6.578C83.042,608.307,80.089,611.252,76.443,611.252"/>
<path id="path198" d="M55.412,623.708c-3.64,0-6.598-2.945-6.598-6.58s2.958-6.58,6.598-6.58c3.647,0,6.599,2.945,6.599,6.58
	S59.059,623.708,55.412,623.708"/>
<path id="path200" d="M35.896,638.075c-3.646,0-6.599-2.945-6.599-6.578c0-3.637,2.953-6.582,6.599-6.582
	c3.647,0,6.599,2.945,6.599,6.582C42.495,635.129,39.543,638.075,35.896,638.075"/>
<path id="path202" d="M96,623.848c-3.646,0-6.599-2.945-6.599-6.58c0-3.637,2.953-6.582,6.599-6.582
	c3.647,0,6.599,2.945,6.599,6.582C102.599,620.903,99.647,623.848,96,623.848"/>
<path id="path204" d="M76.443,637.383c-3.646,0-6.598-2.945-6.598-6.58s2.953-6.58,6.598-6.58c3.646,0,6.599,2.945,6.599,6.58
	S80.089,637.383,76.443,637.383"/>
<path id="path206" d="M55.412,650.5c-3.64,0-6.598-2.945-6.598-6.582c0-3.633,2.958-6.578,6.598-6.578
	c3.647,0,6.599,2.945,6.599,6.578C62.01,647.555,59.059,650.5,55.412,650.5"/>
<path id="path208" d="M35.896,665.827c-3.646,0-6.599-2.945-6.599-6.582c0-3.633,2.953-6.578,6.599-6.578
	c3.647,0,6.599,2.945,6.599,6.578C42.495,662.881,39.543,665.827,35.896,665.827"/>
<path id="path210" d="M96,649.61c-3.646,0-6.599-2.945-6.599-6.582c0-3.633,2.953-6.578,6.599-6.578
	c3.647,0,6.599,2.945,6.599,6.578C102.599,646.665,99.647,649.61,96,649.61"/>
<path id="path212" d="M76.443,663.514c-3.646,0-6.598-2.945-6.598-6.58s2.953-6.58,6.598-6.58c3.646,0,6.599,2.945,6.599,6.58
	S80.089,663.514,76.443,663.514"/>
<path id="path214" d="M55.412,677.292c-3.64,0-6.598-2.945-6.598-6.58s2.958-6.58,6.598-6.58c3.647,0,6.599,2.945,6.599,6.58
	S59.059,677.292,55.412,677.292"/>
<path id="path216" d="M96,675.37c-3.646,0-6.599-2.945-6.599-6.58s2.953-6.58,6.599-6.58c3.647,0,6.599,2.945,6.599,6.58
	S99.647,675.37,96,675.37"/>
<path id="path218" d="M76.443,689.643c-3.646,0-6.598-2.945-6.598-6.58s2.953-6.58,6.598-6.58c3.646,0,6.599,2.945,6.599,6.58
	S80.089,689.643,76.443,689.643"/>
<path id="path220" d="M96,701.131c-3.646,0-6.599-2.945-6.599-6.58s2.953-6.58,6.599-6.58c3.647,0,6.599,2.945,6.599,6.58
	S99.647,701.131,96,701.131"/>
<path id="path222" d="M480.762,266.146c-6.033-6.701-12.094-6.949-20.482-7.293c-9.791-0.397-21.979-0.896-32.996-13.132
	c-11.018-12.236-10.24-24.407-9.611-34.187c0.535-8.377,0.922-14.432-5.111-21.132c-6.094-6.768-12.258-7.051-20.793-7.441
	c-9.754-0.447-21.896-1.003-32.683-12.983c-5.586-6.204-8.088-12.451-9.121-18.384c-0.706-4.063-0.726-7.978-0.576-11.635
	c0.054-1.316,0.13-2.597,0.203-3.841c0.22-3.713,0.412-6.979,0.058-10.04c-0.462-3.969-1.843-7.596-5.284-11.417l0.982-0.885
	l12.689-11.424c1.02,1.132,1.938,2.265,2.768,3.397c1.927,2.63,3.361,5.252,4.421,7.841c1.898,4.633,2.598,9.159,2.775,13.438
	c0.143,3.429-0.051,6.701-0.23,9.744c-0.07,1.163-0.135,2.28-0.182,3.358c-0.225,5.147-0.02,9.444,2.367,13.692
	c0.719,1.278,1.637,2.553,2.801,3.845c0.318,0.354,0.639,0.69,0.959,1.009c5.547,5.505,11.387,5.773,19.303,6.136
	c9.879,0.452,22.174,1.015,33.215,13.279c11.016,12.233,10.238,24.405,9.613,34.184c-0.539,8.378-0.926,14.433,5.109,21.135
	c6.033,6.7,12.096,6.949,20.484,7.293c9.791,0.397,21.977,0.896,32.994,13.132L480.762,266.146"/>
<path id="path224" d="M565.004,694.303l-5.334-9.234l88.947-51.359l5.334,9.238L565.004,694.303"/>
<path id="path226" d="M547.049,663.202l-5.334-9.236l88.949-51.359l5.332,9.24L547.049,663.202"/>
<path id="path228" d="M441.409,737.682c-9.621,0-19.158-1.902-28.006-5.723c0.006-0.111,0.01-0.223,0.01-0.336
	c0-3.352-2.684-6.066-5.992-6.066c-1.387,0-2.662,0.477-3.68,1.275c-3.418-2.186-6.68-4.701-9.736-7.549
	c0.166-0.559,0.258-1.152,0.258-1.768c0-3.348-2.684-6.062-5.992-6.062c-0.463,0-0.914,0.051-1.346,0.152
	c-6.154-7.793-10.381-16.65-12.689-25.961c1.234-1.109,2.014-2.73,2.014-4.535c0-2.551-1.557-4.734-3.76-5.629
	c-0.418-4.268-0.455-8.586-0.113-12.891c2.264-0.867,3.873-3.08,3.873-5.676c0-1.934-0.895-3.656-2.287-4.768
	c3.059-13.576,9.973-26.617,20.699-37.344c8.836-8.836,19.234-15.084,30.217-18.721c-0.004,0.086-0.006,0.172-0.006,0.26
	c0,2.906,2.336,5.262,5.217,5.262c2.883,0,5.219-2.355,5.219-5.262c0-1.014-0.283-1.959-0.775-2.762
	c3.697-0.699,7.422-1.115,11.146-1.248c-1.125,0.967-1.838,2.404-1.838,4.01c0,2.906,2.334,5.262,5.217,5.262
	c2.885,0,5.221-2.355,5.221-5.262c0-1.562-0.676-2.967-1.75-3.93c3.662,0.215,7.301,0.709,10.879,1.48
	c-0.383,0.732-0.6,1.566-0.6,2.449c0,2.906,2.336,5.262,5.219,5.262c2.736,0,4.98-2.123,5.201-4.824
	c6.744,2.535,13.139,6.146,18.926,10.84c-1.188,0.965-1.945,2.441-1.945,4.098c0,2.906,2.336,5.262,5.217,5.262
	c1.764,0,3.322-0.881,4.268-2.232c21.201,23.312,23.43,58.043,7.125,85.311l-50.123-30.877v66.898
	C451.637,737.147,446.512,737.682,441.409,737.682 M407.182,699.928c-3.307,0-5.988,2.717-5.988,6.066s2.682,6.066,5.988,6.066
	c3.311,0,5.992-2.717,5.992-6.066S410.493,699.928,407.182,699.928 M388.038,686.721c-3.311,0-5.992,2.715-5.992,6.064
	c0,3.352,2.682,6.066,5.992,6.066c3.307,0,5.992-2.715,5.992-6.066C394.03,689.436,391.344,686.721,388.038,686.721
	 M407.182,674.303c-3.307,0-5.988,2.715-5.988,6.064c0,3.352,2.682,6.066,5.988,6.066c3.311,0,5.992-2.715,5.992-6.066
	C413.174,677.018,410.493,674.303,407.182,674.303 M388.038,661.989c-3.311,0-5.992,2.715-5.992,6.066s2.682,6.066,5.992,6.066
	c3.307,0,5.992-2.715,5.992-6.066S391.344,661.989,388.038,661.989 M407.182,648.678c-3.307,0-5.988,2.715-5.988,6.062
	c0,3.352,2.682,6.066,5.988,6.066c3.311,0,5.992-2.715,5.992-6.066C413.174,651.393,410.493,648.678,407.182,648.678
	 M388.038,637.256c-3.311,0-5.992,2.715-5.992,6.066s2.682,6.066,5.992,6.066c3.307,0,5.992-2.715,5.992-6.066
	S391.344,637.256,388.038,637.256 M476.456,606.458c-2.883,0-5.219,2.354-5.219,5.26s2.336,5.262,5.219,5.262
	s5.219-2.355,5.219-5.262S479.338,606.458,476.456,606.458 M457.489,606.458c-2.883,0-5.219,2.354-5.219,5.26
	s2.336,5.262,5.219,5.262s5.219-2.355,5.219-5.262S460.372,606.458,457.489,606.458 M438.52,606.458
	c-2.883,0-5.219,2.354-5.219,5.26s2.336,5.262,5.219,5.262c2.881,0,5.217-2.355,5.217-5.262S441.401,606.458,438.52,606.458
	 M419.551,606.458c-2.883,0-5.219,2.354-5.219,5.26s2.336,5.262,5.219,5.262s5.219-2.355,5.219-5.262
	S422.434,606.458,419.551,606.458"/>
<path id="path230" d="M456.694,781.417V669.18l50.123,30.877l41.584,25.619L456.694,781.417"/>
<path id="path232" d="M345.079,280.499v-77.837l61.734,39.18L345.079,280.499"/>
<path id="path234" d="M335.35,618.518c-3.311,0-5.992-2.717-5.992-6.068c0-3.35,2.682-6.064,5.992-6.064
	c3.309,0,5.992,2.715,5.992,6.064C341.342,615.801,338.658,618.518,335.35,618.518"/>
<path id="path236" d="M335.35,642.018c-3.311,0-5.992-2.715-5.992-6.062c0-3.352,2.682-6.066,5.992-6.066
	c3.309,0,5.992,2.715,5.992,6.066C341.342,639.303,338.658,642.018,335.35,642.018"/>
<path id="path238" d="M335.35,665.522c-3.311,0-5.992-2.713-5.992-6.062c0-3.354,2.682-6.066,5.992-6.066
	c3.309,0,5.992,2.713,5.992,6.066C341.342,662.809,338.658,665.522,335.35,665.522"/>
<path id="path240" d="M335.587,689.026c-3.311,0-5.992-2.715-5.992-6.064c0-3.352,2.682-6.066,5.992-6.066
	c3.309,0,5.991,2.715,5.991,6.066C341.578,686.311,338.896,689.026,335.587,689.026"/>
<path id="path242" d="M335.587,712.53c-3.311,0-5.992-2.715-5.992-6.066c0-3.35,2.682-6.064,5.992-6.064
	c3.309,0,5.991,2.715,5.991,6.064C341.578,709.815,338.896,712.53,335.587,712.53"/>
<path id="path244" d="M335.587,736.034c-3.311,0-5.992-2.715-5.992-6.066c0-3.35,2.682-6.064,5.992-6.064
	c3.309,0,5.991,2.715,5.991,6.064C341.578,733.319,338.896,736.034,335.587,736.034"/>
<path id="path246" d="M335.587,759.536c-3.311,0-5.992-2.713-5.992-6.064c0-3.35,2.682-6.066,5.992-6.066
	c3.309,0,5.991,2.717,5.991,6.066C341.578,756.823,338.896,759.536,335.587,759.536"/>
<path id="path248" d="M335.587,783.04c-3.311,0-5.992-2.715-5.992-6.064s2.682-6.066,5.992-6.066c3.309,0,5.991,2.717,5.991,6.066
	C341.579,780.325,338.896,783.04,335.587,783.04"/>
<path id="path250" d="M351.537,628.555c-3.308,0-5.989-2.715-5.989-6.066s2.682-6.066,5.989-6.066c3.31,0,5.992,2.715,5.992,6.066
	S354.847,628.555,351.537,628.555"/>
<path id="path252" d="M370.256,638.788c-3.311,0-5.992-2.715-5.992-6.066c0-3.35,2.682-6.064,5.992-6.064
	c3.309,0,5.992,2.715,5.992,6.064C376.249,636.073,373.565,638.788,370.256,638.788"/>
<path id="path254" d="M388.038,649.389c-3.311,0-5.992-2.715-5.992-6.066s2.682-6.064,5.992-6.064c3.307,0,5.992,2.713,5.992,6.064
	S391.344,649.389,388.038,649.389"/>
<path id="path256" d="M407.182,660.807c-3.307,0-5.988-2.715-5.988-6.066c0-3.348,2.682-6.062,5.988-6.062
	c3.311,0,5.992,2.715,5.992,6.062C413.174,658.092,410.493,660.807,407.182,660.807"/>
<path id="path258" d="M351.537,652.237c-3.308,0-5.989-2.715-5.989-6.066c0-3.35,2.682-6.064,5.989-6.064
	c3.31,0,5.992,2.715,5.992,6.064C357.529,649.522,354.847,652.237,351.537,652.237"/>
<path id="path260" d="M370.256,662.981c-3.311,0-5.992-2.715-5.992-6.066c0-3.35,2.682-6.064,5.992-6.064
	c1.398,0,2.686,0.484,3.705,1.297c1.393,1.111,2.287,2.834,2.287,4.768c0,2.596-1.609,4.809-3.873,5.676
	C371.717,662.842,371.002,662.981,370.256,662.981"/>
<path id="path262" d="M388.038,674.122c-3.311,0-5.992-2.715-5.992-6.066s2.682-6.066,5.992-6.066c3.307,0,5.992,2.715,5.992,6.066
	S391.344,674.122,388.038,674.122"/>
<path id="path264" d="M407.182,686.434c-3.307,0-5.988-2.715-5.988-6.066c0-3.35,2.682-6.064,5.988-6.064
	c3.311,0,5.992,2.715,5.992,6.064C413.174,683.719,410.493,686.434,407.182,686.434"/>
<path id="path266" d="M351.537,675.917c-3.308,0-5.989-2.715-5.989-6.064s2.682-6.064,5.989-6.064c3.31,0,5.992,2.715,5.992,6.064
	S354.847,675.917,351.537,675.917"/>
<path id="path268" d="M370.256,687.176c-3.311,0-5.992-2.715-5.992-6.066c0-3.35,2.682-6.064,5.992-6.064
	c0.789,0,1.543,0.154,2.232,0.436c2.203,0.895,3.76,3.078,3.76,5.629c0,1.805-0.779,3.426-2.014,4.535
	C373.176,686.598,371.782,687.176,370.256,687.176"/>
<path id="path270" d="M388.038,698.852c-3.311,0-5.992-2.715-5.992-6.066c0-3.35,2.682-6.064,5.992-6.064
	c3.307,0,5.992,2.715,5.992,6.064C394.03,696.137,391.344,698.852,388.038,698.852"/>
<path id="path272" d="M407.182,712.061c-3.307,0-5.988-2.717-5.988-6.066s2.682-6.066,5.988-6.066c3.311,0,5.992,2.717,5.992,6.066
	S410.493,712.061,407.182,712.061"/>
<path id="path274" d="M351.774,699.6c-3.312,0-5.992-2.715-5.992-6.064s2.681-6.066,5.992-6.066c3.309,0,5.992,2.717,5.992,6.066
	S355.083,699.6,351.774,699.6"/>
<path id="path276" d="M370.491,711.372c-3.312,0-5.992-2.715-5.992-6.066s2.68-6.066,5.992-6.066c3.309,0,5.992,2.715,5.992,6.066
	S373.799,711.372,370.491,711.372"/>
<path id="path278" d="M388.27,723.584c-3.311,0-5.992-2.715-5.992-6.068c0-2.881,1.984-5.293,4.646-5.91
	c0.432-0.102,0.883-0.152,1.346-0.152c3.309,0,5.992,2.715,5.992,6.062c0,0.615-0.092,1.209-0.258,1.768
	C393.258,721.774,390.971,723.584,388.27,723.584"/>
<path id="path280" d="M407.42,737.686c-3.311,0-5.992-2.715-5.992-6.062c0-1.949,0.904-3.682,2.312-4.791
	c1.018-0.799,2.293-1.275,3.68-1.275c3.309,0,5.992,2.715,5.992,6.066c0,0.113-0.004,0.225-0.01,0.336
	C413.229,735.153,410.618,737.686,407.42,737.686"/>
<path id="path282" d="M351.774,723.282c-3.312,0-5.992-2.713-5.992-6.064s2.681-6.066,5.992-6.066c3.309,0,5.992,2.715,5.992,6.066
	S355.083,723.282,351.774,723.282"/>
<path id="path284" d="M370.491,735.565c-3.312,0-5.992-2.715-5.992-6.064c0-3.352,2.68-6.066,5.992-6.066
	c3.309,0,5.992,2.715,5.992,6.066C376.483,732.85,373.799,735.565,370.491,735.565"/>
<path id="path286" d="M388.27,748.317c-3.311,0-5.992-2.715-5.992-6.068c0-3.35,2.682-6.062,5.992-6.062
	c3.309,0,5.992,2.713,5.992,6.062C394.262,745.602,391.579,748.317,388.27,748.317"/>
<path id="path288" d="M351.774,746.963c-3.312,0-5.992-2.715-5.992-6.064c0-3.352,2.681-6.066,5.992-6.066
	c3.309,0,5.992,2.715,5.992,6.066C357.767,744.249,355.083,746.963,351.774,746.963"/>
<path id="path290" d="M370.491,759.76c-3.312,0-5.992-2.715-5.992-6.066c0-3.35,2.68-6.064,5.992-6.064
	c3.309,0,5.992,2.715,5.992,6.064C376.483,757.045,373.799,759.76,370.491,759.76"/>
<path id="path292" d="M351.774,770.645c-3.312,0-5.992-2.713-5.992-6.064c0-3.35,2.681-6.066,5.992-6.066
	c3.309,0,5.992,2.717,5.992,6.066C357.767,767.932,355.083,770.645,351.774,770.645"/>
<path id="path294" d="M317.312,629.807c-3.307,0-5.99-2.715-5.99-6.064c0-3.352,2.684-6.064,5.99-6.064
	c3.312,0,5.994,2.713,5.994,6.064C323.306,627.092,320.623,629.807,317.312,629.807"/>
<path id="path296" d="M299.552,641.264c-3.307,0-5.989-2.715-5.989-6.066c0-3.35,2.683-6.066,5.989-6.066
	c3.312,0,5.992,2.717,5.992,6.066C305.544,638.549,302.864,641.264,299.552,641.264"/>
<path id="path298" d="M280.695,651.522c-3.308,0-5.991-2.715-5.991-6.064c0-3.352,2.683-6.066,5.991-6.066
	c3.312,0,5.993,2.715,5.993,6.066C286.688,648.807,284.007,651.522,280.695,651.522"/>
<path id="path300" d="M262.972,663c-3.31,0-5.992-2.715-5.992-6.066c0-3.35,2.683-6.064,5.992-6.064
	c3.311,0,5.992,2.715,5.992,6.064C268.964,660.286,266.283,663,262.972,663"/>
<path id="path302" d="M317.312,653.553c-3.307,0-5.99-2.715-5.99-6.064c0-3.354,2.684-6.066,5.99-6.066
	c3.312,0,5.994,2.713,5.994,6.066C323.306,650.838,320.623,653.553,317.312,653.553"/>
<path id="path304" d="M299.789,665.35c-3.309,0-5.992-2.715-5.992-6.064c0-3.352,2.683-6.064,5.992-6.064
	c3.311,0,5.992,2.713,5.992,6.064C305.781,662.635,303.1,665.35,299.789,665.35"/>
<path id="path306" d="M280.695,676.221c-3.308,0-5.991-2.717-5.991-6.068c0-3.35,2.683-6.064,5.991-6.064
	c3.312,0,5.993,2.715,5.993,6.064C286.688,673.504,284.007,676.221,280.695,676.221"/>
<path id="path308" d="M262.972,688.581c-3.31,0-5.992-2.715-5.992-6.064c0-3.352,2.683-6.066,5.992-6.066
	c3.311,0,5.992,2.715,5.992,6.066C268.964,685.866,266.283,688.581,262.972,688.581"/>
<path id="path310" d="M317.547,677.299c-3.31,0-5.991-2.715-5.991-6.064c0-3.352,2.682-6.066,5.991-6.066
	c3.312,0,5.992,2.715,5.992,6.066C323.539,674.584,320.858,677.299,317.547,677.299"/>
<path id="path312" d="M299.789,689.436c-3.309,0-5.992-2.715-5.992-6.064c0-3.352,2.683-6.066,5.992-6.066
	c3.311,0,5.992,2.715,5.992,6.066C305.781,686.721,303.1,689.436,299.789,689.436"/>
<path id="path314" d="M280.695,700.917c-3.308,0-5.991-2.715-5.991-6.066c0-3.35,2.683-6.064,5.991-6.064
	c3.312,0,5.993,2.715,5.993,6.064C286.688,698.202,284.007,700.917,280.695,700.917"/>
<path id="path316" d="M262.972,714.161c-3.31,0-5.992-2.713-5.992-6.066c0-3.35,2.683-6.064,5.992-6.064
	c3.311,0,5.992,2.715,5.992,6.064C268.964,711.448,266.283,714.161,262.972,714.161"/>
<path id="path318" d="M317.547,701.045c-3.31,0-5.991-2.715-5.991-6.064c0-3.352,2.682-6.066,5.991-6.066
	c3.312,0,5.992,2.715,5.992,6.066C323.539,698.331,320.858,701.045,317.547,701.045"/>
<path id="path320" d="M299.789,713.522c-3.309,0-5.992-2.715-5.992-6.064c0-3.352,2.683-6.064,5.992-6.064
	c3.311,0,5.992,2.713,5.992,6.064C305.781,710.807,303.1,713.522,299.789,713.522"/>
<path id="path322" d="M280.695,725.614c-3.308,0-5.991-2.715-5.991-6.066s2.683-6.066,5.991-6.066c3.312,0,5.993,2.715,5.993,6.066
	S284.007,725.614,280.695,725.614"/>
<path id="path324" d="M262.972,739.741c-3.31,0-5.992-2.715-5.992-6.064c0-3.352,2.683-6.066,5.992-6.066
	c3.311,0,5.992,2.715,5.992,6.066C268.964,737.026,266.283,739.741,262.972,739.741"/>
<path id="path326" d="M317.547,724.792c-3.31,0-5.991-2.715-5.991-6.064c0-3.352,2.682-6.066,5.991-6.066
	c3.312,0,5.992,2.715,5.992,6.066C323.539,722.077,320.858,724.792,317.547,724.792"/>
<path id="path328" d="M299.789,737.608c-3.309,0-5.992-2.715-5.992-6.064c0-3.352,2.683-6.066,5.992-6.066
	c3.311,0,5.992,2.715,5.992,6.066C305.781,734.893,303.1,737.608,299.789,737.608"/>
<path id="path330" d="M280.695,750.309c-3.308,0-5.991-2.715-5.991-6.064c0-3.352,2.683-6.066,5.991-6.066
	c3.312,0,5.993,2.715,5.993,6.066C286.688,747.594,284.007,750.309,280.695,750.309"/>
<path id="path332" d="M317.547,748.538c-3.31,0-5.991-2.715-5.991-6.066c0-3.348,2.682-6.062,5.991-6.062
	c3.312,0,5.992,2.715,5.992,6.062C323.539,745.823,320.858,748.538,317.547,748.538"/>
<path id="path334" d="M299.789,761.694c-3.309,0-5.992-2.715-5.992-6.066c0-3.35,2.683-6.062,5.992-6.062
	c3.311,0,5.992,2.713,5.992,6.062C305.781,758.979,303.1,761.694,299.789,761.694"/>
<path id="path336" d="M317.547,772.284c-3.31,0-5.991-2.713-5.991-6.064s2.682-6.066,5.991-6.066c3.312,0,5.992,2.715,5.992,6.066
	S320.858,772.284,317.547,772.284"/>
<path id="path338" d="M552.329,616.979c-2.883,0-5.219-2.355-5.219-5.262s2.336-5.26,5.219-5.26s5.219,2.355,5.219,5.26
	C557.547,614.624,555.211,616.979,552.329,616.979"/>
<path id="path340" d="M543.899,601.604c-2.883,0-5.219-2.355-5.219-5.262c0-2.904,2.336-5.262,5.219-5.262s5.219,2.357,5.219,5.262
	C549.118,599.249,546.782,601.604,543.899,601.604"/>
<path id="path342" d="M533.362,586.241c-2.883,0-5.219-2.357-5.219-5.264c0-2.904,2.336-5.26,5.219-5.26s5.219,2.355,5.219,5.26
	C538.581,583.883,536.245,586.241,533.362,586.241"/>
<path id="path344" d="M533.362,616.979c-2.883,0-5.219-2.355-5.219-5.262s2.336-5.26,5.219-5.26s5.219,2.355,5.219,5.26
	C538.581,614.624,536.245,616.979,533.362,616.979"/>
<path id="path346" d="M525.333,570.854c-2.883,0-5.219-2.355-5.219-5.26c0-2.896,2.336-5.252,5.219-5.252s5.219,2.355,5.219,5.252
	C530.551,568.499,528.215,570.854,525.333,570.854"/>
<path id="path348" d="M524.93,601.604c-2.883,0-5.219-2.355-5.219-5.262c0-2.904,2.336-5.262,5.219-5.262s5.219,2.357,5.219,5.262
	C530.149,599.249,527.813,601.604,524.93,601.604"/>
<path id="path350" d="M516.901,555.489c-2.883,0-5.219-2.355-5.219-5.262c0-2.904,2.336-5.26,5.219-5.26s5.219,2.355,5.219,5.26
	C522.12,553.133,519.784,555.489,516.901,555.489"/>
<path id="path352" d="M514.393,586.241c-2.883,0-5.219-2.357-5.219-5.264c0-2.904,2.336-5.26,5.219-5.26s5.219,2.355,5.219,5.26
	C519.612,583.883,517.276,586.241,514.393,586.241"/>
<path id="path354" d="M506.364,540.114c-2.883,0-5.219-2.355-5.219-5.262c0-2.904,2.336-5.26,5.219-5.26s5.219,2.355,5.219,5.26
	C511.583,537.758,509.247,540.114,506.364,540.114"/>
<path id="path356" d="M514.393,616.979c-2.883,0-5.219-2.355-5.219-5.262s2.336-5.26,5.219-5.26s5.219,2.355,5.219,5.26
	C519.612,614.624,517.276,616.979,514.393,616.979"/>
<path id="path358" d="M506.364,570.854c-2.883,0-5.219-2.355-5.219-5.26c0-2.896,2.336-5.252,5.219-5.252s5.219,2.355,5.219,5.252
	C511.583,568.499,509.247,570.854,506.364,570.854"/>
<path id="path360" d="M505.963,601.604c-2.883,0-5.219-2.355-5.219-5.262c0-2.904,2.336-5.262,5.219-5.262s5.219,2.357,5.219,5.262
	C511.182,599.249,508.846,601.604,505.963,601.604"/>
<path id="path362" d="M497.934,555.489c-2.883,0-5.219-2.355-5.219-5.262c0-2.904,2.336-5.26,5.219-5.26s5.219,2.355,5.219,5.26
	C503.153,553.133,500.817,555.489,497.934,555.489"/>
<path id="path364" d="M495.424,586.241c-2.881,0-5.217-2.357-5.217-5.264c0-2.904,2.336-5.26,5.217-5.26
	c2.883,0,5.219,2.355,5.219,5.26C500.643,583.883,498.307,586.241,495.424,586.241"/>
<path id="path366" d="M487.395,540.114c-2.883,0-5.219-2.355-5.219-5.262c0-2.904,2.336-5.26,5.219-5.26s5.219,2.355,5.219,5.26
	C492.614,537.758,490.278,540.114,487.395,540.114"/>
<path id="path368" d="M495.424,616.979c-2.881,0-5.217-2.355-5.217-5.262c0-1.656,0.758-3.133,1.945-4.098
	c0.895-0.729,2.033-1.162,3.271-1.162c2.883,0,5.219,2.355,5.219,5.26c0,1.129-0.352,2.174-0.951,3.029
	C498.747,616.098,497.188,616.979,495.424,616.979"/>
<path id="path370" d="M487.395,570.854c-2.883,0-5.219-2.355-5.219-5.26c0-2.896,2.336-5.252,5.219-5.252s5.219,2.355,5.219,5.252
	C492.614,568.499,490.278,570.854,487.395,570.854"/>
<path id="path372" d="M486.995,601.604c-2.883,0-5.219-2.355-5.219-5.262c0-2.904,2.336-5.262,5.219-5.262s5.219,2.357,5.219,5.262
	C492.213,599.249,489.877,601.604,486.995,601.604"/>
<path id="path374" d="M478.965,555.489c-2.883,0-5.219-2.355-5.219-5.262c0-2.904,2.336-5.26,5.219-5.26s5.219,2.355,5.219,5.26
	C484.184,553.133,481.848,555.489,478.965,555.489"/>
<path id="path376" d="M476.456,586.241c-2.883,0-5.219-2.357-5.219-5.264c0-2.904,2.336-5.26,5.219-5.26s5.219,2.355,5.219,5.26
	C481.674,583.883,479.338,586.241,476.456,586.241"/>
<path id="path378" d="M468.428,540.114c-2.883,0-5.219-2.355-5.219-5.262c0-2.904,2.336-5.26,5.219-5.26s5.219,2.355,5.219,5.26
	C473.647,537.758,471.311,540.114,468.428,540.114"/>
<path id="path380" d="M476.456,616.979c-2.883,0-5.219-2.355-5.219-5.262s2.336-5.26,5.219-5.26s5.219,2.355,5.219,5.26
	C481.674,614.624,479.338,616.979,476.456,616.979"/>
<path id="path382" d="M468.428,570.854c-2.883,0-5.219-2.355-5.219-5.26c0-2.896,2.336-5.252,5.219-5.252s5.219,2.355,5.219,5.252
	C473.647,568.499,471.311,570.854,468.428,570.854"/>
<path id="path384" d="M468.026,601.604c-2.883,0-5.219-2.355-5.219-5.262c0-0.883,0.217-1.717,0.6-2.449
	c0.873-1.672,2.615-2.812,4.619-2.812c2.883,0,5.219,2.357,5.219,5.262c0,0.146-0.006,0.293-0.018,0.438
	C473.006,599.481,470.762,601.604,468.026,601.604"/>
<path id="path386" d="M459.997,555.489c-2.883,0-5.219-2.355-5.219-5.262c0-2.904,2.336-5.26,5.219-5.26s5.219,2.355,5.219,5.26
	C465.215,553.133,462.879,555.489,459.997,555.489"/>
<path id="path388" d="M457.489,586.241c-2.883,0-5.219-2.357-5.219-5.264c0-2.904,2.336-5.26,5.219-5.26s5.219,2.355,5.219,5.26
	C462.708,583.883,460.372,586.241,457.489,586.241"/>
<path id="path390" d="M457.489,616.979c-2.883,0-5.219-2.355-5.219-5.262s2.336-5.26,5.219-5.26s5.219,2.355,5.219,5.26
	C462.708,614.624,460.372,616.979,457.489,616.979"/>
<path id="path392" d="M449.459,570.854c-2.883,0-5.219-2.355-5.219-5.26c0-2.896,2.336-5.252,5.219-5.252s5.219,2.355,5.219,5.252
	C454.678,568.499,452.34,570.854,449.459,570.854"/>
<path id="path394" d="M449.057,601.604c-2.883,0-5.217-2.355-5.217-5.262c0-1.605,0.713-3.043,1.838-4.01
	c0.91-0.779,2.09-1.252,3.379-1.252c1.334,0,2.549,0.504,3.471,1.332c1.074,0.963,1.75,2.367,1.75,3.93
	C454.278,599.249,451.942,601.604,449.057,601.604"/>
<path id="path396" d="M438.52,586.241c-2.883,0-5.219-2.357-5.219-5.264c0-2.904,2.336-5.26,5.219-5.26
	c2.881,0,5.217,2.355,5.217,5.26C443.737,583.883,441.401,586.241,438.52,586.241"/>
<path id="path398" d="M438.52,616.979c-2.883,0-5.219-2.355-5.219-5.262s2.336-5.26,5.219-5.26c2.881,0,5.217,2.355,5.217,5.26
	C443.737,614.624,441.401,616.979,438.52,616.979"/>
<path id="path400" d="M430.088,601.604c-2.881,0-5.217-2.355-5.217-5.262c0-0.088,0.002-0.174,0.006-0.26
	c0.133-2.783,2.414-5.002,5.211-5.002c1.879,0,3.525,1,4.443,2.5c0.492,0.803,0.775,1.748,0.775,2.762
	c0,2.906-2.336,5.262-5.217,5.262"/>
<path id="path402" d="M419.551,616.979c-2.883,0-5.219-2.355-5.219-5.262s2.336-5.26,5.219-5.26s5.219,2.355,5.219,5.26
	C424.77,614.624,422.434,616.979,419.551,616.979"/>
<path id="path404" d="M495.926,524.739c-2.883,0-5.219-2.355-5.219-5.25c0-2.906,2.336-5.262,5.219-5.262s5.219,2.355,5.219,5.262
	C501.145,522.383,498.809,524.739,495.926,524.739"/>
<path id="path406" d="M487.497,509.364c-2.883,0-5.219-2.354-5.219-5.262c0-2.904,2.336-5.26,5.219-5.26s5.219,2.355,5.219,5.26
	C492.715,507.01,490.379,509.364,487.497,509.364"/>
<path id="path408" d="M476.958,524.739c-2.883,0-5.219-2.355-5.219-5.25c0-2.906,2.336-5.262,5.219-5.262s5.219,2.355,5.219,5.262
	C482.176,522.383,479.84,524.739,476.958,524.739"/>
<path id="path410" d="M252.085,372l-60.209-34.761v-73.613l63.75-36.806l63.752,36.806v73.613l-49.555,28.609
	c2.22-10.444-1.883-17.439-5.2-23.093c-3.003-5.119-5.171-8.819-3.615-15.063l-12.187-3.04c-2.821,11.317,1.504,18.692,4.98,24.616
	c2.945,5.024,5.073,8.652,3.583,14.633C256.424,367.757,254.593,370.044,252.085,372"/>
<path id="path412" d="M149.86,428.176l17.352-69.588l51.979,50.166L149.86,428.176"/>
<path id="path414" d="M132.24,498.854l17.352-69.588l51.979,50.166L132.24,498.854"/>
<path id="path416" d="M278.057,405.374c-0.174,0-0.349-0.008-0.526-0.023c-3.271-0.286-5.708-3.178-5.416-6.459
	c0.267-3.104,2.873-5.447,5.922-5.447c0.175,0,0.35,0.008,0.525,0.023c3.292,0.286,5.72,3.18,5.439,6.461
	C283.724,403.034,281.116,405.374,278.057,405.374"/>
<path id="path418" d="M294.602,416.489c-0.175,0-0.351-0.008-0.528-0.023c-3.281-0.284-5.708-3.178-5.427-6.459
	c0.276-3.105,2.875-5.445,5.932-5.445c0.175,0,0.35,0.008,0.527,0.023c3.281,0.287,5.719,3.18,5.427,6.461
	C300.266,414.149,297.658,416.489,294.602,416.489"/>
<path id="path420" d="M310.906,430.004c-0.176,0-0.353-0.008-0.531-0.023c-3.28-0.287-5.708-3.178-5.416-6.459
	c0.275-3.104,2.872-5.443,5.929-5.443c0.175,0,0.353,0.007,0.529,0.023c3.291,0.287,5.719,3.178,5.427,6.459
	C316.568,427.665,313.972,430.004,310.906,430.004"/>
<path id="path422" d="M276.173,426.967c-0.175,0-0.351-0.008-0.528-0.023c-3.271-0.287-5.708-3.178-5.416-6.46
	c0.276-3.103,2.882-5.444,5.931-5.444c0.174,0,0.351,0.008,0.528,0.024c3.281,0.285,5.719,3.177,5.428,6.458
	C281.839,424.627,279.232,426.967,276.173,426.967"/>
<path id="path424" d="M327.478,440.665c-0.175,0-0.353-0.008-0.529-0.023c-3.281-0.285-5.708-3.178-5.416-6.459
	c0.267-3.104,2.873-5.445,5.932-5.445c0.175,0,0.35,0.008,0.526,0.023c3.28,0.287,5.697,3.182,5.416,6.463
	C333.131,438.325,330.534,440.665,327.478,440.665"/>
<path id="path426" d="M292.707,438.083c-0.174,0-0.352-0.006-0.529-0.023c-3.28-0.285-5.708-3.178-5.416-6.459
	c0.266-3.105,2.872-5.445,5.931-5.445c0.175,0,0.351,0.008,0.528,0.023c3.282,0.287,5.708,3.18,5.427,6.461
	C298.371,435.745,295.764,438.083,292.707,438.083"/>
<path id="path428" d="M344.01,451.782c-0.175,0-0.353-0.008-0.529-0.023c-3.291-0.287-5.721-3.178-5.427-6.459
	c0.265-3.104,2.861-5.445,5.927-5.445c0.176,0,0.353,0.008,0.53,0.023c3.281,0.287,5.709,3.18,5.428,6.461
	C349.663,449.442,347.066,451.782,344.01,451.782"/>
<path id="path430" d="M309.011,451.6c-0.176,0-0.354-0.008-0.532-0.023c-3.28-0.287-5.697-3.178-5.416-6.459
	c0.276-3.104,2.873-5.445,5.93-5.445c0.175,0,0.352,0.008,0.529,0.021c3.29,0.289,5.719,3.182,5.427,6.463
	C314.683,449.26,312.077,451.6,309.011,451.6"/>
<path id="path432" d="M360.326,465.299c-0.173,0-0.348-0.008-0.523-0.021c-3.281-0.285-5.719-3.18-5.427-6.461
	c0.274-3.105,2.883-5.445,5.941-5.445c0.175,0,0.35,0.008,0.525,0.023c3.271,0.287,5.701,3.178,5.408,6.459
	C365.975,462.959,363.375,465.299,360.326,465.299"/>
<path id="path434" d="M274.279,448.563c-0.176,0-0.351-0.008-0.528-0.023c-3.272-0.289-5.697-3.18-5.416-6.461
	c0.276-3.104,2.881-5.443,5.93-5.443c0.174,0,0.351,0.006,0.528,0.021c3.281,0.287,5.719,3.18,5.428,6.463
	C279.953,446.223,277.337,448.563,274.279,448.563"/>
<path id="path436" d="M325.58,462.26c-0.175,0-0.351-0.008-0.528-0.023c-3.281-0.285-5.708-3.178-5.416-6.459
	c0.276-3.105,2.876-5.447,5.934-5.447c0.175,0,0.35,0.008,0.525,0.023c3.28,0.287,5.708,3.182,5.416,6.463
	C331.234,459.92,328.638,462.26,325.58,462.26"/>
<path id="path438" d="M290.81,459.678c-0.175,0-0.351-0.008-0.528-0.023c-3.28-0.287-5.697-3.18-5.416-6.461
	c0.276-3.104,2.875-5.445,5.934-5.445c0.173,0,0.348,0.008,0.525,0.023c3.281,0.287,5.718,3.182,5.426,6.463
	C296.485,457.338,293.869,459.678,290.81,459.678"/>
<path id="path440" d="M342.11,473.377c-0.175,0-0.349-0.008-0.526-0.023c-3.291-0.287-5.719-3.18-5.427-6.461
	c0.266-3.104,2.871-5.445,5.938-5.445c0.176,0,0.352,0.008,0.53,0.023c3.28,0.287,5.699,3.18,5.418,6.461
	C347.766,471.036,345.169,473.377,342.11,473.377"/>
<path id="path442" d="M307.125,473.194c-0.176,0-0.354-0.008-0.531-0.023c-3.28-0.287-5.708-3.178-5.416-6.459
	c0.267-3.105,2.871-5.445,5.929-5.445c0.176,0,0.353,0.008,0.529,0.023c3.291,0.287,5.708,3.178,5.427,6.459
	C312.786,470.854,310.19,473.194,307.125,473.194"/>
<path id="path444" d="M358.444,486.895c-0.175,0-0.35-0.008-0.527-0.023c-3.281-0.287-5.708-3.182-5.427-6.463
	c0.275-3.104,2.882-5.441,5.939-5.441c0.174,0,0.351,0.006,0.527,0.021c3.27,0.287,5.7,3.18,5.409,6.461
	C364.098,484.555,361.493,486.895,358.444,486.895"/>
<path id="path446" d="M272.392,470.157c-0.175,0-0.351-0.008-0.527-0.025c-3.272-0.285-5.709-3.176-5.417-6.457
	c0.267-3.105,2.881-5.445,5.931-5.445c0.175,0,0.351,0.008,0.528,0.021c3.281,0.287,5.708,3.18,5.428,6.461
	C278.057,467.817,275.451,470.157,272.392,470.157"/>
<path id="path448" d="M323.696,483.854c-0.175,0-0.351-0.008-0.529-0.023c-3.281-0.285-5.697-3.178-5.416-6.459
	c0.275-3.105,2.873-5.445,5.932-5.445c0.175,0,0.35,0.008,0.526,0.023c3.28,0.287,5.708,3.18,5.416,6.461
	C329.358,481.514,326.755,483.854,323.696,483.854"/>
<path id="path450" d="M288.936,481.272c-0.175,0-0.352-0.008-0.529-0.023c-3.281-0.285-5.708-3.178-5.427-6.459
	c0.276-3.104,2.874-5.445,5.931-5.445c0.175,0,0.351,0.008,0.528,0.021c3.282,0.289,5.719,3.182,5.427,6.463
	C294.599,478.932,291.993,481.272,288.936,481.272"/>
<path id="path452" d="M340.216,494.971c-0.175,0-0.351-0.008-0.528-0.023c-3.29-0.287-5.707-3.178-5.426-6.459
	c0.275-3.105,2.873-5.445,5.939-5.445c0.175,0,0.353,0.008,0.529,0.023c3.279,0.287,5.708,3.178,5.416,6.459
	C345.88,492.631,343.274,494.971,340.216,494.971"/>
<path id="path454" d="M305.227,494.788c-0.175,0-0.351-0.006-0.528-0.021c-3.281-0.287-5.709-3.18-5.416-6.461
	c0.275-3.104,2.874-5.445,5.931-5.445c0.175,0,0.35,0.008,0.527,0.023c3.292,0.287,5.719,3.18,5.428,6.461
	C310.891,492.448,308.293,494.788,305.227,494.788"/>
<path id="path456" d="M356.556,508.489c-0.173,0-0.348-0.008-0.523-0.023c-3.281-0.285-5.719-3.178-5.427-6.459
	c0.266-3.105,2.881-5.447,5.942-5.447c0.174,0,0.35,0.01,0.525,0.023c3.27,0.287,5.689,3.18,5.408,6.461
	C362.204,506.149,359.605,508.489,356.556,508.489"/>
<path id="path458" d="M270.495,491.75c-0.175,0-0.349-0.008-0.525-0.021c-3.272-0.287-5.709-3.18-5.416-6.461
	c0.276-3.104,2.883-5.447,5.932-5.447c0.173,0,0.349,0.008,0.525,0.025c3.281,0.285,5.719,3.178,5.428,6.459
	C276.161,489.411,273.553,491.75,270.495,491.75"/>
<path id="path460" d="M321.81,505.45c-0.175,0-0.351-0.008-0.528-0.023c-3.281-0.287-5.708-3.18-5.416-6.461
	c0.267-3.104,2.873-5.445,5.934-5.445c0.173,0,0.35,0.008,0.525,0.023c3.279,0.287,5.697,3.18,5.416,6.461
	C327.464,503.11,324.866,505.45,321.81,505.45"/>
<path id="path462" d="M287.04,502.866c-0.175,0-0.352-0.008-0.529-0.023c-3.28-0.285-5.708-3.178-5.416-6.459
	c0.265-3.105,2.872-5.445,5.931-5.445c0.175,0,0.351,0.008,0.528,0.023c3.281,0.287,5.708,3.18,5.427,6.461
	C292.704,500.526,290.097,502.866,287.04,502.866"/>
<path id="path464" d="M338.329,516.565c-0.175,0-0.351-0.006-0.526-0.021c-3.291-0.289-5.719-3.18-5.427-6.461
	c0.266-3.104,2.862-5.445,5.93-5.445c0.175,0,0.351,0.006,0.529,0.023c3.281,0.287,5.708,3.18,5.427,6.461
	C343.985,514.225,341.387,516.565,338.329,516.565"/>
<path id="path466" d="M303.344,516.383c-0.176,0-0.354-0.008-0.532-0.025c-3.279-0.285-5.695-3.178-5.416-6.457
	c0.276-3.105,2.874-5.445,5.929-5.445c0.175,0,0.353,0.008,0.529,0.021c3.291,0.289,5.719,3.18,5.427,6.461
	C309.015,514.042,306.41,516.383,303.344,516.383"/>
<path id="path468" d="M354.66,530.083c-0.174,0-0.349-0.008-0.524-0.023c-3.281-0.285-5.708-3.18-5.427-6.461
	c0.275-3.104,2.883-5.445,5.941-5.445c0.175,0,0.35,0.008,0.525,0.025c3.271,0.285,5.7,3.178,5.408,6.459
	C360.317,527.743,357.711,530.083,354.66,530.083"/>
<path id="path470" d="M268.611,513.344c-0.175,0-0.35-0.008-0.527-0.023c-3.272-0.285-5.697-3.178-5.416-6.459
	c0.275-3.104,2.881-5.445,5.929-5.445c0.175,0,0.351,0.008,0.528,0.023c3.281,0.287,5.718,3.18,5.428,6.461
	C274.287,511.004,271.67,513.344,268.611,513.344"/>
<path id="path472" d="M319.913,527.043c-0.175,0-0.351-0.008-0.527-0.025c-3.282-0.283-5.698-3.176-5.416-6.459
	c0.275-3.104,2.874-5.445,5.933-5.445c0.175,0,0.35,0.008,0.525,0.021c3.28,0.289,5.708,3.182,5.416,6.463
	C325.577,524.704,322.972,527.043,319.913,527.043"/>
<path id="path474" d="M285.143,524.459c-0.175,0-0.351-0.006-0.528-0.021c-3.28-0.285-5.697-3.18-5.416-6.461
	c0.276-3.104,2.875-5.443,5.933-5.443c0.173,0,0.348,0.006,0.525,0.021c3.281,0.289,5.719,3.182,5.427,6.463
	C290.817,522.122,288.203,524.459,285.143,524.459"/>
<path id="path476" d="M336.444,538.161c-0.175,0-0.351-0.008-0.527-0.025c-3.29-0.285-5.719-3.176-5.427-6.457
	c0.266-3.105,2.872-5.447,5.94-5.447c0.175,0,0.352,0.008,0.529,0.021c3.28,0.289,5.697,3.182,5.416,6.463
	C342.099,535.821,339.501,538.161,336.444,538.161"/>
<path id="path478" d="M301.456,537.977c-0.175,0-0.351-0.008-0.529-0.021c-3.28-0.289-5.708-3.18-5.416-6.461
	c0.267-3.104,2.873-5.447,5.932-5.447c0.174,0,0.35,0.008,0.527,0.023c3.29,0.287,5.708,3.18,5.426,6.461
	C307.12,535.635,304.522,537.977,301.456,537.977"/>
<path id="path480" d="M266.724,534.94c-0.175,0-0.35-0.008-0.525-0.023c-3.272-0.289-5.709-3.178-5.416-6.459
	c0.265-3.105,2.881-5.447,5.932-5.447c0.173,0,0.349,0.008,0.525,0.023c3.281,0.287,5.708,3.18,5.428,6.461
	C272.391,532.598,269.783,534.94,266.724,534.94"/>
<path id="path482" d="M318.028,548.637c-0.175,0-0.351-0.008-0.528-0.023c-3.281-0.285-5.708-3.178-5.427-6.459
	c0.276-3.105,2.875-5.447,5.934-5.447c0.175,0,0.35,0.008,0.525,0.025c3.281,0.285,5.708,3.18,5.416,6.461
	C323.682,546.297,321.085,548.637,318.028,548.637"/>
<path id="path484" d="M283.257,546.055c-0.175,0-0.351-0.008-0.528-0.023c-3.28-0.287-5.708-3.178-5.416-6.459
	c0.265-3.105,2.864-5.445,5.922-5.445c0.173,0,0.35,0.008,0.525,0.021c3.281,0.289,5.719,3.182,5.438,6.463
	C288.923,543.715,286.316,546.055,283.257,546.055"/>
<path id="path486" d="M299.562,559.571c-0.176,0-0.353-0.006-0.529-0.023c-3.28-0.285-5.698-3.178-5.416-6.459
	c0.274-3.104,2.872-5.447,5.931-5.447c0.175,0,0.349,0.008,0.526,0.023c3.292,0.289,5.719,3.182,5.428,6.463
	C305.234,557.231,302.628,559.571,299.562,559.571"/>
<path id="path488" d="M264.828,556.534c-0.175,0-0.35-0.008-0.525-0.023c-3.271-0.287-5.697-3.178-5.416-6.459
	c0.276-3.105,2.883-5.447,5.932-5.447c0.174,0,0.349,0.008,0.525,0.023c3.282,0.285,5.719,3.18,5.428,6.461
	C270.505,554.194,267.888,556.534,264.828,556.534"/>
<path id="path490" d="M281.372,567.649c-0.175,0-0.351-0.008-0.528-0.021c-3.28-0.287-5.708-3.18-5.416-6.461
	c0.266-3.105,2.874-5.447,5.932-5.447c0.175,0,0.35,0.008,0.527,0.023c3.281,0.287,5.708,3.182,5.427,6.463
	C287.036,565.309,284.431,567.649,281.372,567.649"/>
<path id="path492" d="M262.943,578.127c-0.175,0-0.35-0.006-0.525-0.021c-3.272-0.287-5.708-3.18-5.427-6.461
	c0.276-3.104,2.883-5.447,5.932-5.447c0.174,0,0.349,0.01,0.525,0.025c3.282,0.287,5.72,3.18,5.428,6.461
	C268.609,575.788,266.001,578.127,262.943,578.127"/>
<path id="path494" d="M376.643,478.702c-0.176,0-0.352-0.008-0.529-0.023c-3.281-0.285-5.707-3.178-5.426-6.459
	c0.275-3.105,2.885-5.447,5.943-5.447c0.174,0,0.35,0.008,0.525,0.023c3.281,0.287,5.709,3.18,5.416,6.461
	C382.307,476.36,379.702,478.702,376.643,478.702"/>
<path id="path496" d="M393.17,489.819c-0.174,0-0.35-0.008-0.525-0.023c-3.27-0.285-5.686-3.178-5.404-6.459
	c0.273-3.105,2.873-5.447,5.924-5.447c0.172,0,0.348,0.008,0.523,0.023c3.281,0.285,5.719,3.182,5.428,6.463
	C398.85,487.479,396.233,489.819,393.17,489.819"/>
<path id="path498" d="M409.497,503.333c-0.176,0-0.352-0.008-0.529-0.023c-3.279-0.285-5.705-3.178-5.414-6.457
	c0.266-3.105,2.873-5.447,5.932-5.447c0.176,0,0.35,0.008,0.525,0.021c3.281,0.289,5.709,3.182,5.428,6.463
	C415.163,500.993,412.555,503.333,409.497,503.333"/>
<path id="path500" d="M374.768,500.295c-0.174,0-0.352-0.008-0.527-0.023c-3.283-0.285-5.719-3.178-5.428-6.459
	c0.266-3.105,2.883-5.447,5.943-5.447c0.174,0,0.35,0.008,0.525,0.023c3.279,0.289,5.699,3.18,5.416,6.461
	C380.422,497.954,377.825,500.295,374.768,500.295"/>
<path id="path502" d="M391.288,511.413c-0.174,0-0.35-0.008-0.525-0.023c-3.271-0.285-5.699-3.178-5.418-6.459
	c0.275-3.105,2.875-5.445,5.926-5.445c0.172,0,0.346,0.006,0.521,0.021c3.281,0.287,5.719,3.18,5.428,6.461
	C396.954,509.073,394.346,511.413,391.288,511.413"/>
<path id="path504" d="M372.875,521.889c-0.178,0-0.354-0.008-0.531-0.023c-3.281-0.285-5.719-3.18-5.428-6.461
	c0.277-3.104,2.883-5.443,5.941-5.443c0.176,0,0.352,0.006,0.529,0.023c3.279,0.287,5.707,3.18,5.416,6.461
	C378.526,519.547,375.93,521.889,372.875,521.889"/>
<path id="path506" d="M538.354,194.845c-7.305,0-14.773-1.325-22.062-4.121c-5.238-2.012-10.043-4.655-14.344-7.797l47.225-27.266
	l-5.334-9.236l-50.32,29.049c-5.904-6.294-10.314-13.717-12.947-21.676l50.645-29.239l-5.334-9.237l-47.748,27.565
	c-1.016-8.49-0.051-17.263,3.191-25.7c8.443-22.004,29.941-35.367,53.131-35.367c7.303,0,14.77,1.324,22.055,4.122
	c30.428,11.678,46.096,44.601,34.99,73.536C583.047,181.482,561.549,194.845,538.354,194.845"/>
<path id="path508" d="M442.264,175.913l-5.334-9.238l41.203-23.787l47.748-27.565l5.334,9.237l-50.645,29.239L442.264,175.913"/>
<path id="path510" d="M460.223,207.015l-5.334-9.237l38.629-22.303l50.32-29.049l5.334,9.236l-47.225,27.266L460.223,207.015"/>
<path id="path512" d="M226.161,467.459l-12.187-3.039c2.814-11.289,10.051-15.693,15.865-19.23
	c4.98-3.029,8.579-5.223,10.122-11.404c1.541-6.184-0.608-9.811-3.584-14.824c-3.472-5.851-7.793-13.137-4.979-24.424
	c2.822-11.315,10.103-15.797,15.954-19.396c1.763-1.085,3.351-2.062,4.733-3.141c2.508-1.956,4.338-4.243,5.3-8.099
	c1.491-5.981-0.637-9.609-3.583-14.633c-3.476-5.924-7.801-13.299-4.98-24.616l12.187,3.04c-1.556,6.244,0.612,9.944,3.615,15.063
	c3.317,5.654,7.42,12.649,5.2,23.093c-0.076,0.36-0.16,0.724-0.252,1.092c-2.756,11.052-9.945,15.479-15.723,19.033
	c-5.055,3.109-8.707,5.357-10.263,11.6c-1.541,6.182,0.607,9.809,3.582,14.823c3.473,5.853,7.795,13.138,4.98,24.429
	c-2.814,11.289-10.051,15.693-15.865,19.23C231.303,459.084,227.704,461.278,226.161,467.459"/>
<path id="path514" d="M657.708,486.52l-56.387-73.545l91.65-13.734l28.361,62.562L657.708,486.52"/>
<path id="path516" d="M531.944,438.792c-16.721-0.248-33.119-6.426-45.766-18.622c0.887-1.003,1.428-2.32,1.428-3.765
	c0-3.14-2.553-5.684-5.689-5.684c-1.17,0-2.26,0.355-3.166,0.963c-5.031-6.847-8.59-14.469-10.686-22.452
	c1.738-0.972,2.914-2.832,2.914-4.967c0-2.845-2.088-5.201-4.822-5.617c-0.311-3.112-0.416-6.244-0.311-9.385
	c2.885-0.277,5.133-2.704,5.133-5.657c0-2.518-1.633-4.652-3.902-5.4c1.584-8.312,4.643-16.455,9.17-24.008
	c0.223,2.936,2.682,5.248,5.67,5.248c3.137,0,5.689-2.542,5.689-5.683c0-3.139-2.553-5.686-5.689-5.686
	c-0.625,0-1.229,0.103-1.793,0.29c2.244-3.053,4.752-5.984,7.521-8.753c14.516-14.516,33.406-21.831,51.988-21.831
	c17.473,0,34.672,6.468,47.701,19.498c3.965,3.965,7.322,8.317,10.074,12.945c-0.379-0.076-0.77-0.116-1.172-0.116
	c-3.309,0-5.992,2.715-5.992,6.065s2.684,6.065,5.992,6.065c2.406,0,4.479-1.432,5.434-3.501
	c10.547,25.497,4.865,56.675-16.68,78.221c-2.758,2.758-5.676,5.256-8.717,7.494l-18.867-54.786l-10.086,3.472l19.676,57.142
	c-7.625,4.041-15.764,6.648-24.01,7.812L523.45,381.36l-10.088,3.472L531.944,438.792 M481.917,390.06
	c-3.135,0-5.688,2.544-5.688,5.685c0,3.139,2.553,5.684,5.688,5.684c3.137,0,5.689-2.545,5.689-5.684
	C487.606,392.604,485.053,390.06,481.917,390.06 M481.917,369.4c-3.135,0-5.688,2.544-5.688,5.684c0,3.139,2.553,5.683,5.688,5.683
	c3.137,0,5.689-2.544,5.689-5.683C487.606,371.944,485.053,369.4,481.917,369.4 M596.237,354.196c-3.309,0-5.992,2.714-5.992,6.065
	c0,3.351,2.684,6.065,5.992,6.065c3.311,0,5.992-2.714,5.992-6.065C602.229,356.911,599.547,354.196,596.237,354.196
	 M481.917,348.739c-3.135,0-5.688,2.545-5.688,5.684c0,3.14,2.553,5.684,5.688,5.684c3.137,0,5.689-2.544,5.689-5.684
	C487.606,351.284,485.053,348.739,481.917,348.739 M577.145,342.811c-3.311,0-5.992,2.715-5.992,6.065s2.682,6.065,5.992,6.065
	c3.309,0,5.99-2.715,5.99-6.065S580.454,342.811,577.145,342.811 M559.42,332.243c-3.311,0-5.992,2.715-5.992,6.065
	s2.682,6.065,5.992,6.065c3.309,0,5.992-2.715,5.992-6.065S562.729,332.243,559.42,332.243 M577.145,318.115
	c-3.311,0-5.992,2.715-5.992,6.065s2.682,6.065,5.992,6.065c3.309,0,5.99-2.715,5.99-6.065S580.454,318.115,577.145,318.115
	 M559.42,306.663c-3.311,0-5.992,2.715-5.992,6.065s2.682,6.065,5.992,6.065c3.309,0,5.992-2.715,5.992-6.065
	S562.729,306.663,559.42,306.663"/>
<path id="path518" d="M631.797,223.148c-3.311,0-5.992-2.713-5.992-6.065c0-3.349,2.682-6.065,5.992-6.065s5.992,2.716,5.992,6.065
	C637.79,220.435,635.108,223.148,631.797,223.148"/>
<path id="path520" d="M631.797,246.652c-3.311,0-5.992-2.714-5.992-6.065c0-3.351,2.682-6.065,5.992-6.065s5.992,2.714,5.992,6.065
	C637.79,243.938,635.108,246.652,631.797,246.652"/>
<path id="path522" d="M631.797,270.156c-3.311,0-5.992-2.716-5.992-6.065c0-3.352,2.682-6.067,5.992-6.067s5.992,2.715,5.992,6.067
	C637.79,267.44,635.108,270.156,631.797,270.156"/>
<path id="path524" d="M632.034,293.659c-3.311,0-5.99-2.715-5.99-6.065s2.68-6.065,5.99-6.065c3.309,0,5.992,2.715,5.992,6.065
	S635.342,293.659,632.034,293.659"/>
<path id="path526" d="M632.034,317.163c-3.311,0-5.99-2.715-5.99-6.065s2.68-6.065,5.99-6.065c3.309,0,5.992,2.714,5.992,6.065
	S635.342,317.163,632.034,317.163"/>
<path id="path528" d="M632.034,340.666c-3.311,0-5.99-2.715-5.99-6.064c0-3.352,2.68-6.067,5.99-6.067
	c3.309,0,5.992,2.715,5.992,6.067C638.026,337.951,635.342,340.666,632.034,340.666"/>
<path id="path530" d="M632.034,364.169c-3.311,0-5.99-2.715-5.99-6.065s2.68-6.065,5.99-6.065c3.309,0,5.992,2.715,5.992,6.065
	S635.342,364.169,632.034,364.169"/>
<path id="path532" d="M632.034,387.673c-3.311,0-5.99-2.715-5.99-6.067c0-3.349,2.68-6.064,5.99-6.064
	c3.309,0,5.992,2.715,5.992,6.064C638.026,384.958,635.342,387.673,632.034,387.673"/>
<path id="path534" d="M647.985,233.187c-3.309,0-5.992-2.714-5.992-6.065c0-3.351,2.684-6.065,5.992-6.065s5.992,2.714,5.992,6.065
	C653.977,230.472,651.293,233.187,647.985,233.187"/>
<path id="path536" d="M666.704,243.419c-3.311,0-5.992-2.715-5.992-6.065s2.682-6.065,5.992-6.065s5.992,2.714,5.992,6.065
	C672.696,240.704,670.014,243.418,666.704,243.419"/>
<path id="path538" d="M684.485,254.021c-3.311,0-5.992-2.715-5.992-6.065s2.682-6.065,5.992-6.065c3.307,0,5.99,2.715,5.99,6.065
	S687.792,254.021,684.485,254.021"/>
<path id="path540" d="M703.631,265.438c-3.309,0-5.992-2.713-5.992-6.064c0-3.352,2.684-6.065,5.992-6.065
	c3.311,0,5.992,2.713,5.992,6.065C709.624,262.726,706.942,265.438,703.631,265.438"/>
<path id="path542" d="M647.985,256.868c-3.309,0-5.992-2.713-5.992-6.065c0-3.351,2.684-6.064,5.992-6.064s5.992,2.713,5.992,6.064
	C653.977,254.155,651.293,256.868,647.985,256.868"/>
<path id="path544" d="M666.704,267.613c-3.311,0-5.992-2.715-5.992-6.065s2.682-6.065,5.992-6.065s5.992,2.715,5.992,6.065
	S670.014,267.613,666.704,267.613"/>
<path id="path546" d="M684.485,278.753c-3.311,0-5.992-2.715-5.992-6.067c0-3.349,2.682-6.064,5.992-6.064
	c3.307,0,5.99,2.715,5.99,6.064C690.475,276.039,687.792,278.753,684.485,278.753"/>
<path id="path548" d="M703.631,291.066c-3.309,0-5.992-2.716-5.992-6.065c0-3.351,2.684-6.065,5.992-6.065
	c3.311,0,5.992,2.715,5.992,6.065C709.624,288.351,706.942,291.066,703.631,291.066"/>
<path id="path550" d="M647.985,280.551c-3.309,0-5.992-2.715-5.992-6.065s2.684-6.065,5.992-6.065s5.992,2.715,5.992,6.065
	S651.293,280.551,647.985,280.551"/>
<path id="path552" d="M666.704,291.808c-3.311,0-5.992-2.715-5.992-6.065s2.682-6.065,5.992-6.065s5.992,2.715,5.992,6.065
	S670.014,291.808,666.704,291.808"/>
<path id="path554" d="M684.485,303.485c-3.311,0-5.992-2.716-5.992-6.066c0-3.35,2.682-6.065,5.992-6.065
	c3.307,0,5.99,2.716,5.99,6.065C690.475,300.77,687.792,303.485,684.485,303.485"/>
<path id="path556" d="M703.631,316.693c-3.309,0-5.992-2.715-5.992-6.065s2.684-6.065,5.992-6.065c3.311,0,5.992,2.715,5.992,6.065
	S706.942,316.693,703.631,316.693"/>
<path id="path558" d="M648.223,304.233c-3.312,0-5.994-2.716-5.994-6.067c0-3.349,2.682-6.064,5.994-6.064
	c3.309,0,5.992,2.715,5.992,6.064C654.215,301.518,651.532,304.233,648.223,304.233"/>
<path id="path560" d="M666.938,316.002c-3.311,0-5.992-2.714-5.992-6.065s2.682-6.065,5.992-6.065c3.307,0,5.992,2.715,5.992,6.065
	S670.245,316.002,666.938,316.002"/>
<path id="path562" d="M684.717,328.216c-3.309,0-5.992-2.714-5.992-6.065c0-3.351,2.684-6.065,5.992-6.065s5.992,2.714,5.992,6.065
	C690.709,325.501,688.026,328.216,684.717,328.216"/>
<path id="path564" d="M703.868,342.32c-3.312,0-5.992-2.714-5.992-6.065c0-3.351,2.68-6.065,5.992-6.065
	c3.309,0,5.992,2.714,5.992,6.065C709.86,339.605,707.176,342.32,703.868,342.32"/>
<path id="path566" d="M648.223,327.915c-3.312,0-5.994-2.714-5.994-6.065c0-3.351,2.682-6.065,5.994-6.065
	c3.309,0,5.992,2.714,5.992,6.065C654.215,325.2,651.532,327.915,648.223,327.915"/>
<path id="path568" d="M666.938,340.197c-3.311,0-5.992-2.715-5.992-6.065s2.682-6.065,5.992-6.065c3.307,0,5.992,2.715,5.992,6.065
	S670.245,340.197,666.938,340.197"/>
<path id="path570" d="M684.717,352.948c-3.309,0-5.992-2.715-5.992-6.065s2.684-6.065,5.992-6.065s5.992,2.715,5.992,6.065
	S688.026,352.948,684.717,352.948"/>
<path id="path572" d="M648.223,351.597c-3.312,0-5.994-2.716-5.994-6.066s2.682-6.065,5.994-6.065c3.309,0,5.992,2.715,5.992,6.065
	S651.532,351.597,648.223,351.597"/>
<path id="path574" d="M666.938,364.392c-3.311,0-5.992-2.713-5.992-6.065c0-3.351,2.682-6.064,5.992-6.064
	c3.307,0,5.992,2.713,5.992,6.064C672.93,361.679,670.245,364.392,666.938,364.392"/>
<path id="path576" d="M648.223,375.279c-3.312,0-5.994-2.715-5.994-6.065s2.682-6.065,5.994-6.065c3.309,0,5.992,2.715,5.992,6.065
	S651.532,375.279,648.223,375.279"/>
<path id="path578" d="M613.762,234.438c-3.311,0-5.992-2.714-5.992-6.064c0-3.352,2.682-6.066,5.992-6.066
	c3.309,0,5.99,2.714,5.99,6.066C619.752,231.724,617.071,234.438,613.762,234.438"/>
<path id="path580" d="M596,245.896c-3.307,0-5.992-2.715-5.992-6.065s2.686-6.065,5.992-6.065c3.311,0,5.992,2.715,5.992,6.065
	S599.311,245.896,596,245.896"/>
<path id="path582" d="M577.143,256.155c-3.309,0-5.99-2.715-5.99-6.065s2.682-6.065,5.99-6.065c3.311,0,5.992,2.715,5.992,6.065
	S580.454,256.155,577.143,256.155"/>
<path id="path584" d="M559.42,267.632c-3.311,0-5.992-2.713-5.992-6.064c0-3.352,2.682-6.065,5.992-6.065
	c3.309,0,5.992,2.713,5.992,6.065C565.413,264.918,562.729,267.632,559.42,267.632"/>
<path id="path586" d="M613.762,258.186c-3.311,0-5.992-2.715-5.992-6.065s2.682-6.065,5.992-6.065c3.309,0,5.99,2.715,5.99,6.065
	S617.071,258.186,613.762,258.186"/>
<path id="path588" d="M596.237,269.982c-3.309,0-5.992-2.714-5.992-6.065s2.684-6.067,5.992-6.067c3.311,0,5.992,2.716,5.992,6.067
	S599.547,269.982,596.237,269.982"/>
<path id="path590" d="M577.143,280.851c-3.309,0-5.99-2.713-5.99-6.064c0-3.352,2.682-6.065,5.99-6.065
	c3.311,0,5.992,2.713,5.992,6.065C583.135,278.137,580.454,280.851,577.143,280.851"/>
<path id="path592" d="M559.42,293.213c-3.311,0-5.992-2.715-5.992-6.065c0-3.352,2.682-6.065,5.992-6.065
	c3.309,0,5.992,2.713,5.992,6.065C565.413,290.499,562.729,293.213,559.42,293.213"/>
<path id="path594" d="M613.997,281.932c-3.311,0-5.992-2.715-5.992-6.065s2.682-6.065,5.992-6.065c3.309,0,5.992,2.715,5.992,6.065
	S617.305,281.932,613.997,281.932"/>
<path id="path596" d="M596.237,294.068c-3.309,0-5.992-2.714-5.992-6.065c0-3.351,2.684-6.065,5.992-6.065
	c3.311,0,5.992,2.714,5.992,6.065C602.229,291.354,599.547,294.068,596.237,294.068"/>
<path id="path598" d="M577.143,305.548c-3.309,0-5.99-2.714-5.99-6.065c0-3.351,2.682-6.065,5.99-6.065
	c3.311,0,5.992,2.714,5.992,6.065C583.135,302.833,580.454,305.548,577.143,305.548"/>
<path id="path600" d="M559.42,318.793c-3.311,0-5.992-2.715-5.992-6.065s2.682-6.065,5.992-6.065c3.309,0,5.992,2.715,5.992,6.065
	S562.729,318.793,559.42,318.793"/>
<path id="path602" d="M613.997,305.679c-3.311,0-5.992-2.716-5.992-6.067c0-3.349,2.682-6.065,5.992-6.065
	c3.309,0,5.992,2.716,5.992,6.065C619.989,302.963,617.305,305.679,613.997,305.679"/>
<path id="path604" d="M596.237,318.155c-3.309,0-5.992-2.715-5.992-6.065s2.684-6.065,5.992-6.065c3.311,0,5.992,2.715,5.992,6.065
	S599.547,318.155,596.237,318.155"/>
<path id="path606" d="M577.143,330.245c-3.309,0-5.99-2.714-5.99-6.065s2.682-6.065,5.99-6.065c3.311,0,5.992,2.715,5.992,6.065
	S580.454,330.245,577.143,330.245"/>
<path id="path608" d="M559.42,344.374c-3.311,0-5.992-2.715-5.992-6.065s2.682-6.065,5.992-6.065c3.309,0,5.992,2.715,5.992,6.065
	S562.729,344.374,559.42,344.374"/>
<path id="path610" d="M613.997,329.424c-3.311,0-5.992-2.714-5.992-6.065c0-3.351,2.682-6.065,5.992-6.065
	c3.309,0,5.992,2.714,5.992,6.065C619.989,326.709,617.305,329.424,613.997,329.424"/>
<path id="path612" d="M596.237,342.24c-3.309,0-5.992-2.715-5.992-6.065s2.684-6.065,5.992-6.065c0.402,0,0.793,0.04,1.172,0.116
	c2.748,0.55,4.82,3.005,4.82,5.949c0,0.916-0.199,1.785-0.559,2.564C600.715,340.808,598.643,342.24,596.237,342.24"/>
<path id="path614" d="M577.143,354.941c-3.309,0-5.99-2.715-5.99-6.065s2.682-6.065,5.99-6.065c3.311,0,5.992,2.715,5.992,6.065
	S580.454,354.941,577.143,354.941"/>
<path id="path616" d="M613.997,353.171c-3.311,0-5.992-2.715-5.992-6.065s2.682-6.065,5.992-6.065c3.309,0,5.992,2.715,5.992,6.065
	S617.305,353.171,613.997,353.171"/>
<path id="path618" d="M596.237,366.327c-3.309,0-5.992-2.715-5.992-6.065s2.684-6.065,5.992-6.065c3.311,0,5.992,2.715,5.992,6.065
	S599.547,366.327,596.237,366.327"/>
<path id="path620" d="M613.997,376.916c-3.311,0-5.992-2.715-5.992-6.064c0-3.352,2.682-6.067,5.992-6.067
	c3.309,0,5.992,2.715,5.992,6.067C619.989,374.201,617.305,376.916,613.997,376.916"/>
<path id="path622" d="M88.845,130.819c-3.311,0-5.992-2.715-5.992-6.065c0-3.352,2.681-6.065,5.992-6.065
	c3.309,0,5.992,2.713,5.992,6.065C94.837,128.104,92.154,130.819,88.845,130.819"/>
<path id="path624" d="M88.845,154.321c-3.311,0-5.992-2.715-5.992-6.065s2.681-6.065,5.992-6.065c3.309,0,5.992,2.715,5.992,6.065
	S92.154,154.321,88.845,154.321"/>
<path id="path626" d="M88.845,177.825c-3.311,0-5.992-2.714-5.992-6.065c0-3.351,2.681-6.065,5.992-6.065
	c3.309,0,5.992,2.714,5.992,6.065C94.837,175.111,92.154,177.825,88.845,177.825"/>
<path id="path628" d="M89.081,201.328c-3.31,0-5.992-2.715-5.992-6.064c0-3.352,2.682-6.067,5.992-6.067
	c3.307,0,5.99,2.715,5.99,6.067C95.071,198.613,92.388,201.328,89.081,201.328"/>
<path id="path630" d="M89.081,224.832c-3.31,0-5.992-2.715-5.992-6.065s2.682-6.065,5.992-6.065c3.307,0,5.99,2.715,5.99,6.065
	S92.388,224.832,89.081,224.832"/>
<path id="path632" d="M89.081,248.336c-3.31,0-5.992-2.715-5.992-6.066c0-3.35,2.682-6.064,5.992-6.064
	c3.307,0,5.99,2.715,5.99,6.064C95.071,245.621,92.388,248.336,89.081,248.336"/>
<path id="path634" d="M89.081,271.839c-3.31,0-5.992-2.715-5.992-6.065s2.682-6.065,5.992-6.065c3.307,0,5.99,2.715,5.99,6.065
	S92.388,271.839,89.081,271.839"/>
<path id="path636" d="M89.081,295.343c-3.31,0-5.992-2.715-5.992-6.065s2.682-6.066,5.992-6.066c3.307,0,5.99,2.716,5.99,6.066
	S92.388,295.343,89.081,295.343"/>
<path id="path638" d="M105.032,140.856c-3.311,0-5.993-2.714-5.993-6.065c0-3.351,2.682-6.065,5.993-6.065
	c3.309,0,5.992,2.715,5.992,6.065S108.341,140.856,105.032,140.856"/>
<path id="path640" d="M123.751,151.088c-3.311,0-5.992-2.714-5.992-6.065c0-3.351,2.681-6.065,5.992-6.065
	c3.306,0,5.992,2.715,5.992,6.065S127.057,151.088,123.751,151.088"/>
<path id="path642" d="M141.529,161.69c-3.311,0-5.992-2.714-5.992-6.065c0-3.351,2.682-6.065,5.992-6.065
	c3.31,0,5.992,2.714,5.992,6.065C147.521,158.976,144.839,161.69,141.529,161.69"/>
<path id="path644" d="M160.677,173.109c-3.309,0-5.992-2.715-5.992-6.065s2.683-6.065,5.992-6.065c3.31,0,5.992,2.715,5.992,6.065
	S163.987,173.109,160.677,173.109"/>
<path id="path646" d="M105.032,164.539c-3.311,0-5.993-2.714-5.993-6.065c0-3.351,2.682-6.066,5.993-6.066
	c3.309,0,5.992,2.716,5.992,6.066C111.024,161.824,108.341,164.539,105.032,164.539"/>
<path id="path648" d="M123.751,175.283c-3.311,0-5.992-2.715-5.992-6.065s2.681-6.065,5.992-6.065c3.306,0,5.992,2.715,5.992,6.065
	S127.057,175.283,123.751,175.283"/>
<path id="path650" d="M141.529,186.423c-3.311,0-5.992-2.715-5.992-6.065s2.682-6.065,5.992-6.065c3.31,0,5.992,2.715,5.992,6.065
	S144.839,186.423,141.529,186.423"/>
<path id="path652" d="M160.677,198.736c-3.309,0-5.992-2.714-5.992-6.065c0-3.351,2.683-6.065,5.992-6.065
	c3.31,0,5.992,2.714,5.992,6.065C166.669,196.021,163.987,198.736,160.677,198.736"/>
<path id="path654" d="M105.032,188.22c-3.311,0-5.993-2.715-5.993-6.065s2.682-6.065,5.993-6.065c3.309,0,5.992,2.714,5.992,6.065
	C111.024,185.505,108.341,188.22,105.032,188.22"/>
<path id="path656" d="M123.751,199.478c-3.311,0-5.992-2.713-5.992-6.065c0-3.351,2.681-6.064,5.992-6.064
	c3.306,0,5.992,2.713,5.992,6.064C129.743,196.764,127.057,199.478,123.751,199.478"/>
<path id="path658" d="M141.529,211.155c-3.311,0-5.992-2.715-5.992-6.065s2.682-6.065,5.992-6.065c3.31,0,5.992,2.715,5.992,6.065
	S144.839,211.155,141.529,211.155"/>
<path id="path660" d="M160.677,224.363c-3.309,0-5.992-2.715-5.992-6.065s2.683-6.065,5.992-6.065c3.31,0,5.992,2.715,5.992,6.065
	S163.987,224.363,160.677,224.363"/>
<path id="path662" d="M105.27,211.903c-3.311,0-5.993-2.716-5.993-6.065c0-3.351,2.682-6.067,5.993-6.067
	c3.306,0,5.992,2.716,5.992,6.067C111.261,209.187,108.576,211.903,105.27,211.903"/>
<path id="path664" d="M123.982,223.673c-3.308,0-5.992-2.715-5.992-6.067c0-3.349,2.684-6.064,5.992-6.064
	c3.309,0,5.993,2.715,5.993,6.064C129.975,220.958,127.292,223.673,123.982,223.673"/>
<path id="path666" d="M141.764,235.885c-3.311,0-5.992-2.714-5.992-6.064c0-3.352,2.681-6.065,5.992-6.065
	c3.309,0,5.992,2.713,5.992,6.065C147.756,233.171,145.073,235.885,141.764,235.885"/>
<path id="path668" d="M160.915,249.989c-3.311,0-5.992-2.715-5.992-6.065s2.681-6.065,5.992-6.065c3.31,0,5.992,2.714,5.992,6.065
	S164.224,249.989,160.915,249.989"/>
<path id="path670" d="M105.27,235.584c-3.311,0-5.993-2.715-5.993-6.065s2.682-6.065,5.993-6.065c3.306,0,5.992,2.715,5.992,6.065
	S108.576,235.584,105.27,235.584"/>
<path id="path672" d="M123.982,247.868c-3.308,0-5.992-2.715-5.992-6.067c0-3.349,2.684-6.064,5.992-6.064
	c3.309,0,5.993,2.715,5.993,6.064C129.975,245.153,127.292,247.868,123.982,247.868"/>
<path id="path674" d="M141.764,260.617c-3.311,0-5.992-2.714-5.992-6.065c0-3.351,2.681-6.065,5.992-6.065
	c3.309,0,5.992,2.714,5.992,6.065C147.756,257.903,145.073,260.617,141.764,260.617"/>
<path id="path676" d="M105.27,259.265c-3.311,0-5.993-2.713-5.993-6.064s2.682-6.065,5.993-6.065c3.306,0,5.992,2.715,5.992,6.065
	S108.576,259.265,105.27,259.265"/>
<path id="path678" d="M123.982,272.062c-3.308,0-5.992-2.714-5.992-6.065c0-3.351,2.684-6.065,5.992-6.065
	c3.309,0,5.993,2.714,5.993,6.065C129.975,269.348,127.292,272.062,123.982,272.062"/>
<path id="path680" d="M105.27,282.948c-3.311,0-5.993-2.715-5.993-6.065s2.682-6.065,5.993-6.065c3.306,0,5.992,2.715,5.992,6.065
	S108.576,282.948,105.27,282.948"/>
<path id="path682" d="M70.807,142.109c-3.309,0-5.992-2.715-5.992-6.067c0-3.349,2.683-6.064,5.992-6.064
	c3.311,0,5.992,2.715,5.992,6.064C76.799,139.395,74.118,142.109,70.807,142.109"/>
<path id="path684" d="M53.047,153.567c-3.31,0-5.992-2.716-5.992-6.067c0-3.349,2.682-6.064,5.992-6.064
	c3.312,0,5.992,2.715,5.992,6.064C59.039,150.851,56.358,153.567,53.047,153.567"/>
<path id="path686" d="M34.19,163.824c-3.309,0-5.992-2.715-5.992-6.065s2.683-6.065,5.992-6.065c3.308,0,5.992,2.714,5.992,6.065
	C40.182,161.109,37.498,163.824,34.19,163.824"/>
<path id="path688" d="M16.466,175.303c-3.309,0-5.992-2.715-5.992-6.065s2.683-6.065,5.992-6.065c3.312,0,5.992,2.715,5.992,6.065
	S19.778,175.303,16.466,175.303"/>
<path id="path690" d="M70.807,165.854c-3.309,0-5.992-2.714-5.992-6.064c0-3.352,2.683-6.066,5.992-6.066
	c3.311,0,5.992,2.714,5.992,6.066C76.799,163.14,74.118,165.854,70.807,165.854"/>
<path id="path692" d="M53.284,177.652c-3.309,0-5.992-2.714-5.992-6.065c0-3.351,2.683-6.065,5.992-6.065
	c3.312,0,5.992,2.714,5.992,6.065C59.276,174.938,56.595,177.652,53.284,177.652"/>
<path id="path694" d="M34.19,188.521c-3.309,0-5.992-2.715-5.992-6.065s2.683-6.065,5.992-6.065c3.308,0,5.992,2.715,5.992,6.065
	S37.498,188.521,34.19,188.521"/>
<path id="path696" d="M16.466,200.883c-3.309,0-5.992-2.715-5.992-6.065s2.683-6.065,5.992-6.065c3.312,0,5.992,2.715,5.992,6.065
	S19.778,200.883,16.466,200.883"/>
<path id="path698" d="M71.042,189.602c-3.309,0-5.991-2.715-5.991-6.065s2.682-6.065,5.991-6.065c3.308,0,5.99,2.714,5.99,6.065
	C77.031,186.887,74.35,189.602,71.042,189.602"/>
<path id="path700" d="M53.284,201.739c-3.309,0-5.992-2.716-5.992-6.065c0-3.351,2.683-6.067,5.992-6.067
	c3.312,0,5.992,2.716,5.992,6.067C59.276,199.022,56.595,201.739,53.284,201.739"/>
<path id="path702" d="M34.19,213.217c-3.309,0-5.992-2.714-5.992-6.064c0-3.352,2.683-6.065,5.992-6.065
	c3.308,0,5.992,2.713,5.992,6.065C40.182,210.503,37.498,213.217,34.19,213.217"/>
<path id="path704" d="M16.466,226.463c-3.309,0-5.992-2.715-5.992-6.065s2.683-6.065,5.992-6.065c3.312,0,5.992,2.714,5.992,6.065
	C22.458,223.748,19.778,226.463,16.466,226.463"/>
<path id="path706" d="M71.042,213.348c-3.309,0-5.991-2.715-5.991-6.065s2.682-6.065,5.991-6.065c3.308,0,5.99,2.715,5.99,6.065
	S74.35,213.348,71.042,213.348"/>
<path id="path708" d="M53.284,225.824c-3.309,0-5.992-2.715-5.992-6.065s2.683-6.065,5.992-6.065c3.312,0,5.992,2.714,5.992,6.065
	C59.276,223.109,56.595,225.824,53.284,225.824"/>
<path id="path710" d="M34.19,237.915c-3.309,0-5.992-2.714-5.992-6.065c0-3.351,2.683-6.065,5.992-6.065
	c3.308,0,5.992,2.714,5.992,6.065C40.182,235.2,37.498,237.915,34.19,237.915"/>
<path id="path712" d="M16.466,252.042c-3.309,0-5.992-2.714-5.992-6.065s2.683-6.065,5.992-6.065c3.312,0,5.992,2.715,5.992,6.065
	S19.778,252.042,16.466,252.042"/>
<path id="path714" d="M71.042,237.093c-3.309,0-5.991-2.713-5.991-6.065c0-3.351,2.682-6.065,5.991-6.065
	c3.308,0,5.99,2.715,5.99,6.065C77.031,234.38,74.35,237.093,71.042,237.093"/>
<path id="path716" d="M53.284,249.911c-3.309,0-5.992-2.715-5.992-6.065s2.683-6.065,5.992-6.065c3.312,0,5.992,2.714,5.992,6.065
	S56.595,249.911,53.284,249.911"/>
<path id="path718" d="M34.19,262.612c-3.309,0-5.992-2.714-5.992-6.066c0-3.35,2.683-6.064,5.992-6.064
	c3.308,0,5.992,2.715,5.992,6.064C40.182,259.897,37.498,262.612,34.19,262.612"/>
<path id="path720" d="M71.042,260.84c-3.309,0-5.991-2.714-5.991-6.065c0-3.351,2.682-6.065,5.991-6.065
	c3.308,0,5.99,2.714,5.99,6.065C77.031,258.125,74.35,260.84,71.042,260.84"/>
<path id="path722" d="M53.284,273.996c-3.309,0-5.992-2.715-5.992-6.065s2.683-6.065,5.992-6.065c3.312,0,5.992,2.715,5.992,6.065
	S56.595,273.996,53.284,273.996"/>
<path id="path724" d="M71.042,284.587c-3.309,0-5.991-2.715-5.991-6.067c0-3.349,2.682-6.064,5.991-6.064
	c3.308,0,5.99,2.715,5.99,6.064C77.031,281.872,74.35,284.587,71.042,284.587"/>
<path id="path726" d="M481.917,298.124c-3.135,0-5.688-2.544-5.688-5.684s2.553-5.684,5.688-5.684c3.137,0,5.689,2.544,5.689,5.684
	S485.053,298.124,481.917,298.124"/>
<path id="path728" d="M465.292,307.307c-3.135,0-5.678-2.545-5.678-5.684c0-3.14,2.543-5.684,5.678-5.684
	c3.146,0,5.688,2.544,5.688,5.684C470.979,304.761,468.438,307.307,465.292,307.307"/>
<path id="path730" d="M448.688,318.785c-3.145,0-5.688-2.545-5.688-5.684c0-3.14,2.543-5.684,5.688-5.684
	c3.137,0,5.676,2.544,5.676,5.684C454.364,316.24,451.825,318.785,448.688,318.785"/>
<path id="path732" d="M481.917,318.785c-3.135,0-5.688-2.545-5.688-5.684c0-3.14,2.553-5.684,5.688-5.684
	c3.137,0,5.689,2.544,5.689,5.684C487.606,316.24,485.053,318.785,481.917,318.785"/>
<path id="path734" d="M432.065,327.531c-3.148,0-5.689-2.544-5.689-5.684c0-3.139,2.541-5.686,5.689-5.686
	c3.133,0,5.684,2.547,5.684,5.686C437.749,324.987,435.198,327.531,432.065,327.531"/>
<path id="path736" d="M465.292,327.967c-3.135,0-5.678-2.543-5.678-5.683c0-3.14,2.543-5.684,5.678-5.684
	c3.146,0,5.688,2.544,5.688,5.684C470.979,325.424,468.438,327.967,465.292,327.967"/>
<path id="path738" d="M415.448,336.713c-3.135,0-5.686-2.544-5.686-5.684s2.551-5.684,5.686-5.684c3.146,0,5.688,2.544,5.688,5.684
	S418.594,336.713,415.448,336.713"/>
<path id="path740" d="M448.688,339.445c-3.145,0-5.688-2.542-5.688-5.683c0-3.139,2.543-5.686,5.688-5.686
	c3.137,0,5.676,2.547,5.676,5.686C454.364,336.903,451.825,339.445,448.688,339.445"/>
<path id="path742" d="M398.825,348.19c-3.137,0-5.678-2.544-5.678-5.684c0-3.139,2.541-5.684,5.678-5.684
	c3.145,0,5.686,2.545,5.686,5.684C404.51,345.646,401.969,348.19,398.825,348.19"/>
<path id="path744" d="M481.917,339.445c-2.988,0-5.447-2.312-5.67-5.248c-0.01-0.144-0.018-0.289-0.018-0.435
	c0-2.512,1.635-4.644,3.895-5.396c0.564-0.187,1.168-0.29,1.793-0.29c3.137,0,5.689,2.547,5.689,5.686
	C487.606,336.903,485.053,339.445,481.917,339.445"/>
<path id="path746" d="M432.065,348.19c-3.148,0-5.689-2.544-5.689-5.684c0-3.139,2.541-5.684,5.689-5.684
	c3.133,0,5.684,2.545,5.684,5.684C437.749,345.646,435.198,348.19,432.065,348.19"/>
<path id="path748" d="M465.292,348.629c-3.135,0-5.678-2.545-5.678-5.686c0-3.14,2.543-5.683,5.678-5.683
	c3.146,0,5.688,2.543,5.688,5.683C470.979,346.084,468.438,348.629,465.292,348.629"/>
<path id="path750" d="M415.448,357.374c-3.135,0-5.686-2.544-5.686-5.684c0-3.14,2.551-5.684,5.686-5.684
	c3.146,0,5.688,2.544,5.688,5.684C421.135,354.829,418.594,357.374,415.448,357.374"/>
<path id="path752" d="M448.688,360.106c-3.145,0-5.688-2.544-5.688-5.684c0-3.139,2.543-5.684,5.688-5.684
	c3.137,0,5.676,2.545,5.676,5.684C454.364,357.562,451.825,360.106,448.688,360.106"/>
<path id="path754" d="M398.825,368.852c-3.137,0-5.678-2.545-5.678-5.684c0-3.14,2.541-5.684,5.678-5.684
	c3.145,0,5.686,2.544,5.686,5.684C404.51,366.307,401.969,368.852,398.825,368.852"/>
<path id="path756" d="M481.917,360.106c-3.135,0-5.688-2.544-5.688-5.684c0-3.139,2.553-5.684,5.688-5.684
	c3.137,0,5.689,2.545,5.689,5.684C487.606,357.562,485.053,360.106,481.917,360.106"/>
<path id="path758" d="M432.065,368.852c-3.148,0-5.689-2.545-5.689-5.684c0-3.14,2.541-5.684,5.689-5.684
	c3.133,0,5.684,2.544,5.684,5.684C437.749,366.307,435.198,368.852,432.065,368.852"/>
<path id="path760" d="M465.292,369.29c-3.135,0-5.678-2.544-5.678-5.684c0-3.14,2.543-5.684,5.678-5.684
	c0.625,0,1.225,0.1,1.785,0.284c2.27,0.748,3.902,2.882,3.902,5.4c0,2.953-2.248,5.38-5.133,5.657
	C465.663,369.28,465.479,369.29,465.292,369.29"/>
<path id="path762" d="M415.448,378.035c-3.135,0-5.686-2.544-5.686-5.684s2.551-5.684,5.686-5.684c3.146,0,5.688,2.544,5.688,5.684
	C421.135,375.491,418.594,378.035,415.448,378.035"/>
<path id="path764" d="M448.688,380.767c-3.145,0-5.688-2.544-5.688-5.683c0-3.14,2.543-5.684,5.688-5.684
	c3.137,0,5.676,2.544,5.676,5.684C454.364,378.223,451.825,380.767,448.688,380.767"/>
<path id="path766" d="M398.825,389.513c-3.137,0-5.678-2.545-5.678-5.684c0-3.14,2.541-5.684,5.678-5.684
	c3.145,0,5.686,2.544,5.686,5.684C404.51,386.968,401.969,389.513,398.825,389.513"/>
<path id="path768" d="M481.917,380.767c-3.135,0-5.688-2.544-5.688-5.683c0-3.14,2.553-5.684,5.688-5.684
	c3.137,0,5.689,2.544,5.689,5.684C487.606,378.223,485.053,380.767,481.917,380.767"/>
<path id="path770" d="M432.065,389.513c-3.148,0-5.689-2.545-5.689-5.684c0-3.14,2.541-5.684,5.689-5.684
	c3.133,0,5.684,2.544,5.684,5.684C437.749,386.968,435.198,389.513,432.065,389.513"/>
<path id="path772" d="M465.292,389.951c-3.135,0-5.678-2.545-5.678-5.686c0-3.139,2.543-5.683,5.678-5.683
	c0.295,0,0.584,0.023,0.865,0.065c2.734,0.416,4.822,2.772,4.822,5.617c0,2.135-1.176,3.995-2.916,4.967
	C467.245,389.689,466.299,389.951,465.292,389.951"/>
<path id="path774" d="M415.448,398.695c-3.135,0-5.686-2.544-5.686-5.683c0-3.14,2.551-5.684,5.686-5.684
	c3.146,0,5.688,2.544,5.688,5.684C421.135,396.151,418.594,398.695,415.448,398.695"/>
<path id="path776" d="M448.688,401.428c-3.145,0-5.688-2.545-5.688-5.684c0-3.141,2.543-5.685,5.688-5.685
	c3.137,0,5.676,2.544,5.676,5.685C454.364,398.883,451.825,401.428,448.688,401.428"/>
<path id="path778" d="M398.825,410.173c-3.137,0-5.678-2.544-5.678-5.685c0-3.139,2.541-5.684,5.678-5.684
	c3.145,0,5.686,2.545,5.686,5.684C404.51,407.629,401.969,410.173,398.825,410.173"/>
<path id="path780" d="M481.917,401.428c-3.135,0-5.688-2.545-5.688-5.684c0-3.141,2.553-5.685,5.688-5.685
	c3.137,0,5.689,2.544,5.689,5.685C487.606,398.883,485.053,401.428,481.917,401.428"/>
<path id="path782" d="M432.065,410.173c-3.148,0-5.689-2.544-5.689-5.685c0-3.139,2.541-5.684,5.689-5.684
	c3.133,0,5.684,2.545,5.684,5.684C437.749,407.629,435.198,410.173,432.065,410.173"/>
<path id="path784" d="M465.292,410.611c-3.135,0-5.678-2.544-5.678-5.685c0-3.139,2.543-5.684,5.678-5.684
	c3.146,0,5.688,2.545,5.688,5.684C470.979,408.067,468.438,410.611,465.292,410.611"/>
<path id="path786" d="M415.448,419.356c-3.135,0-5.686-2.544-5.686-5.684c0-3.139,2.551-5.684,5.686-5.684
	c3.146,0,5.688,2.545,5.688,5.684C421.135,416.812,418.594,419.356,415.448,419.356"/>
<path id="path788" d="M448.688,422.09c-3.145,0-5.688-2.545-5.688-5.686c0-3.14,2.543-5.684,5.688-5.684
	c3.137,0,5.676,2.545,5.676,5.684C454.364,419.545,451.825,422.09,448.688,422.09"/>
<path id="path790" d="M481.917,422.09c-3.135,0-5.688-2.545-5.688-5.686c0-1.967,1.004-3.699,2.521-4.721
	c0.906-0.607,1.996-0.963,3.166-0.963c3.137,0,5.689,2.545,5.689,5.684c0,1.445-0.541,2.762-1.428,3.765
	C485.135,421.346,483.61,422.09,481.917,422.09"/>
<path id="path792" d="M432.065,430.834c-3.148,0-5.689-2.543-5.689-5.684s2.541-5.686,5.689-5.686c3.133,0,5.684,2.545,5.684,5.686
	S435.198,430.834,432.065,430.834"/>
<path id="path794" d="M465.292,431.272c-3.135,0-5.678-2.545-5.678-5.684s2.543-5.685,5.678-5.685c3.146,0,5.688,2.546,5.688,5.685
	C470.979,428.729,468.438,431.272,465.292,431.272"/>
<path id="path796" d="M448.688,442.749c-3.145,0-5.688-2.543-5.688-5.682c0-3.141,2.543-5.686,5.688-5.686
	c3.137,0,5.676,2.545,5.676,5.686C454.364,440.206,451.825,442.749,448.688,442.749"/>
<path id="path798" d="M481.917,442.749c-3.135,0-5.688-2.543-5.688-5.682c0-3.141,2.553-5.686,5.688-5.686
	c3.137,0,5.689,2.545,5.689,5.686C487.606,440.206,485.053,442.749,481.917,442.749"/>
<path id="path800" d="M465.292,451.932c-3.135,0-5.678-2.545-5.678-5.684s2.543-5.684,5.678-5.684c3.146,0,5.688,2.545,5.688,5.684
	S468.438,451.932,465.292,451.932"/>
<path id="path802" d="M481.917,463.411c-3.135,0-5.688-2.545-5.688-5.684c0-3.141,2.553-5.684,5.688-5.684
	c3.137,0,5.689,2.543,5.689,5.684S485.053,463.411,481.917,463.411"/>
<path id="path804" d="M382.219,359.56c-3.146,0-5.688-2.544-5.688-5.684s2.541-5.684,5.688-5.684c3.135,0,5.676,2.544,5.676,5.684
	S385.354,359.56,382.219,359.56"/>
<path id="path806" d="M365.594,368.743c-3.135,0-5.688-2.544-5.688-5.684c0-3.139,2.553-5.684,5.688-5.684s5.688,2.545,5.688,5.684
	C371.282,366.199,368.729,368.743,365.594,368.743"/>
<path id="path808" d="M348.98,380.22c-3.137,0-5.678-2.543-5.678-5.683c0-3.14,2.541-5.684,5.678-5.684
	c3.145,0,5.687,2.544,5.687,5.684C354.667,377.677,352.125,380.22,348.98,380.22"/>
<path id="path810" d="M382.219,380.22c-3.146,0-5.688-2.543-5.688-5.683c0-3.14,2.541-5.684,5.688-5.684
	c3.135,0,5.676,2.544,5.676,5.684C387.895,377.677,385.354,380.22,382.219,380.22"/>
<path id="path812" d="M365.594,389.404c-3.135,0-5.688-2.546-5.688-5.685c0-3.14,2.553-5.683,5.688-5.683s5.688,2.542,5.688,5.683
	C371.282,386.857,368.729,389.404,365.594,389.404"/>
<path id="path814" d="M382.219,400.881c-3.146,0-5.688-2.543-5.688-5.684c0-3.139,2.541-5.683,5.688-5.683
	c3.135,0,5.676,2.544,5.676,5.683C387.895,398.338,385.354,400.881,382.219,400.881"/>
<path id="path816" d="M546.805,481.946l-14.861-43.154l-18.582-53.959l10.088-3.472l19.537,56.734l13.904,40.377L546.805,481.946"/>
<path id="path818" d="M580.762,470.254l-13.766-39.973l-19.676-57.142l10.086-3.472l18.867,54.786l14.574,42.328L580.762,470.254"/>
<path id="path820" d="M8.852,416.493L0,405.148l109.213-85.438l8.852,11.346L8.852,416.493"/>
<path id="path822" d="M38.655,454.69l-8.852-11.346l109.212-85.438l8.852,11.345L38.655,454.69"/>
</svg>
