<svg width="146.02" height="147.15" xmlns:dc="http://purl.org/dc/elements/1.1/" xmlns:cc="http://creativecommons.org/ns#" xmlns:rdf="http://www.w3.org/1999/02/22-rdf-syntax-ns#" xmlns:svg="http://www.w3.org/2000/svg" xmlns="http://www.w3.org/2000/svg" version="1.1">
  <defs>
 <linearGradient gradientUnits="userSpaceOnUse" id="id0" x2="5366.75" y1="12632.1" x1="5366.75" y2="19033.6">
   <stop id="stop2992" style="stop-color:#6ebf61;stop-opacity:1" offset="0"/>
   <stop id="stop2994" style="stop-color:#50a557;stop-opacity:1" offset="0.231373"/>
   <stop id="stop2996" style="stop-color:#2a904f;stop-opacity:1" offset="0.52156901"/>
   <stop id="stop2998" style="stop-color:#50a557;stop-opacity:1" offset="0.81176502"/>
   <stop id="stop3000" style="stop-color:#6ebf63;stop-opacity:1" offset="1"/>
  </linearGradient>
  
  </defs>
  <g transform="translate(-119.84899,-461.64256)" id="layer1">
    <g transform="matrix(0.03543307,0,0,0.03543307,4.0182879,25.461464)">  
   <path d="m 5367,16034 c -345,0 -667,-104 -936,-281 l -654,209 212,-632 c -204,-280 -324,-625 -324,-997 0,-938 763,-1701 1701,-1701 938,0 1701,763 1701,1701 0,938 -763,1701 -1701,1701 z m 0,-3724 c -1117,0 -2023,906 -2023,2023 0,382 106,740 290,1045 l -365,1085 1120,-359 c 290,160 623,252 978,252 1117,0 2023,-906 2023,-2023 0,-1117 -906,-2023 -2023,-2023 z" id="path3007" style="fill:#fefefe"/>
   <path d="m 5367,12632 c -938,0 -1701,763 -1701,1701 0,372 120,717 324,997 l -212,632 654,-209 c 269,178 590,281 936,281 938,0 1701,-763 1701,-1701 0,-938 -763,-1701 -1701,-1701 z" id="path3009" style="fill:url(#id0)"/>
   <path d="m 4892,13496 c -33,-79 -58,-82 -108,-84 -17,-1 -36,-2 -57,-2 -65,0 -133,19 -174,61 -50,51 -174,170 -174,414 0,244 178,480 202,513 25,33 347,541 847,748 391,162 507,147 596,128 130,-28 293,-124 334,-240 41,-116 41,-215 29,-236 -12,-21 -45,-33 -95,-58 -50,-25 -293,-145 -339,-161 -45,-17 -88,-11 -122,37 -48,67 -95,135 -133,176 -30,32 -79,36 -120,19 -55,-23 -209,-77 -399,-246 -147,-131 -247,-294 -276,-343 -29,-50 -3,-79 20,-106 25,-31 49,-53 74,-82 25,-29 39,-44 55,-78 17,-33 5,-67 -7,-92 -12,-25 -112,-269 -153,-368 z" id="path3011" style="fill:#fefefe"/>
  </g>
  </g>
</svg>