<?xml version="1.0" encoding="utf-8"?>
<!-- Generator: Adobe Illustrator 24.0.0, SVG Export Plug-In . SVG Version: 6.00 Build 0)  -->
<svg version="1.1" id="Laag_1" xmlns="http://www.w3.org/2000/svg" xmlns:xlink="http://www.w3.org/1999/xlink" x="0px" y="0px"
	 viewBox="0 0 401.4 183.9" style="enable-background:new 0 0 401.4 183.9;" xml:space="preserve">
<style type="text/css">
	.st0{fill:#CE0538;stroke:#000000;stroke-width:4;stroke-miterlimit:10;}
	.st1{fill:#005FAA;stroke:#000000;stroke-width:4;stroke-miterlimit:10;}
</style>
<title>Middel 1</title>
<g id="Laag_2_1_">
	<g id="Laag_1-2">
		<path class="st0" d="M142.3,114.5h-30c0.1-0.4,0.2-0.8,0.2-1.1c6.8-35,17.8-76.3,30.4-111.2l0.2-0.7h0.7c24.7,0,49.3,0,74,0h1.3
			c-0.1,0.4-0.2,0.7-0.3,1.1c-1.8,6.6-3.6,13.5-5.5,20.6c-0.1,0.2-0.1,0.5-0.2,0.7h-0.8c-15.6,0-31.2,0-46.8,0
			c-2.3,7.6-4.5,15.4-6.7,23.2h42.8h1.3c-0.1,0.4-0.2,0.8-0.3,1.2c-2,7.3-3.9,14.7-5.9,22c-0.1,0.2-0.1,0.5-0.2,0.7h-0.8
			c-14.4,0-28.9,0-43.2,0c-3.8,14.8-7.3,29.3-10.2,42.8C142.4,114.1,142.3,114.3,142.3,114.5"/>
		<path class="st1" d="M107.2,114.5h-1H77.9h-0.9c0-0.3-0.1-0.6-0.1-0.9c-1-6.8-1.8-13.8-2.5-20.9c-11.1-0.1-22.1-0.1-33-0.2
			c-3.7,7.2-7.4,14.3-11.1,21.4l-0.3,0.5h-0.5H1.7H0l0.9-1.4C22.2,76.7,41.3,38.2,67.6,2l0.3-0.4h0.6h30.2h0.9v0.8
			c-1,37.2,1.5,74.4,7.5,111.1C107,113.8,107.1,114.2,107.2,114.5 M53.1,69.7h19.7c-0.6-11-1-22.2-1-33.1
			C65.2,47.6,59,58.7,53.1,69.7"/>
		<path class="st1" d="M288.7,114.5h-1h-28.3h-0.9c0-0.3,0-0.6,0-0.9c0.2-6.7,0.3-13.6,0.3-20.7c-11.3,0-22.7,0-34.1,0.1
			c-4.4,7.2-8.7,14.3-13,21.1l-0.3,0.4h-30.2l0.9-1.3c21.7-34.7,47-76.7,67.1-111.3l0.3-0.4H281c0,0.3,0.1,0.6,0.1,0.9
			c5.7,36.8,8.2,74,7.6,111.2C288.7,113.8,288.7,114.1,288.7,114.5 M238.1,69.9h20.5c-0.3-11.2-0.8-22.4-1.4-33.5
			C251.1,47.5,244.7,58.8,238.1,69.9"/>
		<path class="st1" d="M401.4,7.7c-2.2,8.3-4.2,16.6-6.2,25h-2.3c-3.5-3.7-7.8-6.6-12.4-8.7c-11.6-5.1-22.4-5.2-30.2-1.4
			c-5.8,2.9-10.5,9.5-6.3,15.4c3.6,5,25.4,6.8,35.9,13.9c11.1,7.5,9.7,19.1,7.8,27.2c-3.3,11.1-10.7,20.6-20.7,26.5
			c-10.7,7.1-23.9,10.2-38.7,10.2c-19.2,0-32.2-5.8-36.8-8.1c3.1-8.5,6.1-17.3,8.8-26.3h2.4c3.9,4.8,9,8.5,14.7,10.9
			c9.8,3.8,34.9,8.2,40.8-8.3c1.8-5.1-1.6-8.9-7-10.7c-11.5-3.9-31.6-5.4-37.1-19c-2.2-5.4-2.5-11.6-0.9-19.8
			c2.4-10.5,7.8-18.1,18.4-24.9c22.1-14,47.6-9,53.9-7.6C390.9,3.1,396.3,5,401.4,7.7"/>
		<path class="st1" d="M37.5,166.4l-0.5,1.8c-2.5,9.5-0.2,15.7,14.3,15.7c10.8,0,20.1-5.1,22.9-15.6c2-7.4,0.1-11.5-7.3-14.2
			l-7.1-2.6c-3.9-1.4-4.7-3.4-4-5.8c1-3.3,4.1-5.5,7.5-5.3c4.2,0,5,2.5,3.7,7.4h11.5l0.6-2c2.4-8.9-1.7-14.1-13.4-14.1
			c-13.3,0-20.3,6.7-22.5,14.9c-1.9,7,0.6,11.3,7,13.8l8.2,3.2c2.3,0.9,4,2.4,3.2,5.6c-1.1,4-4.2,5.9-8.1,5.9c-4.4,0-6-2.9-4.8-7.2
			l0.4-1.7L37.5,166.4z M81.7,157.9c-4.6,17.2-2.8,26.3,12.8,26c14.8,0,22.2-9.1,26.8-26c4.6-17.2,2.8-26.3-12.8-26
			C93.7,131.9,86.3,141,81.7,157.9 M94.6,157.9c2.7-10.1,5.2-17.4,11.6-17.4c5.2,0,5.6,5.1,2.3,17.4s-6.3,17.4-11.6,17.4
			C90.5,175.3,91.9,168,94.6,157.9 M122.6,182.6h12.9l11-40.8h7.5l2.3-8.6h-7.5l0.7-2.3c0.8-2.9,2.4-4,6-4c0.8,0,1.7,0,2.5,0.1
			l2.4-9c-2.3-0.2-4.5-0.3-6.8-0.3c-8.3,0-14.2,2.9-16.6,11.9l-1.1,3.6h-6.5l-2.4,8.7h6.5L122.6,182.6z M165.3,133.1h-6.5l-2.3,8.6
			h6.6l-7.6,28.3c-2.7,10-1.6,13.1,8.4,13.1c2.9,0,5.7-0.2,8.6-0.6l2.4-8.8c-1,0.1-2,0.2-2.9,0.2c-3.7,0-4.2-1.6-3.1-5.4l7.2-26.8
			h7.5l2.3-8.6h-7.5l2.9-10.5h-12.9L165.3,133.1z M184.2,182.6h14.9l15.7-35.1h0.2l-2.8,35.1h14.7l24.1-49.5h-12.4l-15.5,35.1h-0.2
			l2.8-35.1h-14L196,168.3h-0.2l3.5-35.1h-12.8L184.2,182.6z M263.3,148.3l0.4-1.4c1-3.9,3.8-6.4,7.7-6.4c4.3,0,5.4,2.3,4.4,6.1
			c-0.9,3.3-2.6,4.8-6.7,5.8l-7.8,1.9c-9.5,2.4-14.4,6.2-16.9,15.4c-1.8,6.6-0.6,14.2,8.3,14.2c6.2,0,10.1-1.3,14.5-6.4h0.2
			c-0.2,1.7-0.1,3.5,0.2,5.1H280c-0.5-2.9-0.3-5,1-9.6l7-26c2.4-8.9,1.2-15.2-14.1-15.2c-9.7,0-18.7,3.9-21.8,15.3l-0.3,1.2
			L263.3,148.3z M270.1,167.6c-1.3,4.5-5.3,7.6-10,7.6c-3.5,0-4-3.1-3-6.9c1.2-4.4,3.9-6.9,9.4-8c2.2-0.5,4.3-1.3,6.2-2.5
			L270.1,167.6z M287.5,182.6h12.9l8-29.7c1.8-6.6,7.4-8.9,11.9-8.9c1.3,0,2.7,0.1,4,0.2l3.2-12.1c-0.8-0.1-1.5-0.2-2.3-0.2
			c-5.3,0-9.8,3.1-13.7,7.9h-0.2l1.8-6.6h-12.3L287.5,182.6z M361.3,159.8l0.8-2.9c4.1-15.2,3.4-25.1-11.7-25.1
			c-17.4,0-23.3,12.3-26.8,25.6c-3.3,12.3-6.4,26.5,12.3,26.5c12.1,0,19.5-6.4,23-17.9h-11.6c-2.4,6.1-5,9.3-9.3,9.3
			c-4.8,0-4.8-5.7-3.3-11.5l1.1-3.9L361.3,159.8z M337.8,152.3l0.5-1.9c1.2-4.6,4.1-9.8,9.3-9.8c5.3,0,5.1,4.2,3.4,11.8L337.8,152.3
			z"/>
	</g>
</g>
</svg>
