<?xml version="1.0" encoding="utf-8"?>
<!-- Generator: Adobe Illustrator 24.0.0, SVG Export Plug-In . SVG Version: 6.00 Build 0)  -->
<svg version="1.1" id="Laag_1" xmlns="http://www.w3.org/2000/svg" xmlns:xlink="http://www.w3.org/1999/xlink" x="0px" y="0px"
	 viewBox="0 0 401.4 183.9" style="enable-background:new 0 0 401.4 183.9;" xml:space="preserve">
<style type="text/css">
	.st0{fill:#CF113A;stroke:#1D1D1B;stroke-width:4;stroke-miterlimit:10;}
	.st1{fill:#0560AA;stroke:#1D1D1B;stroke-width:4;stroke-miterlimit:10;}
</style>
<title>afas-wit</title>
<g id="Laag_2_1_">
	<g id="Laag_1-2">
		<path class="st0" d="M142.3,114.5h-30c0.1-0.4,0.2-0.8,0.2-1.1c6.8-35,17.8-76.3,30.4-111.2l0.2-0.7h0.7c24.7,0,49.3,0,74,0h1.3
			c-0.1,0.4-0.2,0.7-0.3,1.1c-1.8,6.6-3.6,13.5-5.5,20.6c-0.1,0.2-0.1,0.5-0.2,0.7h-0.8c-15.3,0-30.5,0-45.8,0
			c-0.6,0-1.1,0.4-1.3,0.9c-2,6.8-4,13.7-6,20.6c-0.2,0.7,0.2,1.4,0.9,1.6c0.1,0,0.2,0.1,0.4,0.1h41h1.4c-0.1,0.4-0.2,0.8-0.3,1.2
			c-2,7.3-3.9,14.7-5.9,22c-0.1,0.2-0.1,0.5-0.2,0.7h-0.8c-14.1,0-28.2,0-42.2,0c-0.6,0-1.1,0.4-1.3,1c-3.7,14.4-7.1,28.6-9.9,41.8
			C142.4,114.1,142.3,114.3,142.3,114.5"/>
		<path class="st1" d="M107.2,114.5h-1H77.9H77c0-0.3-0.1-0.6-0.1-0.9c-0.9-6.4-1.7-13-2.4-19.7c-0.1-0.7-0.6-1.2-1.3-1.2
			c-10.4-0.1-20.7-0.1-31-0.2c-0.5,0-0.9,0.3-1.2,0.7c-3.6,7-7.2,13.9-10.7,20.7l-0.3,0.5h-0.5H1.7H0l0.9-1.4
			C22.2,76.7,41.3,38.2,67.6,2l0.3-0.4h0.6h30.2h0.9v0.8c-1,37.2,1.5,74.4,7.5,111.1C107,113.8,107.1,114.2,107.2,114.5 M53.1,69.7
			h18.3c0.7,0,1.3-0.6,1.3-1.3v-0.1c-0.5-9-0.8-18-0.9-27c0-0.7-0.6-1.3-1.3-1.3c-0.5,0-0.9,0.2-1.1,0.7
			C63.7,50.3,58.3,60,53.1,69.7"/>
		<path class="st1" d="M288.7,114.5h-1h-28.3h-0.9c0-0.3,0-0.6,0-0.9c0.2-6.3,0.3-12.8,0.3-19.4c0-0.7-0.6-1.3-1.3-1.3h-32.1
			c-0.5,0-0.9,0.2-1.1,0.6c-4.3,7-8.5,13.9-12.6,20.4l-0.3,0.4h-30.1l0.9-1.3c21.7-34.7,47-76.7,67.1-111.3l0.3-0.4H281
			c0,0.3,0.1,0.6,0.1,0.9c5.7,36.8,8.2,74,7.6,111.2C288.7,113.8,288.7,114.1,288.7,114.5 M238.1,69.9h19.2c0.7,0,1.3-0.6,1.3-1.3
			l0,0c-0.2-9.2-0.6-18.5-1.1-27.6c0-0.7-0.7-1.3-1.4-1.2c-0.4,0-0.9,0.3-1.1,0.7C249.6,50.2,243.9,60.1,238.1,69.9"/>
		<path class="st1" d="M401.4,7.7c-1.9,7.4-3.7,14.7-5.5,22.1l-4.5,1.4c-3.2-3-6.9-5.4-10.9-7.1c-11.6-5.1-22.4-5.2-30.2-1.4
			c-5.8,2.9-10.5,9.5-6.3,15.4c3.6,5,25.4,6.8,35.9,13.9c11,7.5,9.7,19.1,7.8,27.1v0.1c-3.3,11.1-10.7,20.6-20.7,26.5
			c-10.7,7.1-23.9,10.2-38.7,10.2c-17.9,0-30.4-5-35.8-7.6c-0.6-0.3-0.9-1-0.7-1.6c2.6-7.3,5.2-14.8,7.5-22.5l4.8-1.1
			c3.7,4,8.2,7.2,13.2,9.2c9.8,3.8,34.9,8.2,40.8-8.3c1.8-5.1-1.6-8.9-7-10.7c-11.5-3.9-31.6-5.4-37.1-19
			c-2.2-5.4-2.5-11.6-0.9-19.8c2.4-10.5,7.8-18.1,18.4-24.9c22.1-14,47.6-9,53.9-7.6C390.9,3.1,396.3,5,401.4,7.7"/>
		<path class="st1" d="M38.5,166.4c-0.6,0-1.1,0.4-1.3,1l-0.2,0.8c-2.5,9.5-0.2,15.7,14.3,15.7c10.8,0,20.1-5.1,22.8-15.6
			c2-7.4,0.1-11.5-7.3-14.2l-7.1-2.6c-3.9-1.4-4.7-3.4-4-5.8c1-3.3,4.1-5.5,7.5-5.3c3.7,0,4.8,2,4.1,5.9c-0.1,0.7,0.3,1.4,1,1.5
			c0.1,0,0.2,0,0.2,0h8.9c0.6,0,1.1-0.4,1.3-1l0.3-1c2.4-8.9-1.7-14.1-13.4-14.1c-13.3,0-20.3,6.7-22.5,14.9c-1.9,7,0.6,11.3,7,13.8
			l8.2,3.2c2.3,0.9,4,2.4,3.2,5.6c-1.1,4-4.2,5.9-8.1,5.9c-4.4,0-6-2.9-4.8-7.2l0,0c0.2-0.7-0.2-1.4-0.9-1.6c-0.1,0-0.2,0-0.3,0
			L38.5,166.4z M81.7,157.9c-4.6,17.2-2.8,26.3,12.8,26c14.8,0,22.2-9.1,26.8-26c4.6-17.2,2.8-26.3-12.8-26
			C93.7,131.9,86.3,141,81.7,157.9 M94.6,157.9c2.7-10.1,5.2-17.4,11.6-17.4c5.2,0,5.6,5.1,2.3,17.4s-6.3,17.4-11.6,17.4
			C90.5,175.3,91.8,168,94.6,157.9 M124.3,182.6h10.2c0.6,0,1.1-0.4,1.3-1l10.4-38.9c0.1-0.6,0.7-1,1.3-1h5.4c0.6,0,1.1-0.4,1.3-1
			l1.6-6c0.2-0.7-0.2-1.4-0.9-1.6c-0.1,0-0.2,0-0.3,0h-4c-0.7,0-1.3-0.6-1.3-1.3c0-0.1,0-0.3,0.1-0.4l0.2-0.6c0.8-2.9,2.4-4,6-4
			c0.5,0,1,0,1.5,0c0.6,0,1.2-0.4,1.3-1l1.7-6.4c0.2-0.7-0.2-1.4-0.9-1.6c-0.1,0-0.2,0-0.2,0c-1.7-0.1-3.4-0.2-5.2-0.2
			c-8.3,0-14.2,2.9-16.6,11.9l-0.8,2.7c-0.1,0.6-0.7,1-1.3,1h-4.5c-0.6,0-1.1,0.4-1.3,1l-1.6,6c-0.2,0.7,0.2,1.4,0.9,1.6
			c0.1,0,0.2,0,0.4,0h3.1c0.7,0,1.3,0.6,1.3,1.3c0,0.1,0,0.2,0,0.3L123,181c-0.2,0.7,0.3,1.4,1,1.6
			C124.1,182.6,124.2,182.6,124.3,182.6z M164.3,133.1h-4.5c-0.6,0-1.1,0.4-1.3,1l-1.6,6c-0.2,0.7,0.2,1.4,0.9,1.6
			c0.1,0,0.2,0,0.4,0h3.1c0.7,0,1.3,0.6,1.3,1.3c0,0.1,0,0.2,0,0.3l-7.1,26.7c-2.7,10-1.6,13.1,8.4,13.1c2.7,0,5.1-0.2,7.6-0.5
			c0.6-0.1,1-0.5,1.1-1l1.6-6.1c0.2-0.7-0.2-1.4-0.9-1.6c-0.1,0-0.3-0.1-0.4,0c-0.4,0-0.7,0-1.1,0c-3.7,0-4.2-1.6-3.1-5.4l6.9-25.8
			c0.1-0.6,0.7-1,1.3-1h5.4c0.6,0,1.1-0.4,1.3-1l1.6-6c0.2-0.7-0.2-1.4-0.9-1.6c-0.1,0-0.2,0-0.3,0h-4c-0.7,0-1.3-0.6-1.3-1.3
			c0-0.1,0-0.2,0-0.3l2-7.2c0.2-0.7-0.2-1.4-0.9-1.6c-0.1,0-0.2,0-0.3,0h-10.2c-0.6,0-1.1,0.4-1.3,1l-2.4,8.6
			C165.4,132.7,164.9,133.1,164.3,133.1L164.3,133.1z M185.5,182.6h12.7c0.5,0,1-0.3,1.2-0.8l15.3-34.4h0.2l-2.7,33.7
			c-0.1,0.7,0.5,1.4,1.2,1.4h0.1H226c0.5,0,1-0.3,1.2-0.7L250,135c0.3-0.6,0.1-1.4-0.6-1.8c-0.2-0.1-0.4-0.1-0.6-0.1h-9.4
			c-0.5,0-1,0.3-1.2,0.8l-15.1,34.4h-0.2l2.7-33.7c0.1-0.7-0.5-1.4-1.2-1.4h-0.1h-11.7c-0.5,0-1,0.3-1.2,0.8L196,168.3h-0.2
			l3.4-33.7c0.1-0.7-0.5-1.4-1.2-1.4h-0.1h-10.1c-0.7,0-1.3,0.6-1.3,1.3l-2.2,46.9C184.2,182,184.8,182.6,185.5,182.6L185.5,182.6
			L185.5,182.6z M262.3,148.3c0.6,0,1.1-0.4,1.3-1l0.1-0.4c1-3.9,3.8-6.4,7.7-6.4c4.3,0,5.4,2.3,4.4,6.1c-0.9,3.3-2.6,4.8-6.7,5.8
			l-7.8,1.9c-9.5,2.4-14.4,6.2-16.9,15.4c-1.8,6.6-0.6,14.2,8.3,14.2c6.2,0,10.1-1.3,14.5-6.4h0.2c-0.1,1.3-0.1,2.7,0,4
			c0.1,0.7,0.6,1.2,1.3,1.1h9.7c0.7,0,1.3-0.6,1.3-1.3v-0.1c-0.2-2.2,0.2-4.3,1.2-8.1l7-26c2.4-8.9,1.2-15.2-14.1-15.2
			c-9.7,0-18.7,3.9-21.8,15.3l-0.3,1.2L262.3,148.3z M270.1,167.6c-1.3,4.5-5.3,7.6-10,7.6c-3.5,0-4-3.1-3-6.9
			c1.2-4.4,3.9-6.9,9.4-8c1.2-0.3,2.5-0.7,3.6-1.2c0.7-0.3,1.4,0,1.7,0.7c0.1,0.3,0.1,0.6,0.1,0.8L270.1,167.6z M289.3,182.6h10.1
			c0.6,0,1.1-0.4,1.3-1l7.7-28.7c1.8-6.6,7.4-8.9,11.9-8.9c1,0,1.9,0.1,2.9,0.1c0.6,0,1.2-0.4,1.4-1l2.6-9.6
			c0.2-0.7-0.2-1.4-0.9-1.6c-0.1,0-0.2,0-0.3,0h-0.7c-5.3,0-9.8,3.1-13.7,7.9h-0.2l1.3-5c0.2-0.7-0.2-1.4-0.9-1.6
			c-0.1,0-0.2,0-0.4,0h-9.6c-0.6,0-1.1,0.4-1.3,1L288,181c-0.2,0.7,0.3,1.4,1,1.6C289.1,182.6,289.2,182.6,289.3,182.6L289.3,182.6z
			 M360.3,159.8c0.6,0,1.1-0.4,1.3-1l0.5-1.9c4.1-15.2,3.4-25.1-11.7-25.1c-17.4,0-23.3,12.3-26.8,25.6
			c-3.3,12.3-6.4,26.5,12.3,26.5c11.5,0,18.7-5.8,22.4-16.2c0.2-0.7-0.2-1.4-0.9-1.7c-0.1,0-0.3-0.1-0.4-0.1h-8.9
			c-0.5,0-1,0.3-1.2,0.8c-2.3,5.5-4.9,8.5-9,8.5c-4.8,0-4.8-5.7-3.3-11.5l0.8-3c0.1-0.6,0.7-1,1.3-1L360.3,159.8z M339.5,152.3
			c-0.7,0-1.3-0.6-1.3-1.3c0-0.1,0-0.2,0-0.3l0.1-0.3c1.2-4.6,4.1-9.8,9.3-9.8s5.1,3.8,3.6,10.7c-0.1,0.6-0.7,1-1.3,1L339.5,152.3z"
			/>
	</g>
</g>
</svg>
